<svg width="160" height="39" viewBox="0 0 160 39" fill="none" xmlns="http://www.w3.org/2000/svg">
<g id="Frame" clip-path="url(#clip0_1_436)">
<g id="Type">
<g id="Group">
<path id="Vector" d="M42.0481 13.8224H58.2486V16.8224H51.8786V33.6869H48.3757V16.8224H42.0339V13.8224H42.0481ZM57.5565 19.3037H60.5509V22.0794H60.6074C60.7063 21.6869 60.8899 21.3084 61.1582 20.9439C61.4266 20.5794 61.7514 20.229 62.1328 19.9346C62.5142 19.6262 62.9379 19.3878 63.404 19.1916C63.8701 19.0093 64.3503 18.9112 64.8305 18.9112C65.1978 18.9112 65.4661 18.9252 65.6074 18.9392C65.7486 18.9533 65.8899 18.9813 66.0452 18.9953V22.0514C65.8192 22.0093 65.5933 21.9813 65.3531 21.9533C65.113 21.9252 64.887 21.9112 64.6611 21.9112C64.1243 21.9112 63.6159 22.0234 63.1356 22.2336C62.6554 22.4439 62.2458 22.7663 61.8927 23.1729C61.5396 23.5934 61.2571 24.0981 61.0452 24.7149C60.8334 25.3318 60.7345 26.0327 60.7345 26.8318V33.6729H57.5424V19.3037H57.5565ZM80.7204 33.6869H77.5848V31.6822H77.5283C77.1328 32.4112 76.5537 32.986 75.7769 33.4205C75 33.8551 74.2091 34.0794 73.404 34.0794C71.4972 34.0794 70.113 33.6168 69.2656 32.6776C68.4181 31.7383 67.9944 30.3224 67.9944 28.4299V19.3037H71.1865V28.1215C71.1865 29.3832 71.4266 30.2804 71.9209 30.7991C72.4012 31.3177 73.0933 31.5841 73.969 31.5841C74.6469 31.5841 75.1978 31.486 75.6498 31.2757C76.1017 31.0654 76.469 30.7991 76.7373 30.4486C77.0198 30.1121 77.2175 29.6916 77.3447 29.2149C77.4718 28.7383 77.5283 28.2196 77.5283 27.6589V19.3177H80.7204V33.6869ZM86.1582 29.0748C86.2571 30 86.6102 30.6448 87.2175 31.0234C87.839 31.3878 88.5735 31.5841 89.4351 31.5841C89.7317 31.5841 90.0707 31.5561 90.452 31.514C90.8334 31.472 91.2006 31.3738 91.5255 31.2476C91.8644 31.1215 92.1328 30.9252 92.3588 30.6729C92.5707 30.4205 92.6695 30.0981 92.6554 29.6916C92.6413 29.285 92.4859 28.9486 92.2034 28.6962C91.9209 28.4299 91.5678 28.2336 91.13 28.0654C90.6921 27.9112 90.1978 27.771 89.6328 27.6589C89.0678 27.5467 88.5029 27.4205 87.9238 27.2944C87.3305 27.1682 86.7514 27 86.2006 26.8177C85.6498 26.6355 85.1554 26.3832 84.7175 26.0607C84.2797 25.7523 83.9266 25.3458 83.6724 24.8551C83.404 24.3645 83.2769 23.7617 83.2769 23.0327C83.2769 22.2477 83.4746 21.6028 83.856 21.0701C84.2373 20.5374 84.7317 20.1168 85.3108 19.7944C85.904 19.472 86.5537 19.2477 87.2741 19.1075C87.9944 18.9813 88.6865 18.9112 89.3362 18.9112C90.0848 18.9112 90.8051 18.9953 91.4831 19.1495C92.1611 19.3037 92.7825 19.5561 93.3334 19.9205C93.8842 20.271 94.3362 20.7336 94.7034 21.2944C95.0707 21.8551 95.2966 22.542 95.3955 23.3411H92.0622C91.9068 22.5841 91.5678 22.0654 91.017 21.8131C90.4661 21.5467 89.8305 21.4205 89.1243 21.4205C88.8983 21.4205 88.63 21.4346 88.3192 21.4766C88.0085 21.5187 87.726 21.5888 87.4435 21.6869C87.1752 21.785 86.9492 21.9392 86.7515 22.1355C86.5678 22.3318 86.469 22.5841 86.469 22.9065C86.469 23.2991 86.6102 23.6075 86.8786 23.8458C87.1469 24.0841 87.5 24.2804 87.9379 24.4486C88.3757 24.6028 88.8701 24.743 89.4351 24.8551C90 24.9673 90.5791 25.0934 91.1724 25.2196C91.7514 25.3458 92.3164 25.514 92.8814 25.6962C93.4464 25.8785 93.9407 26.1308 94.3786 26.4533C94.8164 26.7757 95.1695 27.1682 95.4379 27.6448C95.7063 28.1215 95.8475 28.7243 95.8475 29.4252C95.8475 30.2804 95.6498 30.9953 95.2543 31.5981C94.8588 32.1869 94.3503 32.6776 93.7288 33.042C93.1074 33.4065 92.4012 33.6869 91.6385 33.8551C90.8757 34.0234 90.113 34.1075 89.3644 34.1075C88.4464 34.1075 87.5989 34.0093 86.8221 33.7991C86.0452 33.5888 85.3673 33.2804 84.8023 32.8738C84.2373 32.4533 83.7854 31.9346 83.4605 31.3177C83.1356 30.7009 82.9661 29.9579 82.9379 29.1028H86.1582V29.0748ZM96.6949 19.3037H99.1102V14.986H102.302V19.3037H105.184V21.6729H102.302V29.3551C102.302 29.6916 102.316 29.972 102.345 30.2243C102.373 30.4626 102.444 30.6729 102.542 30.8411C102.641 31.0093 102.797 31.1355 103.009 31.2196C103.22 31.3037 103.489 31.3458 103.856 31.3458C104.082 31.3458 104.308 31.3458 104.534 31.3318C104.76 31.3177 104.986 31.2897 105.212 31.2336V33.6869C104.859 33.729 104.506 33.757 104.181 33.7991C103.842 33.8411 103.503 33.8551 103.15 33.8551C102.302 33.8551 101.624 33.771 101.116 33.6168C100.607 33.4626 100.198 33.2243 99.9153 32.9159C99.6187 32.6075 99.4351 32.229 99.3221 31.7663C99.2232 31.3037 99.1526 30.771 99.1385 30.1822V21.7009H96.7232V19.3037H96.6949ZM107.444 19.3037H110.466V21.2523H110.523C110.975 20.4112 111.596 19.8224 112.401 19.4579C113.206 19.0934 114.068 18.9112 115.014 18.9112C116.158 18.9112 117.147 19.1075 117.994 19.514C118.842 19.9065 119.548 20.4533 120.113 21.1542C120.678 21.8551 121.088 22.6682 121.37 23.5934C121.653 24.5187 121.794 25.514 121.794 26.5654C121.794 27.5327 121.667 28.472 121.412 29.3691C121.158 30.2804 120.777 31.0794 120.268 31.7804C119.76 32.4813 119.11 33.028 118.319 33.4486C117.528 33.8691 116.61 34.0794 115.537 34.0794C115.071 34.0794 114.605 34.0374 114.138 33.9533C113.672 33.8691 113.22 33.729 112.797 33.5467C112.373 33.3645 111.963 33.1262 111.61 32.8318C111.243 32.5374 110.946 32.2009 110.692 31.8224H110.636V39H107.444V19.3037V19.3037ZM118.602 26.5093C118.602 25.8645 118.517 25.2336 118.348 24.6168C118.178 24 117.924 23.4673 117.585 22.9906C117.246 22.514 116.822 22.1355 116.328 21.8551C115.819 21.5748 115.24 21.4205 114.59 21.4205C113.249 21.4205 112.232 21.8832 111.554 22.8084C110.876 23.7336 110.537 24.9673 110.537 26.5093C110.537 27.2383 110.622 27.9112 110.805 28.528C110.989 29.1448 111.243 29.6776 111.61 30.1262C111.963 30.5748 112.387 30.9252 112.881 31.1776C113.376 31.4439 113.955 31.5701 114.605 31.5701C115.339 31.5701 115.946 31.4159 116.455 31.1215C116.963 30.8271 117.373 30.4346 117.698 29.972C118.023 29.4953 118.263 28.9626 118.404 28.3598C118.531 27.757 118.602 27.1402 118.602 26.5093ZM124.237 13.8224H127.429V16.8224H124.237V13.8224ZM124.237 19.3037H127.429V33.6869H124.237V19.3037ZM130.283 13.8224H133.475V33.6869H130.283V13.8224ZM143.263 34.0794C142.105 34.0794 141.073 33.8832 140.17 33.5047C139.266 33.1262 138.503 32.5934 137.867 31.9346C137.246 31.2617 136.766 30.4626 136.441 29.5374C136.116 28.6121 135.946 27.5888 135.946 26.4813C135.946 25.3878 136.116 24.3785 136.441 23.4533C136.766 22.528 137.246 21.729 137.867 21.0561C138.489 20.3832 139.266 19.8645 140.17 19.486C141.073 19.1075 142.105 18.9112 143.263 18.9112C144.421 18.9112 145.452 19.1075 146.356 19.486C147.26 19.8645 148.023 20.3972 148.658 21.0561C149.28 21.729 149.76 22.528 150.085 23.4533C150.41 24.3785 150.579 25.3878 150.579 26.4813C150.579 27.5888 150.41 28.6121 150.085 29.5374C149.76 30.4626 149.28 31.2617 148.658 31.9346C148.037 32.6075 147.26 33.1262 146.356 33.5047C145.452 33.8832 144.421 34.0794 143.263 34.0794ZM143.263 31.5701C143.969 31.5701 144.59 31.4159 145.113 31.1215C145.636 30.8271 146.059 30.4346 146.398 29.9579C146.737 29.4813 146.977 28.9346 147.147 28.3318C147.302 27.729 147.387 27.1121 147.387 26.4813C147.387 25.8645 147.302 25.2617 147.147 24.6448C146.992 24.028 146.737 23.4953 146.398 23.0187C146.059 22.542 145.636 22.1635 145.113 21.8691C144.59 21.5748 143.969 21.4205 143.263 21.4205C142.557 21.4205 141.935 21.5748 141.412 21.8691C140.89 22.1635 140.466 22.5561 140.127 23.0187C139.788 23.4953 139.548 24.028 139.379 24.6448C139.223 25.2617 139.138 25.8645 139.138 26.4813C139.138 27.1121 139.223 27.729 139.379 28.3318C139.534 28.9346 139.788 29.4813 140.127 29.9579C140.466 30.4346 140.89 30.8271 141.412 31.1215C141.935 31.4299 142.557 31.5701 143.263 31.5701ZM151.511 19.3037H153.927V14.986H157.119V19.3037H160V21.6729H157.119V29.3551C157.119 29.6916 157.133 29.972 157.161 30.2243C157.189 30.4626 157.26 30.6729 157.359 30.8411C157.458 31.0093 157.613 31.1355 157.825 31.2196C158.037 31.3037 158.305 31.3458 158.672 31.3458C158.898 31.3458 159.124 31.3458 159.35 31.3318C159.576 31.3177 159.802 31.2897 160.028 31.2336V33.6869C159.675 33.729 159.322 33.757 158.997 33.7991C158.658 33.8411 158.319 33.8551 157.966 33.8551C157.119 33.8551 156.441 33.771 155.932 33.6168C155.424 33.4626 155.014 33.2243 154.732 32.9159C154.435 32.6075 154.251 32.229 154.138 31.7663C154.04 31.3037 153.969 30.771 153.955 30.1822V21.7009H151.54V19.3037H151.511Z" fill="#191919"/>
</g>
</g>
<g id="Star">
<path id="Vector_2" d="M38.3192 13.8224H23.6864L19.1667 0L14.6328 13.8224L0 13.8084L11.8503 22.3598L7.31638 36.1682L19.1667 27.6308L31.0028 36.1682L26.4831 22.3598L38.3192 13.8224Z" fill="#00B67A"/>
<path id="Vector_3" d="M27.5001 25.486L26.4831 22.3598L19.1667 27.6308L27.5001 25.486Z" fill="#005128"/>
</g>
</g>
<defs>
<clipPath id="clip0_1_436">
<rect width="160" height="39" fill="white"/>
</clipPath>
</defs>
</svg>
