<svg width="50" height="56" viewBox="0 0 50 56" fill="none" xmlns="http://www.w3.org/2000/svg">
<g id="Frame" clip-path="url(#clip0_1_889)">
<g id="UI">
<g id="Home-D">
<g id="footer">
<g id="social">
<g id="instagram-icon">
<path id="Stroke-696" opacity="0.3" fill-rule="evenodd" clip-rule="evenodd" d="M49 28.0001C49 42.8449 38.2563 54.8801 25 54.8801C11.7437 54.8801 1 42.8449 1 28.0001C1 13.153 11.7437 1.12012 25 1.12012C38.2563 1.12012 49 13.153 49 28.0001Z" stroke="white" stroke-linecap="round" stroke-linejoin="round"/>
<path id="Combined-Shape" fill-rule="evenodd" clip-rule="evenodd" d="M31.4108 39.2003H18.5892C16.6077 39.2003 15 37.3997 15 35.1786V20.8185C15 18.6009 16.6077 16.8003 18.5892 16.8003H31.4108C33.3923 16.8003 35 18.6009 35 20.8185V35.1786C35 37.3997 33.3923 39.2003 31.4108 39.2003ZM30.2415 27.7398C30.2415 24.3535 27.7891 21.6089 24.7674 21.6089C21.7439 21.6089 19.2934 24.3535 19.2934 27.7398C19.2934 31.1241 21.7439 33.8708 24.7674 33.8708C27.7891 33.8708 30.2415 31.1241 30.2415 27.7398ZM32.8175 21.0078C32.8175 19.7462 31.9039 18.7237 30.7782 18.7237C29.6518 18.7237 28.7388 19.7462 28.7388 21.0078C28.7388 22.2686 29.6518 23.2919 30.7782 23.2919C31.9039 23.2919 32.8175 22.2686 32.8175 21.0078Z" fill="white" stroke="white" stroke-linejoin="round"/>
</g>
</g>
</g>
</g>
</g>
</g>
<defs>
<clipPath id="clip0_1_889">
<rect width="50" height="56" fill="white"/>
</clipPath>
</defs>
</svg>
