<svg width="62" height="68" viewBox="0 0 62 68" fill="none" xmlns="http://www.w3.org/2000/svg">
<g id="Frame">
<mask id="mask0_1_269" style="mask-type:alpha" maskUnits="userSpaceOnUse" x="14" y="15" width="34" height="38">
<g id="a">
<path id="Vector" d="M26.5131 15.3557L30.3171 17.9007H31.0781L34.8831 15.3557L37.9261 16.2041L40.2091 18.7491L45.5351 21.294L47.0571 26.3829L45.5351 32.3201L47.0571 37.41L45.5351 40.8022V45.8922L42.4921 50.9811L34.8821 51.8283L30.3171 47.5877L22.7091 52.6777L16.6211 48.4361L15.8611 40.8022L14.3391 37.41L15.8601 34.0167L14.3391 27.2312L16.6211 21.294L21.9481 18.7491L22.7081 16.2041L26.5131 15.3569V15.3557Z" fill="#C4C4C4"/>
</g>
</mask>
<g mask="url(#mask0_1_269)">
<g id="Group">
<path id="Vector_2" d="M44.8101 42.3852C44.9208 42.5954 45.1013 42.7487 45.3125 42.8119C45.5237 42.8751 45.7488 42.8432 45.9391 42.723C46.1275 42.5993 46.2648 42.3981 46.3213 42.1626C46.3778 41.9272 46.349 41.6764 46.2411 41.4644C46.1302 41.2546 45.9498 41.1018 45.7389 41.0389C45.5279 40.9759 45.3031 41.0078 45.1131 41.1278C44.9249 41.2514 44.7878 41.4524 44.7313 41.6876C44.6748 41.9228 44.7035 42.1733 44.8111 42.3852H44.8101ZM38.1231 53.7423C38.234 53.9521 38.4143 54.1049 38.6253 54.1679C38.8363 54.2308 39.061 54.1989 39.2511 54.079C39.4394 53.9555 39.5767 53.7546 39.6334 53.5194C39.6901 53.2842 39.6616 53.0335 39.5541 52.8215C39.4432 52.6115 39.2626 52.4584 39.0514 52.3954C38.8402 52.3325 38.6152 52.3646 38.4251 52.4849C38.2369 52.6085 38.0998 52.8095 38.0433 53.0447C37.9868 53.2799 38.0155 53.5304 38.1231 53.7423ZM42.8051 50.7291C42.916 50.9389 43.0963 51.0917 43.3073 51.1547C43.5183 51.2176 43.743 51.1857 43.9331 51.0658C44.1212 50.9422 44.2583 50.7411 44.3148 50.5059C44.3713 50.2707 44.3427 50.0202 44.2351 49.8083C44.1242 49.5986 43.9438 49.4458 43.7329 49.3828C43.5219 49.3198 43.2971 49.3517 43.1071 49.4717C42.9189 49.5953 42.7818 49.7963 42.7253 50.0315C42.6688 50.2667 42.6975 50.5172 42.8051 50.7291ZM39.1131 49.6266C39.2238 49.8366 39.4041 49.9896 39.6151 50.0528C39.8261 50.116 40.0509 50.0842 40.2411 49.9644C40.4292 49.8408 40.5663 49.6397 40.6228 49.4045C40.6793 49.1694 40.6507 48.9188 40.5431 48.707C40.4323 48.497 40.2521 48.344 40.0411 48.2808C39.8301 48.2176 39.6053 48.2493 39.4151 48.3692C39.2269 48.4928 39.0898 48.6939 39.0333 48.929C38.9768 49.1642 39.0055 49.4148 39.1131 49.6266ZM43.8221 46.5009C43.933 46.7106 44.1133 46.8634 44.3243 46.9264C44.5353 46.9894 44.76 46.9575 44.9501 46.8375C45.1382 46.7139 45.2753 46.5129 45.3318 46.2777C45.3883 46.0425 45.3597 45.792 45.2521 45.5801C45.1412 45.3703 44.9608 45.2175 44.7498 45.1545C44.5389 45.0916 44.3141 45.1235 44.1241 45.2434C43.9357 45.3668 43.7984 45.5678 43.7418 45.803C43.6851 46.0382 43.7136 46.2888 43.8211 46.5009H43.8221ZM46.4981 51.8327C46.609 52.0425 46.7893 52.1953 47.0003 52.2583C47.2113 52.3212 47.436 52.2893 47.6261 52.1694C47.8142 52.0458 47.9513 51.8447 48.0078 51.6095C48.0643 51.3743 48.0357 51.1238 47.9281 50.9119C47.8172 50.7022 47.6368 50.5494 47.4259 50.4864C47.2149 50.4234 46.9901 50.4554 46.8001 50.5753C46.6119 50.6989 46.4748 50.9 46.4183 51.1351C46.3618 51.3703 46.3905 51.6209 46.4981 51.8327ZM35.4201 48.5253C35.5311 48.7348 35.7116 48.8874 35.9225 48.9502C36.1335 49.0129 36.3581 48.9808 36.5481 48.8608C36.7362 48.7372 36.8733 48.5361 36.9298 48.3009C36.9863 48.0658 36.9577 47.8152 36.8501 47.6034C36.7392 47.3936 36.5588 47.2408 36.3478 47.1778C36.1369 47.1148 35.9121 47.1468 35.7221 47.2667C35.2301 47.4874 35.0921 48.0582 35.4201 48.5241V48.5253ZM40.1301 45.3973C40.241 45.6067 40.4211 45.7593 40.6319 45.8223C40.8426 45.8852 41.0671 45.8535 41.2571 45.7339C41.4454 45.6105 41.5827 45.4095 41.6394 45.1743C41.6961 44.9391 41.6676 44.6885 41.5601 44.4765C41.4493 44.2662 41.2689 44.113 41.0576 44.0498C40.8464 43.9866 40.6214 44.0185 40.4311 44.1387C40.2426 44.2623 40.1054 44.4636 40.0489 44.699C39.9924 44.9345 40.0212 45.1853 40.1291 45.3973H40.1301Z" fill="#0A3B3C"/>
<path id="Vector_3" d="M44.8101 42.3852C44.9208 42.5954 45.1013 42.7487 45.3125 42.8119C45.5238 42.8751 45.7488 42.8432 45.9391 42.723C46.1275 42.5993 46.2648 42.3981 46.3213 42.1626C46.3778 41.9272 46.349 41.6764 46.2411 41.4644C46.1302 41.2546 45.9499 41.1018 45.7389 41.0389C45.5279 40.9759 45.3032 41.0078 45.1131 41.1278C44.9248 41.2512 44.7875 41.4521 44.7308 41.6874C44.6741 41.9226 44.7026 42.1732 44.8101 42.3852ZM34.4331 52.6432C34.544 52.8529 34.7244 53.0057 34.9353 53.0687C35.1463 53.1317 35.371 53.0998 35.5611 52.9798C35.7495 52.8564 35.8868 52.6554 35.9434 52.4202C36.0001 52.185 35.9716 51.9344 35.8641 51.7224C35.7534 51.5121 35.5729 51.3589 35.3617 51.2957C35.1505 51.2325 34.9254 51.2644 34.7351 51.3846C34.5467 51.5082 34.4094 51.7095 34.3529 51.9449C34.2964 52.1804 34.3252 52.4312 34.4331 52.6432ZM30.6381 51.5083C30.749 51.7181 30.9294 51.8709 31.1403 51.9339C31.3513 51.9969 31.576 51.9649 31.7661 51.845C31.9543 51.7214 32.0914 51.5203 32.1479 51.2851C32.2043 51.0499 32.1757 50.7994 32.0681 50.5876C31.9572 50.3778 31.7769 50.225 31.5659 50.162C31.3549 50.099 31.1302 50.131 30.9401 50.2509C30.7519 50.3745 30.6149 50.5756 30.5584 50.8108C30.5019 51.0459 30.5305 51.2965 30.6381 51.5083ZM38.1241 53.7445C38.235 53.9543 38.4154 54.1071 38.6263 54.1701C38.8373 54.2331 39.062 54.2011 39.2521 54.0812C39.4404 53.9578 39.5778 53.7568 39.6344 53.5216C39.6911 53.2864 39.6626 53.0358 39.5551 52.8238C39.4442 52.6137 39.2637 52.4607 39.0525 52.3977C38.8412 52.3347 38.6163 52.3668 38.4261 52.4871C38.2379 52.6107 38.1009 52.8118 38.0444 53.0469C37.9879 53.2821 38.0165 53.5327 38.1241 53.7445ZM35.4221 48.5264C35.5328 48.7363 35.7131 48.8894 35.9241 48.9526C36.1351 49.0157 36.3599 48.984 36.5501 48.8641C36.7385 48.7405 36.8758 48.5393 36.9323 48.3038C36.9888 48.0684 36.96 47.8176 36.8521 47.6056C36.7412 47.3958 36.5609 47.243 36.3499 47.18C36.1389 47.1171 35.9142 47.149 35.7241 47.2689C35.2311 47.4897 35.0941 48.0604 35.4221 48.5264Z" fill="#0A3B3C"/>
<path id="Vector_4" d="M44.8101 42.383C44.9209 42.5929 45.1011 42.746 45.3121 42.8091C45.5231 42.8723 45.7479 42.8406 45.9381 42.7207C46.1267 42.5973 46.2642 42.3961 46.3209 42.1606C46.3776 41.9252 46.349 41.6743 46.2411 41.4622C46.1302 41.2521 45.9497 41.0991 45.7385 41.0361C45.5273 40.9731 45.3023 41.0052 45.1121 41.1255C44.924 41.2491 44.7869 41.4502 44.7304 41.6854C44.6739 41.9206 44.7025 42.1711 44.8101 42.383ZM42.1071 37.1648C42.218 37.3746 42.3984 37.5274 42.6094 37.5903C42.8203 37.6533 43.0451 37.6214 43.2351 37.5014C43.4233 37.3778 43.5604 37.1768 43.6169 36.9416C43.6734 36.7064 43.6447 36.4559 43.5371 36.244C43.4262 36.0342 43.2459 35.8814 43.0349 35.8185C42.8239 35.7555 42.5992 35.7874 42.4091 35.9073C42.221 36.031 42.0839 36.232 42.0274 36.4672C41.9709 36.7024 41.9995 36.9529 42.1071 37.1648ZM46.8171 34.0379C46.928 34.2477 47.1084 34.4005 47.3194 34.4635C47.5303 34.5264 47.7551 34.4945 47.9451 34.3746C48.1333 34.251 48.2704 34.0499 48.3269 33.8147C48.3834 33.5795 48.3547 33.329 48.2471 33.1171C48.1362 32.9074 47.9559 32.7545 47.7449 32.6916C47.5339 32.6286 47.3092 32.6605 47.1191 32.7805C46.7021 33.1461 46.5921 33.6032 46.8171 34.0379ZM43.1241 32.9343C43.235 33.1441 43.4154 33.2969 43.6264 33.3598C43.8373 33.4228 44.0621 33.3909 44.2521 33.271C44.4403 33.1473 44.5774 32.9463 44.6339 32.7111C44.6904 32.4759 44.6617 32.2254 44.5541 32.0135C44.4432 31.8038 44.2629 31.6509 44.0519 31.588C43.8409 31.525 43.6162 31.5569 43.4261 31.6769C43.0081 32.0414 42.8981 32.4995 43.1241 32.9343ZM45.8001 38.2684C45.911 38.4782 46.0914 38.631 46.3024 38.6939C46.5133 38.7569 46.7381 38.725 46.9281 38.6051C47.1163 38.4814 47.2534 38.2804 47.3099 38.0452C47.3664 37.81 47.3377 37.5595 47.2301 37.3476C47.1192 37.1379 46.9389 36.985 46.7279 36.9221C46.5169 36.8591 46.2922 36.891 46.1021 37.011C45.914 37.1346 45.7769 37.3356 45.7204 37.5708C45.6639 37.806 45.6925 38.0565 45.8001 38.2684ZM39.4331 31.8318C39.544 32.0416 39.7244 32.1944 39.9354 32.2574C40.1463 32.3203 40.3711 32.2884 40.5611 32.1685C40.7493 32.0449 40.8864 31.8438 40.9429 31.6086C40.9994 31.3734 40.9707 31.1229 40.8631 30.911C40.7524 30.7011 40.5721 30.548 40.3611 30.4848C40.1501 30.4217 39.9253 30.4534 39.7351 30.5733C39.3451 30.8252 39.1051 31.3647 39.4331 31.8318ZM44.1141 28.8186C44.2249 29.0289 44.4053 29.1821 44.6166 29.2453C44.8278 29.3085 45.0528 29.2766 45.2431 29.1564C45.4313 29.0328 45.5684 28.8317 45.6249 28.5965C45.6814 28.3614 45.6527 28.1108 45.5451 27.899C45.4344 27.689 45.2541 27.536 45.0431 27.4728C44.8321 27.4096 44.6073 27.4413 44.4171 27.5612C44.2288 27.6846 44.0915 27.8856 44.0348 28.1208C43.9781 28.356 44.0066 28.6066 44.1141 28.8186ZM35.4201 48.5253C35.5312 48.7348 35.7116 48.8874 35.9226 48.9502C36.1335 49.0129 36.3582 48.9808 36.5481 48.8608C36.7363 48.7372 36.8734 48.5361 36.9299 48.3009C36.9864 48.0657 36.9577 47.8152 36.8501 47.6034C36.7392 47.3936 36.5589 47.2408 36.3479 47.1778C36.1369 47.1148 35.9122 47.1468 35.7221 47.2667C35.2301 47.4874 35.0921 48.0582 35.4201 48.5241V48.5253ZM32.6431 43.1611C32.754 43.3708 32.9344 43.5236 33.1454 43.5866C33.3563 43.6496 33.5811 43.6176 33.7711 43.4977C33.9595 43.3743 34.0968 43.1733 34.1534 42.9381C34.2101 42.7029 34.1816 42.4523 34.0741 42.2403C33.9634 42.0303 33.7831 41.8773 33.5721 41.8141C33.3611 41.7509 33.1363 41.7827 32.9461 41.9025C32.7575 42.0259 32.62 42.2271 32.5633 42.4626C32.5067 42.6981 32.5353 42.9489 32.6431 43.1611ZM40.1301 45.3973C40.241 45.607 40.4214 45.7598 40.6324 45.8228C40.8433 45.8858 41.0681 45.8538 41.2581 45.7339C41.4463 45.6103 41.5834 45.4092 41.6399 45.1741C41.6964 44.9389 41.6677 44.6883 41.5601 44.4765C41.4494 44.2665 41.2691 44.1135 41.0581 44.0503C40.8471 43.9871 40.6223 44.0189 40.4321 44.1387C40.2435 44.2621 40.106 44.4633 40.0493 44.6988C39.9927 44.9343 40.0213 45.1851 40.1291 45.3973H40.1301ZM37.4271 40.1791C37.538 40.3888 37.7184 40.5417 37.9294 40.6046C38.1403 40.6676 38.3651 40.6357 38.5551 40.5157C38.7433 40.3921 38.8804 40.1911 38.9369 39.9559C38.9934 39.7207 38.9647 39.4702 38.8571 39.2583C38.7462 39.0485 38.5659 38.8957 38.3549 38.8328C38.1439 38.7698 37.9192 38.8017 37.7291 38.9216C37.2361 39.1413 37.0991 39.7131 37.4271 40.1791ZM33.6321 39.0432C33.7429 39.2531 33.9231 39.4062 34.1341 39.4693C34.3451 39.5325 34.5699 39.5008 34.7601 39.3809C34.9486 39.2573 35.0858 39.056 35.1423 38.8206C35.1988 38.5851 35.17 38.3344 35.0621 38.1224C34.9512 37.9126 34.7709 37.7598 34.5599 37.6968C34.3489 37.6339 34.1242 37.6658 33.9341 37.7857C33.746 37.9093 33.6089 38.1104 33.5524 38.3456C33.4959 38.5808 33.5245 38.8313 33.6321 39.0432ZM36.4371 44.2936C36.5479 44.5036 36.7281 44.6567 36.9391 44.7198C37.1501 44.783 37.3749 44.7513 37.5651 44.6314C37.7536 44.5078 37.8908 44.3065 37.9473 44.0711C38.0038 43.8356 37.975 43.5848 37.8671 43.3729C37.7562 43.1631 37.5759 43.0103 37.3649 42.9473C37.1539 42.8843 36.9292 42.9163 36.7391 43.0362C36.2471 43.2569 36.1091 43.8277 36.4371 44.2936ZM38.4161 36.0623C38.527 36.2721 38.7074 36.4249 38.9184 36.4879C39.1293 36.5508 39.3541 36.5189 39.5441 36.399C39.7325 36.2755 39.8698 36.0746 39.9264 35.8394C39.9831 35.6041 39.9546 35.3535 39.8471 35.1415C39.7364 34.9313 39.5559 34.778 39.3447 34.7148C39.1335 34.6516 38.9084 34.6836 38.7181 34.8037C38.2261 35.0245 38.0881 35.5963 38.4161 36.0623ZM41.1191 41.2816C41.23 41.4913 41.4104 41.6442 41.6214 41.7071C41.8323 41.7701 42.0571 41.7382 42.2471 41.6182C42.4353 41.4946 42.5724 41.2936 42.6289 41.0584C42.6854 40.8232 42.6567 40.5727 42.5491 40.3608C42.4382 40.151 42.2579 39.9982 42.0469 39.9352C41.8359 39.8723 41.6112 39.9042 41.4211 40.0241C41.233 40.1477 41.0959 40.3488 41.0394 40.584C40.9829 40.8192 41.0115 41.0697 41.1191 41.2816ZM29.9401 37.9418C30.051 38.1512 30.2312 38.3038 30.4419 38.3668C30.6527 38.4298 30.8772 38.398 31.0671 38.2784C31.2555 38.155 31.3928 37.954 31.4494 37.7188C31.5061 37.4836 31.4776 37.233 31.3701 37.021C31.2592 36.8112 31.0789 36.6584 30.8679 36.5954C30.6569 36.5325 30.4322 36.5644 30.2421 36.6843C30.0538 36.8078 29.9165 37.0087 29.8598 37.2439C29.8031 37.4791 29.8316 37.7298 29.9391 37.9418H29.9401ZM34.6201 34.9308C34.731 35.1409 34.9116 35.2939 35.1228 35.3569C35.334 35.4199 35.559 35.3878 35.7491 35.2675C35.9373 35.1439 36.0744 34.9428 36.1309 34.7076C36.1874 34.4724 36.1587 34.2219 36.0511 34.01C35.9402 33.8003 35.7599 33.6475 35.5489 33.5845C35.3379 33.5215 35.1132 33.5534 34.9231 33.6734C34.735 33.797 34.5979 33.998 34.5414 34.2332C34.4849 34.4684 34.5135 34.7189 34.6211 34.9308H34.6201Z" fill="#0A3B3C"/>
<path id="Vector_5" d="M44.812 42.3852C44.9228 42.5951 45.1031 42.7482 45.314 42.8114C45.525 42.8746 45.7499 42.8428 45.94 42.723C46.1286 42.5995 46.2661 42.3984 46.3228 42.1629C46.3795 41.9274 46.3509 41.6765 46.243 41.4644C46.1322 41.2543 45.9516 41.1013 45.7404 41.0383C45.5292 40.9753 45.3042 41.0075 45.114 41.1278C44.9259 41.2514 44.7888 41.4524 44.7323 41.6876C44.6758 41.9228 44.7045 42.1733 44.812 42.3852ZM42.109 37.1659C42.2198 37.3759 42.4001 37.5289 42.611 37.5921C42.822 37.6553 43.0469 37.6235 43.237 37.5037C43.4252 37.3801 43.5623 37.179 43.6188 36.9438C43.6753 36.7086 43.6466 36.4581 43.539 36.2462C43.4283 36.0363 43.248 35.8832 43.037 35.8201C42.8261 35.7569 42.6012 35.7886 42.411 35.9085C42.2226 36.0321 42.0853 36.2333 42.0288 36.4688C41.9723 36.7043 42.0011 36.955 42.109 37.167V37.1659ZM39.433 31.8329C39.5438 32.0429 39.7241 32.1959 39.935 32.2591C40.146 32.3223 40.3709 32.2905 40.561 32.1707C40.7497 32.0473 40.8871 31.8461 40.9438 31.6106C41.0005 31.3751 40.9719 31.1243 40.864 30.9121C40.7531 30.7021 40.5726 30.5491 40.3614 30.4861C40.1502 30.4231 39.9252 30.4552 39.735 30.5755C39.345 30.8274 39.105 31.367 39.433 31.8329ZM23.252 49.3C23.3628 49.5103 23.5432 49.6635 23.7545 49.7267C23.9657 49.7899 24.1908 49.758 24.381 49.6378C24.5692 49.5142 24.7063 49.3131 24.7628 49.0779C24.8193 48.8427 24.7906 48.5922 24.683 48.3803C24.5723 48.1704 24.392 48.0173 24.181 47.9542C23.9701 47.891 23.7452 47.9227 23.555 48.0426C23.3667 48.166 23.2294 48.367 23.1727 48.6022C23.1161 48.8374 23.1445 49.088 23.252 49.3ZM30.637 51.5061C30.7479 51.7159 30.9283 51.8687 31.1393 51.9317C31.3503 51.9946 31.575 51.9627 31.765 51.8428C31.9534 51.7193 32.0907 51.5184 32.1474 51.2832C32.204 51.048 32.1756 50.7973 32.068 50.5853C31.9572 50.3756 31.7768 50.2227 31.5658 50.1598C31.3548 50.0968 31.1301 50.1287 30.94 50.2487C30.7517 50.3721 30.6144 50.5731 30.5577 50.8083C30.5011 51.0435 30.5295 51.2941 30.637 51.5061ZM27.934 46.2868C28.0448 46.4968 28.2251 46.6498 28.436 46.713C28.647 46.7762 28.8719 46.7444 29.062 46.6246C29.2505 46.501 29.3878 46.2997 29.4443 46.0643C29.5008 45.8288 29.4719 45.578 29.364 45.366C29.2532 45.1563 29.0728 45.0035 28.8618 44.9405C28.6508 44.8775 28.4261 44.9095 28.236 45.0294C28.0479 45.153 27.9108 45.3541 27.8543 45.5892C27.7978 45.8244 27.8265 46.0749 27.934 46.2868ZM24.242 45.1855C24.3529 45.3952 24.5333 45.548 24.7443 45.611C24.9552 45.674 25.18 45.642 25.37 45.5221C25.5584 45.3987 25.6957 45.1977 25.7524 44.9625C25.809 44.7273 25.7806 44.4767 25.673 44.2647C25.5622 44.0546 25.3816 43.9016 25.1704 43.8386C24.9592 43.7756 24.7342 43.8077 24.544 43.928C24.3559 44.0516 24.2188 44.2527 24.1623 44.4879C24.1058 44.7231 24.1345 44.9736 24.242 45.1855ZM26.945 50.4047C27.0559 50.6148 27.2365 50.7678 27.4477 50.8308C27.6589 50.8938 27.8839 50.8617 28.074 50.7414C28.2622 50.6178 28.3993 50.4167 28.4558 50.1815C28.5123 49.9463 28.4836 49.6958 28.376 49.4839C28.2653 49.274 28.085 49.1209 27.874 49.0578C27.6631 48.9946 27.4382 49.0263 27.248 49.1462C27.0594 49.2696 26.922 49.4708 26.8653 49.7063C26.8086 49.9417 26.8372 50.1926 26.945 50.4047ZM28.95 42.0597C29.0609 42.2697 29.2415 42.4228 29.4527 42.4858C29.6639 42.5487 29.8889 42.5166 30.079 42.3963C30.2672 42.2727 30.4043 42.0717 30.4608 41.8365C30.5173 41.6013 30.4886 41.3508 30.381 41.1389C30.2703 40.9289 30.09 40.7759 29.879 40.7127C29.6681 40.6495 29.4432 40.6813 29.253 40.8011C29.0649 40.9247 28.9278 41.1258 28.8713 41.361C28.8148 41.5962 28.8435 41.8467 28.951 42.0586L28.95 42.0597ZM31.627 47.3916C31.7379 47.6013 31.9183 47.7541 32.1293 47.8171C32.3403 47.8801 32.565 47.8481 32.755 47.7282C32.9432 47.6046 33.0803 47.4035 33.1368 47.1684C33.1933 46.9332 33.1646 46.6827 33.057 46.4708C32.9463 46.2608 32.766 46.1078 32.555 46.0446C32.3441 45.9814 32.1192 46.0132 31.929 46.133C31.7406 46.2566 31.6033 46.4579 31.5468 46.6933C31.4903 46.9288 31.5191 47.1796 31.627 47.3916ZM20.445 44.0529C20.5558 44.2628 20.7361 44.4159 20.947 44.4791C21.158 44.5422 21.3829 44.5105 21.573 44.3906C21.7614 44.2672 21.8987 44.0662 21.9554 43.831C22.012 43.5958 21.9836 43.3452 21.876 43.1332C21.7653 42.9229 21.5849 42.7697 21.3736 42.7065C21.1624 42.6433 20.9373 42.6752 20.747 42.7954C20.5589 42.919 20.4218 43.1201 20.3653 43.3553C20.3088 43.5905 20.3375 43.841 20.445 44.0529ZM25.256 40.9572C25.3669 41.1673 25.5475 41.3203 25.7587 41.3833C25.9699 41.4463 26.1949 41.4141 26.385 41.2938C26.5732 41.1702 26.7103 40.9692 26.7668 40.734C26.8233 40.4988 26.7946 40.2483 26.687 40.0364C26.5762 39.8266 26.3958 39.6738 26.1848 39.6109C25.9738 39.5479 25.7491 39.5798 25.559 39.6997C25.3707 39.8232 25.2334 40.0241 25.1767 40.2594C25.1201 40.4946 25.1485 40.7452 25.256 40.9572ZM35.42 48.5253C35.5311 48.7348 35.7115 48.8874 35.9225 48.9502C36.1335 49.0129 36.3581 48.9808 36.548 48.8608C36.7362 48.7372 36.8733 48.5361 36.9298 48.3009C36.9863 48.0658 36.9576 47.8152 36.85 47.6034C36.7392 47.3936 36.5588 47.2408 36.3478 47.1778C36.1368 47.1148 35.9121 47.1468 35.722 47.2667C35.23 47.4874 35.092 48.0582 35.42 48.5241V48.5253ZM32.642 43.1611C32.7529 43.3708 32.9333 43.5236 33.1443 43.5866C33.3552 43.6496 33.58 43.6177 33.77 43.4977C33.9582 43.3741 34.0953 43.1731 34.1518 42.9379C34.2083 42.7027 34.1796 42.4522 34.072 42.2403C33.9613 42.0303 33.781 41.8773 33.57 41.8141C33.3591 41.7509 33.1342 41.7827 32.944 41.9025C32.7556 42.0261 32.6183 42.2274 32.5618 42.4628C32.5053 42.6983 32.5341 42.9491 32.642 43.1611ZM29.94 37.9418C30.0509 38.1515 30.2313 38.3044 30.4423 38.3673C30.6532 38.4303 30.878 38.3984 31.068 38.2784C31.2562 38.1548 31.3933 37.9538 31.4498 37.7186C31.5063 37.4834 31.4776 37.2329 31.37 37.021C31.2592 36.8112 31.0788 36.6584 30.8678 36.5954C30.6568 36.5325 30.4321 36.5644 30.242 36.6843C30.0539 36.808 29.9168 37.009 29.8603 37.2442C29.8038 37.4794 29.8325 37.7299 29.94 37.9418ZM18.47 52.2853C18.5808 52.495 18.7609 52.6478 18.9716 52.711C19.1824 52.7742 19.4069 52.7426 19.597 52.6231C19.7857 52.4997 19.9231 52.2985 19.9798 52.063C20.0365 51.8275 20.0079 51.5767 19.9 51.3645C19.7892 51.1548 19.6088 51.002 19.3978 50.939C19.1868 50.876 18.9621 50.9079 18.772 51.0279C18.5837 51.1513 18.4464 51.3523 18.3897 51.5875C18.3331 51.8227 18.3615 52.0733 18.469 52.2853H18.47ZM14.776 51.1817C14.8869 51.3915 15.0673 51.5443 15.2783 51.6073C15.4893 51.6702 15.714 51.6383 15.904 51.5184C16.0924 51.3949 16.2297 51.194 16.2864 50.9588C16.343 50.7236 16.3146 50.4729 16.207 50.2609C16.0962 50.0512 15.9158 49.8983 15.7048 49.8354C15.4938 49.7724 15.2691 49.8043 15.079 49.9243C14.8907 50.0477 14.7534 50.2487 14.6967 50.4839C14.6401 50.7191 14.6685 50.9697 14.776 51.1817ZM19.458 48.1708C19.5689 48.3805 19.7493 48.5333 19.9603 48.5963C20.1713 48.6593 20.396 48.6274 20.586 48.5074C20.7742 48.3838 20.9113 48.1828 20.9678 47.9476C21.0243 47.7124 20.9956 47.4619 20.888 47.25C20.7772 47.0402 20.5968 46.8874 20.3858 46.8244C20.1748 46.7615 19.9501 46.7934 19.76 46.9133C19.5719 47.0369 19.4348 47.238 19.3783 47.4732C19.3218 47.7084 19.3505 47.9589 19.458 48.1708ZM22.264 53.419C22.3748 53.629 22.5551 53.782 22.766 53.8452C22.977 53.9084 23.2019 53.8766 23.392 53.7568C23.5802 53.6332 23.7173 53.4321 23.7738 53.1969C23.8303 52.9618 23.8016 52.7112 23.694 52.4994C23.5832 52.2896 23.4028 52.1368 23.1918 52.0738C22.9808 52.0108 22.7561 52.0428 22.566 52.1627C22.3779 52.2863 22.2408 52.4874 22.1843 52.7226C22.1278 52.9577 22.1565 53.2083 22.264 53.4201V53.419ZM15.765 47.066C15.8758 47.276 16.0561 47.4291 16.267 47.4922C16.478 47.5554 16.7029 47.5237 16.893 47.4038C17.0812 47.2802 17.2183 47.0792 17.2748 46.844C17.3313 46.6088 17.3026 46.3583 17.195 46.1464C17.0843 45.9364 16.904 45.7834 16.693 45.7202C16.4821 45.657 16.2572 45.6888 16.067 45.8086C15.8789 45.9322 15.7418 46.1333 15.6853 46.3685C15.6288 46.6036 15.6575 46.8542 15.765 47.066Z" fill="#0A3B3C"/>
<path id="Vector_6" d="M23.252 49.3022C23.3627 49.5125 23.5431 49.6658 23.7544 49.729C23.9656 49.7921 24.1907 49.7602 24.381 49.64C24.5691 49.5164 24.7062 49.3153 24.7627 49.0802C24.8192 48.845 24.7905 48.5944 24.683 48.3826C24.5722 48.1726 24.3919 48.0196 24.181 47.9564C23.97 47.8932 23.7451 47.9249 23.555 48.0448C23.3666 48.1682 23.2293 48.3692 23.1726 48.6044C23.116 48.8396 23.1444 49.0902 23.252 49.3022ZM20.447 44.0529C20.5577 44.2628 20.738 44.4159 20.949 44.479C21.1599 44.5422 21.3848 44.5105 21.575 44.3906C21.7631 44.267 21.9002 44.066 21.9567 43.8308C22.0132 43.5956 21.9845 43.3451 21.877 43.1332C21.7662 42.9232 21.5859 42.7702 21.375 42.707C21.164 42.6438 20.9391 42.6756 20.749 42.7954C20.5608 42.919 20.4237 43.1201 20.3672 43.3553C20.3107 43.5905 20.3394 43.841 20.447 44.0529ZM46.091 20.5873C46.2018 20.797 46.3822 20.9499 46.5932 21.0128C46.8042 21.0758 47.0289 21.0439 47.219 20.9239C47.4073 20.8005 47.5446 20.5995 47.6013 20.3643C47.6579 20.1291 47.6295 19.8785 47.5219 19.6665C47.4111 19.4564 47.2305 19.3034 47.0193 19.2404C46.8081 19.1774 46.5831 19.2096 46.393 19.3298C46.2048 19.4535 46.0677 19.6545 46.0112 19.8897C45.9547 20.1249 45.9834 20.3754 46.091 20.5873ZM47.108 16.3568C47.2188 16.5666 47.3992 16.7194 47.6102 16.7823C47.8212 16.8453 48.0459 16.8134 48.236 16.6935C48.4241 16.5698 48.5612 16.3688 48.6177 16.1336C48.6742 15.8984 48.6455 15.6479 48.5379 15.436C48.4272 15.2261 48.2469 15.073 48.0359 15.0098C47.825 14.9466 47.6001 14.9784 47.41 15.0982C47.2215 15.2219 47.0842 15.4231 47.0277 15.6586C46.9712 15.894 47 16.1448 47.108 16.3568ZM43.415 15.2532C43.5257 15.4631 43.706 15.6162 43.917 15.6794C44.1279 15.7426 44.3528 15.7108 44.5429 15.591C44.7316 15.4675 44.869 15.2663 44.9257 15.0309C44.9824 14.7954 44.9538 14.5445 44.846 14.3324C44.7351 14.1226 44.5547 13.9698 44.3437 13.9069C44.1327 13.8439 43.908 13.8758 43.7179 13.9957C43.3279 14.2477 43.088 14.7872 43.415 15.2532ZM39.4339 31.8318C39.5448 32.0416 39.7252 32.1944 39.9362 32.2574C40.1472 32.3203 40.3719 32.2884 40.562 32.1685C40.7503 32.045 40.8876 31.8441 40.9443 31.6089C41.0009 31.3737 40.9725 31.123 40.865 30.911C40.7542 30.7008 40.5738 30.5475 40.3625 30.4843C40.1513 30.4211 39.9262 30.4531 39.736 30.5733C39.346 30.8252 39.1059 31.3647 39.4339 31.8318ZM36.629 26.5824C36.7397 26.7924 36.92 26.9454 37.131 27.0086C37.3419 27.0718 37.5668 27.04 37.757 26.9202C37.9451 26.7966 38.0822 26.5955 38.1387 26.3603C38.1952 26.1252 38.1665 25.8746 38.0589 25.6628C37.9482 25.4528 37.7679 25.2998 37.5569 25.2366C37.346 25.1734 37.1211 25.2051 36.931 25.325C36.7428 25.4486 36.6057 25.6497 36.5492 25.8848C36.4927 26.12 36.5214 26.3706 36.629 26.5824ZM44.115 28.8186C44.2257 29.0286 44.406 29.1816 44.617 29.2448C44.8279 29.308 45.0528 29.2762 45.243 29.1564C45.4311 29.0328 45.5682 28.8317 45.6247 28.5965C45.6812 28.3614 45.6525 28.1108 45.5449 27.899C45.4342 27.689 45.2539 27.536 45.0429 27.4728C44.832 27.4096 44.6071 27.4413 44.417 27.5612C44.2288 27.6848 44.0917 27.8859 44.0352 28.121C43.9787 28.3562 44.0074 28.6067 44.115 28.8186ZM41.4119 23.6016C41.5228 23.8113 41.7032 23.9642 41.9142 24.0271C42.1252 24.0901 42.3499 24.0582 42.54 23.9382C42.7283 23.8148 42.8656 23.6138 42.9223 23.3786C42.9789 23.1434 42.9505 22.8928 42.8429 22.6808C42.7321 22.471 42.5517 22.3182 42.3407 22.2552C42.1297 22.1923 41.905 22.2242 41.715 22.3441C41.222 22.5637 41.0849 23.1356 41.4119 23.6016ZM37.617 22.4656C37.7277 22.6759 37.9081 22.8292 38.1194 22.8924C38.3306 22.9556 38.5557 22.9236 38.7459 22.8034C38.9344 22.6798 39.0717 22.4785 39.1282 22.2431C39.1847 22.0076 39.1559 21.7568 39.048 21.5449C38.9371 21.3351 38.7567 21.1823 38.5457 21.1193C38.3347 21.0563 38.11 21.0883 37.9199 21.2082C37.7316 21.3316 37.5943 21.5326 37.5376 21.7678C37.481 22.003 37.5094 22.2536 37.617 22.4656ZM40.423 27.7161C40.5337 27.9261 40.714 28.0791 40.9249 28.1423C41.1359 28.2055 41.3608 28.1738 41.5509 28.0539C41.7394 27.9303 41.8767 27.729 41.9332 27.4936C41.9897 27.2581 41.9609 27.0073 41.853 26.7954C41.7421 26.5856 41.5617 26.4328 41.3507 26.3698C41.1397 26.3068 40.915 26.3388 40.7249 26.4587C40.2319 26.6794 40.095 27.2502 40.423 27.7161ZM42.402 19.4848C42.5128 19.6946 42.6932 19.8474 42.9042 19.9103C43.1152 19.9733 43.3399 19.9414 43.5299 19.8215C43.7181 19.6978 43.8552 19.4968 43.9117 19.2616C43.9682 19.0264 43.9395 18.7759 43.832 18.564C43.7212 18.3541 43.5409 18.201 43.33 18.1378C43.119 18.0746 42.8941 18.1064 42.7039 18.2262C42.2109 18.447 42.074 19.0177 42.402 19.4837V19.4848ZM45.104 24.7041C45.2148 24.9141 45.3954 25.0672 45.6066 25.1301C45.8178 25.1931 46.0428 25.161 46.233 25.0407C46.4211 24.9171 46.5582 24.7161 46.6147 24.4809C46.6712 24.2457 46.6425 23.9952 46.535 23.7833C46.4241 23.5735 46.2437 23.4207 46.0327 23.3577C45.8217 23.2948 45.597 23.3267 45.407 23.4466C45.2186 23.5701 45.0813 23.771 45.0246 24.0062C44.968 24.2414 44.9964 24.4921 45.104 24.7041ZM33.9249 21.3643C34.0358 21.574 34.2162 21.7269 34.4272 21.7898C34.6382 21.8528 34.8629 21.8209 35.053 21.7009C35.2411 21.5773 35.3782 21.3763 35.4347 21.1411C35.4912 20.9059 35.4625 20.6554 35.3549 20.4435C35.2441 20.2337 35.0637 20.0809 34.8527 20.0179C34.6417 19.955 34.417 19.9869 34.227 20.1068C34.0388 20.2304 33.9017 20.4315 33.8452 20.6667C33.7887 20.9019 33.8174 21.1524 33.9249 21.3643ZM38.6059 18.3533C38.7168 18.5631 38.8972 18.7159 39.1082 18.7789C39.3192 18.8418 39.5439 18.8099 39.734 18.69C39.9223 18.5665 40.0596 18.3656 40.1163 18.1304C40.1729 17.8952 40.1445 17.6445 40.0369 17.4325C39.9261 17.2228 39.7457 17.07 39.5347 17.007C39.3237 16.944 39.099 16.9759 38.909 17.0959C38.7206 17.2193 38.5833 17.4203 38.5266 17.6555C38.47 17.8907 38.4984 18.1413 38.6059 18.3533Z" fill="#0A3B3C"/>
<path id="Vector_7" d="M46.094 20.5895C46.2049 20.7993 46.3853 20.9521 46.5962 21.0151C46.8072 21.078 47.0319 21.0461 47.222 20.9262C47.4102 20.8026 47.5473 20.6015 47.6038 20.3663C47.6602 20.1311 47.6316 19.8806 47.524 19.6687C47.4133 19.4588 47.233 19.3057 47.022 19.2425C46.811 19.1794 46.5862 19.2111 46.396 19.331C46.2076 19.4546 46.0703 19.6558 46.0138 19.8913C45.9573 20.1267 45.9861 20.3775 46.094 20.5895ZM43.418 15.2554C43.5287 15.4654 43.709 15.6184 43.92 15.6816C44.131 15.7448 44.3558 15.713 44.546 15.5932C44.7344 15.4698 44.8717 15.2688 44.9283 15.0336C44.985 14.7984 44.9565 14.5478 44.849 14.3357C44.7383 14.1258 44.558 13.9727 44.347 13.9096C44.136 13.8464 43.9112 13.8781 43.721 13.998C43.331 14.2488 43.091 14.7894 43.418 15.2554ZM29.94 37.9418C30.0509 38.1515 30.2313 38.3044 30.4422 38.3673C30.6532 38.4303 30.8779 38.3984 31.068 38.2784C31.2562 38.1548 31.3933 37.9538 31.4498 37.7186C31.5062 37.4834 31.4776 37.2329 31.37 37.021C31.2591 36.8112 31.0788 36.6584 30.8678 36.5954C30.6568 36.5325 30.4321 36.5644 30.242 36.6843C30.0538 36.8079 29.9168 37.009 29.8603 37.2442C29.8038 37.4794 29.8324 37.7299 29.94 37.9418ZM27.236 32.7225C27.3467 32.9327 27.5272 33.086 27.7384 33.1492C27.9497 33.2124 28.1747 33.1805 28.365 33.0603C28.5532 32.9367 28.6903 32.7356 28.7468 32.5004C28.8032 32.2652 28.7746 32.0147 28.667 31.8028C28.5563 31.5929 28.376 31.4398 28.165 31.3766C27.954 31.3135 27.7292 31.3452 27.539 31.4651C27.3507 31.5885 27.2134 31.7895 27.1567 32.0247C27.1 32.2599 27.1285 32.5105 27.236 32.7225ZM34.621 34.9286C34.7319 35.1387 34.9124 35.2917 35.1237 35.3547C35.3349 35.4177 35.5599 35.3855 35.75 35.2653C35.9382 35.1416 36.0753 34.9406 36.1318 34.7054C36.1882 34.4702 36.1596 34.2197 36.052 34.0078C35.9411 33.798 35.7608 33.6452 35.5498 33.5823C35.3388 33.5193 35.1141 33.5512 34.924 33.6712C34.7357 33.7946 34.5984 33.9956 34.5417 34.2308C34.485 34.466 34.5135 34.7166 34.621 34.9286ZM31.947 29.5967C32.0579 29.8065 32.2383 29.9593 32.4492 30.0223C32.6602 30.0852 32.8849 30.0533 33.075 29.9334C33.2632 29.8098 33.4003 29.6087 33.4568 29.3735C33.5132 29.1383 33.4846 28.8878 33.377 28.6759C33.2661 28.4662 33.0858 28.3134 32.8748 28.2504C32.6638 28.1874 32.4391 28.2193 32.249 28.3393C31.831 28.7038 31.721 29.162 31.946 29.5967H31.947ZM28.253 28.4931C28.3639 28.7032 28.5444 28.8562 28.7557 28.9192C28.9669 28.9822 29.1919 28.9501 29.382 28.8298C29.5702 28.7062 29.7073 28.5051 29.7638 28.2699C29.8202 28.0347 29.7916 27.7842 29.684 27.5723C29.5733 27.3624 29.393 27.2093 29.182 27.1461C28.971 27.083 28.7462 27.1147 28.556 27.2346C28.138 27.6002 28.028 28.0573 28.253 28.492V28.4931ZM30.93 33.8272C31.0409 34.037 31.2213 34.1898 31.4322 34.2528C31.6432 34.3157 31.8679 34.2838 32.058 34.1639C32.2462 34.0403 32.3833 33.8392 32.4398 33.604C32.4962 33.3688 32.4676 33.1183 32.36 32.9064C32.2493 32.6965 32.069 32.5434 31.858 32.4802C31.647 32.4171 31.4222 32.4488 31.232 32.5687C31.0436 32.6923 30.9063 32.8935 30.8498 33.129C30.7933 33.3645 30.8221 33.6152 30.93 33.8272ZM32.935 25.4811C33.0459 25.6908 33.2263 25.8436 33.4372 25.9066C33.6482 25.9696 33.8729 25.9376 34.063 25.8177C34.2512 25.6941 34.3883 25.493 34.4448 25.2579C34.5012 25.0227 34.4726 24.7721 34.365 24.5603C34.2541 24.3505 34.0738 24.1977 33.8628 24.1347C33.6518 24.0717 33.4271 24.1037 33.237 24.2236C33.0488 24.3472 32.9118 24.5483 32.8553 24.7835C32.7988 25.0187 32.8274 25.2692 32.935 25.4811ZM35.638 30.6981C35.7489 30.9082 35.9294 31.0612 36.1407 31.1242C36.3519 31.1872 36.5768 31.155 36.767 31.0348C36.9552 30.9111 37.0923 30.7101 37.1488 30.4749C37.2052 30.2397 37.1766 29.9892 37.069 29.7773C36.9581 29.5676 36.7778 29.4147 36.5668 29.3518C36.3558 29.2888 36.1311 29.3207 35.941 29.4407C35.523 29.8063 35.413 30.2633 35.638 30.6981ZM24.458 27.3583C24.5689 27.5684 24.7494 27.7214 24.9607 27.7844C25.1719 27.8474 25.3969 27.8152 25.587 27.695C25.7752 27.5713 25.9123 27.3703 25.9688 27.1351C26.0252 26.8999 25.9966 26.6494 25.889 26.4375C25.7781 26.2278 25.5978 26.0749 25.3868 26.012C25.1758 25.949 24.9511 25.9809 24.761 26.1009C24.343 26.4654 24.233 26.9235 24.458 27.3583ZM29.242 24.3774C29.3529 24.5875 29.5334 24.7405 29.7447 24.8035C29.9559 24.8665 30.1809 24.8344 30.371 24.7141C30.5592 24.5905 30.6963 24.3894 30.7528 24.1542C30.8092 23.9191 30.7806 23.6685 30.673 23.4567C30.5621 23.2469 30.3818 23.0941 30.1708 23.0311C29.9598 22.9681 29.7351 23.0001 29.545 23.12C29.3567 23.2434 29.2194 23.4444 29.1627 23.6796C29.106 23.9148 29.1345 24.1654 29.242 24.3774ZM39.433 31.8318C39.5439 32.0416 39.7243 32.1944 39.9352 32.2574C40.1462 32.3203 40.3709 32.2884 40.561 32.1685C40.7494 32.045 40.8867 31.8441 40.9433 31.6089C41 31.3737 40.9715 31.123 40.864 30.911C40.7533 30.7008 40.5728 30.5475 40.3616 30.4843C40.1504 30.4211 39.9253 30.4531 39.735 30.5733C39.345 30.8252 39.105 31.3647 39.433 31.8318ZM36.627 26.5824C36.7377 26.7924 36.918 26.9454 37.129 27.0086C37.34 27.0718 37.5648 27.04 37.755 26.9202C37.9434 26.7968 38.0807 26.5958 38.1373 26.3606C38.194 26.1254 38.1655 25.8748 38.058 25.6628C37.9473 25.4528 37.767 25.2998 37.556 25.2366C37.345 25.1734 37.1202 25.2051 36.93 25.325C36.7417 25.4484 36.6044 25.6494 36.5477 25.8846C36.491 26.1198 36.5195 26.3704 36.627 26.5824ZM33.925 21.3643C34.0359 21.574 34.2163 21.7268 34.4272 21.7898C34.6382 21.8528 34.8629 21.8209 35.053 21.7009C35.2412 21.5773 35.3783 21.3763 35.4348 21.1411C35.4912 20.9059 35.4626 20.6554 35.355 20.4435C35.2441 20.2337 35.0638 20.0809 34.8528 20.0179C34.6418 19.955 34.4171 19.9869 34.227 20.1068C34.0388 20.2304 33.9018 20.4315 33.8453 20.6667C33.7888 20.9019 33.8174 21.1524 33.925 21.3643ZM20.448 44.0517C20.5589 44.2618 20.7394 44.4148 20.9507 44.4778C21.1619 44.5408 21.3869 44.5087 21.577 44.3884C21.7652 44.2648 21.9023 44.0637 21.9588 43.8285C22.0152 43.5934 21.9866 43.3428 21.879 43.131C21.7683 42.921 21.588 42.768 21.377 42.7048C21.166 42.6416 20.9412 42.6733 20.751 42.7932C20.5624 42.9166 20.4249 43.1178 20.3682 43.3533C20.3115 43.5887 20.3402 43.8396 20.448 44.0517ZM17.773 38.7188C17.8837 38.9287 18.064 39.0818 18.275 39.1449C18.486 39.2081 18.7108 39.1764 18.901 39.0565C19.0896 38.9331 19.2271 38.7319 19.2838 38.4964C19.3405 38.261 19.3118 38.0101 19.204 37.798C19.0931 37.5882 18.9128 37.4354 18.7018 37.3724C18.4908 37.3095 18.2661 37.3414 18.076 37.4613C17.8877 37.5847 17.7504 37.7857 17.6937 38.0209C17.637 38.2561 17.6655 38.5067 17.773 38.7188ZM25.26 40.9561C25.3711 41.1656 25.5515 41.3182 25.7625 41.381C25.9734 41.4437 26.1981 41.4116 26.388 41.2916C26.5762 41.168 26.7133 40.9669 26.7698 40.7318C26.8262 40.4966 26.7976 40.2461 26.69 40.0342C26.5791 39.8244 26.3988 39.6716 26.1878 39.6086C25.9768 39.5457 25.7521 39.5776 25.562 39.6975C25.3737 39.8209 25.2364 40.0219 25.1797 40.2571C25.123 40.4923 25.1515 40.7429 25.259 40.955L25.26 40.9561ZM22.455 35.7056C22.5659 35.9153 22.7463 36.0682 22.9572 36.1311C23.1682 36.1941 23.3929 36.1622 23.583 36.0422C23.7712 35.9186 23.9083 35.7176 23.9648 35.4824C24.0212 35.2472 23.9926 34.9967 23.885 34.7848C23.7741 34.575 23.5938 34.4222 23.3828 34.3592C23.1718 34.2963 22.9471 34.3282 22.757 34.4481C22.5688 34.5718 22.4318 34.7728 22.3753 35.008C22.3188 35.2432 22.3474 35.4937 22.455 35.7056ZM18.762 34.602C18.8729 34.8117 19.0533 34.9646 19.2642 35.0275C19.4752 35.0905 19.6999 35.0586 19.89 34.9386C20.0782 34.815 20.2153 34.614 20.2718 34.3788C20.3282 34.1436 20.2996 33.8931 20.192 33.6812C20.0811 33.4714 19.9008 33.3186 19.6898 33.2556C19.4788 33.1927 19.2541 33.2246 19.064 33.3445C18.8758 33.4681 18.7388 33.6692 18.6823 33.9044C18.6258 34.1396 18.6544 34.3901 18.762 34.602ZM21.465 39.8201C21.5757 40.0301 21.756 40.1831 21.967 40.2463C22.178 40.3095 22.4028 40.2778 22.593 40.1579C22.7814 40.0345 22.9187 39.8335 22.9753 39.5983C23.032 39.3631 23.0035 39.1125 22.896 38.9005C22.7853 38.6905 22.605 38.5375 22.394 38.4743C22.183 38.4111 21.9582 38.4429 21.768 38.5627C21.5797 38.6861 21.4424 38.8871 21.3857 39.1223C21.329 39.3575 21.3575 39.6081 21.465 39.8201ZM23.443 31.591C23.5539 31.8008 23.7343 31.9536 23.9452 32.0166C24.1562 32.0795 24.3809 32.0476 24.571 31.9277C24.7594 31.8042 24.8967 31.6033 24.9533 31.3681C25.01 31.1329 24.9815 30.8823 24.874 30.6702C24.7631 30.4605 24.5828 30.3077 24.3718 30.2447C24.1608 30.1817 23.9361 30.2136 23.746 30.3336C23.5577 30.457 23.4204 30.658 23.3637 30.8932C23.307 31.1284 23.3355 31.379 23.443 31.591ZM26.25 36.8404C26.3609 37.0502 26.5413 37.203 26.7522 37.2659C26.9632 37.3289 27.1879 37.297 27.378 37.1771C27.5662 37.0534 27.7033 36.8524 27.7598 36.6172C27.8162 36.382 27.7876 36.1315 27.68 35.9196C27.5693 35.7097 27.389 35.5566 27.178 35.4934C26.967 35.4302 26.7422 35.462 26.552 35.5818C26.3634 35.7053 26.2259 35.9065 26.1692 36.1419C26.1125 36.3774 26.1412 36.6283 26.249 36.8404H26.25ZM15.07 33.5006C15.1809 33.7104 15.3613 33.8632 15.5722 33.9261C15.7832 33.9891 16.0079 33.9572 16.198 33.8373C16.3862 33.7136 16.5233 33.5126 16.5798 33.2774C16.6362 33.0422 16.6076 32.7917 16.5 32.5798C16.3891 32.37 16.2088 32.2172 15.9978 32.1543C15.7868 32.0913 15.5621 32.1232 15.372 32.2432C15.1837 32.3666 15.0464 32.5676 14.9897 32.8028C14.933 33.038 14.9615 33.2886 15.069 33.5006H15.07ZM19.75 30.4885C19.8607 30.6988 20.0412 30.852 20.2524 30.9152C20.4637 30.9784 20.6887 30.9465 20.879 30.8263C21.0672 30.7027 21.2043 30.5016 21.2608 30.2664C21.3172 30.0313 21.2886 29.7807 21.181 29.5689C21.0703 29.3589 20.89 29.2059 20.679 29.1427C20.468 29.0795 20.2432 29.1112 20.053 29.2311C19.8648 29.3547 19.7278 29.5558 19.6713 29.7909C19.6148 30.0261 19.6434 30.2766 19.751 30.4885H19.75Z" fill="#0A3B3C"/>
<path id="Vector_8" d="M29.9401 37.944C30.051 38.1541 30.2316 38.3071 30.4428 38.3701C30.654 38.4331 30.879 38.4009 31.0691 38.2807C31.2573 38.157 31.3944 37.956 31.4509 37.7208C31.5074 37.4856 31.4787 37.2351 31.3711 37.0232C31.2603 36.8135 31.0799 36.6606 30.8689 36.5977C30.6579 36.5347 30.4332 36.5666 30.2431 36.6866C30.055 36.8102 29.9179 37.0112 29.8614 37.2464C29.8049 37.4816 29.8335 37.7321 29.9411 37.944H29.9401ZM27.2381 32.7247C27.3489 32.9347 27.5291 33.0877 27.7401 33.1509C27.9511 33.2141 28.1759 33.1823 28.3661 33.0625C28.5545 32.9391 28.6918 32.7381 28.7485 32.5029C28.8051 32.2677 28.7766 32.0171 28.6691 31.8051C28.5584 31.5948 28.3779 31.4415 28.1667 31.3783C27.9555 31.3151 27.7304 31.3471 27.5401 31.4673C27.352 31.5909 27.2149 31.7919 27.1584 32.0271C27.1019 32.2623 27.1305 32.5128 27.2381 32.7247ZM24.4601 27.3605C24.571 27.5703 24.7514 27.7231 24.9624 27.7861C25.1733 27.849 25.3981 27.8171 25.5881 27.6972C25.7763 27.5736 25.9134 27.3725 25.9699 27.1373C26.0264 26.9021 25.9977 26.6516 25.8901 26.4397C25.7792 26.23 25.5989 26.0772 25.3879 26.0142C25.1769 25.9512 24.9522 25.9831 24.7621 26.1031C24.3441 26.4676 24.2341 26.9258 24.4601 27.3605ZM15.7661 47.0649C15.877 47.2747 16.0574 47.4275 16.2684 47.4905C16.4793 47.5534 16.7041 47.5215 16.8941 47.4016C17.0825 47.2781 17.2198 47.0772 17.2765 46.842C17.3331 46.6068 17.3046 46.3562 17.1971 46.1441C17.0864 45.9342 16.9061 45.7811 16.6951 45.7179C16.4841 45.6548 16.2593 45.6865 16.0691 45.8064C15.8805 45.9298 15.743 46.131 15.6864 46.3664C15.6297 46.6019 15.6583 46.8528 15.7661 47.0649ZM13.0641 41.8456C13.175 42.0554 13.3554 42.2082 13.5664 42.2712C13.7773 42.3342 14.0021 42.3022 14.1921 42.1823C14.3805 42.0589 14.5178 41.8579 14.5745 41.6227C14.6311 41.3875 14.6026 41.1369 14.4951 40.9249C14.3842 40.7148 14.2037 40.5618 13.9925 40.4988C13.7813 40.4358 13.5563 40.4679 13.3661 40.5882C13.178 40.7118 13.0409 40.9129 12.9844 41.1481C12.9279 41.3832 12.9565 41.6338 13.0641 41.8456ZM14.0801 37.6174C14.191 37.8271 14.3714 37.98 14.5824 38.0429C14.7933 38.1059 15.0181 38.074 15.2081 37.954C15.3963 37.8304 15.5334 37.6294 15.5899 37.3942C15.6464 37.159 15.6177 36.9085 15.5101 36.6966C15.3993 36.4868 15.2189 36.334 15.0079 36.271C14.7969 36.2081 14.5722 36.24 14.3821 36.3599C14.194 36.4836 14.0569 36.6846 14.0004 36.9198C13.9439 37.155 13.9725 37.4055 14.0801 37.6174ZM16.7561 42.9492C16.8669 43.1592 17.0471 43.3123 17.2581 43.3754C17.4691 43.4386 17.6939 43.4069 17.8841 43.287C18.0726 43.1634 18.2099 42.9621 18.2664 42.7267C18.3229 42.4912 18.294 42.2404 18.1861 42.0285C18.0753 41.8187 17.8949 41.6659 17.6839 41.6029C17.4729 41.5399 17.2482 41.5719 17.0581 41.6918C16.87 41.8154 16.7329 42.0165 16.6764 42.2517C16.6199 42.4869 16.6485 42.7374 16.7561 42.9492ZM20.4471 44.0517C20.558 44.2615 20.7384 44.4143 20.9494 44.4773C21.1603 44.5403 21.3851 44.5083 21.5751 44.3884C21.7635 44.265 21.9008 44.064 21.9575 43.8288C22.0141 43.5936 21.9856 43.343 21.8781 43.131C21.7674 42.921 21.5871 42.7679 21.3761 42.7048C21.1651 42.6416 20.9403 42.6733 20.7501 42.7932C20.5615 42.9166 20.424 43.1178 20.3674 43.3533C20.3107 43.5887 20.3393 43.8396 20.4471 44.0517ZM17.7721 38.7188C17.8829 38.9287 18.0631 39.0818 18.2741 39.1449C18.4851 39.2081 18.7099 39.1764 18.9001 39.0565C19.0886 38.9329 19.2259 38.7317 19.2824 38.4962C19.3389 38.2607 19.31 38.01 19.2021 37.798C19.0913 37.5882 18.9109 37.4354 18.6999 37.3724C18.4889 37.3095 18.2642 37.3414 18.0741 37.4613C17.886 37.5849 17.7489 37.786 17.6924 38.0212C17.6359 38.2564 17.6645 38.5069 17.7721 38.7188ZM15.0701 33.5006C15.181 33.7104 15.3614 33.8632 15.5724 33.9261C15.7833 33.9891 16.0081 33.9572 16.1981 33.8372C16.3863 33.7136 16.5234 33.5126 16.5799 33.2774C16.6364 33.0422 16.6077 32.7917 16.5001 32.5798C16.3893 32.37 16.2089 32.2172 15.9979 32.1543C15.7869 32.0913 15.5622 32.1232 15.3721 32.2432C15.1838 32.3666 15.0465 32.5676 14.9898 32.8028C14.9331 33.038 14.9616 33.2886 15.0691 33.5006H15.0701ZM43.4181 15.2554C43.5289 15.4654 43.7091 15.6184 43.9201 15.6816C44.1311 15.7448 44.3559 15.713 44.5461 15.5932C44.7343 15.4696 44.8714 15.2685 44.9279 15.0333C44.9844 14.7981 44.9557 14.5476 44.8481 14.3357C44.7374 14.1258 44.5571 13.9727 44.3461 13.9096C44.1351 13.8464 43.9103 13.8781 43.7201 13.998C43.3301 14.2488 43.0901 14.7894 43.4181 15.2554ZM33.9251 21.3643C34.036 21.5743 34.2166 21.7274 34.4278 21.7903C34.639 21.8533 34.864 21.8212 35.0541 21.7009C35.2423 21.5773 35.3794 21.3763 35.4359 21.1411C35.4924 20.9059 35.4637 20.6554 35.3561 20.4435C35.2453 20.2337 35.0649 20.0809 34.8539 20.0179C34.6429 19.955 34.4182 19.9869 34.2281 20.1068C34.0398 20.2303 33.9025 20.4312 33.8458 20.6664C33.7892 20.9016 33.8176 21.1522 33.9251 21.3643ZM31.2221 16.145C31.3329 16.3549 31.5131 16.508 31.7241 16.5712C31.9351 16.6344 32.1599 16.6026 32.3501 16.4828C32.5387 16.3593 32.6762 16.1581 32.7329 15.9227C32.7896 15.6872 32.761 15.4363 32.6531 15.2242C32.5422 15.0141 32.3617 14.8611 32.1505 14.7981C31.9393 14.7351 31.7143 14.7673 31.5241 14.8875C31.336 15.0112 31.1989 15.2122 31.1424 15.4474C31.0859 15.6826 31.1145 15.9331 31.2221 16.145ZM38.6071 18.3511C38.718 18.5608 38.8984 18.7137 39.1094 18.7766C39.3203 18.8396 39.5451 18.8077 39.7351 18.6877C39.9235 18.5643 40.0608 18.3633 40.1175 18.1281C40.1741 17.8929 40.1456 17.6423 40.0381 17.4303C39.9272 17.2202 39.7467 17.0672 39.5355 17.0042C39.3243 16.9412 39.0993 16.9734 38.9091 17.0936C38.721 17.2173 38.5839 17.4183 38.5274 17.6535C38.4709 17.8887 38.4995 18.1392 38.6071 18.3511ZM34.9151 17.2486C35.0259 17.4585 35.2061 17.6116 35.4171 17.6748C35.6281 17.738 35.8529 17.7062 36.0431 17.5864C36.2315 17.4629 36.3688 17.262 36.4255 17.0268C36.4821 16.7916 36.4536 16.5409 36.3461 16.3289C36.2354 16.119 36.0551 15.9659 35.8441 15.9027C35.6331 15.8396 35.4083 15.8713 35.2181 15.9912C35.0298 16.1146 34.8925 16.3156 34.8358 16.5508C34.7791 16.786 34.8076 17.0366 34.9151 17.2486Z" fill="#0A3B3C"/>
<path id="Vector_9" d="M43.4169 15.2554C43.5277 15.4654 43.7079 15.6184 43.9189 15.6816C44.1299 15.7448 44.3547 15.713 44.5449 15.5932C44.7331 15.4696 44.8702 15.2685 44.9267 15.0333C44.9832 14.7981 44.9545 14.5476 44.8469 14.3357C44.7362 14.1258 44.5559 13.9727 44.3449 13.9096C44.1339 13.8464 43.9091 13.8781 43.7189 13.998C43.3289 14.2488 43.0889 14.7894 43.4169 15.2554ZM24.4579 27.3628C24.5688 27.5725 24.7492 27.7253 24.9602 27.7883C25.1711 27.8513 25.3959 27.8194 25.5859 27.6994C25.7743 27.576 25.9116 27.375 25.9682 27.1398C26.0249 26.9046 25.9964 26.654 25.8889 26.442C25.778 26.2322 25.5977 26.0794 25.3867 26.0164C25.1757 25.9535 24.951 25.9854 24.7609 26.1053C24.3429 26.4698 24.2329 26.928 24.4579 27.3628ZM21.7559 22.1435C21.8668 22.3532 22.0472 22.5061 22.2582 22.569C22.4691 22.632 22.6939 22.6001 22.8839 22.4801C23.0721 22.3565 23.2092 22.1555 23.2657 21.9203C23.3222 21.6851 23.2935 21.4346 23.1859 21.2227C23.075 21.0129 22.8947 20.8601 22.6837 20.7971C22.4727 20.7342 22.248 20.7661 22.0579 20.886C21.8698 21.0097 21.7327 21.2107 21.6762 21.4459C21.6197 21.6811 21.6483 21.9316 21.7559 22.1435ZM29.2419 24.3797C29.3528 24.5894 29.5332 24.7423 29.7442 24.8052C29.9551 24.8682 30.1799 24.8363 30.3699 24.7163C30.5583 24.5929 30.6956 24.3919 30.7522 24.1567C30.8089 23.9215 30.7804 23.6709 30.6729 23.4589C30.562 23.2488 30.3815 23.0958 30.1703 23.0328C29.9591 22.9698 29.7341 23.002 29.5439 23.1222C29.3558 23.2459 29.2187 23.4469 29.1622 23.6821C29.1057 23.9173 29.1343 24.1678 29.2419 24.3797ZM26.4369 19.1303C26.5478 19.3404 26.7284 19.4934 26.9396 19.5564C27.1508 19.6194 27.3758 19.5872 27.5659 19.467C27.7541 19.3433 27.8912 19.1423 27.9477 18.9071C28.0042 18.6719 27.9755 18.4214 27.8679 18.2095C27.757 17.9998 27.5767 17.8469 27.3657 17.784C27.1547 17.721 26.93 17.7529 26.7399 17.8729C26.5516 17.9963 26.4143 18.1973 26.3576 18.4325C26.3009 18.6677 26.3294 18.9183 26.4369 19.1303ZM22.7449 18.0256C22.8557 18.2355 23.0359 18.3886 23.2469 18.4518C23.4579 18.5149 23.6827 18.4832 23.8729 18.3634C24.0611 18.2397 24.1982 18.0387 24.2547 17.8035C24.3112 17.5683 24.2825 17.3178 24.1749 17.1059C24.064 16.8961 23.8837 16.7433 23.6727 16.6804C23.4617 16.6174 23.237 16.6493 23.0469 16.7693C22.8588 16.8929 22.7217 17.0939 22.6652 17.3291C22.6087 17.5643 22.6373 17.8148 22.7449 18.0267V18.0256ZM25.4479 23.2449C25.5587 23.4548 25.7389 23.6079 25.9499 23.671C26.1609 23.7342 26.3857 23.7025 26.5759 23.5826C26.7644 23.459 26.9016 23.2578 26.9581 23.0223C27.0146 22.7868 26.9858 22.5361 26.8779 22.3241C26.767 22.1143 26.5867 21.9615 26.3757 21.8985C26.1647 21.8356 25.94 21.8675 25.7499 21.9874C25.5618 22.111 25.4247 22.3121 25.3682 22.5473C25.3117 22.7825 25.3403 23.033 25.4479 23.2449ZM27.4259 15.0157C27.5368 15.2255 27.7172 15.3783 27.9282 15.4413C28.1391 15.5043 28.3639 15.4723 28.5539 15.3524C28.7421 15.2288 28.8792 15.0277 28.9357 14.7925C28.9922 14.5574 28.9635 14.3068 28.8559 14.095C28.7452 13.885 28.5649 13.732 28.3539 13.6688C28.1429 13.6056 27.9181 13.6373 27.7279 13.7572C27.5395 13.8808 27.4022 14.0821 27.3457 14.3175C27.2892 14.553 27.318 14.8038 27.4259 15.0157ZM30.2319 20.2651C30.3428 20.4749 30.5232 20.6277 30.7342 20.6907C30.9451 20.7536 31.1699 20.7217 31.3599 20.6018C31.5481 20.4782 31.6852 20.2771 31.7417 20.0419C31.7982 19.8067 31.7695 19.5562 31.6619 19.3443C31.5512 19.1344 31.3709 18.9813 31.1599 18.9181C30.9489 18.855 30.7241 18.8867 30.5339 19.0066C30.3455 19.1302 30.2082 19.3314 30.1517 19.5669C30.0952 19.8024 30.124 20.0531 30.2319 20.2651ZM19.0519 16.922C19.1627 17.1319 19.3429 17.285 19.5539 17.3482C19.7649 17.4113 19.9897 17.3796 20.1799 17.2597C20.3683 17.1363 20.5056 16.9353 20.5622 16.7001C20.6189 16.4649 20.5904 16.2143 20.4829 16.0023C20.3722 15.7924 20.1919 15.6393 19.9809 15.5761C19.7699 15.5129 19.5451 15.5447 19.3549 15.6645C19.1663 15.788 19.0288 15.9891 18.9721 16.2246C18.9155 16.4601 18.9441 16.711 19.0519 16.9231V16.922ZM33.9249 21.3665C34.0358 21.5763 34.2162 21.7291 34.4272 21.792C34.6381 21.855 34.8629 21.8231 35.0529 21.7032C35.2411 21.5795 35.3782 21.3785 35.4347 21.1433C35.4912 20.9081 35.4625 20.6576 35.3549 20.4457C35.244 20.236 35.0637 20.0831 34.8527 20.0202C34.6417 19.9572 34.417 19.9891 34.2269 20.1091C34.0388 20.2327 33.9017 20.4337 33.8452 20.6689C33.7887 20.9041 33.8173 21.1546 33.9249 21.3665ZM31.2219 16.1472C31.3327 16.3572 31.5129 16.5102 31.7239 16.5734C31.9349 16.6366 32.1597 16.6048 32.3499 16.485C32.5384 16.3614 32.6756 16.1601 32.7321 15.9247C32.7886 15.6892 32.7598 15.4384 32.6519 15.2264C32.541 15.0167 32.3607 14.8639 32.1497 14.8009C31.9387 14.7379 31.714 14.7698 31.5239 14.8898C31.3358 15.0134 31.1987 15.2144 31.1422 15.4496C31.0857 15.6848 31.1143 15.9353 31.2219 16.1472ZM15.0679 33.5006C15.1788 33.7104 15.3592 33.8632 15.5702 33.9261C15.7811 33.9891 16.0059 33.9572 16.1959 33.8373C16.3843 33.7138 16.5216 33.5129 16.5782 33.2776C16.6349 33.0424 16.6064 32.7918 16.4989 32.5798C16.388 32.3701 16.2077 32.2172 15.9967 32.1543C15.7857 32.0913 15.561 32.1232 15.3709 32.2432C15.1826 32.3666 15.0453 32.5676 14.9886 32.8028C14.9319 33.038 14.9604 33.2886 15.0679 33.5006ZM19.7499 30.4874C19.8608 30.6972 20.0412 30.85 20.2522 30.913C20.4631 30.9759 20.6879 30.944 20.8779 30.8241C21.0661 30.7005 21.2032 30.4994 21.2597 30.2642C21.3162 30.029 21.2875 29.7785 21.1799 29.5666C21.0692 29.3567 20.8889 29.2036 20.6779 29.1404C20.4669 29.0773 20.2421 29.109 20.0519 29.2289C19.8635 29.3525 19.7262 29.5537 19.6697 29.7892C19.6132 30.0247 19.642 30.2754 19.7499 30.4874ZM17.0749 25.1544C17.1857 25.3644 17.3659 25.5174 17.5769 25.5806C17.7879 25.6438 18.0127 25.612 18.2029 25.4922C18.3914 25.3686 18.5286 25.1673 18.5851 24.9319C18.6416 24.6964 18.6128 24.4456 18.5049 24.2336C18.394 24.0239 18.2137 23.8711 18.0027 23.8081C17.7917 23.7451 17.567 23.7771 17.3769 23.897C16.9599 24.2626 16.8499 24.7197 17.0749 25.1544ZM13.2799 24.0207C13.3908 24.2305 13.5712 24.3833 13.7822 24.4463C13.9931 24.5092 14.2179 24.4773 14.4079 24.3574C14.5961 24.2338 14.7332 24.0327 14.7897 23.7975C14.8462 23.5623 14.8175 23.3118 14.7099 23.0999C14.5992 22.89 14.4189 22.7369 14.2079 22.6738C13.9969 22.6106 13.7721 22.6423 13.5819 22.7622C13.1639 23.1278 13.0539 23.586 13.2789 24.0207H13.2799ZM16.0579 29.3849C16.1687 29.5949 16.3489 29.7479 16.5599 29.8111C16.7709 29.8743 16.9957 29.8425 17.1859 29.7227C17.3744 29.5991 17.5116 29.3978 17.5681 29.1624C17.6246 28.9269 17.5958 28.6761 17.4879 28.4641C17.377 28.2544 17.1967 28.1016 16.9857 28.0386C16.7747 27.9756 16.55 28.0075 16.3599 28.1275C16.1718 28.2511 16.0347 28.4521 15.9782 28.6873C15.9217 28.9225 15.9503 29.173 16.0579 29.3849ZM18.0629 21.0399C18.1738 21.2499 18.3544 21.403 18.5656 21.466C18.7768 21.5289 19.0018 21.4968 19.1919 21.3765C19.3801 21.2529 19.5172 21.0519 19.5737 20.8167C19.6302 20.5815 19.6015 20.331 19.4939 20.1191C19.383 19.9093 19.2027 19.7565 18.9917 19.6935C18.7807 19.6306 18.556 19.6625 18.3659 19.7824C18.1776 19.9059 18.0403 20.1068 17.9836 20.342C17.9269 20.5772 17.9554 20.8279 18.0629 21.0399ZM20.7669 26.2569C20.8778 26.4667 21.0582 26.6195 21.2692 26.6825C21.4801 26.7454 21.7049 26.7135 21.8949 26.5936C22.0831 26.47 22.2202 26.2689 22.2767 26.0337C22.3332 25.7985 22.3045 25.548 22.1969 25.3361C22.0862 25.1262 21.9059 24.9731 21.6949 24.91C21.4839 24.8468 21.2591 24.8785 21.0689 24.9984C20.6509 25.364 20.5419 25.8211 20.7669 26.2569ZM14.2679 19.9073C14.3788 20.117 14.5592 20.2699 14.7702 20.3328C14.9811 20.3958 15.2059 20.3639 15.3959 20.2439C15.5841 20.1203 15.7212 19.9193 15.7777 19.6841C15.8342 19.4489 15.8055 19.1984 15.6979 18.9865C15.587 18.7767 15.4067 18.6239 15.1957 18.5609C14.9847 18.498 14.76 18.5299 14.5699 18.6498C14.3818 18.7735 14.2447 18.9745 14.1882 19.2097C14.1317 19.4449 14.1603 19.6954 14.2679 19.9073Z" fill="#0A3B3C"/>
<path id="Vector_10" d="M24.4601 27.3605C24.5709 27.57 24.7511 27.7226 24.9619 27.7856C25.1726 27.8485 25.3971 27.8168 25.5871 27.6972C25.7754 27.5738 25.9127 27.3728 25.9694 27.1376C26.0261 26.9024 25.9976 26.6518 25.8901 26.4397C25.7792 26.23 25.5988 26.0772 25.3878 26.0142C25.1769 25.9512 24.9521 25.9832 24.7621 26.1031C24.3441 26.4676 24.2341 26.9258 24.4591 27.3605H24.4601ZM21.7561 22.1413C21.867 22.351 22.0473 22.5038 22.2583 22.5668C22.4693 22.6298 22.694 22.5979 22.8841 22.4779C23.0722 22.3543 23.2093 22.1532 23.2658 21.9181C23.3223 21.6829 23.2937 21.4324 23.1861 21.2205C23.0752 21.0107 22.8948 20.8579 22.6838 20.7949C22.4729 20.732 22.2481 20.7639 22.0581 20.8838C21.8699 21.0074 21.7328 21.2085 21.6763 21.4437C21.6198 21.6789 21.6485 21.9294 21.7561 22.1413ZM19.0541 16.922C19.1648 17.1319 19.3451 17.285 19.5561 17.3482C19.7671 17.4113 19.9919 17.3796 20.1821 17.2597C20.3702 17.1361 20.5073 16.9351 20.5638 16.6999C20.6203 16.4647 20.5917 16.2142 20.4841 16.0023C20.3733 15.7924 20.1931 15.6393 19.9821 15.5761C19.7711 15.5129 19.5463 15.5447 19.3561 15.6645C19.1676 15.7882 19.0304 15.9894 18.9739 16.2249C18.9174 16.4603 18.9462 16.7111 19.0541 16.9231V16.922Z" fill="#0A3B3C"/>
<path id="Vector_11" d="M19.0531 16.922C19.1638 17.1319 19.3441 17.285 19.5551 17.3482C19.7661 17.4113 19.9909 17.3796 20.1811 17.2597C20.3693 17.1361 20.5063 16.9351 20.5628 16.6999C20.6193 16.4647 20.5907 16.2142 20.4831 16.0023C20.3724 15.7924 20.1921 15.6393 19.9811 15.5761C19.7701 15.5129 19.5453 15.5447 19.3551 15.6645C19.1667 15.7882 19.0294 15.9894 18.9729 16.2249C18.9164 16.4603 18.9452 16.7111 19.0531 16.9231V16.922Z" fill="#0A3B3C"/>
<mask id="mask1_1_269" style="mask-type:alpha" maskUnits="userSpaceOnUse" x="16" y="37" width="33" height="34">
<g id="b">
<path id="Vector_12" d="M42.5431 42.3339C44.8371 43.0184 46.5091 44.5824 47.5881 46.9133C48.3481 48.4405 48.5231 50.2665 48.4981 52.5049C48.2061 55.8458 46.9701 58.4321 44.5611 60.7853C42.5441 62.7841 40.1981 64.4473 37.2521 66.0503C34.3061 67.6522 31.1271 68.9487 27.5921 70.02C27.4961 69.9921 27.4961 69.9921 27.4691 70.1024C27.3741 70.0735 27.3741 70.0735 27.3051 69.9352C24.0921 66.2565 22.1111 63.4184 20.3471 60.5267C19.1201 58.3875 17.7821 55.8603 16.8621 52.8672C16.1241 50.4003 16.0801 48.0236 16.5681 45.5678C17.0561 43.1131 18.3081 40.8858 20.2711 39.1089C22.0611 37.6341 24.0191 37.1548 26.1741 37.5628L26.9391 37.7913C28.6591 38.3041 29.9871 39.1736 31.0171 40.4277C31.6491 41.208 32.0631 42.0407 32.3821 42.8445L32.4521 42.9838L33.6071 45.2033L35.4401 43.7586C37.3771 42.0909 39.5541 41.5592 42.1601 42.2202L42.5431 42.3339Z" fill="#C4C4C4"/>
</g>
</mask>
<g mask="url(#mask1_1_269)">
<g id="Group_2">
<path id="Vector_13" d="M46.579 51.4883C46.6897 51.6982 46.87 51.8513 47.081 51.9144C47.292 51.9776 47.5168 51.9459 47.707 51.826C47.8956 51.7026 48.0331 51.5014 48.0898 51.266C48.1465 51.0305 48.1178 50.7796 48.01 50.5675C47.8991 50.3574 47.7185 50.2044 47.5073 50.1414C47.2961 50.0784 47.0711 50.1105 46.881 50.2308C46.6928 50.3544 46.5557 50.5555 46.4992 50.7907C46.4428 51.0259 46.4714 51.2764 46.579 51.4883ZM42.887 50.3847C42.9979 50.5944 43.1782 50.7472 43.3892 50.8102C43.6002 50.8732 43.8249 50.8413 44.015 50.7213C44.2031 50.5977 44.3402 50.3966 44.3967 50.1615C44.4532 49.9263 44.4246 49.6758 44.317 49.4639C44.2061 49.2541 44.0257 49.1013 43.8148 49.0383C43.6038 48.9754 43.3791 49.0073 43.189 49.1272C43.0008 49.2508 42.8637 49.4519 42.8072 49.6871C42.7508 49.9223 42.7794 50.1728 42.887 50.3847ZM38.206 53.3978C38.3169 53.6076 38.4972 53.7604 38.7082 53.8234C38.9192 53.8864 39.1439 53.8544 39.334 53.7345C39.5223 53.6111 39.6596 53.4101 39.7163 53.1749C39.773 52.9397 39.7445 52.6891 39.637 52.4771C39.5261 52.267 39.3456 52.114 39.1343 52.051C38.9231 51.988 38.6981 52.0201 38.508 52.1404C38.3198 52.264 38.1827 52.4651 38.1262 52.7003C38.0698 52.9354 38.0984 53.186 38.206 53.3978Z" fill="#0A3B3C"/>
<path id="Vector_14" d="M42.8869 50.3869C42.9978 50.597 43.1783 50.75 43.3895 50.813C43.6008 50.876 43.8257 50.8438 44.0159 50.7236C44.2041 50.5999 44.3411 50.3989 44.3976 50.1637C44.4541 49.9285 44.4255 49.678 44.3179 49.4661C44.207 49.2564 44.0266 49.1035 43.8157 49.0406C43.6047 48.9776 43.38 49.0095 43.1899 49.1295C43.0015 49.2529 42.8642 49.4539 42.8076 49.6891C42.7509 49.9243 42.7794 50.1749 42.8869 50.3869Z" fill="#0A3B3C"/>
<path id="Vector_15" d="M42.886 50.3847C42.9969 50.5944 43.1773 50.7472 43.3882 50.8102C43.5992 50.8732 43.8239 50.8413 44.014 50.7213C44.2024 50.5979 44.3397 50.3969 44.3963 50.1617C44.453 49.9265 44.4245 49.6759 44.317 49.4639C44.2061 49.2538 44.0256 49.1008 43.8144 49.0378C43.6032 48.9748 43.3782 49.0069 43.188 49.1272C42.9999 49.2508 42.8628 49.4519 42.8063 49.6871C42.7498 49.9223 42.7784 50.1728 42.886 50.3847ZM40.183 45.1654C40.2937 45.3753 40.474 45.5284 40.685 45.5916C40.896 45.6548 41.1208 45.623 41.311 45.5032C41.4992 45.3795 41.6363 45.1785 41.6928 44.9433C41.7492 44.7081 41.7206 44.4576 41.613 44.2457C41.5023 44.0358 41.322 43.8827 41.111 43.8195C40.9 43.7564 40.6752 43.7881 40.485 43.9079C40.2969 44.0316 40.1598 44.2326 40.1033 44.4678C40.0468 44.703 40.0754 44.9535 40.183 45.1654ZM44.893 42.0396C45.0039 42.2494 45.1843 42.4022 45.3952 42.4652C45.6062 42.5281 45.8309 42.4962 46.021 42.3763C46.2092 42.2527 46.3463 42.0516 46.4028 41.8164C46.4592 41.5812 46.4306 41.3307 46.323 41.1188C46.2121 40.9091 46.0318 40.7563 45.8208 40.6933C45.6098 40.6303 45.3851 40.6622 45.195 40.7822C45.0069 40.9058 44.8698 41.1068 44.8133 41.342C44.7568 41.5772 44.7854 41.8277 44.893 42.0396ZM41.2 40.9349C41.3107 41.1448 41.491 41.2979 41.702 41.3611C41.913 41.4243 42.1378 41.3925 42.328 41.2727C42.5162 41.1491 42.6533 40.948 42.7098 40.7128C42.7662 40.4776 42.7376 40.2271 42.63 40.0152C42.5193 39.8053 42.339 39.6522 42.128 39.589C41.917 39.5259 41.6922 39.5576 41.502 39.6775C41.3139 39.8011 41.1768 40.0021 41.1203 40.2373C41.0638 40.4725 41.0924 40.723 41.2 40.9349ZM43.876 46.2701C43.9869 46.4799 44.1673 46.6327 44.3782 46.6957C44.5892 46.7586 44.8139 46.7267 45.004 46.6068C45.1922 46.4832 45.3293 46.2821 45.3858 46.0469C45.4422 45.8117 45.4136 45.5612 45.306 45.3493C45.1951 45.1396 45.0148 44.9867 44.8038 44.9238C44.5928 44.8608 44.3681 44.8927 44.178 45.0127C43.9899 45.1363 43.8528 45.3373 43.7963 45.5725C43.7398 45.8077 43.7684 46.0582 43.876 46.2701ZM45.881 37.9239C45.9917 38.1339 46.172 38.287 46.383 38.3501C46.594 38.4133 46.8188 38.3816 47.009 38.2617C47.1976 38.1383 47.3351 37.9371 47.3918 37.7016C47.4485 37.4662 47.4198 37.2153 47.312 37.0032C47.2011 36.7934 47.0208 36.6406 46.8098 36.5776C46.5988 36.5146 46.3741 36.5466 46.184 36.6665C45.9957 36.7899 45.8584 36.9909 45.8017 37.2261C45.745 37.4613 45.7735 37.7119 45.881 37.9239ZM37.507 39.8324C37.6177 40.0424 37.798 40.1954 38.009 40.2586C38.22 40.3218 38.4448 40.29 38.635 40.1702C38.8236 40.0467 38.9611 39.8456 39.0178 39.6101C39.0745 39.3746 39.0458 39.1237 38.938 38.9116C38.8271 38.7016 38.6466 38.5485 38.4354 38.4855C38.2241 38.4226 37.9992 38.4547 37.809 38.575C37.419 38.8258 37.179 39.3664 37.507 39.8324ZM42.189 36.8203C42.2999 37.0301 42.4803 37.1829 42.6912 37.2459C42.9022 37.3089 43.1269 37.2769 43.317 37.157C43.5052 37.0334 43.6423 36.8323 43.6988 36.5971C43.7552 36.362 43.7266 36.1114 43.619 35.8996C43.5081 35.6898 43.3278 35.537 43.1168 35.474C42.9058 35.411 42.6811 35.443 42.491 35.5629C42.3029 35.6865 42.1658 35.8876 42.1093 36.1228C42.0528 36.3579 42.0814 36.6085 42.189 36.8203ZM30.72 51.1617C30.8307 51.3719 31.0112 51.5252 31.2224 51.5884C31.4337 51.6516 31.6587 51.6196 31.849 51.4994C32.0375 51.3758 32.1747 51.1745 32.2312 50.9391C32.2877 50.7036 32.2589 50.4529 32.151 50.2409C32.0401 50.0311 31.8598 49.8783 31.6488 49.8153C31.4378 49.7523 31.2131 49.7843 31.023 49.9042C30.8347 50.0276 30.6974 50.2286 30.6407 50.4638C30.584 50.699 30.6125 50.9496 30.72 51.1617ZM38.207 53.3978C38.3179 53.6076 38.4983 53.7604 38.7092 53.8234C38.9202 53.8864 39.1449 53.8544 39.335 53.7345C39.5232 53.6109 39.6603 53.4098 39.7168 53.1746C39.7732 52.9395 39.7446 52.6889 39.637 52.4771C39.5261 52.2673 39.3458 52.1145 39.1348 52.0515C38.9238 51.9885 38.6991 52.0205 38.509 52.1404C38.3209 52.264 38.1838 52.4651 38.1273 52.7003C38.0708 52.9354 38.0994 53.186 38.207 53.3978ZM35.504 48.1797C35.6147 48.3896 35.795 48.5427 36.006 48.6059C36.217 48.6691 36.4418 48.6373 36.632 48.5175C36.8204 48.394 36.9577 48.1931 37.0143 47.9578C37.071 47.7226 37.0425 47.472 36.935 47.26C36.8243 47.0498 36.6438 46.8965 36.4326 46.8333C36.2214 46.7701 35.9963 46.802 35.806 46.9222C35.314 47.143 35.176 47.7148 35.504 48.1808V48.1797ZM31.71 47.0449C31.8209 47.2543 32.0011 47.4069 32.2118 47.4699C32.4226 47.5328 32.647 47.5011 32.837 47.3815C33.0254 47.2581 33.1627 47.0571 33.2193 46.8219C33.276 46.5867 33.2475 46.3361 33.14 46.1241C33.0291 45.914 32.8486 45.761 32.6374 45.698C32.4261 45.635 32.2012 45.6671 32.011 45.7874C31.8229 45.911 31.6858 46.1121 31.6293 46.3473C31.5728 46.5825 31.6014 46.833 31.709 47.0449H31.71ZM34.514 52.2954C34.6249 52.5051 34.8053 52.6579 35.0162 52.7209C35.2272 52.7839 35.4519 52.7519 35.642 52.632C35.8304 52.5086 35.9677 52.3076 36.0243 52.0724C36.081 51.8372 36.0525 51.5866 35.945 51.3746C35.8341 51.1648 35.6538 51.012 35.4428 50.949C35.2318 50.8861 35.0071 50.918 34.817 51.0379C34.324 51.2586 34.187 51.8294 34.514 52.2954ZM36.494 44.0629C36.6047 44.2728 36.785 44.4259 36.996 44.4891C37.207 44.5523 37.4318 44.5205 37.622 44.4007C37.8105 44.277 37.9477 44.0758 38.0042 43.8403C38.0607 43.6049 38.0319 43.3541 37.924 43.1421C37.8131 42.9324 37.6328 42.7795 37.4218 42.7166C37.2108 42.6536 36.9861 42.6855 36.796 42.8055C36.303 43.0262 36.166 43.5969 36.494 44.0629ZM39.196 49.2833C39.3069 49.4933 39.4875 49.6464 39.6987 49.7094C39.9099 49.7724 40.1349 49.7402 40.325 49.6199C40.5132 49.4963 40.6503 49.2953 40.7068 49.0601C40.7632 48.8249 40.7346 48.5744 40.627 48.3625C40.5161 48.1524 40.3356 47.9994 40.1244 47.9364C39.9131 47.8734 39.6882 47.9056 39.498 48.0258C39.3099 48.1495 39.1728 48.3505 39.1163 48.5857C39.0598 48.8209 39.0884 49.0714 39.196 49.2833ZM28.017 45.9435C28.1279 46.1532 28.3083 46.3061 28.5192 46.369C28.7302 46.432 28.9549 46.4001 29.145 46.2801C29.3332 46.1565 29.4703 45.9555 29.5268 45.7203C29.5832 45.4851 29.5546 45.2346 29.447 45.0227C29.3361 44.8129 29.1558 44.6601 28.9448 44.5971C28.7338 44.5342 28.5091 44.5661 28.319 44.686C28.1309 44.8097 27.9938 45.0107 27.9373 45.2459C27.8808 45.4811 27.9094 45.7316 28.017 45.9435ZM32.698 42.9325C32.8089 43.1423 32.9893 43.2951 33.2002 43.3581C33.4112 43.4211 33.6359 43.3891 33.826 43.2692C34.0144 43.1458 34.1517 42.9448 34.2083 42.7096C34.265 42.4744 34.2365 42.2238 34.129 42.0118C34.0183 41.8018 33.838 41.6487 33.627 41.5856C33.416 41.5224 33.1912 41.5541 33.001 41.674C32.8124 41.7974 32.6749 41.9986 32.6182 42.2341C32.5615 42.4695 32.5902 42.7204 32.698 42.9325Z" fill="#0A3B3C"/>
<path id="Vector_16" d="M42.89 50.3869C43.0009 50.5967 43.1812 50.7495 43.3922 50.8124C43.6032 50.8754 43.8279 50.8435 44.018 50.7235C44.2061 50.5999 44.3432 50.3989 44.3997 50.1637C44.4562 49.9285 44.4276 49.678 44.32 49.4661C44.2091 49.2563 44.0287 49.1035 43.8177 49.0406C43.6068 48.9776 43.382 49.0095 43.192 49.1294C43.0038 49.2531 42.8667 49.4541 42.8102 49.6893C42.7537 49.9245 42.7824 50.175 42.89 50.3869ZM40.185 45.1676C40.2957 45.3779 40.4762 45.5311 40.6874 45.5943C40.8986 45.6575 41.1237 45.6256 41.314 45.5054C41.5021 45.3818 41.6392 45.1807 41.6957 44.9455C41.7522 44.7103 41.7236 44.4598 41.616 44.2479C41.5052 44.038 41.325 43.8849 41.114 43.8218C40.903 43.7586 40.6782 43.7903 40.488 43.9102C40.2996 44.0336 40.1623 44.2346 40.1057 44.4698C40.049 44.705 40.0775 44.9556 40.185 45.1676ZM37.51 39.8346C37.6209 40.0444 37.8012 40.1972 38.0122 40.2602C38.2232 40.3231 38.4479 40.2912 38.638 40.1713C38.8261 40.0477 38.9632 39.8466 39.0197 39.6114C39.0762 39.3762 39.0476 39.1257 38.94 38.9138C38.8291 38.7041 38.6487 38.5513 38.4377 38.4883C38.2268 38.4253 38.002 38.4572 37.812 38.5772C37.422 38.828 37.182 39.3687 37.51 39.8346ZM26.038 54.1759C26.1489 54.3857 26.3292 54.5385 26.5402 54.6015C26.7512 54.6645 26.9759 54.6325 27.166 54.5126C27.3543 54.3892 27.4916 54.1882 27.5483 53.953C27.605 53.7178 27.5765 53.4672 27.469 53.2552C27.3582 53.0452 27.178 52.8921 26.967 52.829C26.756 52.7658 26.5312 52.7975 26.341 52.9174C25.923 53.283 25.813 53.7401 26.038 54.1759ZM22.345 53.0712C22.4557 53.2812 22.636 53.4342 22.847 53.4974C23.058 53.5606 23.2828 53.5288 23.473 53.409C23.6616 53.2856 23.7991 53.0844 23.8558 52.8489C23.9124 52.6134 23.8838 52.3626 23.776 52.1504C23.6651 51.9404 23.4845 51.7873 23.2733 51.7244C23.0621 51.6614 22.8371 51.6935 22.647 51.8138C22.23 52.1794 22.12 52.6365 22.345 53.0712ZM27.027 50.0603C27.1379 50.27 27.3182 50.4228 27.5292 50.4858C27.7402 50.5488 27.9649 50.5169 28.155 50.3969C28.3431 50.2733 28.4802 50.0723 28.5367 49.8371C28.5932 49.6019 28.5646 49.3514 28.457 49.1395C28.3461 48.9297 28.1657 48.7769 27.9547 48.7139C27.7438 48.651 27.519 48.6829 27.329 48.8028C27.1408 48.9264 27.0037 49.1275 26.9472 49.3627C26.8907 49.5979 26.9194 49.8484 27.027 50.0603ZM18.55 51.9364C18.6607 52.1463 18.841 52.2994 19.052 52.3626C19.263 52.4258 19.4878 52.394 19.678 52.2742C19.8663 52.1507 20.0036 51.9498 20.0603 51.7146C20.117 51.4794 20.0885 51.2287 19.981 51.0167C19.8702 50.8065 19.6898 50.6532 19.4785 50.59C19.2673 50.5268 19.0423 50.5588 18.852 50.679C18.435 51.0446 18.325 51.5016 18.55 51.9375V51.9364ZM23.334 48.9567C23.4449 49.1664 23.6252 49.3192 23.8362 49.3822C24.0472 49.4452 24.2719 49.4133 24.462 49.2933C24.6503 49.1699 24.7876 48.9689 24.8443 48.7337C24.901 48.4985 24.8725 48.2479 24.765 48.0359C24.6541 47.8261 24.4737 47.6733 24.2627 47.6103C24.0518 47.5474 23.827 47.5793 23.637 47.6992C23.4486 47.8226 23.3113 48.0236 23.2547 48.2588C23.198 48.494 23.2265 48.7446 23.334 48.9567ZM30.72 51.1616C30.8307 51.3713 31.0108 51.5241 31.2215 51.5873C31.4323 51.6505 31.6569 51.6189 31.847 51.4994C32.0356 51.376 32.1731 51.1748 32.2298 50.9393C32.2864 50.7039 32.2578 50.453 32.15 50.2409C32.0391 50.0311 31.8587 49.8783 31.6477 49.8153C31.4368 49.7523 31.212 49.7843 31.022 49.9042C30.8336 50.0276 30.6963 50.2286 30.6397 50.4638C30.583 50.699 30.6115 50.9496 30.719 51.1616H30.72ZM28.017 45.9435C28.1279 46.1532 28.3082 46.3061 28.5192 46.369C28.7302 46.432 28.9549 46.4001 29.145 46.2801C29.3331 46.1565 29.4702 45.9555 29.5267 45.7203C29.5832 45.4851 29.5546 45.2346 29.447 45.0227C29.3361 44.8129 29.1557 44.6601 28.9447 44.5971C28.7338 44.5342 28.509 44.5661 28.319 44.686C28.1308 44.8096 27.9937 45.0107 27.9372 45.2459C27.8807 45.4811 27.9094 45.7316 28.017 45.9435Z" fill="#0A3B3C"/>
<path id="Vector_17" d="M18.5509 51.9398C18.6618 52.1495 18.8421 52.3023 19.0531 52.3653C19.2641 52.4283 19.4888 52.3963 19.6789 52.2764C19.8672 52.153 20.0045 51.952 20.0612 51.7168C20.1179 51.4816 20.0894 51.231 19.9819 51.019C19.8712 50.809 19.6909 50.656 19.4799 50.5928C19.2689 50.5296 19.0441 50.5614 18.8539 50.6812C18.4359 51.0468 18.3259 51.505 18.5509 51.9398ZM37.5099 39.8346C37.6208 40.0444 37.8011 40.1972 38.0121 40.2602C38.2231 40.3232 38.4478 40.2912 38.6379 40.1713C38.8261 40.0477 38.9632 39.8466 39.0196 39.6114C39.0761 39.3762 39.0475 39.1257 38.9399 38.9139C38.829 38.7041 38.6487 38.5513 38.4377 38.4883C38.2267 38.4253 38.002 38.4573 37.8119 38.5772C37.4219 38.828 37.1819 39.3687 37.5099 39.8346ZM42.1899 36.8203C42.3008 37.0304 42.4813 37.1834 42.6926 37.2464C42.9038 37.3094 43.1287 37.2773 43.3189 37.157C43.5071 37.0334 43.6442 36.8323 43.7006 36.5971C43.7571 36.362 43.7285 36.1114 43.6209 35.8996C43.51 35.6898 43.3297 35.537 43.1187 35.474C42.9077 35.411 42.683 35.443 42.4929 35.5629C42.3047 35.6865 42.1677 35.8876 42.1112 36.1228C42.0547 36.3579 42.0833 36.6085 42.1909 36.8203H42.1899ZM28.0169 45.9435C28.1278 46.1533 28.3082 46.3061 28.5191 46.369C28.7301 46.432 28.9548 46.4001 29.1449 46.2801C29.3332 46.1567 29.4705 45.9557 29.5272 45.7205C29.5839 45.4853 29.5554 45.2347 29.4479 45.0227C29.337 44.8129 29.1567 44.6601 28.9457 44.5972C28.7347 44.5342 28.51 44.5661 28.3199 44.686C28.1316 44.8095 27.9943 45.0104 27.9376 45.2457C27.8809 45.4809 27.9094 45.7315 28.0169 45.9435ZM25.3139 40.7242C25.4248 40.934 25.6051 41.0868 25.8161 41.1498C26.0271 41.2127 26.2518 41.1808 26.4419 41.0609C26.6301 40.9373 26.7672 40.7362 26.8236 40.501C26.8801 40.2658 26.8515 40.0153 26.7439 39.8034C26.633 39.5937 26.4527 39.4408 26.2417 39.3779C26.0307 39.3149 25.806 39.3468 25.6159 39.4668C25.4277 39.5904 25.2907 39.7914 25.2342 40.0266C25.1777 40.2618 25.2063 40.5123 25.3139 40.7242ZM32.6989 42.9292C32.8096 43.1391 32.9899 43.2922 33.2009 43.3554C33.4119 43.4186 33.6367 43.3868 33.8269 43.267C34.0151 43.1434 34.1522 42.9423 34.2086 42.7071C34.2651 42.4719 34.2365 42.2214 34.1289 42.0095C34.0182 41.7996 33.8379 41.6465 33.6269 41.5833C33.4159 41.5202 33.1911 41.5519 33.0009 41.6718C32.8125 41.7954 32.6752 41.9966 32.6187 42.2321C32.5622 42.4675 32.591 42.7183 32.6989 42.9303V42.9292ZM30.0239 37.5973C30.1346 37.8073 30.3149 37.9603 30.5259 38.0235C30.7369 38.0867 30.9617 38.0549 31.1519 37.9351C31.3403 37.8115 31.4776 37.6102 31.5341 37.3748C31.5906 37.1393 31.5618 36.8885 31.4539 36.6765C31.343 36.4668 31.1627 36.314 30.9517 36.251C30.7407 36.188 30.516 36.2199 30.3259 36.3399C30.1377 36.4635 30.0007 36.6645 29.9442 36.8997C29.8877 37.1349 29.9163 37.3854 30.0239 37.5973ZM29.0069 41.8278C29.1176 42.0378 29.2979 42.1908 29.5089 42.254C29.7199 42.3172 29.9447 42.2854 30.1349 42.1656C30.3233 42.042 30.4606 41.8407 30.5171 41.6053C30.5736 41.3698 30.5448 41.119 30.4369 40.907C30.326 40.6973 30.1457 40.5445 29.9347 40.4815C29.7237 40.4185 29.499 40.4504 29.3089 40.5704C29.1207 40.694 28.9837 40.895 28.9272 41.1302C28.8707 41.3654 28.8993 41.6159 29.0069 41.8278ZM33.7159 38.6998C33.8268 38.9096 34.0071 39.0624 34.2181 39.1254C34.4291 39.1883 34.6538 39.1564 34.8439 39.0365C35.0321 38.9129 35.1692 38.7118 35.2256 38.4766C35.2821 38.2414 35.2535 37.9909 35.1459 37.779C35.0352 37.5691 34.8549 37.416 34.6439 37.3528C34.4329 37.2897 34.2081 37.3214 34.0179 37.4413C33.8295 37.5649 33.6922 37.7661 33.6357 38.0016C33.5792 38.2371 33.608 38.4878 33.7159 38.6998Z" fill="#0A3B3C"/>
<path id="Vector_18" d="M37.509 39.8346C37.6199 40.0444 37.8002 40.1972 38.0112 40.2602C38.2222 40.3231 38.4469 40.2912 38.637 40.1713C38.8252 40.0477 38.9622 39.8466 39.0187 39.6114C39.0752 39.3762 39.0466 39.1257 38.939 38.9138C38.8281 38.7041 38.6477 38.5513 38.4368 38.4883C38.2258 38.4253 38.0011 38.4572 37.811 38.5772C37.421 38.828 37.181 39.3687 37.509 39.8346ZM18.55 51.942C18.6609 52.1517 18.8412 52.3046 19.0522 52.3675C19.2632 52.4305 19.4879 52.3986 19.678 52.2786C19.8662 52.155 20.0032 51.954 20.0597 51.7188C20.1162 51.4836 20.0876 51.2331 19.98 51.0212C19.8693 50.8112 19.689 50.6582 19.478 50.595C19.267 50.5318 19.0422 50.5636 18.852 50.6834C18.435 51.0491 18.325 51.5072 18.55 51.942ZM15.848 46.7227C15.9589 46.9325 16.1392 47.0853 16.3502 47.1482C16.5612 47.2112 16.7859 47.1793 16.976 47.0593C17.1642 46.9357 17.3012 46.7347 17.3577 46.4995C17.4142 46.2643 17.3856 46.0138 17.278 45.8019C17.1671 45.5921 16.9867 45.4393 16.7758 45.3764C16.5648 45.3134 16.3401 45.3453 16.15 45.4653C15.9618 45.5889 15.8247 45.7899 15.7683 46.0251C15.7118 46.2603 15.7404 46.5108 15.848 46.7227ZM23.334 48.9589C23.4449 49.1686 23.6252 49.3215 23.8362 49.3844C24.0472 49.4474 24.2719 49.4155 24.462 49.2955C24.6503 49.1721 24.7876 48.9711 24.8443 48.7359C24.901 48.5007 24.8725 48.2501 24.765 48.0381C24.6541 47.828 24.4736 47.675 24.2623 47.612C24.0511 47.549 23.8262 47.5812 23.636 47.7014C23.4478 47.8251 23.3107 48.0261 23.2542 48.2613C23.1978 48.4965 23.2264 48.747 23.334 48.9589ZM20.53 43.7095C20.6409 43.919 20.821 44.0716 21.0318 44.1345C21.2425 44.1975 21.467 44.1658 21.657 44.0462C21.8453 43.9227 21.9826 43.7218 22.0393 43.4866C22.096 43.2514 22.0675 43.0007 21.96 42.7887C21.8491 42.5787 21.6686 42.4256 21.4573 42.3627C21.2461 42.2997 21.0212 42.3318 20.831 42.4521C20.6428 42.5757 20.5057 42.7767 20.4493 43.0119C20.3928 43.2471 20.4214 43.4976 20.529 43.7095H20.53ZM16.836 42.6059C16.9469 42.816 17.1274 42.969 17.3386 43.032C17.5499 43.095 17.7748 43.0628 17.965 42.9426C18.1532 42.8189 18.2903 42.6179 18.3467 42.3827C18.4032 42.1475 18.3746 41.897 18.267 41.6851C18.1563 41.4752 17.976 41.3221 17.765 41.2589C17.554 41.1958 17.3292 41.2275 17.139 41.3473C16.9504 41.4708 16.8129 41.672 16.7562 41.9074C16.6995 42.1429 16.7282 42.3938 16.836 42.6059ZM19.54 47.8241C19.6509 48.0338 19.8312 48.1867 20.0422 48.2496C20.2532 48.3126 20.4779 48.2807 20.668 48.1607C20.8562 48.0371 20.9932 47.8361 21.0497 47.6009C21.1062 47.3657 21.0776 47.1152 20.97 46.9033C20.8591 46.6935 20.6788 46.5407 20.4678 46.4777C20.2568 46.4148 20.0321 46.4467 19.842 46.5666C19.6538 46.6902 19.5167 46.8913 19.4603 47.1265C19.4038 47.3617 19.4324 47.6122 19.54 47.8241ZM21.518 39.5938C21.6287 39.8038 21.809 39.9568 22.02 40.02C22.231 40.0832 22.4558 40.0515 22.646 39.9316C22.8342 39.808 22.9712 39.6069 23.0277 39.3718C23.0842 39.1366 23.0556 38.8861 22.948 38.6742C22.8373 38.4642 22.657 38.3112 22.446 38.248C22.235 38.1848 22.0102 38.2166 21.82 38.3364C21.6318 38.46 21.4947 38.6611 21.4383 38.8963C21.3818 39.1314 21.4104 39.382 21.518 39.5938ZM24.324 44.8432C24.4347 45.0532 24.615 45.2062 24.826 45.2694C25.037 45.3326 25.2618 45.3008 25.452 45.181C25.6402 45.0574 25.7772 44.8563 25.8337 44.6211C25.8902 44.3859 25.8616 44.1354 25.754 43.9235C25.6433 43.7136 25.463 43.5605 25.252 43.4974C25.041 43.4342 24.8162 43.4659 24.626 43.5858C24.4378 43.7094 24.3007 43.9104 24.2443 44.1456C24.1878 44.3808 24.2164 44.6313 24.324 44.8432ZM17.825 38.4902C17.9357 38.7002 18.116 38.8532 18.327 38.9164C18.538 38.9796 18.7628 38.9478 18.953 38.828C19.1416 38.7046 19.2791 38.5034 19.3358 38.2679C19.3925 38.0324 19.3638 37.7816 19.256 37.5694C19.1451 37.3597 18.9647 37.2069 18.7538 37.1439C18.5428 37.0809 18.3181 37.1129 18.128 37.2328C17.9397 37.3562 17.8024 37.5572 17.7457 37.7924C17.689 38.0276 17.7175 38.2782 17.825 38.4902ZM28.017 45.9457C28.1279 46.1555 28.3082 46.3083 28.5192 46.3713C28.7302 46.4342 28.9549 46.4023 29.145 46.2824C29.3332 46.1588 29.4702 45.9577 29.5267 45.7225C29.5832 45.4873 29.5546 45.2368 29.447 45.0249C29.3363 44.815 29.156 44.6619 28.945 44.5987C28.734 44.5356 28.5092 44.5673 28.319 44.6872C28.1306 44.8108 27.9933 45.012 27.9368 45.2475C27.8803 45.4829 27.9091 45.7337 28.017 45.9457ZM25.313 40.7264C25.4239 40.9365 25.6044 41.0895 25.8156 41.1525C26.0269 41.2155 26.2518 41.1834 26.442 41.0631C26.6302 40.9395 26.7672 40.7384 26.8237 40.5032C26.8802 40.268 26.8516 40.0175 26.744 39.8056C26.6331 39.5959 26.4528 39.4431 26.2418 39.3801C26.0308 39.3171 25.8061 39.349 25.616 39.469C25.4277 39.5924 25.2904 39.7934 25.2337 40.0286C25.177 40.2638 25.2055 40.5144 25.313 40.7264ZM14.859 50.835C14.9697 51.045 15.15 51.198 15.361 51.2612C15.572 51.3244 15.7968 51.2926 15.987 51.1728C16.1754 51.0492 16.3127 50.8479 16.3692 50.6125C16.4257 50.377 16.3969 50.1262 16.289 49.9142C16.1781 49.7045 15.9977 49.5517 15.7868 49.4887C15.5758 49.4257 15.3511 49.4576 15.161 49.5776C14.743 49.9432 14.633 50.4003 14.859 50.835Z" fill="#0A3B3C"/>
<path id="Vector_19" d="M18.5511 51.9397C18.662 52.1495 18.8423 52.3023 19.0533 52.3653C19.2643 52.4283 19.489 52.3963 19.6791 52.2764C19.8672 52.1528 20.0043 51.9517 20.0608 51.7165C20.1173 51.4814 20.0887 51.2308 19.9811 51.019C19.8704 50.809 19.6901 50.656 19.4791 50.5928C19.2681 50.5296 19.0433 50.5613 18.8531 50.6812C18.4361 51.0468 18.3261 51.505 18.5511 51.9397ZM15.8481 46.7205C15.959 46.9302 16.1393 47.083 16.3503 47.146C16.5613 47.209 16.786 47.1771 16.9761 47.0571C17.1642 46.9335 17.3013 46.7325 17.3578 46.4973C17.4143 46.2621 17.3857 46.0116 17.2781 45.7997C17.1672 45.5899 16.9868 45.4371 16.7759 45.3741C16.5649 45.3112 16.3401 45.3431 16.1501 45.463C15.9619 45.5866 15.8248 45.7877 15.7683 46.0229C15.7118 46.2581 15.7405 46.5086 15.8481 46.7205ZM17.8261 38.488C17.937 38.6978 18.1173 38.8506 18.3283 38.9136C18.5393 38.9765 18.764 38.9446 18.9541 38.8247C19.1422 38.701 19.2793 38.5 19.3358 38.2648C19.3923 38.0296 19.3637 37.7791 19.2561 37.5672C19.1452 37.3575 18.9648 37.2046 18.7539 37.1417C18.5429 37.0787 18.3181 37.1106 18.1281 37.2306C17.9399 37.3542 17.8028 37.5552 17.7463 37.7904C17.6898 38.0256 17.7185 38.2761 17.8261 38.488Z" fill="#0A3B3C"/>
</g>
</g>
<mask id="mask2_1_269" style="mask-type:alpha" maskUnits="userSpaceOnUse" x="-14" y="28" width="34" height="34">
<g id="c">
<path id="Vector_20" d="M13.144 33.5508C15.438 34.2352 17.111 35.7992 18.189 38.1313C18.949 39.6585 19.125 41.4833 19.099 43.7218C18.808 47.0627 17.572 49.6489 15.162 52.0033C13.145 54.0009 10.799 55.6641 7.85302 57.2672C4.90802 58.8691 1.72802 60.1655 -1.80698 61.2379C-1.90298 61.2089 -1.90298 61.2089 -1.92898 61.3193C-2.02498 61.2903 -2.02498 61.2903 -2.09398 61.1521C-5.30698 57.4734 -7.28798 54.6352 -9.05198 51.7435C-10.278 49.6043 -11.617 47.0772 -12.537 44.0841C-13.275 41.6171 -13.318 39.2405 -12.831 36.7858C-12.343 34.33 -11.091 32.1038 -9.12698 30.3258C-7.33898 28.851 -5.37998 28.3716 -3.22398 28.7796L-2.45998 29.0081C-0.739979 29.5209 0.588021 30.3904 1.61802 31.6445C2.25002 32.4249 2.66502 33.2576 2.98302 34.0613L3.05302 34.2007L4.20802 36.4201L6.04202 34.9754C7.97902 33.3077 10.155 32.776 12.762 33.4371L13.144 33.5508Z" fill="#C4C4C4"/>
</g>
</mask>
<g mask="url(#mask2_1_269)">
<g id="Group_3">
<path id="Vector_21" d="M18.997 52.0724C19.1079 52.2822 19.2882 52.435 19.4992 52.4979C19.7102 52.5609 19.9349 52.529 20.125 52.409C20.3132 52.2854 20.4502 52.0844 20.5067 51.8492C20.5632 51.614 20.5346 51.3635 20.427 51.1516C20.3161 50.9418 20.1357 50.789 19.9248 50.7261C19.7138 50.6631 19.4891 50.695 19.299 50.8149C18.882 51.1795 18.772 51.6376 18.997 52.0724Z" fill="#0A3B3C"/>
<path id="Vector_22" d="M18.996 52.0724C19.1069 52.2822 19.2872 52.435 19.4982 52.4979C19.7092 52.5609 19.9339 52.529 20.124 52.409C20.3123 52.2856 20.4496 52.0847 20.5063 51.8494C20.563 51.6142 20.5345 51.3636 20.427 51.1516C20.3161 50.9418 20.1357 50.789 19.9247 50.7261C19.7138 50.6631 19.489 50.695 19.299 50.8149C18.881 51.1795 18.771 51.6376 18.996 52.0724ZM16.192 46.823C16.3029 47.0328 16.4832 47.1856 16.6942 47.2486C16.9052 47.3115 17.1299 47.2796 17.32 47.1597C17.5081 47.0361 17.6452 46.835 17.7017 46.5998C17.7582 46.3646 17.7296 46.1141 17.622 45.9022C17.5111 45.6925 17.3307 45.5396 17.1197 45.4767C16.9088 45.4137 16.684 45.4456 16.494 45.5656C16.3058 45.6892 16.1687 45.8902 16.1122 46.1254C16.0557 46.3606 16.0844 46.6111 16.192 46.823ZM17.18 42.7062C17.2909 42.916 17.4712 43.0688 17.6822 43.1318C17.8932 43.1947 18.1179 43.1628 18.308 43.0429C18.4966 42.9194 18.6341 42.7183 18.6908 42.4828C18.7474 42.2473 18.7188 41.9965 18.611 41.7843C18.5001 41.5746 18.3197 41.4217 18.1087 41.3588C17.8978 41.2958 17.673 41.3277 17.483 41.4477C17.2946 41.5711 17.1573 41.7721 17.1007 42.0073C17.044 42.2425 17.0725 42.4931 17.18 42.7051V42.7062ZM13.488 41.6026C13.599 41.8122 13.7794 41.9648 13.9904 42.0275C14.2014 42.0903 14.426 42.0582 14.616 41.9382C14.8041 41.8146 14.9412 41.6135 14.9977 41.3783C15.0542 41.1431 15.0256 40.8926 14.918 40.6807C14.8071 40.471 14.6267 40.3181 14.4157 40.2552C14.2048 40.1922 13.98 40.2241 13.79 40.3441C13.6018 40.4677 13.4647 40.6687 13.4082 40.9039C13.3517 41.1391 13.3804 41.3896 13.488 41.6015V41.6026ZM18.17 38.5906C18.2808 38.8 18.461 38.9526 18.6718 39.0156C18.8825 39.0785 19.107 39.0468 19.297 38.9272C19.4853 38.8038 19.6226 38.6028 19.6793 38.3676C19.736 38.1324 19.7075 37.8818 19.6 37.6698C19.4891 37.46 19.3087 37.3072 19.0977 37.2442C18.8868 37.1813 18.662 37.2132 18.472 37.3331C18.2836 37.4565 18.1463 37.6575 18.0897 37.8927C18.033 38.1279 18.0615 38.3785 18.169 38.5906H18.17ZM15.202 50.9353C15.3127 51.1453 15.493 51.2983 15.704 51.3615C15.915 51.4247 16.1398 51.393 16.33 51.2731C16.5184 51.1495 16.6557 50.9482 16.7122 50.7128C16.7687 50.4773 16.7399 50.2265 16.632 50.0146C16.5211 49.8048 16.3407 49.652 16.1297 49.589C15.9188 49.526 15.694 49.558 15.504 49.6779C15.086 50.0435 14.977 50.5006 15.202 50.9353Z" fill="#0A3B3C"/>
<path id="Vector_23" d="M18.9969 52.0702C19.1078 52.2802 19.2884 52.4333 19.4996 52.4962C19.7108 52.5592 19.9358 52.5271 20.1259 52.4068C20.3141 52.2832 20.4512 52.0822 20.5077 51.847C20.5642 51.6118 20.5355 51.3613 20.4279 51.1494C20.3171 50.9396 20.1367 50.7868 19.9257 50.7238C19.7147 50.6609 19.49 50.6928 19.2999 50.8127C18.8819 51.1773 18.7719 51.6354 18.9969 52.0702ZM16.1919 46.8197C16.3027 47.0296 16.4829 47.1827 16.6939 47.2459C16.9049 47.309 17.1298 47.2773 17.3199 47.1575C17.5081 47.0338 17.6452 46.8328 17.7017 46.5976C17.7582 46.3624 17.7295 46.1119 17.6219 45.9C17.5111 45.6902 17.3307 45.5374 17.1197 45.4745C16.9087 45.4115 16.684 45.4434 16.4939 45.5634C16.3058 45.687 16.1687 45.888 16.1122 46.1232C16.0557 46.3584 16.0844 46.6089 16.1919 46.8208V46.8197ZM13.4889 41.6037C13.5998 41.8135 13.7802 41.9663 13.9912 42.0293C14.2021 42.0923 14.4269 42.0603 14.6169 41.9404C14.8051 41.8168 14.9422 41.6157 14.9987 41.3805C15.0552 41.1454 15.0265 40.8948 14.9189 40.683C14.8081 40.4732 14.6277 40.3204 14.4167 40.2574C14.2057 40.1944 13.981 40.2264 13.7909 40.3463C13.6028 40.4699 13.4657 40.671 13.4092 40.9062C13.3527 41.1413 13.3814 41.3919 13.4889 41.6037Z" fill="#0A3B3C"/>
<path id="Vector_24" d="M13.488 41.6026C13.599 41.8122 13.7794 41.9648 13.9904 42.0275C14.2014 42.0903 14.426 42.0582 14.616 41.9382C14.8041 41.8146 14.9412 41.6135 14.9977 41.3783C15.0542 41.1431 15.0256 40.8926 14.918 40.6807C14.8071 40.471 14.6267 40.3182 14.4157 40.2552C14.2048 40.1922 13.98 40.2241 13.79 40.3441C13.6018 40.4677 13.4647 40.6687 13.4082 40.9039C13.3517 41.1391 13.3804 41.3896 13.488 41.6015V41.6026ZM18.17 38.5883C18.2808 38.7978 18.461 38.9504 18.6718 39.0134C18.8825 39.0763 19.107 39.0446 19.297 38.925C19.4853 38.8016 19.6226 38.6006 19.6793 38.3654C19.736 38.1302 19.7075 37.8796 19.6 37.6675C19.4891 37.4575 19.3085 37.3045 19.0973 37.2415C18.8861 37.1785 18.6611 37.2106 18.471 37.3309C18.2828 37.4545 18.1457 37.6556 18.0892 37.8907C18.0327 38.1259 18.0614 38.3765 18.169 38.5883H18.17ZM15.494 33.2565C15.6049 33.4662 15.7852 33.619 15.9962 33.682C16.2072 33.745 16.4319 33.7131 16.622 33.5931C16.8101 33.4695 16.9472 33.2685 17.0037 33.0333C17.0602 32.7981 17.0316 32.5476 16.924 32.3357C16.8131 32.1259 16.6327 31.9731 16.4217 31.9101C16.2108 31.8472 15.986 31.8791 15.796 31.999C15.6078 32.1226 15.4707 32.3237 15.4142 32.5589C15.3577 32.7941 15.3864 33.0446 15.494 33.2565ZM14.477 37.487C14.5879 37.6967 14.7682 37.8495 14.9792 37.9125C15.1902 37.9755 15.4149 37.9436 15.605 37.8236C15.7933 37.7002 15.9306 37.4992 15.9873 37.264C16.044 37.0288 16.0155 36.7782 15.908 36.5662C15.7971 36.3564 15.6167 36.2036 15.4057 36.1406C15.1948 36.0777 14.97 36.1096 14.78 36.2295C14.5916 36.3529 14.4543 36.5539 14.3977 36.7891C14.341 37.0243 14.3695 37.2749 14.477 37.487ZM16.483 29.1408C16.5937 29.3507 16.774 29.5038 16.985 29.567C17.196 29.6302 17.4208 29.5984 17.611 29.4786C17.7991 29.355 17.9362 29.1539 17.9927 28.9187C18.0492 28.6835 18.0206 28.433 17.913 28.2211C17.8022 28.0112 17.622 27.8581 17.411 27.7949C17.2 27.7318 16.9752 27.7635 16.785 27.8834C16.5968 28.007 16.4597 28.208 16.4032 28.4432C16.3467 28.6784 16.3754 28.9289 16.483 29.1408ZM19.186 34.3578C19.2969 34.5676 19.4772 34.7204 19.6882 34.7834C19.8992 34.8464 20.1239 34.8144 20.314 34.6945C20.5021 34.5709 20.6392 34.3698 20.6957 34.1346C20.7522 33.8995 20.7236 33.6489 20.616 33.4371C20.5051 33.2273 20.3247 33.0745 20.1137 33.0115C19.9028 32.9485 19.678 32.9805 19.488 33.1004C19.2998 33.224 19.1627 33.4251 19.1062 33.6603C19.0497 33.8954 19.0784 34.146 19.186 34.3578ZM12.79 28.0372C12.9009 28.2472 13.0814 28.4003 13.2926 28.4633C13.5038 28.5262 13.7288 28.4941 13.919 28.3738C14.1071 28.2502 14.2442 28.0492 14.3007 27.814C14.3572 27.5788 14.3286 27.3283 14.221 27.1164C14.1101 26.9063 13.9295 26.7533 13.7183 26.6903C13.5071 26.6273 13.2821 26.6595 13.092 26.7797C12.9038 26.9034 12.7667 27.1044 12.7102 27.3396C12.6537 27.5748 12.6824 27.8253 12.79 28.0372Z" fill="#0A3B3C"/>
<path id="Vector_25" d="M13.4899 41.6037C13.6008 41.8138 13.7814 41.9668 13.9926 42.0298C14.2038 42.0928 14.4288 42.0607 14.6189 41.9404C14.8071 41.8168 14.9442 41.6157 15.0007 41.3805C15.0571 41.1454 15.0285 40.8948 14.9209 40.683C14.81 40.4732 14.6297 40.3204 14.4187 40.2574C14.2077 40.1944 13.983 40.2264 13.7929 40.3463C13.6048 40.4699 13.4677 40.671 13.4112 40.9062C13.3547 41.1414 13.3833 41.3919 13.4909 41.6037H13.4899ZM12.7919 28.0372C12.9028 28.2469 13.0832 28.3998 13.2941 28.4627C13.5051 28.5257 13.7298 28.4938 13.9199 28.3738C14.1083 28.2504 14.2456 28.0494 14.3022 27.8142C14.3589 27.579 14.3304 27.3284 14.2229 27.1164C14.112 26.9063 13.9315 26.7533 13.7203 26.6903C13.5091 26.6273 13.2841 26.6595 13.0939 26.7797C12.9058 26.9034 12.7687 27.1044 12.7122 27.3396C12.6557 27.5748 12.6843 27.8253 12.7919 28.0372Z" fill="#0A3B3C"/>
</g>
</g>
</g>
<path id="Vector_26" fill-rule="evenodd" clip-rule="evenodd" d="M31.078 3.02767C15.725 3.02767 3.27905 16.9019 3.27905 34.0178C3.27905 51.1315 15.725 65.0058 31.0791 65.0058C46.431 65.0058 58.877 51.1315 58.877 34.0167C58.877 16.9019 46.431 3.02767 31.078 3.02767ZM1.05005 34.0178C1.05005 15.5285 14.494 0.540649 31.078 0.540649C47.663 0.540649 61.1081 15.5285 61.1081 34.0167C61.1081 52.5038 47.663 67.4905 31.078 67.4905C14.494 67.4917 1.05005 52.5049 1.05005 34.0167V34.0178Z" fill="#0B3B3D"/>
<path id="Vector_27" fill-rule="evenodd" clip-rule="evenodd" d="M21.294 17.4526C21.7636 16.4359 22.4758 15.5835 23.3522 14.9892C24.2286 14.395 25.2352 14.0821 26.261 14.0849C29.352 14.0849 31.887 16.9097 31.887 20.3565C31.887 20.694 31.7668 21.0177 31.5527 21.2563C31.3386 21.495 31.0483 21.629 30.7455 21.629C30.4428 21.629 30.1524 21.495 29.9384 21.2563C29.7243 21.0177 29.604 20.694 29.604 20.3565C29.5988 19.3699 29.2449 18.4253 28.6191 17.7275C27.9934 17.0297 27.1461 16.6349 26.261 16.6288C25.5704 16.6267 24.8966 16.8663 24.3346 17.314C23.7727 17.7616 23.351 18.3946 23.129 19.1236C22.971 19.6364 22.537 19.982 22.049 19.982H21.777C20.1076 19.9843 18.5072 20.7246 17.3267 22.0406C16.1463 23.3565 15.4821 25.1406 15.48 27.0016C15.48 28.9011 16.17 30.6134 17.257 31.931C17.3714 32.0695 17.4568 32.2346 17.507 32.4144C17.5572 32.5941 17.571 32.7841 17.5474 32.9705C17.5238 33.1569 17.4633 33.3352 17.3704 33.4924C17.2774 33.6496 17.1544 33.7819 17.01 33.8796C16.09 34.5039 15.48 35.6175 15.48 36.9998C15.48 38.2606 16.041 39.3519 16.916 40.0487C17.316 40.3675 17.488 40.9349 17.344 41.4588C17.146 42.1723 17.011 42.9571 17.011 43.6437C17.0129 45.5048 17.6769 47.2891 18.8574 48.6051C20.0379 49.9211 21.6385 50.6613 23.308 50.6633C24.9772 50.661 26.5774 49.9208 27.7576 48.6051C28.9379 47.2894 29.6019 45.5055 29.604 43.6449V31.2075C29.604 30.8701 29.7243 30.5464 29.9384 30.3078C30.1524 30.0691 30.4428 29.9351 30.7455 29.9351C31.0483 29.9351 31.3386 30.0691 31.5527 30.3078C31.7668 30.5464 31.887 30.8701 31.887 31.2075V43.6449C31.887 48.9199 28.04 53.2083 23.307 53.2083C18.576 53.2083 14.729 48.9199 14.729 43.6437C14.729 42.9336 14.823 42.2102 14.961 41.5424C14.4038 40.9601 13.9596 40.2565 13.6562 39.4751C13.3528 38.6938 13.1965 37.8513 13.197 36.9998C13.197 35.253 13.804 33.7068 14.809 32.5921C13.818 31.0225 13.197 29.1096 13.197 27.0016C13.197 21.9071 16.786 17.7324 21.294 17.4526Z" fill="#0B3B3D"/>
<path id="Vector_28" fill-rule="evenodd" clip-rule="evenodd" d="M35.2299 16.6288C34.3448 16.6349 33.4976 17.0297 32.8718 17.7275C32.246 18.4253 31.8922 19.3699 31.8869 20.3565C31.8869 20.694 31.7667 21.0177 31.5526 21.2563C31.3385 21.495 31.0482 21.629 30.7454 21.629C30.4427 21.629 30.1523 21.495 29.9383 21.2563C29.7242 21.0177 29.6039 20.694 29.6039 20.3565C29.6039 16.9097 32.1389 14.0849 35.2299 14.0849C36.2556 14.0822 37.262 14.3951 38.1382 14.9894C39.0145 15.5836 39.7265 16.436 40.1959 17.4526C44.7049 17.7313 48.2939 21.906 48.2939 27.0016C48.2939 29.1118 47.6719 31.0258 46.6799 32.5976C47.7178 33.7702 48.2979 35.3525 48.2939 36.9998C48.2944 37.8513 48.1381 38.6938 47.8347 39.4751C47.5313 40.2565 47.0872 40.9601 46.5299 41.5424C46.6679 42.2113 46.7619 42.9336 46.7619 43.6449C46.7619 48.9199 42.9149 53.2083 38.1829 53.2083C33.4509 53.2083 29.6039 48.9199 29.6039 43.6437C29.6039 43.3063 29.7242 42.9826 29.9383 42.7439C30.1523 42.5053 30.4427 42.3712 30.7454 42.3712C31.0482 42.3712 31.3385 42.5053 31.5526 42.7439C31.7667 42.9826 31.8869 43.3063 31.8869 43.6437C31.8888 45.5046 32.5527 47.2887 33.733 48.6047C34.9133 49.9206 36.5136 50.661 38.1829 50.6633C39.8522 50.6613 41.4527 49.9212 42.6332 48.6055C43.8137 47.2897 44.4778 45.5057 44.4799 43.6449C44.4799 42.9571 44.3439 42.1734 44.1469 41.4588C44.0029 40.9349 44.1749 40.3664 44.5749 40.0487C45.4499 39.3519 46.0109 38.2606 46.0109 36.9998C46.0109 35.6699 45.3939 34.4994 44.4809 33.8796C44.3367 33.7818 44.2138 33.6496 44.121 33.4925C44.0282 33.3354 43.9678 33.1573 43.9441 32.971C43.9205 32.7847 43.9343 32.5949 43.9844 32.4153C44.0345 32.2356 44.1197 32.0706 44.2339 31.9321C45.3209 30.6134 46.0109 28.9011 46.0109 27.0016C46.0091 25.1405 45.345 23.3562 44.1645 22.0402C42.984 20.7243 41.3834 19.984 39.7139 19.982H39.4419C38.9539 19.982 38.5199 19.6364 38.3619 19.1236C38.1399 18.3945 37.7182 17.7616 37.1563 17.314C36.5944 16.8663 35.9206 16.6267 35.2299 16.6288ZM15.5699 31.8151C15.6779 31.6991 15.8053 31.6081 15.9449 31.5471C16.0845 31.486 16.2334 31.4563 16.3833 31.4595C16.5332 31.4627 16.6811 31.4988 16.8185 31.5658C16.9558 31.6327 17.08 31.7292 17.1839 31.8496C17.7775 32.5393 18.4906 33.0874 19.28 33.4605C20.0694 33.8336 20.9185 34.024 21.7759 34.0201C22.0785 34.0201 22.3687 34.1541 22.5827 34.3926C22.7967 34.6311 22.9169 34.9547 22.9169 35.292C22.9169 35.6293 22.7967 35.9529 22.5827 36.1914C22.3687 36.4299 22.0785 36.5639 21.7759 36.5639C20.6113 36.5679 19.4581 36.3084 18.3861 35.8012C17.3141 35.294 16.3455 34.5497 15.5389 33.6132C15.435 33.4927 15.3534 33.3506 15.2987 33.195C15.2441 33.0394 15.2175 32.8733 15.2204 32.7062C15.2234 32.5391 15.2559 32.3743 15.316 32.2212C15.3762 32.0681 15.4628 31.9297 15.5709 31.814L15.5699 31.8151Z" fill="#0B3B3D"/>
<path id="Vector_29" fill-rule="evenodd" clip-rule="evenodd" d="M45.92 31.8151C46.0281 31.9308 46.1146 32.0692 46.1746 32.2222C46.2346 32.3752 46.267 32.54 46.2699 32.707C46.2728 32.874 46.2461 33.04 46.1914 33.1955C46.1367 33.351 46.055 33.4929 45.951 33.6132C45.1445 34.5497 44.1759 35.294 43.1038 35.8012C42.0318 36.3084 40.8786 36.5679 39.714 36.5639C39.4114 36.5639 39.1212 36.4299 38.9072 36.1914C38.6932 35.9529 38.573 35.6293 38.573 35.292C38.573 34.9547 38.6932 34.6311 38.9072 34.3926C39.1212 34.1541 39.4114 34.0201 39.714 34.0201C40.5714 34.024 41.4206 33.8336 42.2099 33.4605C42.9993 33.0874 43.7124 32.5393 44.306 31.8496C44.5157 31.6065 44.8034 31.4662 45.1059 31.4595C45.4084 31.4528 45.7008 31.5803 45.919 31.814L45.92 31.8151ZM30.745 19.0846C31.375 19.0846 31.887 19.6531 31.887 20.3554C31.887 23.8446 29.423 26.384 26.37 26.384C26.0673 26.384 25.7769 26.2499 25.5629 26.0113C25.3488 25.7727 25.2285 25.449 25.2285 25.1115C25.2285 24.774 25.3488 24.4504 25.5629 24.2117C25.7769 23.9731 26.0673 23.839 26.37 23.839C28.24 23.839 29.604 22.3542 29.604 20.3554C29.604 19.6531 30.115 19.0846 30.746 19.0846H30.745Z" fill="#0B3B3D"/>
<path id="Vector_30" fill-rule="evenodd" clip-rule="evenodd" d="M30.745 19.0846C31.375 19.0846 31.887 19.6531 31.887 20.3554C31.887 22.3542 33.251 23.839 35.12 23.839C35.4227 23.839 35.7131 23.9731 35.9271 24.2117C36.1412 24.4504 36.2615 24.774 36.2615 25.1115C36.2615 25.449 36.1412 25.7727 35.9271 26.0113C35.7131 26.2499 35.4227 26.384 35.12 26.384C32.068 26.384 29.604 23.8446 29.604 20.3565C29.604 19.6542 30.115 19.0835 30.745 19.0835V19.0846ZM24.14 30.7026C24.571 31.2154 24.548 32.0202 24.088 32.5018C23.418 33.2018 22.972 34.2185 22.972 35.292C22.972 36.8973 23.878 38.294 25.155 38.7834C25.2967 38.8377 25.4274 38.9226 25.5396 39.0332C25.6519 39.1439 25.7435 39.2781 25.8093 39.4282C25.875 39.5783 25.9136 39.7413 25.9228 39.908C25.932 40.0747 25.9117 40.2419 25.863 40.3998C25.8142 40.5578 25.7381 40.7035 25.6389 40.8286C25.5396 40.9538 25.4192 41.0559 25.2846 41.1292C25.15 41.2025 25.0037 41.2455 24.8541 41.2558C24.7046 41.266 24.5547 41.2434 24.413 41.1891C22.19 40.3374 20.689 37.9552 20.689 35.292C20.689 33.4404 21.447 31.7738 22.527 30.6446C22.6363 30.5303 22.7647 30.4412 22.905 30.3822C23.0452 30.3233 23.1944 30.2957 23.3442 30.3011C23.494 30.3065 23.6414 30.3447 23.7779 30.4136C23.9145 30.4825 24.0375 30.5807 24.14 30.7026ZM37.35 30.7026C37.4524 30.5807 37.5755 30.4825 37.712 30.4136C37.8485 30.3447 37.9959 30.3065 38.1457 30.3011C38.2955 30.2957 38.4448 30.3233 38.585 30.3822C38.7252 30.4412 38.8537 30.5303 38.963 30.6446C40.043 31.7738 40.801 33.4404 40.801 35.292C40.801 37.9552 39.3 40.3374 37.077 41.1891C36.7908 41.2987 36.4773 41.2772 36.2053 41.1292C35.9334 40.9812 35.7254 40.7188 35.627 40.3998C35.5286 40.0808 35.5479 39.7313 35.6807 39.4282C35.8134 39.125 36.0488 38.8931 36.335 38.7834C37.613 38.2929 38.518 36.8961 38.518 35.292C38.518 34.2174 38.072 33.2018 37.402 32.5018C37.2925 32.3875 37.2043 32.2503 37.1424 32.098C37.0805 31.9457 37.0462 31.7813 37.0413 31.6142C37.0365 31.4471 37.0613 31.2806 37.1142 31.1241C37.1672 30.9677 37.2473 30.8244 37.35 30.7026Z" fill="#0B3B3D"/>
</g>
</g>
</svg>
