<svg width="62" height="68" viewBox="0 0 62 68" fill="none" xmlns="http://www.w3.org/2000/svg">
<g id="Frame">
<path id="Vector" fill-rule="evenodd" clip-rule="evenodd" d="M31.467 3.57501C16.417 3.57501 4.21602 17.175 4.21602 33.9532C4.21602 50.7302 16.416 64.3302 31.466 64.3302C46.516 64.3302 58.717 50.7302 58.717 33.9532C58.717 17.1761 46.517 3.57613 31.467 3.57613V3.57501ZM2.09302 33.9532C2.09302 15.8685 15.243 1.20839 31.467 1.20839C47.689 1.20839 60.841 15.8685 60.841 33.9532C60.841 52.0378 47.689 66.698 31.467 66.698C15.244 66.698 2.09302 52.0378 2.09302 33.9532Z" fill="#0B3B3D"/>
<mask id="mask0_1_340" style="mask-type:alpha" maskUnits="userSpaceOnUse" x="16" y="25" width="30" height="29">
<g id="a">
<path id="Vector_2" d="M42.736 27.307C38.912 23.9683 34.614 26.3717 30.971 26.3717C27.329 26.3717 23.029 23.9683 19.207 27.3081C15.7 30.3692 14.536 39.6652 19.267 47.8798C23.805 55.7611 28.381 53.0891 30.971 53.0891C33.561 53.0891 38.138 55.7611 42.676 47.8798C47.406 39.6652 46.242 30.3692 42.736 27.307Z" fill="#C4C4C4"/>
</g>
</mask>
<g mask="url(#mask0_1_340)">
<g id="Group">
<path id="Vector_3" d="M45.341 53.526C45.4968 53.6968 45.7066 53.7925 45.925 53.7925C46.1435 53.7925 46.3532 53.6968 46.509 53.526C46.6622 53.3524 46.748 53.1186 46.748 52.875C46.748 52.6315 46.6622 52.3977 46.509 52.224C46.3532 52.0532 46.1435 51.9576 45.925 51.9576C45.7066 51.9576 45.4968 52.0532 45.341 52.224C45.1879 52.3977 45.102 52.6315 45.102 52.875C45.102 53.1186 45.1879 53.3524 45.341 53.526ZM45.341 49.2654C45.4968 49.4362 45.7066 49.5319 45.925 49.5319C46.1435 49.5319 46.3532 49.4362 46.509 49.2654C46.6622 49.0918 46.748 48.858 46.748 48.6144C46.748 48.3709 46.6622 48.1371 46.509 47.9634C46.3532 47.7927 46.1435 47.697 45.925 47.697C45.7066 47.697 45.4968 47.7927 45.341 47.9634C45.1879 48.1371 45.102 48.3709 45.102 48.6144C45.102 48.858 45.1879 49.0918 45.341 49.2654ZM41.518 49.2654C41.6738 49.4362 41.8836 49.5319 42.102 49.5319C42.3205 49.5319 42.5302 49.4362 42.686 49.2654C42.8392 49.0918 42.925 48.858 42.925 48.6144C42.925 48.3709 42.8392 48.1371 42.686 47.9634C42.5302 47.7927 42.3205 47.697 42.102 47.697C41.8836 47.697 41.6738 47.7927 41.518 47.9634C41.3649 48.1371 41.279 48.3709 41.279 48.6144C41.279 48.858 41.3649 49.0918 41.518 49.2654ZM45.341 45.0049C45.4968 45.1756 45.7066 45.2713 45.925 45.2713C46.1435 45.2713 46.3532 45.1756 46.509 45.0049C46.6622 44.8312 46.748 44.5974 46.748 44.3538C46.748 44.1103 46.6622 43.8765 46.509 43.7028C46.3532 43.5321 46.1435 43.4364 45.925 43.4364C45.7066 43.4364 45.4968 43.5321 45.341 43.7028C45.1879 43.8765 45.102 44.1103 45.102 44.3538C45.102 44.5974 45.1879 44.8312 45.341 45.0049ZM41.518 53.5283C41.6738 53.699 41.8836 53.7947 42.102 53.7947C42.3205 53.7947 42.5302 53.699 42.686 53.5283C42.8392 53.3546 42.925 53.1208 42.925 52.8772C42.925 52.6337 42.8392 52.3999 42.686 52.2262C42.5302 52.0555 42.3205 51.9598 42.102 51.9598C41.8836 51.9598 41.6738 52.0555 41.518 52.2262C41.3649 52.3999 41.279 52.6337 41.279 52.8772C41.279 53.1208 41.3649 53.3546 41.518 53.5283ZM37.696 53.5283C37.8519 53.6993 38.0618 53.7952 38.2805 53.7952C38.4993 53.7952 38.7092 53.6993 38.865 53.5283C39.0182 53.3546 39.104 53.1208 39.104 52.8772C39.104 52.6337 39.0182 52.3999 38.865 52.2262C38.7092 52.0551 38.4993 51.9592 38.2805 51.9592C38.0618 51.9592 37.8519 52.0551 37.696 52.2262C37.5429 52.3999 37.457 52.6337 37.457 52.8772C37.457 53.1208 37.5429 53.3546 37.696 53.5283Z" fill="#0A3B3C"/>
<path id="Vector_4" d="M45.3411 53.5282C45.4968 53.6989 45.7066 53.7946 45.9251 53.7946C46.1435 53.7946 46.3533 53.6989 46.5091 53.5282C46.6622 53.3545 46.7481 53.1207 46.7481 52.8772C46.7481 52.6336 46.6622 52.3998 46.5091 52.2262C46.3533 52.0554 46.1435 51.9597 45.9251 51.9597C45.7066 51.9597 45.4968 52.0554 45.3411 52.2262C45.1879 52.3998 45.1021 52.6336 45.1021 52.8772C45.1021 53.1207 45.1879 53.3545 45.3411 53.5282ZM41.5191 49.2676C41.6748 49.4384 41.8846 49.534 42.1031 49.534C42.3215 49.534 42.5313 49.4384 42.6871 49.2676C42.8402 49.0939 42.9261 48.8601 42.9261 48.6166C42.9261 48.373 42.8402 48.1392 42.6871 47.9656C42.5313 47.7948 42.3215 47.6991 42.1031 47.6991C41.8846 47.6991 41.6748 47.7948 41.5191 47.9656C41.3659 48.1392 41.2801 48.373 41.2801 48.6166C41.2801 48.8601 41.3659 49.0939 41.5191 49.2676ZM45.3411 36.3654C45.4968 36.5362 45.7066 36.6319 45.9251 36.6319C46.1435 36.6319 46.3533 36.5362 46.5091 36.3654C46.6622 36.1918 46.7481 35.958 46.7481 35.7144C46.7481 35.4709 46.6622 35.2371 46.5091 35.0634C46.3533 34.8927 46.1435 34.797 45.9251 34.797C45.7066 34.797 45.4968 34.8927 45.3411 35.0634C45.1879 35.2371 45.1021 35.4709 45.1021 35.7144C45.1021 35.958 45.1879 36.1918 45.3411 36.3654ZM45.3411 32.1049C45.4968 32.2756 45.7066 32.3713 45.9251 32.3713C46.1435 32.3713 46.3533 32.2756 46.5091 32.1049C46.6625 31.9311 46.7485 31.6971 46.7485 31.4533C46.7485 31.2095 46.6625 30.9754 46.5091 30.8017C46.3533 30.631 46.1435 30.5353 45.9251 30.5353C45.7066 30.5353 45.4968 30.631 45.3411 30.8017C45.1879 30.9754 45.1021 31.2092 45.1021 31.4527C45.1021 31.6963 45.1879 31.9301 45.3411 32.1037V32.1049ZM41.5181 32.1049C41.6738 32.2756 41.8836 32.3713 42.1021 32.3713C42.3205 32.3713 42.5303 32.2756 42.6861 32.1049C42.8395 31.9311 42.9255 31.6971 42.9255 31.4533C42.9255 31.2095 42.8395 30.9754 42.6861 30.8017C42.5303 30.631 42.3205 30.5353 42.1021 30.5353C41.8836 30.5353 41.6738 30.631 41.5181 30.8017C41.3649 30.9754 41.2791 31.2092 41.2791 31.4527C41.2791 31.6963 41.3649 31.9301 41.5181 32.1037V32.1049ZM45.3411 27.8431C45.4968 28.0139 45.7066 28.1096 45.9251 28.1096C46.1435 28.1096 46.3533 28.0139 46.5091 27.8431C46.6622 27.6695 46.7481 27.4357 46.7481 27.1921C46.7481 26.9486 46.6622 26.7148 46.5091 26.5411C46.3533 26.3704 46.1435 26.2747 45.9251 26.2747C45.7066 26.2747 45.4968 26.3704 45.3411 26.5411C45.1879 26.7148 45.1021 26.9486 45.1021 27.1921C45.1021 27.4357 45.1879 27.6695 45.3411 27.8431Z" fill="#0A3B3C"/>
<path id="Vector_5" d="M41.521 49.2677C41.6768 49.4384 41.8866 49.5341 42.105 49.5341C42.3235 49.5341 42.5332 49.4384 42.689 49.2677C42.8422 49.094 42.928 48.8602 42.928 48.6167C42.928 48.3731 42.8422 48.1393 42.689 47.9656C42.5332 47.7949 42.3235 47.6992 42.105 47.6992C41.8866 47.6992 41.6768 47.7949 41.521 47.9656C41.3679 48.1393 41.282 48.3731 41.282 48.6167C41.282 48.8602 41.3679 49.094 41.521 49.2677ZM37.699 45.0049C37.8548 45.1756 38.0646 45.2713 38.283 45.2713C38.5015 45.2713 38.7112 45.1756 38.867 45.0049C39.0202 44.8312 39.106 44.5974 39.106 44.3538C39.106 44.1103 39.0202 43.8765 38.867 43.7028C38.7112 43.5321 38.5015 43.4364 38.283 43.4364C38.0646 43.4364 37.8548 43.5321 37.699 43.7028C37.5459 43.8765 37.46 44.1103 37.46 44.3538C37.46 44.5974 37.5459 44.8312 37.699 45.0049ZM45.344 45.0049C45.4998 45.1756 45.7096 45.2713 45.928 45.2713C46.1465 45.2713 46.3562 45.1756 46.512 45.0049C46.6652 44.8312 46.751 44.5974 46.751 44.3538C46.751 44.1103 46.6652 43.8765 46.512 43.7028C46.3562 43.5321 46.1465 43.4364 45.928 43.4364C45.7096 43.4364 45.4998 43.5321 45.344 43.7028C45.1909 43.8765 45.105 44.1103 45.105 44.3538C45.105 44.5974 45.1909 44.8312 45.344 45.0049ZM41.521 40.6261C41.6768 40.7968 41.8866 40.8925 42.105 40.8925C42.3235 40.8925 42.5332 40.7968 42.689 40.6261C42.8422 40.4524 42.928 40.2186 42.928 39.9751C42.928 39.7315 42.8422 39.4977 42.689 39.3241C42.5332 39.1533 42.3235 39.0576 42.105 39.0576C41.8866 39.0576 41.6768 39.1533 41.521 39.3241C41.203 39.7978 41.203 40.2716 41.521 40.6261ZM37.699 40.6261C37.8548 40.7968 38.0646 40.8925 38.283 40.8925C38.5015 40.8925 38.7112 40.7968 38.867 40.6261C39.0202 40.4524 39.106 40.2186 39.106 39.9751C39.106 39.7315 39.0202 39.4977 38.867 39.3241C38.7112 39.1533 38.5015 39.0576 38.283 39.0576C38.0646 39.0576 37.8548 39.1533 37.699 39.3241C37.38 39.7978 37.38 40.2716 37.699 40.6261ZM41.521 45.0049C41.6768 45.1756 41.8866 45.2713 42.105 45.2713C42.3235 45.2713 42.5332 45.1756 42.689 45.0049C42.8422 44.8312 42.928 44.5974 42.928 44.3538C42.928 44.1103 42.8422 43.8765 42.689 43.7028C42.5332 43.5321 42.3235 43.4364 42.105 43.4364C41.8866 43.4364 41.6768 43.5321 41.521 43.7028C41.3679 43.8765 41.282 44.1103 41.282 44.3538C41.282 44.5974 41.3679 44.8312 41.521 45.0049ZM41.521 36.3655C41.6768 36.5363 41.8866 36.6319 42.105 36.6319C42.3235 36.6319 42.5332 36.5363 42.689 36.3655C42.8422 36.1918 42.928 35.958 42.928 35.7145C42.928 35.4709 42.8422 35.2371 42.689 35.0635C42.5332 34.8927 42.3235 34.797 42.105 34.797C41.8866 34.797 41.6768 34.8927 41.521 35.0635C41.3679 35.2371 41.282 35.4709 41.282 35.7145C41.282 35.958 41.3679 36.1918 41.521 36.3655ZM45.344 40.6261C45.4998 40.7968 45.7096 40.8925 45.928 40.8925C46.1465 40.8925 46.3562 40.7968 46.512 40.6261C46.6652 40.4524 46.751 40.2186 46.751 39.9751C46.751 39.7315 46.6652 39.4977 46.512 39.3241C46.3562 39.1533 46.1465 39.0576 45.928 39.0576C45.7096 39.0576 45.4998 39.1533 45.344 39.3241C45.025 39.7978 45.025 40.2716 45.344 40.6261ZM33.876 40.6261C34.0318 40.7968 34.2416 40.8925 34.46 40.8925C34.6785 40.8925 34.8882 40.7968 35.044 40.6261C35.1972 40.4524 35.283 40.2186 35.283 39.9751C35.283 39.7315 35.1972 39.4977 35.044 39.3241C34.8882 39.1533 34.6785 39.0576 34.46 39.0576C34.2416 39.0576 34.0318 39.1533 33.876 39.3241C33.557 39.6786 33.451 40.2716 33.876 40.6261ZM37.699 36.3655C37.8548 36.5363 38.0646 36.6319 38.283 36.6319C38.5015 36.6319 38.7112 36.5363 38.867 36.3655C39.0202 36.1918 39.106 35.958 39.106 35.7145C39.106 35.4709 39.0202 35.2371 38.867 35.0635C38.7112 34.8927 38.5015 34.797 38.283 34.797C38.0646 34.797 37.8548 34.8927 37.699 35.0635C37.5459 35.2371 37.46 35.4709 37.46 35.7145C37.46 35.958 37.5459 36.1918 37.699 36.3655ZM45.342 36.3655C45.4978 36.5363 45.7076 36.6319 45.926 36.6319C46.1445 36.6319 46.3542 36.5363 46.51 36.3655C46.6632 36.1918 46.749 35.958 46.749 35.7145C46.749 35.4709 46.6632 35.2371 46.51 35.0635C46.3542 34.8927 46.1445 34.797 45.926 34.797C45.7076 34.797 45.4978 34.8927 45.342 35.0635C45.1889 35.2371 45.103 35.4709 45.103 35.7145C45.103 35.958 45.1889 36.1918 45.342 36.3655ZM41.52 32.1049C41.6758 32.2757 41.8856 32.3713 42.104 32.3713C42.3225 32.3713 42.5322 32.2757 42.688 32.1049C42.8415 31.9312 42.9275 31.6972 42.9275 31.4533C42.9275 31.2095 42.8415 30.9755 42.688 30.8018C42.5322 30.631 42.3225 30.5353 42.104 30.5353C41.8856 30.5353 41.6758 30.631 41.52 30.8018C41.3669 30.9754 41.281 31.2092 41.281 31.4528C41.281 31.6963 41.3669 31.9301 41.52 32.1038V32.1049ZM29.946 53.526C30.1018 53.6968 30.3116 53.7925 30.53 53.7925C30.7485 53.7925 30.9582 53.6968 31.114 53.526C31.2672 53.3524 31.353 53.1186 31.353 52.875C31.353 52.6315 31.2672 52.3977 31.114 52.224C30.9582 52.0532 30.7485 51.9576 30.53 51.9576C30.3116 51.9576 30.1018 52.0532 29.946 52.224C29.7929 52.3977 29.707 52.6315 29.707 52.875C29.707 53.1186 29.7929 53.3524 29.946 53.526ZM37.697 53.526C37.8528 53.6968 38.0626 53.7925 38.281 53.7925C38.4995 53.7925 38.7092 53.6968 38.865 53.526C39.0182 53.3524 39.104 53.1186 39.104 52.875C39.104 52.6315 39.0182 52.3977 38.865 52.224C38.7092 52.0532 38.4995 51.9576 38.281 51.9576C38.0626 51.9576 37.8528 52.0532 37.697 52.224C37.5439 52.3977 37.458 52.6315 37.458 52.875C37.458 53.1186 37.5439 53.3524 37.697 53.526ZM33.874 49.2654C34.0298 49.4362 34.2396 49.5319 34.458 49.5319C34.6765 49.5319 34.8862 49.4362 35.042 49.2654C35.1952 49.0918 35.281 48.858 35.281 48.6144C35.281 48.3709 35.1952 48.1371 35.042 47.9634C34.8862 47.7927 34.6765 47.697 34.458 47.697C34.2396 47.697 34.0298 47.7927 33.874 47.9634C33.45 48.3179 33.45 48.9109 33.874 49.2654ZM29.946 49.2654C30.1018 49.4362 30.3116 49.5319 30.53 49.5319C30.7485 49.5319 30.9582 49.4362 31.114 49.2654C31.2672 49.0918 31.353 48.858 31.353 48.6144C31.353 48.3709 31.2672 48.1371 31.114 47.9634C30.9582 47.7927 30.7485 47.697 30.53 47.697C30.3116 47.697 30.1018 47.7927 29.946 47.9634C29.7929 48.1371 29.707 48.3709 29.707 48.6144C29.707 48.858 29.7929 49.0918 29.946 49.2654ZM33.874 53.526C34.0298 53.6968 34.2396 53.7925 34.458 53.7925C34.6765 53.7925 34.8862 53.6968 35.042 53.526C35.1952 53.3524 35.281 53.1186 35.281 52.875C35.281 52.6315 35.1952 52.3977 35.042 52.224C34.8862 52.0532 34.6765 51.9576 34.458 51.9576C34.2396 51.9576 34.0298 52.0532 33.874 52.224C33.45 52.5796 33.45 53.1715 33.874 53.526ZM33.874 45.0049C34.0298 45.1756 34.2396 45.2713 34.458 45.2713C34.6765 45.2713 34.8862 45.1756 35.042 45.0049C35.1952 44.8312 35.281 44.5974 35.281 44.3538C35.281 44.1103 35.1952 43.8765 35.042 43.7028C34.8862 43.5321 34.6765 43.4364 34.458 43.4364C34.2396 43.4364 34.0298 43.5321 33.874 43.7028C33.45 44.0573 33.45 44.6504 33.874 45.0049ZM37.697 49.2654C37.8528 49.4362 38.0626 49.5319 38.281 49.5319C38.4995 49.5319 38.7092 49.4362 38.865 49.2654C39.0182 49.0918 39.104 48.858 39.104 48.6144C39.104 48.3709 39.0182 48.1371 38.865 47.9634C38.7092 47.7927 38.4995 47.697 38.281 47.697C38.0626 47.697 37.8528 47.7927 37.697 47.9634C37.5439 48.1371 37.458 48.3709 37.458 48.6144C37.458 48.858 37.5439 49.0918 37.697 49.2654ZM26.123 49.2654C26.2788 49.4362 26.4886 49.5319 26.707 49.5319C26.9255 49.5319 27.1352 49.4362 27.291 49.2654C27.4442 49.0918 27.53 48.858 27.53 48.6144C27.53 48.3709 27.4442 48.1371 27.291 47.9634C27.1352 47.7927 26.9255 47.697 26.707 47.697C26.4886 47.697 26.2788 47.7927 26.123 47.9634C25.9699 48.1371 25.884 48.3709 25.884 48.6144C25.884 48.858 25.9699 49.0918 26.123 49.2654ZM29.946 45.0049C30.1018 45.1756 30.3116 45.2713 30.53 45.2713C30.7485 45.2713 30.9582 45.1756 31.114 45.0049C31.2672 44.8312 31.353 44.5974 31.353 44.3538C31.353 44.1103 31.2672 43.8765 31.114 43.7028C30.9582 43.5321 30.7485 43.4364 30.53 43.4364C30.3116 43.4364 30.1018 43.5321 29.946 43.7028C29.7929 43.8765 29.707 44.1103 29.707 44.3538C29.707 44.5974 29.7929 44.8312 29.946 45.0049Z" fill="#0A3B3C"/>
<path id="Vector_6" d="M41.518 49.2654C41.6738 49.4361 41.8836 49.5318 42.102 49.5318C42.3205 49.5318 42.5302 49.4361 42.686 49.2654C42.8392 49.0917 42.925 48.8579 42.925 48.6144C42.925 48.3708 42.8392 48.137 42.686 47.9633C42.5302 47.7926 42.3205 47.6969 42.102 47.6969C41.8836 47.6969 41.6738 47.7926 41.518 47.9633C41.3649 48.137 41.279 48.3708 41.279 48.6144C41.279 48.8579 41.3649 49.0917 41.518 49.2654ZM37.696 45.0048C37.8519 45.1759 38.0618 45.2718 38.2805 45.2718C38.4993 45.2718 38.7092 45.1759 38.865 45.0048C39.0182 44.8311 39.104 44.5973 39.104 44.3538C39.104 44.1102 39.0182 43.8764 38.865 43.7028C38.7092 43.5317 38.4993 43.4358 38.2805 43.4358C38.0618 43.4358 37.8519 43.5317 37.696 43.7028C37.5429 43.8764 37.457 44.1102 37.457 44.3538C37.457 44.5973 37.5429 44.8311 37.696 45.0048ZM33.874 40.626C34.0298 40.7968 34.2396 40.8925 34.458 40.8925C34.6765 40.8925 34.8862 40.7968 35.042 40.626C35.1952 40.4524 35.281 40.2186 35.281 39.975C35.281 39.7315 35.1952 39.4977 35.042 39.324C34.8862 39.1533 34.6765 39.0576 34.458 39.0576C34.2396 39.0576 34.0298 39.1533 33.874 39.324C33.555 39.6785 33.449 40.2715 33.874 40.626ZM26.123 53.5282C26.2788 53.6989 26.4886 53.7946 26.707 53.7946C26.9255 53.7946 27.1352 53.6989 27.291 53.5282C27.4442 53.3545 27.53 53.1207 27.53 52.8772C27.53 52.6336 27.4442 52.3998 27.291 52.2262C27.1352 52.0554 26.9255 51.9597 26.707 51.9597C26.4886 51.9597 26.2788 52.0554 26.123 52.2262C25.9699 52.3998 25.884 52.6336 25.884 52.8772C25.884 53.1207 25.9699 53.3545 26.123 53.5282ZM22.3 53.5282C22.4558 53.6989 22.6656 53.7946 22.884 53.7946C23.1025 53.7946 23.3122 53.6989 23.468 53.5282C23.6212 53.3545 23.707 53.1207 23.707 52.8772C23.707 52.6336 23.6212 52.3998 23.468 52.2262C23.3122 52.0554 23.1025 51.9597 22.884 51.9597C22.6656 51.9597 22.4558 52.0554 22.3 52.2262C22.1469 52.3998 22.061 52.6336 22.061 52.8772C22.061 53.1207 22.1469 53.3545 22.3 53.5282ZM29.945 53.5282C30.1008 53.6989 30.3106 53.7946 30.529 53.7946C30.7475 53.7946 30.9572 53.6989 31.113 53.5282C31.2662 53.3545 31.352 53.1207 31.352 52.8772C31.352 52.6336 31.2662 52.3998 31.113 52.2262C30.9572 52.0554 30.7475 51.9597 30.529 51.9597C30.3106 51.9597 30.1008 52.0554 29.945 52.2262C29.7919 52.3998 29.706 52.6336 29.706 52.8772C29.706 53.1207 29.7919 53.3545 29.945 53.5282ZM26.123 49.2676C26.2788 49.4384 26.4886 49.534 26.707 49.534C26.9255 49.534 27.1352 49.4384 27.291 49.2676C27.4442 49.0939 27.53 48.8601 27.53 48.6166C27.53 48.373 27.4442 48.1392 27.291 47.9656C27.1352 47.7948 26.9255 47.6991 26.707 47.6991C26.4886 47.6991 26.2788 47.7948 26.123 47.9656C25.9699 48.1392 25.884 48.373 25.884 48.6166C25.884 48.8601 25.9699 49.0939 26.123 49.2676ZM41.521 32.106C41.6768 32.2767 41.8866 32.3724 42.105 32.3724C42.3235 32.3724 42.5332 32.2767 42.689 32.106C42.8422 31.9323 42.928 31.6985 42.928 31.455C42.928 31.2114 42.8422 30.9776 42.689 30.8039C42.5332 30.6332 42.3235 30.5375 42.105 30.5375C41.8866 30.5375 41.6768 30.6332 41.521 30.8039C41.3679 30.9776 41.282 31.2114 41.282 31.455C41.282 31.6985 41.3679 31.9323 41.521 32.106ZM37.699 27.8431C37.8548 28.0139 38.0646 28.1096 38.283 28.1096C38.5015 28.1096 38.7112 28.0139 38.867 27.8431C39.0202 27.6695 39.106 27.4357 39.106 27.1921C39.106 26.9486 39.0202 26.7148 38.867 26.5411C38.7112 26.3704 38.5015 26.2747 38.283 26.2747C38.0646 26.2747 37.8548 26.3704 37.699 26.5411C37.5459 26.7148 37.46 26.9486 37.46 27.1921C37.46 27.4357 37.5459 27.6695 37.699 27.8431ZM45.344 27.8431C45.4998 28.0139 45.7096 28.1096 45.928 28.1096C46.1465 28.1096 46.3562 28.0139 46.512 27.8431C46.6652 27.6695 46.751 27.4357 46.751 27.1921C46.751 26.9486 46.6652 26.7148 46.512 26.5411C46.3562 26.3704 46.1465 26.2747 45.928 26.2747C45.7096 26.2747 45.4998 26.3704 45.344 26.5411C45.1909 26.7148 45.105 26.9486 45.105 27.1921C45.105 27.4357 45.1909 27.6695 45.344 27.8431ZM41.521 27.8431C41.6768 28.0139 41.8866 28.1096 42.105 28.1096C42.3235 28.1096 42.5332 28.0139 42.689 27.8431C42.8422 27.6695 42.928 27.4357 42.928 27.1921C42.928 26.9486 42.8422 26.7148 42.689 26.5411C42.5332 26.3704 42.3235 26.2747 42.105 26.2747C41.8866 26.2747 41.6768 26.3704 41.521 26.5411C41.3679 26.7148 41.282 26.9486 41.282 27.1921C41.282 27.4357 41.3679 27.6695 41.521 27.8431Z" fill="#0A3B3C"/>
<path id="Vector_7" d="M33.8741 40.6261C34.0299 40.7968 34.2396 40.8925 34.4581 40.8925C34.6765 40.8925 34.8863 40.7968 35.0421 40.6261C35.1952 40.4524 35.2811 40.2186 35.2811 39.9751C35.2811 39.7315 35.1952 39.4977 35.0421 39.3241C34.8863 39.1533 34.6765 39.0576 34.4581 39.0576C34.2396 39.0576 34.0299 39.1533 33.8741 39.3241C33.5561 39.6786 33.4491 40.2716 33.8741 40.6261ZM29.9461 36.3655C30.1019 36.5363 30.3116 36.6319 30.5301 36.6319C30.7485 36.6319 30.9583 36.5363 31.1141 36.3655C31.2672 36.1918 31.3531 35.958 31.3531 35.7145C31.3531 35.4709 31.2672 35.2371 31.1141 35.0635C30.9583 34.8927 30.7485 34.797 30.5301 34.797C30.3116 34.797 30.1019 34.8927 29.9461 35.0635C29.7929 35.2371 29.7071 35.4709 29.7071 35.7145C29.7071 35.958 29.7929 36.1918 29.9461 36.3655ZM37.6971 36.3655C37.8529 36.5363 38.0626 36.6319 38.2811 36.6319C38.4995 36.6319 38.7093 36.5363 38.8651 36.3655C39.0182 36.1918 39.1041 35.958 39.1041 35.7145C39.1041 35.4709 39.0182 35.2371 38.8651 35.0635C38.7093 34.8927 38.4995 34.797 38.2811 34.797C38.0626 34.797 37.8529 34.8927 37.6971 35.0635C37.5439 35.2371 37.4581 35.4709 37.4581 35.7145C37.4581 35.958 37.5439 36.1918 37.6971 36.3655ZM33.8741 32.1049C34.0299 32.2757 34.2396 32.3713 34.4581 32.3713C34.6765 32.3713 34.8863 32.2757 35.0421 32.1049C35.1955 31.9312 35.2816 31.6972 35.2816 31.4533C35.2816 31.2095 35.1955 30.9755 35.0421 30.8018C34.8863 30.631 34.6765 30.5353 34.4581 30.5353C34.2396 30.5353 34.0299 30.631 33.8741 30.8018C33.4501 31.1574 33.4501 31.7493 33.8741 32.1038V32.1049ZM29.9461 32.1049C30.1019 32.2757 30.3116 32.3713 30.5301 32.3713C30.7485 32.3713 30.9583 32.2757 31.1141 32.1049C31.2675 31.9312 31.3536 31.6972 31.3536 31.4533C31.3536 31.2095 31.2675 30.9755 31.1141 30.8018C30.9583 30.631 30.7485 30.5353 30.5301 30.5353C30.3116 30.5353 30.1019 30.631 29.9461 30.8018C29.7929 30.9754 29.7071 31.2092 29.7071 31.4528C29.7071 31.6963 29.7929 31.9301 29.9461 32.1038V32.1049ZM33.8741 36.3655C34.0299 36.5363 34.2396 36.6319 34.4581 36.6319C34.6765 36.6319 34.8863 36.5363 35.0421 36.3655C35.1952 36.1918 35.2811 35.958 35.2811 35.7145C35.2811 35.4709 35.1952 35.2371 35.0421 35.0635C34.8863 34.8927 34.6765 34.797 34.4581 34.797C34.2396 34.797 34.0299 34.8927 33.8741 35.0635C33.4501 35.418 33.4501 36.011 33.8741 36.3655ZM33.8741 27.8432C34.0299 28.014 34.2396 28.1096 34.4581 28.1096C34.6765 28.1096 34.8863 28.014 35.0421 27.8432C35.1952 27.6695 35.2811 27.4357 35.2811 27.1922C35.2811 26.9486 35.1952 26.7148 35.0421 26.5412C34.8863 26.3704 34.6765 26.2747 34.4581 26.2747C34.2396 26.2747 34.0299 26.3704 33.8741 26.5412C33.4501 26.8968 33.4501 27.4887 33.8741 27.8432ZM37.6971 32.1049C37.8529 32.2757 38.0626 32.3713 38.2811 32.3713C38.4995 32.3713 38.7093 32.2757 38.8651 32.1049C39.0185 31.9312 39.1046 31.6972 39.1046 31.4533C39.1046 31.2095 39.0185 30.9755 38.8651 30.8018C38.7093 30.631 38.4995 30.5353 38.2811 30.5353C38.0626 30.5353 37.8529 30.631 37.6971 30.8018C37.5439 30.9754 37.4581 31.2092 37.4581 31.4528C37.4581 31.6963 37.5439 31.9301 37.6971 32.1038V32.1049ZM26.1231 32.1049C26.2789 32.2757 26.4886 32.3713 26.7071 32.3713C26.9255 32.3713 27.1353 32.2757 27.2911 32.1049C27.4445 31.9312 27.5306 31.6972 27.5306 31.4533C27.5306 31.2095 27.4445 30.9755 27.2911 30.8018C27.1353 30.631 26.9255 30.5353 26.7071 30.5353C26.4886 30.5353 26.2789 30.631 26.1231 30.8018C25.9699 30.9754 25.8841 31.2092 25.8841 31.4528C25.8841 31.6963 25.9699 31.9301 26.1231 32.1038V32.1049ZM29.9461 27.8432C30.1019 28.014 30.3116 28.1096 30.5301 28.1096C30.7485 28.1096 30.9583 28.014 31.1141 27.8432C31.2672 27.6695 31.3531 27.4357 31.3531 27.1922C31.3531 26.9486 31.2672 26.7148 31.1141 26.5412C30.9583 26.3704 30.7485 26.2747 30.5301 26.2747C30.3116 26.2747 30.1019 26.3704 29.9461 26.5412C29.7929 26.7148 29.7071 26.9486 29.7071 27.1922C29.7071 27.4357 29.7929 27.6695 29.9461 27.8432ZM41.5181 32.1049C41.6739 32.2757 41.8836 32.3713 42.1021 32.3713C42.3205 32.3713 42.5303 32.2757 42.6861 32.1049C42.8395 31.9312 42.9256 31.6972 42.9256 31.4533C42.9256 31.2095 42.8395 30.9755 42.6861 30.8018C42.5303 30.631 42.3205 30.5353 42.1021 30.5353C41.8836 30.5353 41.6739 30.631 41.5181 30.8018C41.3649 30.9754 41.2791 31.2092 41.2791 31.4528C41.2791 31.6963 41.3649 31.9301 41.5181 32.1038V32.1049ZM37.6961 27.8432C37.8519 28.0143 38.0618 28.1102 38.2806 28.1102C38.4993 28.1102 38.7092 28.0143 38.8651 27.8432C39.0182 27.6695 39.1041 27.4357 39.1041 27.1922C39.1041 26.9486 39.0182 26.7148 38.8651 26.5412C38.7092 26.3701 38.4993 26.2742 38.2806 26.2742C38.0618 26.2742 37.8519 26.3701 37.6961 26.5412C37.5429 26.7148 37.4571 26.9486 37.4571 27.1922C37.4571 27.4357 37.5429 27.6695 37.6961 27.8432ZM26.1231 49.2677C26.2789 49.4384 26.4886 49.5341 26.7071 49.5341C26.9255 49.5341 27.1353 49.4384 27.2911 49.2677C27.4442 49.094 27.5301 48.8602 27.5301 48.6167C27.5301 48.3731 27.4442 48.1393 27.2911 47.9656C27.1353 47.7949 26.9255 47.6992 26.7071 47.6992C26.4886 47.6992 26.2789 47.7949 26.1231 47.9656C25.9699 48.1393 25.8841 48.3731 25.8841 48.6167C25.8841 48.8602 25.9699 49.094 26.1231 49.2677ZM22.3001 45.0049C22.4559 45.1756 22.6656 45.2713 22.8841 45.2713C23.1025 45.2713 23.3123 45.1756 23.4681 45.0049C23.6212 44.8312 23.7071 44.5974 23.7071 44.3538C23.7071 44.1103 23.6212 43.8765 23.4681 43.7028C23.3123 43.5321 23.1025 43.4364 22.8841 43.4364C22.6656 43.4364 22.4559 43.5321 22.3001 43.7028C22.1469 43.8765 22.0611 44.1103 22.0611 44.3538C22.0611 44.5974 22.1469 44.8312 22.3001 45.0049ZM29.9451 45.0049C30.1009 45.1756 30.3106 45.2713 30.5291 45.2713C30.7475 45.2713 30.9573 45.1756 31.1131 45.0049C31.2662 44.8312 31.3521 44.5974 31.3521 44.3538C31.3521 44.1103 31.2662 43.8765 31.1131 43.7028C30.9573 43.5321 30.7475 43.4364 30.5291 43.4364C30.3106 43.4364 30.1009 43.5321 29.9451 43.7028C29.7919 43.8765 29.7061 44.1103 29.7061 44.3538C29.7061 44.5974 29.7919 44.8312 29.9451 45.0049ZM26.1231 40.6261C26.2789 40.7968 26.4886 40.8925 26.7071 40.8925C26.9255 40.8925 27.1353 40.7968 27.2911 40.6261C27.4442 40.4524 27.5301 40.2186 27.5301 39.9751C27.5301 39.7315 27.4442 39.4977 27.2911 39.3241C27.1353 39.1533 26.9255 39.0576 26.7071 39.0576C26.4886 39.0576 26.2789 39.1533 26.1231 39.3241C25.8041 39.7978 25.8041 40.2716 26.1231 40.6261ZM22.3001 40.6261C22.4559 40.7968 22.6656 40.8925 22.8841 40.8925C23.1025 40.8925 23.3123 40.7968 23.4681 40.6261C23.6212 40.4524 23.7071 40.2186 23.7071 39.9751C23.7071 39.7315 23.6212 39.4977 23.4681 39.3241C23.3123 39.1533 23.1025 39.0576 22.8841 39.0576C22.6656 39.0576 22.4559 39.1533 22.3001 39.3241C21.9821 39.7978 21.9821 40.2716 22.3001 40.6261ZM26.1231 45.0049C26.2789 45.1756 26.4886 45.2713 26.7071 45.2713C26.9255 45.2713 27.1353 45.1756 27.2911 45.0049C27.4442 44.8312 27.5301 44.5974 27.5301 44.3538C27.5301 44.1103 27.4442 43.8765 27.2911 43.7028C27.1353 43.5321 26.9255 43.4364 26.7071 43.4364C26.4886 43.4364 26.2789 43.5321 26.1231 43.7028C25.9699 43.8765 25.8841 44.1103 25.8841 44.3538C25.8841 44.5974 25.9699 44.8312 26.1231 45.0049ZM26.1231 36.3655C26.2789 36.5363 26.4886 36.6319 26.7071 36.6319C26.9255 36.6319 27.1353 36.5363 27.2911 36.3655C27.4442 36.1918 27.5301 35.958 27.5301 35.7145C27.5301 35.4709 27.4442 35.2371 27.2911 35.0635C27.1353 34.8927 26.9255 34.797 26.7071 34.797C26.4886 34.797 26.2789 34.8927 26.1231 35.0635C25.9699 35.2371 25.8841 35.4709 25.8841 35.7145C25.8841 35.958 25.9699 36.1918 26.1231 36.3655ZM29.9451 40.6261C30.1009 40.7968 30.3106 40.8925 30.5291 40.8925C30.7475 40.8925 30.9573 40.7968 31.1131 40.6261C31.2662 40.4524 31.3521 40.2186 31.3521 39.9751C31.3521 39.7315 31.2662 39.4977 31.1131 39.3241C30.9573 39.1533 30.7475 39.0576 30.5291 39.0576C30.3106 39.0576 30.1009 39.1533 29.9451 39.3241C29.6271 39.7978 29.6271 40.2716 29.9451 40.6261ZM18.3721 40.6261C18.5279 40.7968 18.7376 40.8925 18.9561 40.8925C19.1745 40.8925 19.3843 40.7968 19.5401 40.6261C19.6932 40.4524 19.7791 40.2186 19.7791 39.9751C19.7791 39.7315 19.6932 39.4977 19.5401 39.3241C19.3843 39.1533 19.1745 39.0576 18.9561 39.0576C18.7376 39.0576 18.5279 39.1533 18.3721 39.3241C18.0531 39.7978 18.0531 40.2716 18.3721 40.6261ZM22.3001 36.3655C22.4559 36.5363 22.6656 36.6319 22.8841 36.6319C23.1025 36.6319 23.3123 36.5363 23.4681 36.3655C23.6212 36.1918 23.7071 35.958 23.7071 35.7145C23.7071 35.4709 23.6212 35.2371 23.4681 35.0635C23.3123 34.8927 23.1025 34.797 22.8841 34.797C22.6656 34.797 22.4559 34.8927 22.3001 35.0635C22.1469 35.2371 22.0611 35.4709 22.0611 35.7145C22.0611 35.958 22.1469 36.1918 22.3001 36.3655Z" fill="#0A3B3C"/>
<path id="Vector_8" d="M33.8741 40.6261C34.0299 40.7968 34.2396 40.8925 34.4581 40.8925C34.6765 40.8925 34.8863 40.7968 35.0421 40.6261C35.1952 40.4524 35.2811 40.2186 35.2811 39.9751C35.2811 39.7315 35.1952 39.4977 35.0421 39.3241C34.8863 39.1533 34.6765 39.0576 34.4581 39.0576C34.2396 39.0576 34.0299 39.1533 33.8741 39.3241C33.5551 39.6786 33.4491 40.2716 33.8741 40.6261ZM29.9451 36.3655C30.1009 36.5363 30.3106 36.6319 30.5291 36.6319C30.7475 36.6319 30.9573 36.5363 31.1131 36.3655C31.2662 36.1918 31.3521 35.958 31.3521 35.7145C31.3521 35.4709 31.2662 35.2371 31.1131 35.0635C30.9573 34.8927 30.7475 34.797 30.5291 34.797C30.3106 34.797 30.1009 34.8927 29.9451 35.0635C29.7919 35.2371 29.7061 35.4709 29.7061 35.7145C29.7061 35.958 29.7919 36.1918 29.9451 36.3655ZM26.1231 32.1049C26.2789 32.2757 26.4886 32.3713 26.7071 32.3713C26.9255 32.3713 27.1353 32.2757 27.2911 32.1049C27.4445 31.9312 27.5306 31.6972 27.5306 31.4533C27.5306 31.2095 27.4445 30.9755 27.2911 30.8018C27.1353 30.631 26.9255 30.5353 26.7071 30.5353C26.4886 30.5353 26.2789 30.631 26.1231 30.8018C25.9699 30.9754 25.8841 31.2092 25.8841 31.4528C25.8841 31.6963 25.9699 31.9301 26.1231 32.1038V32.1049ZM22.3001 53.526C22.4559 53.6971 22.6658 53.793 22.8846 53.793C23.1033 53.793 23.3132 53.6971 23.4691 53.526C23.6222 53.3524 23.7081 53.1186 23.7081 52.875C23.7081 52.6315 23.6222 52.3977 23.4691 52.224C23.3133 52.0533 23.1035 51.9576 22.8851 51.9576C22.6666 51.9576 22.4569 52.0533 22.3011 52.224C22.1479 52.3977 22.0621 52.6315 22.0621 52.875C22.0621 53.1186 22.1479 53.3524 22.3011 53.526H22.3001ZM18.3721 49.2654C18.5279 49.4362 18.7376 49.5319 18.9561 49.5319C19.1745 49.5319 19.3843 49.4362 19.5401 49.2654C19.6932 49.0918 19.7791 48.858 19.7791 48.6144C19.7791 48.3709 19.6932 48.1371 19.5401 47.9634C19.3843 47.7927 19.1745 47.697 18.9561 47.697C18.7376 47.697 18.5279 47.7927 18.3721 47.9634C18.2189 48.1371 18.1331 48.3709 18.1331 48.6144C18.1331 48.858 18.2189 49.0918 18.3721 49.2654ZM18.3721 53.526C18.5279 53.6968 18.7376 53.7925 18.9561 53.7925C19.1745 53.7925 19.3843 53.6968 19.5401 53.526C19.6932 53.3524 19.7791 53.1186 19.7791 52.875C19.7791 52.6315 19.6932 52.3977 19.5401 52.224C19.3843 52.0533 19.1745 51.9576 18.9561 51.9576C18.7376 51.9576 18.5279 52.0533 18.3721 52.224C18.2189 52.3977 18.1331 52.6315 18.1331 52.875C18.1331 53.1186 18.2189 53.3524 18.3721 53.526ZM18.3721 45.0049C18.5279 45.1756 18.7376 45.2713 18.9561 45.2713C19.1745 45.2713 19.3843 45.1756 19.5401 45.0049C19.6932 44.8312 19.7791 44.5974 19.7791 44.3538C19.7791 44.1103 19.6932 43.8765 19.5401 43.7028C19.3843 43.5321 19.1745 43.4364 18.9561 43.4364C18.7376 43.4364 18.5279 43.5321 18.3721 43.7028C18.2189 43.8765 18.1331 44.1103 18.1331 44.3538C18.1331 44.5974 18.2189 44.8312 18.3721 45.0049ZM22.3001 49.2654C22.4559 49.4365 22.6658 49.5324 22.8846 49.5324C23.1033 49.5324 23.3132 49.4365 23.4691 49.2654C23.6222 49.0918 23.7081 48.858 23.7081 48.6144C23.7081 48.3709 23.6222 48.1371 23.4691 47.9634C23.3133 47.7927 23.1035 47.697 22.8851 47.697C22.6666 47.697 22.4569 47.7927 22.3011 47.9634C22.1479 48.1371 22.0621 48.3709 22.0621 48.6144C22.0621 48.858 22.1479 49.0918 22.3011 49.2654H22.3001ZM26.1241 49.2654C26.2799 49.4362 26.4896 49.5319 26.7081 49.5319C26.9265 49.5319 27.1363 49.4362 27.2921 49.2654C27.4452 49.0918 27.5311 48.858 27.5311 48.6144C27.5311 48.3709 27.4452 48.1371 27.2921 47.9634C27.1363 47.7927 26.9265 47.697 26.7081 47.697C26.4896 47.697 26.2799 47.7927 26.1241 47.9634C25.9709 48.1371 25.8851 48.3709 25.8851 48.6144C25.8851 48.858 25.9709 49.0918 26.1241 49.2654ZM22.3011 45.0049C22.4569 45.1759 22.6668 45.2718 22.8856 45.2718C23.1043 45.2718 23.3142 45.1759 23.4701 45.0049C23.6232 44.8312 23.7091 44.5974 23.7091 44.3538C23.7091 44.1103 23.6232 43.8765 23.4701 43.7028C23.3142 43.5317 23.1043 43.4358 22.8856 43.4358C22.6668 43.4358 22.4569 43.5317 22.3011 43.7028C22.1479 43.8765 22.0621 44.1103 22.0621 44.3538C22.0621 44.5974 22.1479 44.8312 22.3011 45.0049ZM18.3731 40.6261C18.5289 40.7968 18.7386 40.8925 18.9571 40.8925C19.1755 40.8925 19.3853 40.7968 19.5411 40.6261C19.6942 40.4524 19.7801 40.2186 19.7801 39.9751C19.7801 39.7315 19.6942 39.4977 19.5411 39.3241C19.3853 39.1533 19.1755 39.0576 18.9571 39.0576C18.7386 39.0576 18.5289 39.1533 18.3731 39.3241C18.0551 39.7978 18.0551 40.2716 18.3731 40.6261Z" fill="#0A3B3C"/>
<path id="Vector_9" d="M26.1231 32.106C26.2789 32.2767 26.4886 32.3724 26.7071 32.3724C26.9255 32.3724 27.1353 32.2767 27.2911 32.106C27.4442 31.9323 27.5301 31.6985 27.5301 31.455C27.5301 31.2114 27.4442 30.9776 27.2911 30.8039C27.1353 30.6332 26.9255 30.5375 26.7071 30.5375C26.4886 30.5375 26.2789 30.6332 26.1231 30.8039C25.9699 30.9776 25.8841 31.2114 25.8841 31.455C25.8841 31.6985 25.9699 31.9323 26.1231 32.106ZM22.3001 27.8465C22.4559 28.0172 22.6656 28.1129 22.8841 28.1129C23.1025 28.1129 23.3123 28.0172 23.4681 27.8465C23.6215 27.6728 23.7076 27.4387 23.7076 27.1949C23.7076 26.9511 23.6215 26.7171 23.4681 26.5433C23.3123 26.3726 23.1025 26.2769 22.8841 26.2769C22.6656 26.2769 22.4559 26.3726 22.3001 26.5433C22.1469 26.717 22.0611 26.9508 22.0611 27.1944C22.0611 27.4379 22.1469 27.6717 22.3001 27.8454V27.8465ZM29.9451 27.8465C30.1009 28.0172 30.3106 28.1129 30.5291 28.1129C30.7475 28.1129 30.9573 28.0172 31.1131 27.8465C31.2665 27.6728 31.3526 27.4387 31.3526 27.1949C31.3526 26.9511 31.2665 26.7171 31.1131 26.5433C30.9573 26.3726 30.7475 26.2769 30.5291 26.2769C30.3106 26.2769 30.1009 26.3726 29.9451 26.5433C29.7919 26.717 29.7061 26.9508 29.7061 27.1944C29.7061 27.4379 29.7919 27.6717 29.9451 27.8454V27.8465ZM26.1231 27.8465C26.2789 28.0172 26.4886 28.1129 26.7071 28.1129C26.9255 28.1129 27.1353 28.0172 27.2911 27.8465C27.4445 27.6728 27.5306 27.4387 27.5306 27.1949C27.5306 26.9511 27.4445 26.7171 27.2911 26.5433C27.1353 26.3726 26.9255 26.2769 26.7071 26.2769C26.4886 26.2769 26.2789 26.3726 26.1231 26.5433C25.9699 26.717 25.8841 26.9508 25.8841 27.1944C25.8841 27.4379 25.9699 27.6717 26.1231 27.8454V27.8465ZM18.3721 40.626C18.5279 40.7968 18.7376 40.8925 18.9561 40.8925C19.1745 40.8925 19.3843 40.7968 19.5401 40.626C19.6932 40.4524 19.7791 40.2186 19.7791 39.975C19.7791 39.7315 19.6932 39.4977 19.5401 39.324C19.3843 39.1533 19.1745 39.0576 18.9561 39.0576C18.7376 39.0576 18.5279 39.1533 18.3721 39.324C18.0541 39.7978 18.0541 40.2715 18.3721 40.626ZM22.3001 36.3654C22.4559 36.5365 22.6658 36.6324 22.8846 36.6324C23.1033 36.6324 23.3132 36.5365 23.4691 36.3654C23.6222 36.1918 23.7081 35.958 23.7081 35.7144C23.7081 35.4709 23.6222 35.2371 23.4691 35.0634C23.3133 34.8927 23.1035 34.797 22.8851 34.797C22.6666 34.797 22.4569 34.8927 22.3011 35.0634C22.1479 35.2371 22.0621 35.4709 22.0621 35.7144C22.0621 35.958 22.1479 36.1918 22.3011 36.3654H22.3001ZM18.3721 32.1049C18.5279 32.2756 18.7376 32.3713 18.9561 32.3713C19.1745 32.3713 19.3843 32.2756 19.5401 32.1049C19.6935 31.9311 19.7796 31.6971 19.7796 31.4533C19.7796 31.2095 19.6935 30.9754 19.5401 30.8017C19.3843 30.631 19.1745 30.5353 18.9561 30.5353C18.7376 30.5353 18.5279 30.631 18.3721 30.8017C18.2189 30.9754 18.1331 31.2092 18.1331 31.4527C18.1331 31.6963 18.2189 31.9301 18.3721 32.1037V32.1049ZM18.3721 36.3654C18.5279 36.5362 18.7376 36.6319 18.9561 36.6319C19.1745 36.6319 19.3843 36.5362 19.5401 36.3654C19.6932 36.1918 19.7791 35.958 19.7791 35.7144C19.7791 35.4709 19.6932 35.2371 19.5401 35.0634C19.3843 34.8927 19.1745 34.797 18.9561 34.797C18.7376 34.797 18.5279 34.8927 18.3721 35.0634C18.2189 35.2371 18.1331 35.4709 18.1331 35.7144C18.1331 35.958 18.2189 36.1918 18.3721 36.3654ZM18.3721 27.8431C18.5279 28.0139 18.7376 28.1096 18.9561 28.1096C19.1745 28.1096 19.3843 28.0139 19.5401 27.8431C19.6932 27.6695 19.7791 27.4357 19.7791 27.1921C19.7791 26.9486 19.6932 26.7148 19.5401 26.5411C19.3843 26.3704 19.1745 26.2747 18.9561 26.2747C18.7376 26.2747 18.5279 26.3704 18.3721 26.5411C18.2189 26.7148 18.1331 26.9486 18.1331 27.1921C18.1331 27.4357 18.2189 27.6695 18.3721 27.8431ZM22.3001 32.1049C22.4559 32.2759 22.6658 32.3718 22.8846 32.3718C23.1033 32.3718 23.3132 32.2759 23.4691 32.1049C23.6225 31.9311 23.7086 31.6971 23.7086 31.4533C23.7086 31.2095 23.6225 30.9754 23.4691 30.8017C23.3133 30.631 23.1035 30.5353 22.8851 30.5353C22.6666 30.5353 22.4569 30.631 22.3011 30.8017C22.1479 30.9754 22.0621 31.2092 22.0621 31.4527C22.0621 31.6963 22.1479 31.9301 22.3011 32.1037L22.3001 32.1049Z" fill="#0A3B3C"/>
<path id="Vector_10" d="M26.1241 32.1049C26.2799 32.2757 26.4896 32.3713 26.7081 32.3713C26.9265 32.3713 27.1363 32.2757 27.2921 32.1049C27.4455 31.9312 27.5316 31.6972 27.5316 31.4533C27.5316 31.2095 27.4455 30.9755 27.2921 30.8018C27.1363 30.631 26.9265 30.5353 26.7081 30.5353C26.4896 30.5353 26.2799 30.631 26.1241 30.8018C25.9709 30.9754 25.8851 31.2092 25.8851 31.4528C25.8851 31.6963 25.9709 31.9301 26.1241 32.1038V32.1049ZM22.3011 27.8432C22.4569 28.0143 22.6668 28.1102 22.8856 28.1102C23.1043 28.1102 23.3142 28.0143 23.4701 27.8432C23.6232 27.6695 23.7091 27.4357 23.7091 27.1922C23.7091 26.9486 23.6232 26.7148 23.4701 26.5412C23.3142 26.3701 23.1043 26.2742 22.8856 26.2742C22.6668 26.2742 22.4569 26.3701 22.3011 26.5412C22.1479 26.7148 22.0621 26.9486 22.0621 27.1922C22.0621 27.4357 22.1479 27.6695 22.3011 27.8432ZM18.3721 40.6261C18.5279 40.7968 18.7376 40.8925 18.9561 40.8925C19.1745 40.8925 19.3843 40.7968 19.5401 40.6261C19.6932 40.4524 19.7791 40.2186 19.7791 39.9751C19.7791 39.7315 19.6932 39.4977 19.5401 39.3241C19.3843 39.1533 19.1745 39.0576 18.9561 39.0576C18.7376 39.0576 18.5279 39.1533 18.3721 39.3241C18.0531 39.7978 18.0531 40.2716 18.3721 40.6261Z" fill="#0A3B3C"/>
</g>
<path id="Vector_11" d="M42.736 27.307C38.912 23.9683 34.614 26.3717 30.971 26.3717C27.329 26.3717 23.029 23.9683 19.207 27.3081C15.7 30.3692 14.536 39.6652 19.267 47.8798C23.805 55.7611 28.381 53.0891 30.971 53.0891C33.561 53.0891 38.138 55.7611 42.676 47.8798C47.406 39.6652 46.242 30.3692 42.736 27.307V27.307Z" stroke="#0B3B3D" stroke-width="1.902" stroke-miterlimit="10" stroke-linecap="square"/>
<path id="Vector_12" fill-rule="evenodd" clip-rule="evenodd" d="M39.34 15.009C37.598 15.242 35.99 16.0012 34.764 17.1605C33.281 18.564 32.493 20.4178 32.493 22.2973V24.1879C34.236 23.9549 35.844 23.1958 37.069 22.0365C38.553 20.6319 39.341 18.7791 39.341 16.8997V15.009H39.34ZM33.287 15.2208C35.223 13.3893 37.813 12.3894 40.482 12.3894H41.624V16.8997C41.624 19.6018 40.487 22.1401 38.546 23.9761C36.611 25.8066 34.021 26.8076 31.352 26.8076H30.21V22.2973C30.21 19.5951 31.346 17.0557 33.288 15.2208H33.287Z" fill="#0B3B3D"/>
<path id="Vector_13" fill-rule="evenodd" clip-rule="evenodd" d="M24.171 16.9008C24.214 16.7408 24.2849 16.5918 24.3797 16.4623C24.4744 16.3328 24.591 16.2255 24.723 16.1463C24.855 16.0671 24.9996 16.0176 25.1487 16.0008C25.2978 15.9839 25.4484 16 25.592 16.048C27.579 16.7124 29.201 18.3332 30.313 20.1982C31.425 22.0632 32.105 24.3028 32.105 26.374C32.105 26.7115 31.9847 27.0351 31.7706 27.2738C31.5566 27.5124 31.2662 27.6465 30.9635 27.6465C30.6607 27.6465 30.3704 27.5124 30.1563 27.2738C29.9422 27.0351 29.822 26.7115 29.822 26.374C29.822 24.8824 29.317 23.1256 28.412 21.6062C27.506 20.0868 26.279 18.9341 24.936 18.4849C24.6463 18.3879 24.403 18.1667 24.2595 17.8699C24.1161 17.5731 24.0842 17.2249 24.171 16.9019V16.9008Z" fill="#0B3B3D"/>
</g>
</g>
</svg>
