<svg width="62" height="68" viewBox="0 0 62 68" fill="none" xmlns="http://www.w3.org/2000/svg">
<g id="Frame">
<path id="Vector" fill-rule="evenodd" clip-rule="evenodd" d="M21.8818 22.9445C24.1695 24.4964 26.7104 26.2206 31.1051 26.2206C35.5176 26.2206 38.0628 24.5096 40.3547 22.9697L40.4818 22.8842C41.6356 22.1088 42.8357 21.3103 44.1766 20.9319C45.5753 20.5371 47.0664 20.6095 48.8182 21.3981L48.8318 21.4046C50.7717 22.315 51.831 24.1137 52.3837 26.2008C52.9259 28.254 53.0132 30.702 52.9596 33.1588C52.9194 34.6038 52.8567 36.0481 52.7715 37.491C52.7137 38.5626 52.6569 39.6144 52.6233 40.5883C52.5371 42.9924 52.5718 45.107 52.9301 46.7489L52.9312 46.7533C53.4188 49.0192 54.2815 50.5733 55.1853 51.5736L55.82 52.2755L55.2946 53.0828C49.931 61.3228 41.0671 66.7749 31.1051 66.7749C21.1452 66.7749 12.3863 61.4402 6.91669 53.0861L6.38916 52.2788L7.02597 51.5736C7.9297 50.5733 8.7914 49.0181 9.27899 46.7533V46.7489C9.63838 45.1081 9.67306 42.9859 9.58794 40.5719C9.55326 39.5935 9.49652 38.5362 9.43872 37.4603C9.36096 35.9994 9.28109 34.5034 9.24957 33.1149C9.19702 30.6515 9.28425 28.1992 9.82753 26.1504C10.3792 24.0698 11.4406 22.2799 13.3847 21.4013C15.1333 20.5832 16.6265 20.491 18.0294 20.8815C19.3745 21.2544 20.5777 22.0605 21.7315 22.8425L21.8818 22.9434V22.9445ZM17.5155 23.1485C16.5908 22.8919 15.5652 22.9171 14.2022 23.5565L14.1875 23.5631C13.0232 24.0873 12.2907 25.16 11.8536 26.8095C11.407 28.4931 11.3092 30.6417 11.3618 33.059C11.3922 34.453 11.4669 35.8327 11.5415 37.2267C11.6003 38.2982 11.6581 39.3786 11.698 40.4808C11.7832 42.9091 11.7653 45.3143 11.3323 47.2962C10.8637 49.4755 10.0755 51.1853 9.13608 52.4675C14.2484 59.8049 22.1519 64.4377 31.1051 64.4377C40.0531 64.4377 48.0521 59.7018 53.0762 52.4686C52.1357 51.1864 51.3465 49.4766 50.8778 47.2962C50.4449 45.3143 50.426 42.9168 50.5132 40.4962C50.5521 39.3994 50.6099 38.3224 50.6687 37.2552C50.7444 35.8678 50.819 34.4935 50.8495 33.1028C50.902 30.6932 50.8032 28.5479 50.3566 26.8578C49.9195 25.205 49.186 24.1126 48.0153 23.5598C46.6555 22.9489 45.6278 22.9346 44.6989 23.1968C43.7111 23.4753 42.7727 24.0786 41.5778 24.8825C41.5274 24.9154 41.4759 24.9494 41.4255 24.9845C39.0768 26.5639 36.1103 28.5578 31.1061 28.5578C26.1125 28.5578 23.147 26.5452 20.8047 24.9549L20.6292 24.8353C19.4344 24.0259 18.4991 23.4205 17.5155 23.1485Z" fill="#0B3B3D"/>
<path id="Vector_2" fill-rule="evenodd" clip-rule="evenodd" d="M1.22639 33.7006C1.22639 15.4064 14.5795 0.625153 31.1051 0.625153C47.6308 0.625153 60.9839 15.4075 60.9839 33.7006C60.9839 40.9656 58.9043 47.6351 55.2893 53.0915L54.5622 54.1894L53.6921 53.2264C52.4836 51.8895 51.4464 49.9383 50.8779 47.2962C50.4449 45.3143 50.426 42.9091 50.5132 40.4808C50.5521 39.3786 50.6099 38.2983 50.6688 37.2256C50.7444 35.8327 50.819 34.4541 50.8485 33.0579C50.901 30.6417 50.8033 28.4931 50.3567 26.8095C49.9195 25.16 49.1881 24.0873 48.0227 23.5631L48.008 23.5565C46.6451 22.9171 45.6194 22.8919 44.6947 23.1485C43.7111 23.4216 42.7759 24.0259 41.581 24.8364L41.4066 24.9549C39.0632 26.5452 36.0977 28.5578 31.1051 28.5578C26.1 28.5578 23.1345 26.5639 20.7858 24.9845L20.6334 24.8825C19.4376 24.0786 18.5002 23.4753 17.5124 23.1968C16.5814 22.9335 15.5515 22.9489 14.1875 23.5631C13.0222 24.0873 12.2908 25.16 11.8536 26.8095C11.407 28.4931 11.3093 30.6417 11.3618 33.059C11.3912 34.4541 11.4669 35.8338 11.5415 37.2267C11.6004 38.2983 11.6582 39.3786 11.697 40.4808C11.7832 42.9091 11.7653 45.3143 11.3324 47.2962C10.7649 49.9383 9.72565 51.8895 8.51822 53.2264L7.64812 54.1894L6.92094 53.0915C3.30602 47.6351 1.22534 40.9656 1.22534 33.7006H1.22639ZM31.1051 2.96348C15.746 2.96348 3.33755 16.6984 3.33755 33.7006C3.33755 39.9193 4.97372 45.6543 7.84673 50.4735C8.42995 49.5369 8.94277 48.314 9.27904 46.7533V46.7489C9.63843 45.1081 9.67311 42.9859 9.58799 40.5719C9.55331 39.5935 9.49656 38.5363 9.43877 37.4603C9.361 36.0005 9.28114 34.5034 9.24961 33.1149C9.19707 30.6526 9.28429 28.1992 9.82758 26.1504C10.3803 24.0665 11.4427 22.2755 13.3921 21.3981C15.1438 20.6095 16.635 20.5371 18.0336 20.9319C19.3745 21.3103 20.5746 22.1088 21.7284 22.8842L21.8566 22.9697C24.1475 24.5096 26.6926 26.2206 31.1051 26.2206C35.4998 26.2206 38.0407 24.4964 40.3284 22.9445L40.4787 22.8425C41.6325 22.0605 42.8347 21.2544 44.1808 20.8815C45.5848 20.4921 47.077 20.5832 48.8256 21.4013C50.7696 22.2799 51.831 24.0698 52.3827 26.1504C52.926 28.1992 53.0132 30.6526 52.9607 33.1149C52.9291 34.5034 52.8493 35.9994 52.7715 37.4603C52.7137 38.5363 52.657 39.5935 52.6223 40.5719C52.5382 42.9848 52.5719 45.1081 52.9302 46.7489L52.9312 46.7533C53.2675 48.314 53.7803 49.5369 54.3636 50.4735C57.2366 45.6543 58.8717 39.9193 58.8717 33.7006C58.8717 16.6984 46.4643 2.96348 31.1051 2.96348Z" fill="#0B3B3D"/>
<mask id="mask0_1_188" style="mask-type:alpha" maskUnits="userSpaceOnUse" x="2" y="1" width="58" height="52">
<g id="a">
<path id="Vector_3" d="M31.1051 1.79321C15.1638 1.79321 2.28247 16.0513 2.28247 33.6984C2.28247 40.7112 4.28854 47.1393 7.7721 52.3984C8.8282 51.2303 9.77922 49.4766 10.3057 47.0231C11.8904 39.7767 7.56088 25.285 13.7903 22.4795C20.0197 19.675 21.4972 27.3875 31.1051 27.3875C40.713 27.3875 42.1916 19.5566 48.4199 22.4795C54.6494 25.2839 50.3209 39.7756 51.9045 47.0231C52.4321 49.4766 53.3831 51.2303 54.4381 52.3984C57.9227 47.1393 59.9288 40.7112 59.9288 33.6984C59.9288 16.0513 47.0475 1.79321 31.1051 1.79321Z" fill="#C4C4C4"/>
</g>
</mask>
<g mask="url(#mask0_1_188)">
<g id="Group">
<path id="Vector_4" d="M10.2615 25.5044C10.2572 25.9453 10.5851 26.3083 10.9834 26.305C11.3806 26.2995 11.7148 25.9299 11.719 25.4901C11.7221 25.0492 11.3943 24.6862 10.997 24.6895C10.5988 24.695 10.2646 25.0646 10.2615 25.5044ZM0.564231 36.2385C0.561079 36.6794 0.889994 37.0424 1.28616 37.0392C1.68443 37.0337 2.0186 36.6641 2.02176 36.2243C2.02596 35.7844 1.6981 35.4203 1.29982 35.4247C0.902604 35.4291 0.568435 35.7987 0.564231 36.2385ZM0.609418 30.9586C0.605214 31.3984 0.933079 31.7626 1.33135 31.7582C1.72857 31.7538 2.06274 31.3842 2.06694 30.9433C2.0701 30.5046 1.74118 30.1404 1.34396 30.1437C0.94674 30.1481 0.61257 30.5188 0.608367 30.9586H0.609418ZM5.38027 30.9093C5.37606 31.3491 5.70393 31.7132 6.1022 31.7088C6.49942 31.7044 6.83359 31.3348 6.83779 30.8939C6.84094 30.4552 6.51203 30.0911 6.11586 30.0955C5.71759 30.0988 5.38342 30.4684 5.38027 30.9093ZM3.01586 28.2935C3.01271 28.7344 3.34162 29.0974 3.73884 29.0941C4.13606 29.0886 4.47023 28.719 4.47443 28.2792C4.47759 27.8394 4.14867 27.4753 3.7525 27.4786C3.35423 27.4841 3.02006 27.8537 3.01691 28.2935H3.01586ZM0.588401 25.6053C0.584198 26.0451 0.913113 26.4092 1.31033 26.4048C1.70755 26.4004 2.04277 26.0308 2.04593 25.591C2.05013 25.1501 1.72121 24.7871 1.32399 24.7904C0.925723 24.7948 0.591553 25.1655 0.588401 25.6053ZM2.97172 33.5744C2.96857 34.0142 3.29749 34.3773 3.69366 34.374C4.09193 34.3696 4.4261 33.9989 4.42925 33.5591C4.43345 33.1193 4.10559 32.7563 3.70732 32.7595C3.3101 32.7639 2.97593 33.1335 2.97172 33.5744ZM7.85396 28.1695C7.85081 28.6093 8.17867 28.9724 8.57589 28.9691C8.97416 28.9647 9.30833 28.5951 9.31149 28.1542C9.31569 27.7155 8.98677 27.3513 8.58955 27.3557C8.19233 27.359 7.85816 27.7286 7.85396 28.1695ZM5.4906 25.5548C5.48745 25.9935 5.81532 26.3577 6.21254 26.3533C6.61081 26.3489 6.94498 25.9793 6.94813 25.5395C6.95233 25.0986 6.62342 24.7355 6.2262 24.7388C5.82898 24.7443 5.49481 25.1139 5.4906 25.5537V25.5548ZM3.0621 22.8655C3.05894 23.3053 3.38786 23.6695 3.78403 23.6651C4.1823 23.6607 4.51647 23.2911 4.51962 22.8502C4.52382 22.4115 4.19596 22.0473 3.79769 22.0517C3.40047 22.055 3.0663 22.4246 3.0621 22.8655Z" fill="#0A3B3C"/>
<path id="Vector_5" d="M10.2615 25.5044C10.2583 25.9453 10.5862 26.3083 10.9834 26.3051C11.3817 26.2996 11.7158 25.93 11.719 25.4901C11.7232 25.0492 11.3953 24.6862 10.9971 24.6895C10.5998 24.695 10.2657 25.0646 10.2615 25.5044ZM0.564249 36.2385C0.560045 36.6794 0.888961 37.0425 1.28618 37.0392C1.6834 37.0337 2.01757 36.6641 2.02177 36.2243C2.02598 35.7845 1.69706 35.4203 1.29984 35.4247C0.902622 35.4291 0.567401 35.7987 0.564249 36.2385ZM0.609435 30.9587C0.605232 31.3985 0.933096 31.7626 1.33032 31.7582C1.72859 31.7538 2.06276 31.3842 2.06591 30.9433C2.07011 30.5046 1.7412 30.1405 1.34398 30.1438C0.946757 30.1481 0.612588 30.5189 0.608384 30.9587H0.609435ZM19.9576 14.7703C19.9545 15.2101 20.2824 15.5742 20.6796 15.5698C21.0778 15.5654 21.412 15.1958 21.4152 14.756C21.4194 14.3151 21.0905 13.9521 20.6932 13.9554C20.296 13.9609 19.9618 14.3305 19.9576 14.7703Z" fill="#0A3B3C"/>
<path id="Vector_6" d="M10.2615 25.5044C10.2573 25.9453 10.5863 26.3083 10.9835 26.305C11.3807 26.2996 11.7159 25.9299 11.7191 25.4901C11.7233 25.0492 11.3944 24.6862 10.9971 24.6895C10.5999 24.695 10.2647 25.0646 10.2615 25.5044ZM10.3057 20.2245C10.3015 20.6643 10.6304 21.0274 11.0276 21.0241C11.4248 21.0197 11.76 20.6501 11.7632 20.2092C11.7674 19.7694 11.4385 19.4063 11.0413 19.4096C10.644 19.414 10.3088 19.7847 10.3057 20.2245ZM7.87717 17.5363C7.87401 17.9761 8.20188 18.3392 8.5991 18.3359C8.99737 18.3315 9.33154 17.9608 9.33469 17.521C9.33889 17.0812 9.00998 16.7181 8.61276 16.7214C8.21554 16.7258 7.88137 17.0954 7.87717 17.5363ZM15.1427 20.1006C15.1396 20.5393 15.4685 20.9034 15.8657 20.899C16.2629 20.8957 16.5971 20.5261 16.6013 20.0852C16.6045 19.6454 16.2766 19.2813 15.8794 19.2857C15.4149 19.3636 15.1469 19.6597 15.1438 20.1006H15.1427ZM12.7804 17.4848C12.7762 17.9246 13.1041 18.2876 13.5024 18.2843C13.8996 18.2799 14.2337 17.9103 14.2379 17.4694C14.2411 17.0296 13.9122 16.6666 13.516 16.6699C13.0515 16.7488 12.7836 17.045 12.7804 17.4848ZM10.3509 14.7955C10.3477 15.2364 10.6766 15.5994 11.0738 15.5961C11.4711 15.5917 11.8063 15.221 11.8094 14.7812C11.8136 14.3414 11.4847 13.9784 11.0875 13.9817C10.623 14.0596 10.3551 14.3557 10.3519 14.7966L10.3509 14.7955ZM12.669 22.8403C12.6648 23.279 12.9937 23.6432 13.391 23.6388C13.7882 23.6355 14.1234 23.2659 14.1266 22.825C14.1308 22.3852 13.8018 22.021 13.4046 22.0254C13.0074 22.0298 12.6722 22.3994 12.669 22.8403ZM17.5513 17.4354C17.5471 17.8752 17.8749 18.2383 18.2732 18.235C18.6704 18.2306 19.0046 17.861 19.0088 17.4201C19.0119 16.9803 18.6841 16.6172 18.2869 16.6216C17.8886 16.6249 17.5544 16.9945 17.5513 17.4354ZM15.1879 14.8196C15.1837 15.2594 15.5126 15.6236 15.9098 15.6192C16.3071 15.6148 16.6412 15.2452 16.6454 14.8054C16.6486 14.3645 16.3207 14.0014 15.9235 14.0047C15.5252 14.0091 15.1911 14.3798 15.1879 14.8196ZM12.7594 12.1314C12.7552 12.5712 13.0841 12.9354 13.4813 12.931C13.8786 12.9266 14.2127 12.557 14.2169 12.1161C14.2211 11.6774 13.8922 11.3132 13.495 11.3165C13.0967 11.3209 12.7626 11.6916 12.7594 12.1314ZM19.9577 14.7703C19.9546 15.2101 20.2835 15.5742 20.6807 15.5698C21.0779 15.5654 21.4121 15.1958 21.4163 14.756C21.4194 14.3151 21.0905 13.9521 20.6933 13.9554C20.2961 13.9608 19.9619 14.3305 19.9577 14.7703ZM0.697776 20.2465C0.694624 20.6852 1.02354 21.0493 1.41971 21.0449C1.81798 21.0416 2.15215 20.6709 2.1553 20.2311C2.15951 19.7902 1.83164 19.4272 1.43337 19.4316C1.03615 19.4359 0.70198 19.8056 0.697776 20.2454V20.2465ZM5.48964 25.5494C5.48649 25.9903 5.8154 26.3533 6.21262 26.35C6.60984 26.3445 6.94401 25.9749 6.94822 25.5351C6.95137 25.0953 6.62245 24.7312 6.22523 24.7345C5.82801 24.7399 5.49384 25.1096 5.48964 25.5494ZM3.06113 22.8612C3.05798 23.301 3.38689 23.6651 3.78412 23.6607C4.18134 23.6563 4.51551 23.2867 4.51971 22.8469C4.52286 22.406 4.19395 22.043 3.79673 22.0463C3.39951 22.0507 3.06534 22.4214 3.06113 22.8612ZM3.10527 17.5813C3.10212 18.0211 3.42998 18.3841 3.8272 18.3808C4.22547 18.3765 4.55964 18.0057 4.56279 17.5659C4.567 17.1261 4.23808 16.7631 3.84086 16.7664C3.44364 16.7708 3.10947 17.1404 3.10527 17.5813ZM7.89713 22.8853C7.89398 23.324 8.22289 23.6881 8.62012 23.6848C9.01734 23.6805 9.3515 23.3097 9.35571 22.8699C9.35886 22.4301 9.02995 22.066 8.63273 22.0704C8.23551 22.0748 7.90134 22.4444 7.89713 22.8853ZM5.46862 20.1971C5.46547 20.6358 5.79439 20.9999 6.19161 20.9956C6.58883 20.9923 6.923 20.6226 6.9272 20.1817C6.93035 19.7419 6.60144 19.3778 6.20422 19.3822C5.807 19.3866 5.47283 19.7562 5.46862 20.196V20.1971ZM0.741912 14.9655C0.738759 15.4053 1.06767 15.7683 1.46384 15.765C1.86212 15.7606 2.19628 15.391 2.19944 14.9501C2.20364 14.5103 1.87578 14.1473 1.47751 14.1506C1.08028 14.155 0.746115 14.5257 0.741912 14.9655ZM5.51276 14.9161C5.50961 15.3559 5.83852 15.719 6.23469 15.7157C6.63296 15.7113 6.96713 15.3417 6.97028 14.9008C6.97449 14.4621 6.64662 14.0979 6.24835 14.1023C5.85113 14.1056 5.51696 14.4752 5.51276 14.9161Z" fill="#0A3B3C"/>
<path id="Vector_7" d="M10.2604 25.5022C10.2573 25.9431 10.5862 26.3061 10.9834 26.3029C11.3806 26.2974 11.7148 25.9278 11.719 25.488C11.7222 25.0471 11.3932 24.684 10.996 24.6873C10.5988 24.6928 10.2646 25.0624 10.2604 25.5022ZM10.3046 20.2223C10.3014 20.6621 10.6303 21.0263 11.0276 21.0219C11.4248 21.0175 11.7589 20.6479 11.7631 20.207C11.7663 19.7683 11.4374 19.4041 11.0402 19.4074C10.6429 19.4118 10.3088 19.7825 10.3046 20.2223ZM7.87711 17.5341C7.87291 17.974 8.20077 18.337 8.59904 18.3337C8.99626 18.3293 9.33043 17.9586 9.33464 17.5188C9.33779 17.079 9.00887 16.716 8.6127 16.7192C8.21443 16.7236 7.88026 17.0932 7.87711 17.5341ZM0.69877 20.2476C0.694567 20.6885 1.02243 21.0515 1.4207 21.0482C1.81792 21.0427 2.15209 20.6731 2.1563 20.2333C2.15945 19.7924 1.83053 19.4294 1.43436 19.4327C1.03609 19.4381 0.701923 19.8078 0.69877 20.2476ZM0.742906 14.9677C0.738703 15.4075 1.06762 15.7705 1.46484 15.7672C1.86206 15.7629 2.19623 15.3932 2.20043 14.9523C2.20358 14.5125 1.87572 14.1495 1.4785 14.1539C1.08023 14.1572 0.746059 14.5268 0.742906 14.9677ZM19.9587 14.7703C19.9545 15.2101 20.2834 15.5742 20.6806 15.5698C21.0779 15.5654 21.412 15.1958 21.4162 14.756C21.4194 14.3151 21.0915 13.9521 20.6943 13.9554C20.296 13.9609 19.9619 14.3305 19.9587 14.7703ZM20.0028 9.49041C19.9986 9.93021 20.3265 10.2932 20.7248 10.29C21.122 10.2856 21.4562 9.91486 21.4604 9.47505C21.4635 9.03524 21.1357 8.67221 20.7384 8.6755C20.3402 8.67989 20.006 9.0506 20.0028 9.49041ZM17.5743 6.80221C17.5701 7.24092 17.899 7.60505 18.2963 7.60066C18.6935 7.59737 19.0287 7.22776 19.0319 6.78686C19.0361 6.34705 18.7071 5.98292 18.3099 5.98731C17.9127 5.9917 17.5775 6.36131 17.5743 6.80221ZM24.8399 9.36647C24.8367 9.80518 25.1657 10.1693 25.5629 10.1649C25.9601 10.1616 26.2943 9.79202 26.2985 9.35112C26.3016 8.91131 25.9727 8.54718 25.5755 8.55157C25.1783 8.55595 24.8441 8.92557 24.8399 9.36537V9.36647ZM22.4776 6.75066C22.4734 7.19047 22.8012 7.5535 23.1995 7.55021C23.5967 7.54583 23.9309 7.17512 23.9351 6.73531C23.9383 6.2955 23.6093 5.93247 23.2121 5.93576C22.8149 5.94015 22.4807 6.30976 22.4765 6.75066H22.4776ZM20.0491 4.06247C20.0449 4.50118 20.3727 4.86531 20.771 4.86092C21.1682 4.85763 21.5024 4.48802 21.5066 4.04712C21.5098 3.60731 21.1808 3.24318 20.7847 3.24757C20.3864 3.25195 20.0522 3.62157 20.0491 4.06247ZM22.3662 12.1051C22.362 12.546 22.6909 12.9091 23.0881 12.9058C23.4853 12.9014 23.8195 12.5307 23.8237 12.0909C23.8269 11.6511 23.499 11.2869 23.1018 11.2913C22.7035 11.2957 22.3693 11.6653 22.3662 12.1051ZM10.3949 9.51344C10.3918 9.95434 10.7207 10.3174 11.1169 10.313C11.5151 10.3086 11.8493 9.93899 11.8525 9.49918C11.8567 9.05828 11.5288 8.69525 11.1305 8.69854C10.7333 8.70402 10.3991 9.07363 10.3949 9.51344ZM15.1868 14.8174C15.1837 15.2583 15.5126 15.6214 15.9098 15.6181C16.307 15.6126 16.6412 15.243 16.6454 14.8032C16.6485 14.3623 16.3196 13.9992 15.9224 14.0025C15.5252 14.008 15.191 14.3776 15.1868 14.8174ZM12.7583 12.1292C12.7551 12.5691 13.0841 12.9332 13.4813 12.9288C13.8785 12.9244 14.2127 12.5548 14.2169 12.1139C14.22 11.6752 13.8911 11.3111 13.4939 11.3154C13.0967 11.3187 12.7625 11.6883 12.7583 12.1292ZM12.8024 6.84937C12.7993 7.28808 13.1282 7.65221 13.5254 7.64783C13.9226 7.64454 14.2568 7.27492 14.261 6.83402C14.2642 6.39421 13.9352 6.03008 13.538 6.03447C13.1408 6.03886 12.8066 6.40847 12.8024 6.84937ZM17.5943 12.1523C17.5911 12.5932 17.9201 12.9562 18.3173 12.9529C18.7145 12.9485 19.0487 12.5778 19.0529 12.138C19.056 11.6982 18.7271 11.3341 18.3299 11.3385C17.9327 11.3429 17.5985 11.7125 17.5943 12.1534V12.1523ZM15.1658 9.46518C15.1626 9.90389 15.4916 10.268 15.8888 10.2636C16.286 10.2592 16.6202 9.88963 16.6244 9.44983C16.6275 9.00892 16.2986 8.64589 15.9014 8.64918C15.5042 8.65466 15.17 9.02428 15.1658 9.46408V9.46518ZM10.4391 4.23357C10.4359 4.67337 10.7648 5.03641 11.161 5.03312C11.5593 5.02873 11.8934 4.65802 11.8966 4.21821C11.9008 3.77841 11.5729 3.41537 11.1747 3.41866C10.7774 3.42305 10.4433 3.79376 10.4391 4.23357ZM15.2099 4.18421C15.2068 4.62402 15.5357 4.98705 15.9329 4.98376C16.3301 4.97937 16.6643 4.60866 16.6685 4.16886C16.6717 3.72905 16.3427 3.36602 15.9455 3.36931C15.5483 3.3737 15.2141 3.74441 15.2099 4.18421Z" fill="#0A3B3C"/>
<path id="Vector_8" d="M19.9577 14.7703C19.9546 15.2101 20.2835 15.5742 20.6807 15.5698C21.0779 15.5654 21.4121 15.1958 21.4163 14.756C21.4194 14.3151 21.0905 13.9521 20.6933 13.9554C20.2961 13.9609 19.9619 14.3305 19.9577 14.7703ZM20.0018 9.4904C19.9987 9.93021 20.3276 10.2932 20.7248 10.29C21.122 10.2856 21.4562 9.91486 21.4604 9.47505C21.4636 9.03524 21.1347 8.67221 20.7374 8.6755C20.3402 8.67989 20.006 9.0506 20.0018 9.4904ZM17.5744 6.80221C17.5702 7.24092 17.898 7.60505 18.2963 7.60066C18.6935 7.59737 19.0277 7.22776 19.0319 6.78686C19.0351 6.34705 18.7072 5.98292 18.31 5.98731C17.9117 5.99169 17.5775 6.36131 17.5744 6.80221ZM0.74296 14.9677C0.738756 15.4075 1.06767 15.7705 1.46489 15.7672C1.86211 15.7629 2.19628 15.3932 2.20049 14.9523C2.20364 14.5125 1.87577 14.1495 1.47855 14.1539C1.08028 14.1572 0.746112 14.5268 0.74296 14.9677ZM0.787095 9.68673C0.782892 10.1276 1.11181 10.4907 1.50903 10.4874C1.90625 10.483 2.24042 10.1123 2.24462 9.67247C2.24882 9.23266 1.91991 8.86853 1.52269 8.87292C1.12442 8.87731 0.790248 9.24692 0.787095 9.68673ZM5.51381 14.9183C5.5096 15.3581 5.83852 15.7212 6.23574 15.7179C6.63296 15.7135 6.96713 15.3439 6.97133 14.903C6.97448 14.4643 6.64662 14.1001 6.2494 14.1045C5.85218 14.1078 5.51696 14.4774 5.51381 14.9183ZM5.6252 9.56389C5.62099 10.0026 5.94886 10.3667 6.34713 10.3623C6.74435 10.358 7.07852 9.98834 7.08272 9.54853C7.08587 9.10763 6.75696 8.7446 6.36079 8.74789C5.89632 8.82686 5.62835 9.12298 5.6252 9.56279V9.56389ZM3.26079 6.94699C3.25764 7.38789 3.58655 7.75092 3.98377 7.74763C4.38099 7.74324 4.71516 7.37253 4.71937 6.93273C4.72252 6.49292 4.3936 6.12879 3.99743 6.13318C3.53296 6.21105 3.26499 6.50718 3.26184 6.94699H3.26079ZM3.15045 12.3025C3.14625 12.7423 3.47516 13.1065 3.87238 13.1021C4.2696 13.0977 4.60377 12.7281 4.60798 12.2883C4.61113 11.8474 4.28326 11.4843 3.88604 11.4876C3.48777 11.4931 3.1536 11.8627 3.15045 12.3025ZM8.03269 6.89873C8.02848 7.33744 8.35635 7.70157 8.75462 7.69718C9.15184 7.69389 9.48601 7.32428 9.49021 6.88337C9.49337 6.44357 9.16445 6.07944 8.76828 6.08382C8.37001 6.08821 8.03584 6.45782 8.03269 6.89763V6.89873ZM7.9875 12.1808C7.98435 12.6206 8.31326 12.9836 8.70943 12.9803C9.10771 12.976 9.44188 12.6052 9.44503 12.1654C9.44923 11.7256 9.12137 11.3626 8.72309 11.3659C8.25862 11.4449 7.9917 11.741 7.9875 12.1808ZM0.832282 4.25879C0.829129 4.69969 1.15699 5.06273 1.55421 5.05834C1.95249 5.05395 2.28665 4.68434 2.28981 4.24453C2.29401 3.80363 1.96615 3.4406 1.56787 3.44389C1.1034 3.52286 0.836485 3.81898 0.832282 4.25879ZM5.66828 4.28292C5.66513 4.72273 5.99404 5.08576 6.39126 5.08247C6.78848 5.07808 7.12265 4.70737 7.12686 4.26757C7.13001 3.82776 6.8011 3.46473 6.40493 3.46802C6.00665 3.4724 5.67248 3.84202 5.66933 4.28292H5.66828ZM10.395 9.51563C10.3918 9.95544 10.7208 10.3196 11.1169 10.3152C11.5152 10.3108 11.8494 9.94118 11.8525 9.50137C11.8567 9.06047 11.5289 8.69744 11.1306 8.70073C10.7334 8.70511 10.3992 9.07582 10.395 9.51563ZM10.4402 4.23357C10.436 4.67337 10.7638 5.0364 11.1621 5.03311C11.5593 5.02873 11.8935 4.65802 11.8977 4.21821C11.9009 3.7784 11.5719 3.41537 11.1758 3.41866C10.7775 3.42305 10.4433 3.79376 10.4402 4.23357Z" fill="#0A3B3C"/>
<path id="Vector_9" d="M0.74296 14.9677C0.738757 15.4075 1.06662 15.7705 1.46489 15.7672C1.86211 15.7628 2.19628 15.3932 2.20049 14.9523C2.20364 14.5125 1.87472 14.1495 1.47855 14.1539C1.08028 14.1572 0.746112 14.5268 0.74296 14.9677ZM0.787095 9.6867C0.782892 10.1276 1.11181 10.4906 1.50903 10.4873C1.90625 10.483 2.24042 10.1123 2.24462 9.67245C2.24882 9.23264 1.91991 8.86851 1.52269 8.8729C1.12442 8.87729 0.790248 9.2469 0.787095 9.6867ZM0.832282 4.25877C0.828079 4.69967 1.15699 5.0627 1.55421 5.05832C1.95143 5.05393 2.28665 4.68432 2.28981 4.24451C2.29401 3.80361 1.9651 3.44058 1.56788 3.44387C1.1034 3.52283 0.835434 3.81896 0.832282 4.25877ZM10.4402 4.23354C10.436 4.67335 10.7638 5.03638 11.1621 5.03309C11.5593 5.0287 11.8935 4.65799 11.8977 4.21819C11.9009 3.77838 11.5719 3.41535 11.1758 3.41864C10.7775 3.42303 10.4433 3.79374 10.4402 4.23354ZM15.21 4.18419C15.2068 4.62399 15.5357 4.98703 15.933 4.98374C16.3302 4.97935 16.6643 4.60864 16.6686 4.16883C16.6717 3.72903 16.3428 3.36599 15.9456 3.36928C15.5483 3.37367 15.2142 3.74438 15.21 4.18419ZM12.8477 1.56838C12.8435 2.00819 13.1713 2.37232 13.5696 2.36793C13.9668 2.36354 14.301 1.99393 14.3052 1.55303C14.3083 1.11432 13.9794 0.750188 13.5833 0.754575C13.185 0.757865 12.8508 1.12748 12.8477 1.56838ZM17.6847 1.44664C17.6805 1.88645 18.0094 2.24948 18.4067 2.24619C18.8039 2.2418 19.1391 1.87109 19.1422 1.43128C19.1454 0.991478 18.8175 0.628446 18.4203 0.631736C18.0231 0.636123 17.6879 1.00683 17.6847 1.44664Z" fill="#0A3B3C"/>
<path id="Vector_10" d="M0.832298 4.2566C0.829145 4.6975 1.15701 5.06053 1.55423 5.05724C1.9525 5.05176 2.28667 4.68214 2.28982 4.24234C2.29403 3.80143 1.96616 3.4384 1.56789 3.44169C1.10342 3.52066 0.836501 3.81679 0.832298 4.2566ZM5.6683 4.28072C5.66515 4.72053 5.99406 5.08356 6.39128 5.08027C6.7885 5.07589 7.12267 4.70518 7.12687 4.26537C7.13003 3.82556 6.80111 3.46253 6.40494 3.46582C6.00667 3.47021 5.6725 3.84092 5.66935 4.28072H5.6683ZM3.23979 1.59253C3.23559 2.03124 3.5645 2.39537 3.96172 2.39098C4.35894 2.38769 4.69416 2.01808 4.69731 1.57718C4.70152 1.13737 4.3726 0.77324 3.97538 0.777627C3.57816 0.782014 3.24294 1.15163 3.23979 1.59253ZM8.07684 1.61556C8.07264 2.05537 8.4005 2.4195 8.79877 2.41511C9.19599 2.41072 9.53016 2.04111 9.53437 1.60021C9.53752 1.1615 9.2086 0.797369 8.81243 0.801756C8.41416 0.805046 8.07999 1.17466 8.07684 1.61556ZM10.4402 4.23356C10.436 4.67337 10.7639 5.0364 11.1621 5.03311C11.5593 5.02872 11.8935 4.65801 11.8977 4.21821C11.9009 3.7784 11.572 3.41537 11.1758 3.41866C10.7775 3.42305 10.4433 3.79376 10.4402 4.23356Z" fill="#0A3B3C"/>
<path id="Vector_11" d="M0.832315 4.25878C0.828112 4.69968 1.15703 5.06271 1.55425 5.05833C1.95147 5.05394 2.28669 4.68433 2.28984 4.24452C2.29404 3.80362 1.96513 3.44058 1.56791 3.44387C1.10343 3.52284 0.835468 3.81897 0.832315 4.25878ZM27.3147 6.62562C27.3116 7.06652 27.6405 7.42955 28.0377 7.42626C28.4349 7.42187 28.7691 7.05116 28.7733 6.61136C28.7765 6.17155 28.4475 5.80742 28.0503 5.81181C27.6531 5.8162 27.3189 6.18581 27.3147 6.62562ZM27.3589 1.34574C27.3557 1.78555 27.6846 2.14968 28.0818 2.14529C28.4791 2.14091 28.8132 1.77129 28.8174 1.33039C28.8206 0.89168 28.4917 0.527551 28.0945 0.531938C27.6972 0.535228 27.3631 0.904841 27.3589 1.34574ZM32.1308 1.29639C32.1266 1.7362 32.4544 2.10033 32.8527 2.09594C33.2499 2.09155 33.5841 1.72194 33.5883 1.28103C33.5914 0.842325 33.2636 0.478196 32.8664 0.482583C32.4681 0.485874 32.1339 0.855486 32.1308 1.29639ZM29.7222 3.96155C29.7191 4.40136 30.048 4.76439 30.4452 4.7611C30.8424 4.75671 31.1766 4.386 31.1808 3.9462C31.1839 3.50639 30.855 3.14336 30.4578 3.14665C30.0606 3.15103 29.7264 3.52065 29.7222 3.96155ZM24.9514 4.00652C24.9472 4.44633 25.2761 4.80936 25.6733 4.80607C26.0705 4.80168 26.4057 4.43097 26.4089 3.99116C26.4131 3.55136 26.0842 3.18833 25.687 3.19162C25.2897 3.196 24.9545 3.56671 24.9514 4.00652ZM22.5229 1.31833C22.5197 1.75703 22.8476 2.12116 23.2448 2.11678C23.6431 2.11349 23.9772 1.74387 23.9804 1.30297C23.9846 0.863164 23.6557 0.499035 23.2585 0.503422C22.8612 0.507809 22.5271 0.877422 22.5229 1.31833Z" fill="#0A3B3C"/>
<path id="Vector_12" d="M27.3146 6.62454C27.3104 7.06325 27.6393 7.42738 28.0365 7.42299C28.4337 7.4197 28.769 7.05009 28.7721 6.60918C28.7763 6.16938 28.4474 5.80525 28.0502 5.80963C27.653 5.81402 27.3177 6.18363 27.3146 6.62454ZM27.3587 1.34357C27.3545 1.78338 27.6834 2.14751 28.0807 2.14312C28.4779 2.13873 28.8131 1.76912 28.8162 1.32821C28.8204 0.889505 28.4915 0.525376 28.0943 0.529763C27.6971 0.533054 27.3619 0.902667 27.3587 1.34357ZM31.6619 49.1925C31.6577 49.6323 31.9856 49.9965 32.3839 49.9921C32.7811 49.9877 33.1153 49.6181 33.1195 49.1772C33.1226 48.7385 32.7937 48.3743 32.3965 48.3776C31.9993 48.382 31.6651 48.7527 31.6609 49.1925H31.6619ZM19.5803 51.9575C19.5772 52.3984 19.9061 52.7614 20.3033 52.7582C20.7005 52.7538 21.0347 52.3831 21.0389 51.9432C21.0421 51.5034 20.7132 51.1393 20.3159 51.1437C19.9187 51.1481 19.5845 51.5177 19.5803 51.9575ZM24.4163 51.9816C24.4132 52.4214 24.7421 52.7856 25.1393 52.7812C25.5365 52.7768 25.8707 52.4072 25.8749 51.9663C25.8781 51.5276 25.5492 51.1634 25.1519 51.1678C24.7547 51.1711 24.4205 51.5407 24.4163 51.9816ZM21.9878 49.2934C21.9847 49.7332 22.3136 50.0963 22.7108 50.093C23.108 50.0886 23.4422 49.7179 23.4464 49.2781C23.4496 48.8383 23.1207 48.4753 22.7245 48.4785C22.3262 48.4829 21.992 48.8525 21.9889 49.2934H21.9878ZM29.2544 51.8577C29.2502 52.2964 29.5792 52.6605 29.9764 52.6572C30.3736 52.6529 30.7088 52.2822 30.712 51.8423C30.7162 51.4025 30.3873 51.0384 29.99 51.0428C29.5918 51.0472 29.2576 51.4168 29.2544 51.8577ZM26.8911 49.2419C26.8879 49.6817 27.2158 50.0458 27.613 50.0414C28.0113 50.0371 28.3455 49.6674 28.3486 49.2265C28.3528 48.7878 28.0239 48.4237 27.6267 48.427C27.2295 48.4314 26.8953 48.8021 26.8911 49.2419ZM24.4626 46.5537C24.4594 46.9935 24.7873 47.3565 25.1845 47.3532C25.5828 47.3489 25.917 46.9782 25.9201 46.5383C25.9243 46.0985 25.5954 45.7355 25.1982 45.7388C24.801 45.7432 24.4657 46.1128 24.4626 46.5537Z" fill="#0A3B3C"/>
<path id="Vector_13" d="M31.6619 49.1925C31.6577 49.6323 31.9866 49.9965 32.3838 49.9921C32.7811 49.9877 33.1163 49.6181 33.1194 49.1772C33.1226 48.7385 32.7947 48.3743 32.3975 48.3776C32.0003 48.382 31.6651 48.7527 31.6619 49.1925ZM14.8084 52.0046C14.8053 52.4455 15.1342 52.8086 15.5314 52.8053C15.9286 52.7998 16.2628 52.4302 16.267 51.9904C16.2702 51.5506 15.9412 51.1864 15.544 51.1908C15.1468 51.1952 14.8126 51.5648 14.8084 52.0046ZM12.4461 49.3899C12.4419 49.8286 12.7698 50.1928 13.1681 50.1895C13.5653 50.1851 13.8994 49.8144 13.9036 49.3746C13.9068 48.9348 13.5779 48.5706 13.1807 48.575C12.7834 48.5794 12.4493 48.949 12.4451 49.3899H12.4461ZM17.217 49.3406C17.2128 49.7804 17.5406 50.1434 17.9389 50.139C18.3361 50.1357 18.6703 49.7661 18.6745 49.3252C18.6776 48.8854 18.3487 48.5224 17.9515 48.5257C17.5543 48.5301 17.2201 48.9008 17.2159 49.3406H17.217ZM19.5803 51.9575C19.5761 52.3984 19.905 52.7614 20.3023 52.7581C20.6995 52.7537 21.0347 52.383 21.0378 51.9432C21.041 51.5034 20.7131 51.1393 20.3159 51.1437C19.9187 51.1481 19.5835 51.5177 19.5803 51.9575ZM41.3581 38.4584C41.3539 38.8982 41.6828 39.2612 42.08 39.2579C42.4772 39.2535 42.8125 38.8839 42.8156 38.443C42.8198 38.0032 42.4909 37.6402 42.0937 37.6435C41.6965 37.6479 41.3612 38.0186 41.3581 38.4584Z" fill="#0A3B3C"/>
<path id="Vector_14" d="M31.6619 49.1925C31.6577 49.6323 31.9856 49.9965 32.3839 49.9921C32.7811 49.9877 33.1153 49.6181 33.1195 49.1772C33.1226 48.7385 32.7947 48.3743 32.3975 48.3776C31.9993 48.382 31.6651 48.7527 31.6619 49.1925ZM31.7061 43.9126C31.7019 44.3514 32.0297 44.7155 32.428 44.7111C32.8252 44.7078 33.1594 44.3382 33.1636 43.8973C33.1667 43.4575 32.8389 43.0934 32.4417 43.0977C32.0434 43.1021 31.7092 43.4717 31.7061 43.9115V43.9126ZM29.2765 41.2234C29.2734 41.6643 29.6023 42.0273 29.9995 42.024C30.3967 42.0185 30.7319 41.6489 30.7351 41.2091C30.7393 40.7693 30.4104 40.4052 30.0132 40.4085C29.6159 40.4139 29.2807 40.7835 29.2776 41.2234H29.2765ZM36.5431 43.7876C36.54 44.2274 36.8689 44.5916 37.2661 44.5872C37.6633 44.5828 37.9975 44.2132 38.0017 43.7734C38.0048 43.3325 37.6759 42.9694 37.2787 42.9727C36.8142 43.0517 36.5473 43.3478 36.5431 43.7876ZM34.1798 41.1729C34.1766 41.6116 34.5055 41.9757 34.9027 41.9714C35.3 41.9681 35.6341 41.5985 35.6383 41.1576C35.6415 40.7177 35.3126 40.3536 34.9154 40.358C34.4509 40.4359 34.184 40.732 34.1798 41.1718V41.1729ZM31.7513 38.4836C31.7481 38.9245 32.077 39.2876 32.4742 39.2843C32.8715 39.2788 33.2056 38.9092 33.2098 38.4694C33.213 38.0285 32.8841 37.6654 32.4879 37.6687C32.0234 37.7477 31.7555 38.0438 31.7523 38.4836H31.7513ZM34.0684 46.5274C34.0652 46.9683 34.3941 47.3313 34.7914 47.328C35.1886 47.3225 35.5227 46.9529 35.5269 46.5131C35.5301 46.0722 35.2022 45.7092 34.805 45.7125C34.4067 45.7179 34.0726 46.0876 34.0694 46.5274H34.0684ZM38.9506 41.1235C38.9475 41.5623 39.2764 41.9264 39.6736 41.922C40.0708 41.9187 40.405 41.5491 40.4092 41.1082C40.4123 40.6684 40.0834 40.3043 39.6862 40.3086C39.289 40.313 38.9548 40.6826 38.9506 41.1235ZM36.5873 38.5077C36.5841 38.9476 36.913 39.3106 37.3102 39.3073C37.7075 39.3029 38.0416 38.9333 38.0458 38.4924C38.049 38.0526 37.7201 37.6896 37.3228 37.6928C36.9256 37.6972 36.5915 38.0679 36.5873 38.5077ZM34.1598 35.8196C34.1556 36.2583 34.4835 36.6224 34.8817 36.6191C35.2789 36.6147 35.6131 36.244 35.6173 35.8042C35.6205 35.3644 35.2916 35.0003 34.8954 35.0046C34.4971 35.009 34.1629 35.3786 34.1598 35.8196ZM41.3581 38.4584C41.3549 38.8982 41.6839 39.2612 42.0811 39.2579C42.4783 39.2535 42.8125 38.8839 42.8167 38.443C42.8198 38.0032 42.4909 37.6402 42.0937 37.6435C41.6965 37.6479 41.3623 38.0186 41.3581 38.4584ZM22.0982 43.9357C22.095 44.3755 22.4229 44.7396 22.8201 44.7352C23.2173 44.7308 23.5525 44.3612 23.5557 43.9203C23.5599 43.4816 23.231 43.1175 22.8338 43.1219C22.4365 43.1252 22.1013 43.4948 22.0982 43.9357ZM26.8911 49.2397C26.8869 49.6795 27.2147 50.0436 27.612 50.0392C28.0102 50.0348 28.3444 49.6652 28.3476 49.2243C28.3518 48.7856 28.0228 48.4215 27.6256 48.4259C27.2284 48.4292 26.8942 48.7988 26.89 49.2397H26.8911ZM24.4615 46.5515C24.4584 46.9913 24.7873 47.3543 25.1845 47.351C25.5817 47.3466 25.9159 46.9759 25.9201 46.5361C25.9233 46.0963 25.5943 45.7333 25.1971 45.7366C24.7999 45.741 24.4657 46.1106 24.4615 46.5515ZM24.5057 41.2716C24.5025 41.7103 24.8304 42.0745 25.2276 42.0701C25.6248 42.0657 25.96 41.6961 25.9632 41.2563C25.9674 40.8154 25.6385 40.4523 25.2413 40.4556C24.844 40.4611 24.5088 40.8307 24.5057 41.2705V41.2716ZM29.2975 46.5745C29.2944 47.0143 29.6222 47.3785 30.0195 47.3752C30.4177 47.3697 30.7519 47.0001 30.755 46.5603C30.7593 46.1194 30.4314 45.7563 30.0331 45.7596C29.6359 45.7651 29.3017 46.1347 29.2975 46.5745ZM26.8701 43.8863C26.8659 44.3261 27.1937 44.6903 27.5909 44.6859C27.9892 44.6815 28.3234 44.3119 28.3265 43.8721C28.3307 43.4312 28.0029 43.0681 27.6046 43.0714C27.2074 43.0758 26.8732 43.4465 26.869 43.8863H26.8701ZM22.1423 38.6558C22.1391 39.0945 22.4681 39.4586 22.8642 39.4543C23.2625 39.451 23.5967 39.0814 23.5998 38.6405C23.604 38.2006 23.2762 37.8365 22.8779 37.8409C22.4807 37.8453 22.1465 38.2149 22.1423 38.6558ZM26.9132 38.6065C26.91 39.0452 27.2389 39.4093 27.6351 39.4049C28.0334 39.4016 28.3675 39.032 28.3707 38.5911C28.3749 38.1513 28.047 37.7872 27.6487 37.7916C27.2515 37.7959 26.9174 38.1656 26.9132 38.6065Z" fill="#0A3B3C"/>
<path id="Vector_15" d="M31.6619 49.1925C31.6577 49.6323 31.9856 49.9965 32.3828 49.9921C32.7811 49.9877 33.1152 49.6181 33.1184 49.1772C33.1226 48.7385 32.7947 48.3743 32.3964 48.3776C31.9992 48.382 31.6651 48.7527 31.6609 49.1925H31.6619ZM31.705 43.9127C31.7018 44.3514 32.0297 44.7155 32.4269 44.7111C32.8252 44.7078 33.1594 44.3382 33.1625 43.8973C33.1667 43.4575 32.8389 43.0934 32.4406 43.0978C32.0434 43.1021 31.7092 43.4718 31.705 43.9116V43.9127ZM29.2765 41.2234C29.2733 41.6643 29.6022 42.0273 29.9995 42.024C30.3967 42.0185 30.7309 41.6489 30.7351 41.2091C30.7382 40.7693 30.4093 40.4052 30.0121 40.4085C29.6149 40.414 29.2807 40.7836 29.2765 41.2234ZM12.4461 49.39C12.4419 49.8287 12.7708 50.1928 13.168 50.1895C13.5653 50.1851 13.9005 49.8144 13.9036 49.3746C13.9078 48.9348 13.5789 48.5707 13.1817 48.5751C12.7845 48.5794 12.4493 48.9491 12.4461 49.39ZM12.4902 44.109C12.486 44.5488 12.815 44.9129 13.2122 44.9096C13.6094 44.9041 13.9446 44.5345 13.9478 44.0947C13.952 43.6538 13.6231 43.2908 13.2258 43.2941C12.8286 43.2996 12.4934 43.6692 12.4902 44.109ZM17.217 49.3406C17.2138 49.7804 17.5417 50.1434 17.9389 50.1391C18.3361 50.1358 18.6713 49.7661 18.6745 49.3252C18.6787 48.8854 18.3498 48.5224 17.9525 48.5257C17.5553 48.5301 17.2201 48.9008 17.217 49.3406ZM17.2611 44.0596C17.2579 44.5005 17.5858 44.8636 17.983 44.8603C18.3802 44.8548 18.7155 44.4852 18.7186 44.0454C18.7228 43.6045 18.3939 43.2414 17.9967 43.2447C17.5995 43.2502 17.2642 43.6198 17.2611 44.0596ZM14.8977 41.4449C14.8946 41.8836 15.2224 42.2478 15.6197 42.2434C16.0169 42.2401 16.3521 41.8705 16.3553 41.4296C16.3595 40.9898 16.0305 40.6256 15.6333 40.63C15.2361 40.6344 14.9009 41.004 14.8977 41.4438V41.4449ZM14.8536 46.7248C14.8504 47.1646 15.1783 47.5287 15.5755 47.5243C15.9728 47.52 16.308 47.1503 16.3111 46.7094C16.3153 46.2707 15.9864 45.9066 15.5892 45.9099C15.192 45.9143 14.8568 46.285 14.8536 46.7248ZM19.7348 41.3199C19.7316 41.7597 20.0605 42.1238 20.4578 42.1194C20.855 42.1151 21.1892 41.7454 21.1934 41.3056C21.1965 40.8647 20.8687 40.5017 20.4714 40.505C20.0732 40.5105 19.739 40.8801 19.7358 41.3199H19.7348ZM19.6244 46.6754C19.6202 47.1152 19.9492 47.4794 20.3464 47.475C20.7436 47.4706 21.0778 47.101 21.082 46.6601C21.0851 46.2214 20.7573 45.8572 20.36 45.8616C19.9628 45.8649 19.6276 46.2345 19.6244 46.6754ZM12.4692 38.7556C12.465 39.1965 12.7939 39.5596 13.1912 39.5563C13.5884 39.5508 13.9225 39.1812 13.9268 38.7414C13.9299 38.3005 13.602 37.9374 13.2048 37.9407C12.8065 37.9462 12.4724 38.3158 12.4692 38.7556ZM17.3725 38.7052C17.3683 39.1439 17.6972 39.508 18.0944 39.5036C18.4916 39.5003 18.8258 39.1307 18.83 38.6898C18.8332 38.25 18.5053 37.8859 18.1081 37.8903C17.7098 37.8947 17.3756 38.2643 17.3725 38.7041V38.7052ZM22.0992 43.9357C22.095 44.3755 22.4229 44.7396 22.8211 44.7352C23.2183 44.7309 23.5525 44.3612 23.5567 43.9203C23.5599 43.4816 23.231 43.1175 22.8337 43.1219C22.4365 43.1252 22.1023 43.4948 22.0981 43.9357H22.0992ZM22.1433 38.6558C22.1391 39.0945 22.467 39.4587 22.8653 39.4543C23.2625 39.451 23.5967 39.0814 23.6009 38.6405C23.604 38.2007 23.2751 37.8365 22.8779 37.8409C22.4807 37.8453 22.1465 38.2149 22.1423 38.6558H22.1433ZM7.65424 44.0838C7.65004 44.5236 7.9779 44.8866 8.37617 44.8833C8.7734 44.8789 9.10756 44.5082 9.11177 44.0684C9.11492 43.6286 8.78706 43.2656 8.38984 43.2689C7.99156 43.2732 7.65739 43.6429 7.65424 44.0838ZM5.29089 41.468C5.28668 41.9078 5.61455 42.2719 6.01282 42.2675C6.41004 42.2631 6.74421 41.8935 6.74841 41.4526C6.75156 41.0139 6.4237 40.6498 6.02648 40.6541C5.62821 40.6574 5.29404 41.027 5.29089 41.468ZM10.0617 41.4186C10.0575 41.8584 10.3854 42.2225 10.7837 42.2181C11.1809 42.2138 11.5151 41.8441 11.5193 41.4032C11.5224 40.9645 11.1945 40.6004 10.7973 40.6048C10.3991 40.6081 10.0649 40.9777 10.0617 41.4186ZM10.0828 46.772C10.0785 47.2118 10.4075 47.5759 10.8047 47.5715C11.203 47.5671 11.5371 47.1975 11.5403 46.7566C11.5445 46.3179 11.2156 45.9538 10.8183 45.9581C10.4211 45.9614 10.0859 46.3311 10.0828 46.772ZM2.92753 38.8521C2.92333 39.292 3.25224 39.6561 3.64946 39.6517C4.04668 39.6473 4.3819 39.2777 4.38506 38.8379C4.38926 38.397 4.06034 38.034 3.66312 38.0372C3.2659 38.0427 2.93068 38.4123 2.92753 38.8521ZM7.69838 38.8039C7.69417 39.2426 8.02309 39.6067 8.42031 39.6023C8.81753 39.598 9.15275 39.2283 9.1559 38.7885C9.16011 38.3476 8.83119 37.9846 8.43397 37.9879C8.03675 37.9934 7.70153 38.363 7.69838 38.8028V38.8039Z" fill="#0A3B3C"/>
<path id="Vector_16" d="M12.4461 49.3878C12.4419 49.8276 12.7708 50.1906 13.168 50.1862C13.5652 50.1829 13.8994 49.8133 13.9036 49.3724C13.9068 48.9326 13.5789 48.5685 13.1817 48.5729C12.7834 48.5772 12.4492 48.9479 12.4461 49.3878ZM12.4902 44.1068C12.486 44.5466 12.8149 44.9107 13.2122 44.9074C13.6094 44.9019 13.9446 44.5323 13.9477 44.0925C13.9519 43.6516 13.623 43.2886 13.2258 43.2919C12.8286 43.2974 12.4934 43.667 12.4902 44.1068ZM12.4682 38.7534C12.465 39.1943 12.7939 39.5574 13.1911 39.5541C13.5884 39.5486 13.9225 39.179 13.9267 38.7392C13.9299 38.2994 13.601 37.9352 13.2037 37.9396C12.8065 37.944 12.4724 38.3136 12.4682 38.7534ZM41.358 38.4584C41.3549 38.8982 41.6838 39.2612 42.081 39.2579C42.4783 39.2536 42.8124 38.8839 42.8166 38.443C42.8198 38.0032 42.4909 37.6402 42.0936 37.6435C41.6964 37.6479 41.3623 38.0186 41.358 38.4584ZM41.4032 33.1774C41.399 33.6183 41.728 33.9814 42.1252 33.9781C42.5224 33.9737 42.8566 33.603 42.8608 33.1632C42.8639 32.7234 42.536 32.3592 42.1388 32.3636C41.7406 32.368 41.4064 32.7376 41.4032 33.1774ZM38.9747 30.4903C38.9705 30.929 39.2994 31.2932 39.6967 31.2888C40.0939 31.2844 40.4281 30.9148 40.4323 30.475C40.4354 30.0341 40.1065 29.671 39.7103 29.6743C39.3121 29.6798 38.9779 30.0494 38.9747 30.4892V30.4903ZM46.2403 33.0535C46.2371 33.4933 46.565 33.8574 46.9622 33.853C47.3605 33.8487 47.6947 33.479 47.6978 33.0392C47.702 32.5983 47.3731 32.2353 46.9759 32.2386C46.5787 32.243 46.2445 32.6137 46.2403 33.0535ZM43.8769 30.4377C43.8738 30.8786 44.2016 31.2416 44.5989 31.2383C44.9971 31.2329 45.3313 30.8632 45.3345 30.4234C45.3387 29.9825 45.0108 29.6195 44.6125 29.6228C44.2153 29.6283 43.8811 29.9979 43.8769 30.4377ZM41.4484 27.7495C41.4453 28.1904 41.7742 28.5534 42.1714 28.5501C42.5686 28.5447 42.9028 28.175 42.907 27.7352C42.9102 27.2943 42.5812 26.9313 42.184 26.9346C41.7868 26.9401 41.4526 27.3097 41.4484 27.7495ZM43.7655 35.7932C43.7624 36.233 44.0913 36.5972 44.4885 36.5928C44.8857 36.5884 45.2199 36.2188 45.2241 35.779C45.2273 35.3381 44.8984 34.975 44.5011 34.9783C44.1039 34.9838 43.7697 35.3534 43.7655 35.7932ZM31.7953 33.2016C31.7911 33.6414 32.1201 34.0044 32.5173 34.0011C32.9155 33.9967 33.2497 33.6271 33.2529 33.1862C33.2571 32.7464 32.9282 32.3834 32.5309 32.3867C32.1337 32.391 31.7995 32.7618 31.7953 33.2016ZM36.5872 38.5056C36.5841 38.9454 36.9119 39.3084 37.3091 39.3051C37.7074 39.3007 38.0416 38.93 38.0447 38.4902C38.0489 38.0504 37.72 37.6874 37.3228 37.6907C36.9256 37.695 36.5914 38.0658 36.5872 38.5056ZM34.1587 35.8174C34.1555 36.2561 34.4845 36.6202 34.8817 36.6169C35.2789 36.6125 35.6131 36.2418 35.6173 35.802C35.6204 35.3622 35.2915 34.9981 34.8943 35.0025C34.4971 35.0069 34.1629 35.3765 34.1587 35.8174ZM34.2028 30.5364C34.1997 30.9773 34.5275 31.3403 34.9248 31.3359C35.323 31.3316 35.6572 30.9619 35.6604 30.521C35.6646 30.0823 35.3356 29.7182 34.9384 29.7226C34.5412 29.7259 34.207 30.0966 34.2028 30.5364ZM38.9947 35.8404C38.9915 36.2802 39.3194 36.6443 39.7166 36.6399C40.1149 36.6356 40.4491 36.2659 40.4522 35.8261C40.4564 35.3852 40.1286 35.0222 39.7303 35.0255C39.3331 35.0299 38.9989 35.4006 38.9947 35.8404ZM36.5662 33.1522C36.563 33.592 36.8919 33.9561 37.2892 33.9518C37.6864 33.9474 38.0206 33.5778 38.0248 33.1368C38.0279 32.6981 37.699 32.334 37.3018 32.3373C36.9046 32.3417 36.5704 32.7124 36.5662 33.1522ZM31.8405 27.9206C31.8363 28.3615 32.1642 28.7245 32.5614 28.7212C32.9597 28.7158 33.2938 28.3461 33.297 27.9063C33.3012 27.4665 32.9733 27.1024 32.5751 27.1068C32.1778 27.1112 31.8437 27.4808 31.8395 27.9206H31.8405ZM36.6114 27.8723C36.6072 28.311 36.935 28.6752 37.3323 28.6708C37.7305 28.6675 38.0647 28.2979 38.0678 27.857C38.0721 27.4172 37.7442 27.053 37.3459 27.0574C36.9487 27.0618 36.6145 27.4314 36.6103 27.8712L36.6114 27.8723Z" fill="#0A3B3C"/>
<path id="Vector_17" d="M41.3582 38.4584C41.355 38.8982 41.6829 39.2612 42.0801 39.2579C42.4784 39.2536 42.8126 38.884 42.8157 38.443C42.8199 38.0032 42.491 37.6402 42.0938 37.6435C41.6966 37.6479 41.3624 38.0186 41.3582 38.4584ZM41.4034 33.1774C41.3992 33.6183 41.727 33.9814 42.1243 33.9781C42.5225 33.9737 42.8567 33.603 42.8598 33.1632C42.864 32.7234 42.5351 32.3592 42.1379 32.3636C41.7407 32.368 41.4065 32.7376 41.4023 33.1774H41.4034ZM38.9738 30.4903C38.9707 30.929 39.2996 31.2932 39.6968 31.2888C40.094 31.2844 40.4282 30.9148 40.4324 30.475C40.4355 30.0341 40.1066 29.671 39.7094 29.6743C39.3122 29.6798 38.978 30.0494 38.9738 30.4892V30.4903ZM22.1434 38.6558C22.1392 39.0945 22.4671 39.4587 22.8654 39.4543C23.2626 39.451 23.5968 39.0814 23.601 38.6405C23.6041 38.2007 23.2752 37.8365 22.878 37.8409C22.4808 37.8453 22.1466 38.2149 22.1424 38.6558H22.1434ZM22.1865 33.3749C22.1834 33.8147 22.5123 34.1788 22.9095 34.1744C23.3067 34.17 23.6409 33.8004 23.6451 33.3606C23.6483 32.9197 23.3193 32.5567 22.9221 32.56C22.5249 32.5643 22.1907 32.935 22.1865 33.3749ZM26.9132 38.6065C26.9101 39.0452 27.239 39.4093 27.6352 39.4049C28.0334 39.4016 28.3676 39.032 28.3708 38.5911C28.375 38.1513 28.0471 37.7872 27.6488 37.7916C27.2516 37.796 26.9174 38.1656 26.9132 38.6065ZM27.0246 33.2509C27.0215 33.6907 27.3493 34.0538 27.7466 34.0505C28.1438 34.0461 28.479 33.6754 28.4821 33.2356C28.4864 32.7958 28.1574 32.4327 27.7602 32.436C27.2957 32.515 27.0278 32.8111 27.0246 33.2509ZM24.6613 30.6351C24.6581 31.0749 24.987 31.439 25.3832 31.4347C25.7815 31.4303 26.1156 31.0607 26.1188 30.6209C26.123 30.18 25.7951 29.8169 25.3969 29.8202C24.9324 29.8992 24.6655 30.1953 24.6613 30.6351ZM24.5499 35.9907C24.5467 36.4305 24.8756 36.7935 25.2718 36.7902C25.6701 36.7858 26.0043 36.4162 26.0074 35.9753C26.0116 35.5355 25.6837 35.1725 25.2855 35.1758C24.8883 35.1801 24.5541 35.5509 24.5499 35.9907ZM29.4321 30.5858C29.429 31.0256 29.7568 31.3897 30.154 31.3853C30.5513 31.3809 30.8865 31.0113 30.8896 30.5715C30.8938 30.1306 30.5649 29.7676 30.1677 29.7709C29.7705 29.7752 29.4363 30.146 29.4321 30.5858ZM29.388 35.8689C29.3838 36.3076 29.7127 36.6718 30.1099 36.6674C30.5082 36.6641 30.8424 36.2945 30.8455 35.8536C30.8497 35.4138 30.5208 35.0496 30.1236 35.054C29.6591 35.1319 29.3911 35.428 29.388 35.8689ZM22.2328 27.9458C22.2286 28.3867 22.5575 28.7498 22.9547 28.7465C23.3519 28.7421 23.6871 28.3725 23.6903 27.9316C23.6945 27.4918 23.3656 27.1287 22.9684 27.132C22.5039 27.211 22.2359 27.5071 22.2328 27.9469V27.9458ZM27.0698 27.97C27.0656 28.4109 27.3935 28.7739 27.7907 28.7706C28.189 28.7651 28.5231 28.3955 28.5263 27.9557C28.5305 27.5148 28.2026 27.1518 27.8044 27.155C27.4071 27.1605 27.073 27.5301 27.0688 27.97H27.0698ZM31.7955 33.2016C31.7913 33.6414 32.1202 34.0044 32.5174 34.0011C32.9157 33.9967 33.2498 33.6271 33.253 33.1862C33.2572 32.7464 32.9283 32.3834 32.5311 32.3867C32.1338 32.391 31.7997 32.7618 31.7955 33.2016ZM31.8396 27.9206C31.8365 28.3615 32.1643 28.7245 32.5615 28.7212C32.9588 28.7158 33.294 28.3461 33.2971 27.9063C33.3013 27.4665 32.9724 27.1024 32.5752 27.1068C32.178 27.1112 31.8438 27.4808 31.8396 27.9206ZM12.4683 38.7534C12.4651 39.1943 12.794 39.5574 13.1913 39.5541C13.5885 39.5486 13.9227 39.179 13.9269 38.7392C13.93 38.2994 13.6011 37.9352 13.2039 37.9396C12.8067 37.944 12.4725 38.3136 12.4683 38.7534ZM12.5797 33.399C12.5765 33.8377 12.9054 34.2018 13.3027 34.1974C13.6999 34.1941 14.034 33.8245 14.0383 33.3836C14.0414 32.9438 13.7125 32.5797 13.3153 32.5841C12.918 32.5885 12.5839 32.9581 12.5797 33.399ZM17.3726 38.703C17.3684 39.1417 17.6963 39.5058 18.0945 39.5014C18.4917 39.4981 18.8259 39.1285 18.8301 38.6876C18.8333 38.2478 18.5044 37.8837 18.1071 37.8881C17.7099 37.8925 17.3757 38.2621 17.3715 38.7019L17.3726 38.703ZM17.3505 33.3496C17.3474 33.7883 17.6752 34.1525 18.0725 34.1492C18.4707 34.1448 18.8049 33.7741 18.808 33.3343C18.8123 32.8945 18.4844 32.5303 18.0861 32.5347C17.6889 32.5391 17.3547 32.9087 17.3505 33.3496ZM14.9872 30.7338C14.984 31.1736 15.3119 31.5367 15.7091 31.5334C16.1074 31.529 16.4415 31.1594 16.4447 30.7185C16.4489 30.2787 16.121 29.9156 15.7228 29.9189C15.3255 29.9233 14.9914 30.294 14.9872 30.7338ZM14.943 36.0137C14.9388 36.4546 15.2677 36.8176 15.665 36.8143C16.0622 36.8089 16.3974 36.4392 16.4006 35.9994C16.4048 35.5585 16.0758 35.1955 15.6786 35.1988C15.2814 35.2043 14.9462 35.5739 14.943 36.0137ZM19.758 30.6845C19.7549 31.1243 20.0827 31.4873 20.4799 31.484C20.8782 31.4796 21.2124 31.11 21.2155 30.6691C21.2197 30.2304 20.8919 29.8663 20.4936 29.8696C20.0964 29.874 19.7622 30.2447 19.758 30.6845ZM19.7801 36.0378C19.7759 36.4776 20.1037 36.8407 20.502 36.8374C20.8992 36.833 21.2334 36.4623 21.2376 36.0225C21.2408 35.5827 20.9118 35.2196 20.5146 35.2229C20.1174 35.2273 19.7832 35.598 19.779 36.0378H19.7801ZM12.6238 28.1213C12.6207 28.56 12.9496 28.9241 13.3468 28.9198C13.744 28.9154 14.0782 28.5458 14.0824 28.1049C14.0855 27.6661 13.7566 27.302 13.3594 27.3064C12.9622 27.3097 12.628 27.6793 12.6238 28.1202V28.1213ZM17.3947 28.0709C17.3915 28.5107 17.7204 28.8748 18.1176 28.8704C18.5149 28.866 18.849 28.4964 18.8532 28.0566C18.8564 27.6157 18.5275 27.2527 18.1303 27.256C17.733 27.2603 17.3989 27.631 17.3947 28.0709Z" fill="#0A3B3C"/>
<path id="Vector_18" d="M22.1423 38.6558C22.1391 39.0945 22.468 39.4587 22.8642 39.4543C23.2625 39.451 23.5966 39.0814 23.5998 38.6405C23.604 38.2007 23.2761 37.8365 22.8779 37.8409C22.4806 37.8453 22.1465 38.2149 22.1423 38.6558ZM22.1864 33.3748C22.1833 33.8147 22.5122 34.1788 22.9094 34.1744C23.3066 34.17 23.6408 33.8004 23.645 33.3606C23.6481 32.9197 23.3192 32.5567 22.922 32.5599C22.5248 32.5643 22.1906 32.935 22.1864 33.3748ZM22.2326 27.9458C22.2284 28.3867 22.5563 28.7497 22.9546 28.7465C23.3518 28.7421 23.686 28.3725 23.6902 27.9316C23.6933 27.4917 23.3655 27.1287 22.9682 27.132C22.5038 27.211 22.2358 27.5071 22.2326 27.9469V27.9458ZM2.92753 38.8521C2.92333 39.2919 3.25119 39.6561 3.64946 39.6517C4.04668 39.6473 4.38085 39.2777 4.38506 38.8379C4.38821 38.397 4.06034 38.0339 3.66312 38.0372C3.26485 38.0427 2.93068 38.4123 2.92753 38.8521ZM7.69733 38.8039C7.69417 39.2426 8.02309 39.6067 8.42031 39.6023C8.81753 39.5979 9.1517 39.2283 9.1559 38.7885C9.15906 38.3476 8.83014 37.9846 8.43292 37.9879C8.0357 37.9934 7.70153 38.363 7.69733 38.8028V38.8039ZM7.74251 33.5229C7.73831 33.9627 8.06617 34.3258 8.46445 34.3225C8.86167 34.3181 9.19584 33.9485 9.20004 33.5076C9.20319 33.0677 8.87533 32.7047 8.47811 32.708C8.07983 32.7124 7.74567 33.0831 7.74251 33.5229ZM5.33502 36.1881C5.33082 36.6268 5.65868 36.9909 6.05695 36.9865C6.45417 36.9832 6.78834 36.6136 6.79255 36.1727C6.7957 35.7329 6.46784 35.3688 6.07061 35.3732C5.67234 35.3776 5.33817 35.7472 5.33502 36.1881ZM10.2162 30.7832C10.2131 31.223 10.542 31.586 10.9392 31.5827C11.3364 31.5783 11.6706 31.2076 11.6748 30.7678C11.6779 30.328 11.349 29.965 10.9518 29.9683C10.5546 29.9727 10.2204 30.3434 10.2162 30.7832ZM10.1059 36.1387C10.1017 36.5774 10.4295 36.9416 10.8278 36.9372C11.225 36.9339 11.5592 36.5643 11.5634 36.1234C11.5665 35.6836 11.2387 35.3194 10.8415 35.3238C10.4432 35.3282 10.109 35.6978 10.1059 36.1387ZM12.4682 38.7523C12.465 39.191 12.7939 39.5552 13.1912 39.5508C13.5884 39.5464 13.9225 39.1768 13.9268 38.737C13.9299 38.2961 13.601 37.933 13.2038 37.9374C12.8065 37.9418 12.4724 38.3114 12.4682 38.7512V38.7523ZM12.5796 33.399C12.5764 33.8377 12.9043 34.2018 13.3015 34.1974C13.6998 34.1941 14.0339 33.8245 14.0371 33.3836C14.0413 32.9438 13.7124 32.5797 13.3152 32.5841C12.9179 32.5885 12.5838 32.9581 12.5796 33.399ZM12.6237 28.118C12.6205 28.5578 12.9495 28.9219 13.3467 28.9176C13.7439 28.9132 14.0781 28.5436 14.0823 28.1038C14.0854 27.6628 13.7565 27.2998 13.3593 27.3031C12.9621 27.3075 12.6279 27.6782 12.6237 28.118ZM31.8405 27.9206C31.8363 28.3615 32.1642 28.7245 32.5614 28.7212C32.9597 28.7157 33.2939 28.3461 33.297 27.9063C33.3012 27.4665 32.9734 27.1024 32.5751 27.1068C32.1779 27.1112 31.8437 27.4808 31.8395 27.9206H31.8405ZM31.8836 22.6407C31.8805 23.0805 32.2094 23.4447 32.6066 23.4403C33.0038 23.4359 33.338 23.0663 33.3422 22.6254C33.3454 22.1867 33.0164 21.8225 32.6192 21.8258C32.222 21.8302 31.8878 22.2009 31.8836 22.6407ZM36.6114 27.8723C36.6072 28.311 36.9351 28.6752 37.3323 28.6708C37.7295 28.6675 38.0647 28.2979 38.0679 27.857C38.0721 27.4172 37.7432 27.053 37.3459 27.0574C36.9487 27.0618 36.6145 27.4314 36.6103 27.8712L36.6114 27.8723ZM36.7217 22.5168C36.7175 22.9566 37.0464 23.3196 37.4437 23.3163C37.8419 23.3119 38.1761 22.9412 38.1793 22.5014C38.1835 22.0616 37.8545 21.6986 37.4573 21.7019C37.0601 21.7063 36.7249 22.0759 36.7217 22.5168ZM34.3584 19.901C34.3552 20.3408 34.6831 20.7049 35.0803 20.7005C35.4775 20.6961 35.8128 20.3265 35.8159 19.8856C35.8201 19.4469 35.4912 19.0828 35.094 19.0861C34.6968 19.0905 34.3615 19.4612 34.3584 19.901ZM34.247 25.2565C34.2438 25.6963 34.5728 26.0594 34.9689 26.0561C35.3672 26.0517 35.7014 25.681 35.7045 25.2412C35.7087 24.8014 35.3809 24.4383 34.9826 24.4416C34.5854 24.446 34.2512 24.8156 34.247 25.2565ZM39.0851 25.1326C39.0809 25.5713 39.4087 25.9354 39.807 25.931C40.2042 25.9277 40.5384 25.5581 40.5426 25.1172C40.5458 24.6774 40.2169 24.3133 39.8207 24.3177C39.4224 24.3221 39.0882 24.6917 39.0851 25.1315V25.1326ZM31.9299 17.2128C31.9257 17.6526 32.2535 18.0156 32.6518 18.0123C33.049 18.0079 33.3832 17.6372 33.3874 17.1974C33.3905 16.7576 33.0627 16.3946 32.6655 16.3979C32.2672 16.4023 31.933 16.7719 31.9299 17.2128Z" fill="#0A3B3C"/>
<path id="Vector_19" d="M22.2327 27.9447C22.2296 28.3845 22.5575 28.7487 22.9547 28.7443C23.353 28.7399 23.6871 28.3703 23.6903 27.9294C23.6945 27.4896 23.3666 27.1265 22.9683 27.1298C22.5039 27.2088 22.237 27.5049 22.2327 27.9447ZM22.2779 22.6648C22.2737 23.1036 22.6016 23.4677 22.9999 23.4633C23.3971 23.46 23.7313 23.0904 23.7355 22.6495C23.7386 22.2097 23.4097 21.8456 23.0125 21.8499C22.6153 21.8543 22.2811 22.2239 22.2769 22.6638L22.2779 22.6648ZM27.0698 27.9678C27.0656 28.4087 27.3935 28.7717 27.7917 28.7684C28.189 28.764 28.5231 28.3933 28.5273 27.9535C28.5305 27.5137 28.2016 27.1496 27.8043 27.1539C27.4071 27.1583 27.073 27.5279 27.0688 27.9678H27.0698ZM27.0488 22.6155C27.0446 23.0542 27.3724 23.4183 27.7697 23.4139C28.1679 23.4107 28.5021 23.041 28.5053 22.6001C28.5095 22.1603 28.1816 21.7962 27.7833 21.8006C27.3861 21.805 27.0519 22.1746 27.0477 22.6155H27.0488ZM24.6844 19.9997C24.6812 20.4395 25.0091 20.8025 25.4063 20.7992C25.8046 20.7948 26.1388 20.4241 26.1419 19.9843C26.1461 19.5445 25.8182 19.1815 25.42 19.1848C25.0228 19.1892 24.6886 19.5599 24.6844 19.9997ZM24.6402 25.2807C24.6371 25.7194 24.965 26.0835 25.3622 26.0791C25.7594 26.0747 26.0946 25.7051 26.0978 25.2653C26.102 24.8244 25.7731 24.4614 25.3758 24.4647C24.9786 24.4701 24.6434 24.8398 24.6402 25.2796V25.2807ZM29.4552 19.9503C29.4521 20.3901 29.781 20.7532 30.1772 20.7499C30.5754 20.7455 30.9096 20.3759 30.9128 19.935C30.917 19.4952 30.5891 19.1321 30.1908 19.1354C29.7936 19.1398 29.4594 19.5105 29.4552 19.9503ZM29.4762 25.3026C29.4731 25.7435 29.802 26.1065 30.1992 26.1032C30.5964 26.0988 30.9306 25.7281 30.9348 25.2883C30.938 24.8485 30.6091 24.4855 30.2118 24.4888C29.8146 24.4932 29.4804 24.8628 29.4762 25.3037V25.3026ZM22.321 17.3861C22.3179 17.8259 22.6457 18.1889 23.043 18.1856C23.4412 18.1812 23.7754 17.8116 23.7785 17.3707C23.7828 16.932 23.4549 16.5679 23.0566 16.5723C22.6594 16.5756 22.3252 16.9452 22.321 17.3861ZM27.0919 17.3367C27.0887 17.7765 27.4166 18.1407 27.8138 18.1363C28.2121 18.1319 28.5462 17.7623 28.5494 17.3214C28.5536 16.8827 28.2257 16.5185 27.8275 16.5229C27.4302 16.5262 27.0961 16.8958 27.0919 17.3367ZM31.8406 27.9206C31.8364 28.3615 32.1643 28.7245 32.5615 28.7212C32.9598 28.7158 33.294 28.3461 33.2971 27.9063C33.3013 27.4665 32.9735 27.1024 32.5752 27.1068C32.178 27.1112 31.8438 27.4808 31.8396 27.9206H31.8406ZM31.8837 22.6407C31.8806 23.0805 32.2095 23.4447 32.6067 23.4403C33.0039 23.4359 33.3381 23.0663 33.3423 22.6254C33.3455 22.1867 33.0165 21.8225 32.6193 21.8258C32.2221 21.8302 31.8879 22.2009 31.8837 22.6407ZM31.93 17.2128C31.9258 17.6526 32.2536 18.0156 32.6519 18.0123C33.0491 18.0079 33.3833 17.6372 33.3875 17.1974C33.3906 16.7576 33.0628 16.3946 32.6656 16.3979C32.2673 16.4023 31.9331 16.7719 31.93 17.2128ZM12.6238 28.1213C12.6206 28.56 12.9496 28.9241 13.3468 28.9198C13.744 28.9154 14.0782 28.5458 14.0824 28.1048C14.0855 27.6661 13.7566 27.302 13.3594 27.3064C12.9622 27.3097 12.628 27.6793 12.6238 28.1202V28.1213ZM17.3946 28.0708C17.3915 28.5107 17.7194 28.8748 18.1166 28.8704C18.5149 28.866 18.849 28.4964 18.8522 28.0566C18.8564 27.6157 18.5275 27.2527 18.1302 27.2559C17.733 27.2603 17.3989 27.631 17.3946 28.0708ZM17.5071 22.7153C17.5029 23.1562 17.8308 23.5192 18.228 23.5159C18.6262 23.5105 18.9604 23.1408 18.9636 22.701C18.9678 22.2601 18.6399 21.8971 18.2416 21.9004C17.7772 21.9794 17.5102 22.2755 17.506 22.7153H17.5071ZM15.0313 25.4561C15.0281 25.8948 15.3571 26.259 15.7543 26.2546C16.1515 26.2513 16.4857 25.8806 16.4899 25.4408C16.493 24.9999 16.1641 24.6368 15.7669 24.6412C15.3697 24.6456 15.0355 25.0152 15.0313 25.455V25.4561ZM19.9135 20.0512C19.9104 20.4899 20.2382 20.8541 20.6355 20.8508C21.0337 20.8464 21.3679 20.4757 21.3711 20.0359C21.3753 19.5961 21.0474 19.2319 20.6491 19.2363C20.2519 19.2407 19.9177 19.6103 19.9135 20.0512ZM19.8694 25.3311C19.8652 25.7709 20.1941 26.135 20.5913 26.1307C20.9885 26.1263 21.3238 25.7567 21.3269 25.3168C21.3311 24.8759 21.0022 24.5129 20.605 24.5162C20.1405 24.5952 19.8725 24.8913 19.8694 25.3311Z" fill="#0A3B3C"/>
<path id="Vector_20" d="M22.2327 27.9458C22.2285 28.3867 22.5564 28.7498 22.9546 28.7465C23.3519 28.7421 23.686 28.3725 23.6902 27.9316C23.6934 27.4917 23.3655 27.1287 22.9683 27.132C22.5038 27.211 22.2359 27.5071 22.2327 27.9469V27.9458ZM22.2768 22.6659C22.2726 23.1068 22.6016 23.4699 22.9988 23.4666C23.396 23.4611 23.7312 23.0915 23.7344 22.6517C23.7386 22.2119 23.4097 21.8478 23.0124 21.8521C22.6152 21.8565 22.28 22.2261 22.2768 22.6659ZM22.321 17.3861C22.3178 17.8259 22.6457 18.1889 23.0429 18.1856C23.4412 18.1812 23.7754 17.8116 23.7785 17.3707C23.7827 16.932 23.4548 16.5679 23.0566 16.5723C22.6594 16.5756 22.3252 16.9452 22.321 17.3861ZM31.9299 17.2128C31.9257 17.6526 32.2536 18.0156 32.6519 18.0123C33.0491 18.0079 33.3832 17.6372 33.3874 17.1974C33.3906 16.7576 33.0627 16.3946 32.6655 16.3979C32.2672 16.4023 31.9331 16.7719 31.9299 17.2128Z" fill="#0A3B3C"/>
<path id="Vector_21" d="M22.3211 17.3861C22.3179 17.8259 22.6458 18.1889 23.043 18.1856C23.4413 18.1812 23.7754 17.8116 23.7786 17.3707C23.7828 16.932 23.4549 16.5679 23.0567 16.5723C22.6594 16.5755 22.3253 16.9452 22.3211 17.3861ZM27.0919 17.3367C27.0888 17.7765 27.4166 18.1406 27.8138 18.1363C28.2121 18.1319 28.5463 17.7623 28.5494 17.3213C28.5536 16.8826 28.2258 16.5185 27.8275 16.5229C27.4303 16.5262 27.0961 16.8958 27.0919 17.3367ZM27.2033 11.9812C27.1991 12.4221 27.528 12.7851 27.9252 12.7807C28.3225 12.7763 28.6577 12.4067 28.6608 11.9669C28.665 11.526 28.3361 11.163 27.9389 11.1663C27.5417 11.1717 27.2065 11.5413 27.2033 11.9812ZM24.7286 14.7209C24.7254 15.1618 25.0533 15.5248 25.4505 15.5215C25.8488 15.5161 26.1829 15.1464 26.1861 14.7066C26.1903 14.2657 25.8624 13.9027 25.4642 13.906C25.0669 13.9115 24.7328 14.2811 24.7286 14.7209ZM29.5667 14.597C29.5625 15.0368 29.8914 15.3998 30.2886 15.3965C30.6858 15.3921 31.02 15.0225 31.0242 14.5816C31.0273 14.1429 30.6995 13.7788 30.3023 13.7832C29.904 13.7864 29.5698 14.1561 29.5667 14.597ZM31.929 17.215C31.9258 17.6548 32.2547 18.0178 32.652 18.0134C33.0492 18.0101 33.3833 17.6405 33.3875 17.1996C33.3907 16.7598 33.0618 16.3968 32.6646 16.4001C32.2673 16.4044 31.9332 16.7741 31.929 17.215ZM58.4114 19.5818C58.4072 20.0216 58.7361 20.3857 59.1333 20.3813C59.5305 20.377 59.8657 20.0073 59.8689 19.5664C59.8731 19.1266 59.5442 18.7636 59.147 18.7669C58.7497 18.7713 58.4145 19.142 58.4114 19.5818ZM48.7152 30.3159C48.711 30.7557 49.0389 31.1199 49.4371 31.1155C49.8344 31.1111 50.1685 30.7415 50.1727 30.3006C50.1759 29.8619 49.848 29.4977 49.4508 29.5021C49.0525 29.5054 48.7184 29.875 48.7152 30.3159ZM48.7593 25.0361C48.7551 25.4748 49.0841 25.8389 49.4813 25.8345C49.8785 25.8312 50.2127 25.4616 50.2169 25.0207C50.22 24.5809 49.8922 24.2168 49.4949 24.2212C49.0967 24.2255 48.7625 24.5952 48.7593 25.0361ZM46.3308 22.3468C46.3266 22.7877 46.6555 23.1507 47.0528 23.1474C47.45 23.143 47.7852 22.7723 47.7884 22.3325C47.7926 21.8927 47.4636 21.5286 47.0664 21.533C46.6682 21.5373 46.334 21.907 46.3308 22.3468ZM53.5302 24.9867C53.526 25.4254 53.8549 25.7895 54.2521 25.7863C54.6493 25.7819 54.9846 25.4112 54.9877 24.9713C54.9919 24.5315 54.663 24.1674 54.2658 24.1718C53.8686 24.1762 53.5333 24.5458 53.5302 24.9867ZM51.1658 22.3709C51.1626 22.8107 51.4915 23.1748 51.8888 23.1704C52.286 23.1661 52.6212 22.7964 52.6244 22.3555C52.6286 21.9168 52.2996 21.5527 51.9024 21.556C51.5052 21.5604 51.17 21.9311 51.1668 22.3709H51.1658ZM48.7383 19.6827C48.7352 20.1225 49.063 20.4855 49.4603 20.4823C49.8585 20.4779 50.1927 20.1072 50.1958 19.6673C50.2001 19.2275 49.8711 18.8645 49.4739 18.8678C49.0767 18.8722 48.7425 19.2418 48.7383 19.6827ZM51.1227 27.6508C51.1185 28.0917 51.4474 28.4547 51.8446 28.4514C52.2418 28.4459 52.576 28.0763 52.5802 27.6365C52.5834 27.1956 52.2555 26.8326 51.8583 26.8359C51.46 26.8413 51.1258 27.211 51.1227 27.6508ZM56.0039 22.247C56.0007 22.6857 56.3296 23.0498 56.7269 23.0454C57.1241 23.0421 57.4583 22.6725 57.4625 22.2316C57.4656 21.7918 57.1367 21.4277 56.7395 21.4321C56.3423 21.4364 56.0081 21.8061 56.0039 22.247ZM53.6416 19.6312C53.6374 20.071 53.9663 20.434 54.3635 20.4307C54.7607 20.4263 55.0949 20.0567 55.0991 19.6158C55.1023 19.176 54.7744 18.813 54.3772 18.8163C53.9789 18.8206 53.6447 19.1913 53.6416 19.6312ZM51.2131 16.943C51.2089 17.3817 51.5378 17.7458 51.935 17.7425C52.3322 17.7381 52.6664 17.3674 52.6706 16.9276C52.6737 16.4878 52.3448 16.1248 51.9487 16.1281C51.5504 16.1324 51.2162 16.5021 51.2131 16.943Z" fill="#0A3B3C"/>
<path id="Vector_22" d="M58.4114 19.5818C58.4082 20.0216 58.7371 20.3857 59.1343 20.3814C59.5316 20.377 59.8657 20.0073 59.8699 19.5664C59.8731 19.1266 59.5442 18.7636 59.1469 18.7669C58.7497 18.7713 58.4156 19.142 58.4114 19.5818ZM41.5589 22.3939C41.5558 22.8348 41.8847 23.1979 42.2808 23.1946C42.6791 23.1891 43.0133 22.8195 43.0164 22.3797C43.0206 21.9388 42.6928 21.5757 42.2945 21.579C41.8973 21.5845 41.5631 21.9541 41.5589 22.3939ZM46.3508 27.6979C46.3476 28.1388 46.6765 28.5019 47.0738 28.4986C47.471 28.4931 47.8051 28.1235 47.8094 27.6837C47.8125 27.2439 47.4836 26.8797 47.0864 26.883C46.6891 26.8885 46.355 27.2581 46.3508 27.6979ZM43.9233 25.0097C43.9191 25.4495 44.247 25.8137 44.6453 25.8093C45.0425 25.8049 45.3766 25.4353 45.3808 24.9955C45.384 24.5546 45.0551 24.1915 44.6589 24.1948C44.2606 24.1992 43.9265 24.5699 43.9233 25.0097ZM39.1966 19.7792C39.1924 20.2179 39.5203 20.5821 39.9175 20.5777C40.3158 20.5744 40.6499 20.2048 40.6531 19.7639C40.6573 19.3241 40.3294 18.9599 39.9312 18.9643C39.5339 18.9687 39.1998 19.3383 39.1956 19.7792H39.1966ZM43.9675 19.7299C43.9633 20.1697 44.2911 20.5327 44.6883 20.5294C45.0866 20.525 45.4208 20.1543 45.4239 19.7145C45.4281 19.2747 45.1003 18.9106 44.702 18.915C44.3048 18.9194 43.9706 19.289 43.9664 19.7299H43.9675ZM48.7141 30.3159C48.711 30.7557 49.0399 31.1199 49.4371 31.1155C49.8343 31.1111 50.1685 30.7415 50.1727 30.3006C50.1759 29.8619 49.8469 29.4977 49.4497 29.5021C49.0525 29.5054 48.7183 29.875 48.7141 30.3159ZM48.7593 25.0361C48.7551 25.4748 49.083 25.8389 49.4813 25.8345C49.8785 25.8312 50.2126 25.4616 50.2168 25.0207C50.22 24.5809 49.8911 24.2168 49.4939 24.2212C49.0966 24.2255 48.7625 24.5952 48.7583 25.0361H48.7593ZM46.3308 22.3468C46.3266 22.7877 46.6555 23.1507 47.0527 23.1474C47.45 23.143 47.7841 22.7723 47.7883 22.3325C47.7915 21.8927 47.4626 21.5286 47.0664 21.533C46.6681 21.5373 46.334 21.907 46.3308 22.3468Z" fill="#0A3B3C"/>
<path id="Vector_23" d="M58.4114 19.5818C58.4082 20.0216 58.7371 20.3857 59.1344 20.3814C59.5316 20.377 59.8658 20.0074 59.87 19.5665C59.8731 19.1266 59.5442 18.7636 59.147 18.7669C58.7498 18.7713 58.4156 19.142 58.4114 19.5818ZM58.4555 14.3019C58.4524 14.7406 58.7813 15.1048 59.1785 15.1004C59.5757 15.0971 59.9099 14.7275 59.9141 14.2866C59.9172 13.8468 59.5883 13.4826 59.1911 13.487C58.7939 13.4914 58.4597 13.861 58.4555 14.3008V14.3019ZM56.0281 11.6127C56.0239 12.0536 56.3528 12.4166 56.75 12.4133C57.1472 12.4078 57.4814 12.0382 57.4856 11.5984C57.4887 11.1586 57.1609 10.7945 56.7637 10.7977C56.3654 10.8032 56.0312 11.1728 56.0281 11.6127ZM58.5018 8.87291C58.4986 9.31381 58.8275 9.67684 59.2247 9.67355C59.622 9.66807 59.9561 9.29846 59.9603 8.85865C59.9635 8.41775 59.6346 8.05472 59.2373 8.05801C58.7729 8.13697 58.506 8.4331 58.5018 8.87291ZM48.8487 14.325C48.8445 14.7648 49.1734 15.1278 49.5706 15.1245C49.9678 15.1201 50.303 14.7505 50.3062 14.3096C50.3104 13.8698 49.9815 13.5068 49.5843 13.5101C49.186 13.5145 48.8518 13.8852 48.8487 14.325ZM53.6405 19.629C53.6363 20.0688 53.9652 20.4329 54.3625 20.4285C54.7597 20.4241 55.0949 20.0545 55.0981 19.6136C55.1023 19.1749 54.7733 18.8108 54.3761 18.8141C53.9789 18.8185 53.6437 19.1892 53.6405 19.629ZM51.212 16.9408C51.2089 17.3806 51.5367 17.7436 51.934 17.7403C52.3322 17.7359 52.6664 17.3652 52.6696 16.9254C52.6738 16.4856 52.3448 16.1226 51.9476 16.1259C51.5504 16.1303 51.2162 16.4999 51.212 16.9408ZM51.2562 11.6598C51.253 12.1007 51.5809 12.4637 51.9781 12.4605C52.3764 12.455 52.7105 12.0854 52.7137 11.6456C52.7179 11.2047 52.389 10.8416 51.9918 10.8449C51.5945 10.8504 51.2604 11.22 51.2562 11.6598ZM56.048 16.9638C56.0438 17.4036 56.3727 17.7677 56.77 17.7645C57.1672 17.759 57.5024 17.3894 57.5056 16.9496C57.5098 16.5086 57.1808 16.1456 56.7836 16.1489C56.3864 16.1544 56.0512 16.524 56.048 16.9638ZM53.6195 14.2756C53.6164 14.7154 53.9442 15.0796 54.3415 15.0752C54.7397 15.0708 55.0739 14.7012 55.077 14.2614C55.0812 13.8205 54.7523 13.4574 54.3551 13.4607C53.9579 13.4651 53.6237 13.8358 53.6195 14.2756ZM48.8928 9.0451C48.8897 9.48381 49.2175 9.84794 49.6147 9.84355C50.013 9.84026 50.3472 9.47065 50.3503 9.02975C50.3545 8.58994 50.0256 8.22581 49.6284 8.2302C49.2312 8.23459 48.897 8.6042 48.8928 9.0451ZM53.6637 8.99575C53.6605 9.43446 53.9884 9.79859 54.3856 9.7942C54.7839 9.79091 55.118 9.4213 55.1212 8.98039C55.1254 8.54059 54.7965 8.17646 54.3992 8.18084C54.002 8.18523 53.6679 8.55484 53.6637 8.99575Z" fill="#0A3B3C"/>
<path id="Vector_24" d="M58.4114 19.5818C58.4072 20.0216 58.7361 20.3857 59.1333 20.3814C59.5306 20.377 59.8658 20.0074 59.8689 19.5665C59.8731 19.1267 59.5442 18.7636 59.147 18.7669C58.7498 18.7713 58.4146 19.142 58.4114 19.5818ZM58.4555 14.3019C58.4513 14.7407 58.7802 15.1048 59.1775 15.1004C59.5757 15.0971 59.9099 14.7275 59.9131 14.2866C59.9173 13.8468 59.5883 13.4827 59.1911 13.487C58.7939 13.4914 58.4587 13.861 58.4555 14.3008V14.3019ZM56.027 11.6127C56.0239 12.0536 56.3517 12.4166 56.749 12.4133C57.1472 12.4078 57.4814 12.0382 57.4846 11.5984C57.4888 11.1586 57.1598 10.7945 56.7626 10.7978C56.3654 10.8032 56.0312 11.1728 56.027 11.6127ZM39.1967 19.7792C39.1924 20.2179 39.5203 20.5821 39.9186 20.5777C40.3158 20.5744 40.65 20.2048 40.6542 19.7639C40.6573 19.3241 40.3284 18.9599 39.9322 18.9643C39.534 18.9687 39.1998 19.3383 39.1967 19.7792ZM39.2408 14.4994C39.2366 14.9381 39.5644 15.3022 39.9627 15.2978C40.3599 15.2934 40.6941 14.9238 40.6983 14.484C40.7015 14.0431 40.3726 13.6801 39.9764 13.6834C39.5781 13.6877 39.2439 14.0585 39.2408 14.4983V14.4994ZM43.9675 19.7299C43.9633 20.1697 44.2912 20.5327 44.6894 20.5294C45.0867 20.525 45.4208 20.1543 45.425 19.7145C45.4282 19.2747 45.0993 18.9106 44.7031 18.915C44.3048 18.9194 43.9707 19.289 43.9675 19.7299ZM44.0116 14.4489C44.0074 14.8898 44.3353 15.2528 44.7336 15.2485C45.1308 15.2441 45.465 14.8745 45.4692 14.4347C45.4723 13.9938 45.1434 13.6307 44.7472 13.634C44.349 13.6395 44.0148 14.0091 44.0116 14.4489ZM41.6483 11.8342C41.6441 12.2729 41.9719 12.637 42.3702 12.6327C42.7674 12.6294 43.1016 12.2598 43.1058 11.8188C43.109 11.379 42.78 11.0149 42.3839 11.0193C41.9856 11.0237 41.6514 11.3933 41.6483 11.8331V11.8342ZM41.6031 17.1141C41.5999 17.5539 41.9289 17.918 42.3261 17.9136C42.7233 17.9092 43.0575 17.5396 43.0617 17.0987C43.0648 16.6589 42.7359 16.2959 42.3397 16.2992C41.9415 16.3036 41.6073 16.6743 41.6041 17.1141H41.6031ZM46.4853 11.7092C46.4822 12.1501 46.8111 12.5131 47.2073 12.5087C47.6055 12.5043 47.9397 12.1347 47.9429 11.6949C47.9471 11.254 47.6192 10.891 47.2209 10.8943C46.8237 10.8987 46.4895 11.2694 46.4853 11.7092ZM46.3739 17.0647C46.3708 17.5045 46.6997 17.8676 47.0969 17.8643C47.4941 17.8599 47.8283 17.4903 47.8325 17.0494C47.8357 16.6107 47.5068 16.2465 47.1095 16.2509C46.7123 16.2542 46.3781 16.6238 46.3739 17.0647ZM39.2187 9.14491C39.2156 9.58582 39.5445 9.94885 39.9407 9.94556C40.3389 9.94007 40.6731 9.57046 40.6762 9.13065C40.6804 8.68975 40.3526 8.32672 39.9543 8.33001C39.5571 8.33549 39.2229 8.70511 39.2187 9.14491ZM44.122 9.09336C44.1188 9.53427 44.4477 9.8973 44.845 9.89401C45.2422 9.88962 45.5763 9.51891 45.5806 9.07911C45.5837 8.6393 45.2548 8.27517 44.8576 8.27956C44.4603 8.28394 44.1262 8.65356 44.122 9.09336ZM48.8487 14.325C48.8455 14.7648 49.1734 15.1278 49.5706 15.1245C49.9689 15.1201 50.3031 14.7505 50.3062 14.3096C50.3104 13.8698 49.9815 13.5068 49.5843 13.5101C49.1871 13.5145 48.8529 13.8852 48.8487 14.325ZM48.8928 9.04511C48.8897 9.48381 49.2186 9.84794 49.6148 9.84356C50.013 9.84027 50.3472 9.47065 50.3503 9.02975C50.3546 8.58994 50.0267 8.22582 49.6284 8.2302C49.2312 8.23459 48.897 8.6042 48.8928 9.04511ZM34.4048 14.473C34.4006 14.9128 34.7284 15.2759 35.1257 15.2726C35.5239 15.2682 35.8581 14.8975 35.8613 14.4577C35.8655 14.0179 35.5376 13.6548 35.1393 13.6581C34.7421 13.6625 34.4079 14.0321 34.4037 14.473H34.4048ZM32.0404 11.8572C32.0372 12.297 32.3651 12.6601 32.7623 12.6568C33.1606 12.6524 33.4948 12.2828 33.4979 11.8419C33.5021 11.4021 33.1742 11.039 32.776 11.0423C32.3788 11.0467 32.0446 11.4174 32.0404 11.8572ZM36.8112 11.8079C36.8081 12.2477 37.137 12.6118 37.5332 12.6074C37.9314 12.603 38.2656 12.2334 38.2688 11.7925C38.273 11.3538 37.9451 10.9897 37.5468 10.9941C37.1496 10.9974 36.8154 11.367 36.8112 11.8079ZM36.8322 17.1612C36.8291 17.601 37.158 17.9641 37.5552 17.9608C37.9524 17.9564 38.2866 17.5868 38.2908 17.1459C38.294 16.7072 37.9651 16.343 37.5678 16.3474C37.1706 16.3507 36.8364 16.7203 36.8322 17.1612ZM29.677 9.24143C29.6739 9.68123 30.0028 10.0454 30.4 10.041C30.7972 10.0366 31.1314 9.66698 31.1356 9.22717C31.1388 8.78627 30.8098 8.42323 30.4126 8.42653C30.0154 8.43091 29.6812 8.80162 29.677 9.24143ZM34.4489 9.19207C34.4447 9.63298 34.7726 9.99601 35.1709 9.99272C35.5681 9.98723 35.9022 9.61762 35.9064 9.17782C35.9096 8.73691 35.5807 8.37388 35.1835 8.37717C34.7862 8.38265 34.4521 8.75227 34.4479 9.19207H34.4489Z" fill="#0A3B3C"/>
<path id="Vector_25" d="M39.1966 19.777C39.1924 20.2157 39.5202 20.5799 39.9185 20.5766C40.3157 20.5722 40.6499 20.2015 40.6541 19.7617C40.6573 19.3219 40.3283 18.9577 39.9322 18.9621C39.5339 18.9665 39.1997 19.3361 39.1966 19.777ZM39.2407 14.4961C39.2365 14.9359 39.5644 15.3 39.9626 15.2967C40.3599 15.2912 40.694 14.9216 40.6982 14.4818C40.7014 14.0409 40.3725 13.6779 39.9763 13.6812C39.578 13.6867 39.2439 14.0563 39.2407 14.4961ZM39.2186 9.14272C39.2155 9.58362 39.5444 9.94665 39.9406 9.94336C40.3388 9.93788 40.673 9.56827 40.6762 9.12846C40.6804 8.68756 40.3525 8.32452 39.9542 8.32781C39.557 8.3333 39.2228 8.70291 39.2186 9.14272ZM58.5458 3.59085C58.5416 4.03065 58.8705 4.39368 59.2678 4.39039C59.665 4.38601 60.0002 4.0153 60.0034 3.57549C60.0065 3.13568 59.6786 2.77265 59.2814 2.77594C58.8842 2.78033 58.549 3.15104 58.5458 3.59085ZM48.8927 9.0451C48.8896 9.48381 49.2185 9.84794 49.6147 9.84356C50.0129 9.84027 50.3471 9.47065 50.3503 9.02975C50.3545 8.58994 50.0266 8.22581 49.6283 8.2302C49.2311 8.23459 48.8969 8.6042 48.8927 9.0451ZM48.9379 3.76414C48.9337 4.20394 49.2616 4.56807 49.6599 4.56368C50.0571 4.5593 50.3913 4.18968 50.3955 3.74878C50.3986 3.31007 50.0697 2.94594 49.6725 2.95033C49.2753 2.95362 48.9411 3.32323 48.9369 3.76414H48.9379ZM53.6636 8.99575C53.6604 9.43446 53.9894 9.79859 54.3866 9.7942C54.7838 9.79091 55.118 9.4213 55.1222 8.98039C55.1253 8.54059 54.7964 8.17646 54.3992 8.18085C54.002 8.18523 53.6678 8.55485 53.6636 8.99575ZM53.775 3.6402C53.7708 4.08001 54.0997 4.44304 54.4969 4.43975C54.8952 4.43536 55.2294 4.06465 55.2325 3.62485C55.2367 3.18504 54.9078 2.82201 54.5106 2.8253C54.0461 2.90427 53.7792 3.20039 53.775 3.6402ZM51.4116 1.02439C51.4074 1.4642 51.7363 1.82833 52.1336 1.82394C52.5318 1.81956 52.866 1.44994 52.8692 1.00904C52.8734 0.57033 52.5444 0.206201 52.1472 0.210588C51.6827 0.287362 51.4158 0.583491 51.4116 1.02439ZM51.3002 6.37994C51.2971 6.81975 51.626 7.18278 52.0232 7.17949C52.4204 7.1751 52.7546 6.80439 52.7588 6.36459C52.762 5.92478 52.4331 5.56175 52.0358 5.56504C51.6386 5.56943 51.3044 5.94014 51.3002 6.37994ZM56.1825 0.976136C56.1793 1.41485 56.5072 1.77898 56.9044 1.77459C57.3016 1.7702 57.6368 1.40059 57.64 0.959685C57.6442 0.520975 57.3153 0.156846 56.9181 0.161233C56.5208 0.164523 56.1867 0.534136 56.1825 0.97504V0.976136ZM56.1383 6.2582C56.1341 6.69691 56.4631 7.06104 56.8603 7.05665C57.2575 7.05336 57.5927 6.68375 57.5959 6.24285C57.6001 5.80304 57.2712 5.43891 56.8739 5.4433C56.4095 5.52117 56.1415 5.8173 56.1383 6.2582Z" fill="#0A3B3C"/>
<path id="Vector_26" d="M58.5459 3.59085C58.5417 4.03065 58.8706 4.39368 59.2678 4.39039C59.6651 4.38601 60.0003 4.0153 60.0034 3.57549C60.0066 3.13568 59.6787 2.77265 59.2815 2.77594C58.8843 2.78033 58.5491 3.15104 58.5459 3.59085ZM39.2187 9.14491C39.2156 9.58581 39.5445 9.94885 39.9407 9.94555C40.3389 9.94007 40.6731 9.57046 40.6762 9.13065C40.6804 8.68975 40.3526 8.32672 39.9543 8.33001C39.5571 8.33549 39.2229 8.7051 39.2187 9.14491ZM39.3301 3.79046C39.327 4.22917 39.6548 4.5933 40.052 4.58891C40.4503 4.58562 40.7845 4.21601 40.7876 3.7751C40.7918 3.3353 40.464 2.97117 40.0657 2.97556C39.6685 2.97994 39.3343 3.34956 39.3301 3.79046ZM44.122 9.09336C44.1188 9.53427 44.4477 9.8973 44.845 9.89401C45.2422 9.88962 45.5763 9.51891 45.5805 9.0791C45.5837 8.6393 45.2548 8.27517 44.8576 8.27956C44.4603 8.28394 44.1262 8.65356 44.122 9.09336ZM44.101 3.74001C44.0978 4.18091 44.4257 4.54394 44.8229 4.54065C45.2201 4.53626 45.5553 4.16556 45.5585 3.72575C45.5627 3.28594 45.2338 2.92181 44.8365 2.9262C44.4393 2.93059 44.1041 3.3002 44.101 3.7411V3.74001ZM41.7376 1.1253C41.7334 1.5651 42.0623 1.92814 42.4595 1.92485C42.8568 1.92046 43.192 1.54975 43.1951 1.10994C43.1993 0.670136 42.8704 0.307104 42.4732 0.310394C42.076 0.314781 41.7408 0.685491 41.7376 1.1253ZM41.6935 6.40517C41.6893 6.84607 42.0182 7.2091 42.4154 7.20581C42.8126 7.20033 43.1468 6.83072 43.151 6.39091C43.1541 5.95001 42.8263 5.58697 42.4291 5.59026C42.0318 5.59575 41.6966 5.96536 41.6935 6.40517ZM46.5084 1.07485C46.5042 1.51575 46.8332 1.87878 47.2304 1.87549C47.6287 1.8711 47.9628 1.50039 47.966 1.06059C47.9702 0.620781 47.6413 0.257749 47.244 0.261039C46.8468 0.265426 46.5116 0.636136 46.5084 1.07594V1.07485ZM46.5295 6.4293C46.5263 6.8691 46.8552 7.23214 47.2524 7.22885C47.6497 7.22446 47.9838 6.85375 47.988 6.41394C47.9912 5.97414 47.6623 5.6111 47.2651 5.61439C46.8678 5.61878 46.5337 5.98949 46.5295 6.4293ZM48.8928 9.0451C48.8897 9.48381 49.2186 9.84794 49.6148 9.84356C50.013 9.84027 50.3472 9.47065 50.3503 9.02975C50.3546 8.58994 50.0267 8.22581 49.6284 8.2302C49.2312 8.23459 48.897 8.6042 48.8928 9.0451ZM48.938 3.76414C48.9338 4.20394 49.2617 4.56807 49.6599 4.56368C50.0572 4.5593 50.3913 4.18968 50.3955 3.74878C50.3987 3.31007 50.0698 2.94594 49.6726 2.95033C49.2753 2.95362 48.9412 3.32323 48.937 3.76414H48.938ZM29.677 9.24143C29.6739 9.68123 30.0028 10.0454 30.4 10.041C30.7972 10.0366 31.1314 9.66698 31.1356 9.22717C31.1388 8.78627 30.8098 8.42323 30.4126 8.42652C30.0154 8.43091 29.6812 8.80162 29.677 9.24143ZM34.4479 9.19207C34.4447 9.63297 34.7726 9.99601 35.1698 9.99272C35.5681 9.98723 35.9022 9.61762 35.9054 9.17781C35.9096 8.73691 35.5817 8.37388 35.1835 8.37717C34.7862 8.38265 34.4521 8.75226 34.4479 9.19207ZM34.492 3.9122C34.4889 4.35201 34.8178 4.71504 35.215 4.71175C35.6122 4.70736 35.9464 4.33665 35.9506 3.89685C35.9537 3.45704 35.6248 3.09401 35.2276 3.0973C34.8304 3.10168 34.4962 3.47239 34.492 3.9122ZM32.0845 6.57736C32.0814 7.01607 32.4103 7.3802 32.8075 7.37581C33.2047 7.37252 33.5389 7.00291 33.5431 6.56201C33.5462 6.1222 33.2173 5.75807 32.8201 5.76246C32.4229 5.76685 32.0887 6.13646 32.0845 6.57736ZM36.9668 1.17246C36.9636 1.61226 37.2915 1.9753 37.6887 1.97201C38.087 1.96762 38.4211 1.59691 38.4243 1.1571C38.4285 0.717297 38.1006 0.354265 37.7023 0.357555C37.3051 0.361942 36.971 0.732652 36.9668 1.17246ZM36.8554 6.52801C36.8522 6.96672 37.1811 7.33085 37.5783 7.32646C37.9756 7.32317 38.3097 6.95356 38.3139 6.51265C38.3171 6.07285 37.9882 5.70872 37.591 5.7131C37.1937 5.71749 36.8596 6.0871 36.8554 6.52801Z" fill="#0A3B3C"/>
<path id="Vector_27" d="M39.2185 9.14053C39.2154 9.58143 39.5443 9.94446 39.9405 9.94117C40.3387 9.93569 40.6729 9.56608 40.6761 9.12627C40.6803 8.68537 40.3524 8.32233 39.9541 8.32672C39.5569 8.33111 39.2227 8.70072 39.2185 9.14053ZM39.3299 3.78827C39.3257 4.22698 39.6546 4.59111 40.0518 4.58672C40.4491 4.58343 40.7843 4.21382 40.7874 3.77292C40.7916 3.33311 40.4627 2.96898 40.0655 2.97337C39.6683 2.97775 39.3331 3.34737 39.3299 3.78827ZM59.441 50.6337C59.4379 51.0746 59.7657 51.4376 60.163 51.4343C60.5612 51.4289 60.8954 51.0592 60.8986 50.6194C60.9028 50.1796 60.5749 49.8155 60.1766 49.8199C59.7794 49.8243 59.4452 50.1939 59.441 50.6337ZM59.4852 45.3538C59.482 45.7936 59.8109 46.1578 60.2082 46.1534C60.6054 46.149 60.9395 45.7794 60.9437 45.3385C60.9469 44.8998 60.618 44.5356 60.2208 44.5389C59.8235 44.5433 59.4894 44.914 59.4852 45.3538ZM49.8331 50.8081C49.8289 51.2468 50.1579 51.6109 50.5551 51.6065C50.9523 51.6032 51.2875 51.2336 51.2907 50.7927C51.2949 50.3529 50.966 49.9888 50.5687 49.9932C50.1715 49.9976 49.8363 50.3672 49.8331 50.8081ZM54.604 50.7587C54.5998 51.1985 54.9287 51.5616 55.3259 51.5572C55.7231 51.5539 56.0584 51.1843 56.0615 50.7434C56.0657 50.3036 55.7368 49.9394 55.3396 49.9438C54.9424 49.9482 54.6071 50.3189 54.604 50.7587ZM52.2406 48.1429C52.2364 48.5827 52.5653 48.9469 52.9626 48.9425C53.3598 48.9381 53.695 48.5685 53.6982 48.1276C53.7024 47.6889 53.3734 47.3247 52.9762 47.3291C52.579 47.3324 52.2438 47.702 52.2406 48.1429ZM52.1954 53.4239C52.1923 53.8626 52.5212 54.2267 52.9184 54.2223C53.3156 54.2179 53.6509 53.8483 53.654 53.4085C53.6582 52.9687 53.3293 52.6046 52.9321 52.609C52.5349 52.6134 52.1996 52.983 52.1965 53.4228L52.1954 53.4239ZM57.0787 48.019C57.0745 48.4577 57.4024 48.8218 57.8007 48.8185C58.1979 48.8141 58.532 48.4434 58.5363 48.0036C58.5394 47.5638 58.2115 47.1997 57.8143 47.2041C57.416 47.2085 57.0819 47.5781 57.0787 48.019ZM56.9663 53.3734C56.9631 53.8143 57.292 54.1774 57.6893 54.1741C58.0865 54.1697 58.4207 53.799 58.4249 53.3592C58.428 52.9194 58.1002 52.5552 57.7029 52.5596C57.3047 52.564 56.9705 52.9336 56.9673 53.3734H56.9663ZM49.8121 45.4547C49.8079 45.8945 50.1358 46.2576 50.5341 46.2543C50.9313 46.2499 51.2654 45.8792 51.2696 45.4394C51.2728 44.9996 50.9439 44.6365 50.5477 44.6398C50.1494 44.6442 49.8153 45.0138 49.8121 45.4547ZM54.7154 45.4032C54.7112 45.843 55.0401 46.2071 55.4373 46.2027C55.8345 46.1983 56.1687 45.8287 56.1729 45.3878C56.1761 44.9491 55.8482 44.585 55.451 44.5883C55.0527 44.5927 54.7185 44.9634 54.7154 45.4032Z" fill="#0A3B3C"/>
<path id="Vector_28" d="M59.4412 50.6337C59.438 51.0746 59.7669 51.4376 60.1641 51.4343C60.5614 51.4288 60.8955 51.0592 60.8997 50.6194C60.9029 50.1796 60.574 49.8155 60.1768 49.8199C59.7795 49.8243 59.4454 50.1939 59.4412 50.6337ZM59.4863 45.3538C59.4821 45.7936 59.81 46.1577 60.2083 46.1534C60.6055 46.149 60.9397 45.7794 60.9439 45.3384C60.947 44.8997 60.6192 44.5356 60.2219 44.5389C59.8237 44.5433 59.4895 44.914 59.4863 45.3538ZM44.9973 50.7839C44.9931 51.2237 45.3209 51.5879 45.7192 51.5835C46.1164 51.5791 46.4506 51.2095 46.4548 50.7697C46.4579 50.3288 46.129 49.9657 45.7329 49.969C45.3346 49.9734 45.0004 50.3441 44.9973 50.7839ZM42.6329 48.1681C42.6297 48.609 42.9586 48.9721 43.3558 48.9688C43.7531 48.9633 44.0872 48.5937 44.0914 48.1539C44.0946 47.7141 43.7657 47.3499 43.3695 47.3532C42.9712 47.3587 42.6371 47.7283 42.6339 48.1681H42.6329ZM47.4037 48.1188C47.4006 48.5597 47.7295 48.9227 48.1267 48.9194C48.5239 48.9139 48.8581 48.5443 48.8623 48.1045C48.8654 47.6647 48.5365 47.3006 48.1403 47.305C47.7421 47.3094 47.4079 47.679 47.4048 48.1188H47.4037ZM47.4247 53.4721C47.4216 53.913 47.7505 54.2761 48.1477 54.2728C48.5449 54.2673 48.8801 53.8977 48.8833 53.4579C48.8875 53.0181 48.5586 52.6539 48.1614 52.6572C47.7631 52.6627 47.4289 53.0323 47.4258 53.4721H47.4247ZM40.2705 45.5534C40.2663 45.9921 40.5953 46.3563 40.9925 46.3519C41.3897 46.3486 41.7239 45.979 41.7281 45.5381C41.7312 45.0983 41.4034 44.7341 41.0061 44.7385C40.6089 44.7429 40.2737 45.1125 40.2705 45.5534ZM45.0414 45.5041C45.0372 45.9439 45.3661 46.3069 45.7633 46.3036C46.1605 46.2992 46.4947 45.9285 46.4989 45.4887C46.5021 45.0489 46.1742 44.6848 45.777 44.6892C45.3798 44.6935 45.0445 45.0632 45.0414 45.5041ZM49.8333 50.8081C49.8291 51.2468 50.158 51.6109 50.5552 51.6065C50.9524 51.6032 51.2876 51.2336 51.2908 50.7927C51.295 50.3529 50.9661 49.9888 50.5689 49.9932C50.1716 49.9975 49.8364 50.3672 49.8333 50.8081ZM49.8122 45.4547C49.808 45.8945 50.1359 46.2575 50.5342 46.2543C50.9314 46.2499 51.2656 45.8792 51.2698 45.4394C51.2729 44.9995 50.944 44.6365 50.5478 44.6398C50.1496 44.6442 49.8154 45.0138 49.8122 45.4547Z" fill="#0A3B3C"/>
<path id="Vector_29" d="M59.4864 45.356C59.4822 45.7958 59.8101 46.16 60.2083 46.1556C60.6055 46.1512 60.9397 45.7816 60.9439 45.3407C60.9471 44.9009 60.6192 44.5378 60.222 44.5411C59.8237 44.5455 59.4896 44.9162 59.4864 45.356ZM59.5305 40.0761C59.5263 40.5149 59.8552 40.879 60.2525 40.8746C60.6497 40.8713 60.9839 40.5017 60.9881 40.0608C60.9912 39.621 60.6633 39.2569 60.2661 39.2612C59.8679 39.2656 59.5337 39.6352 59.5305 40.075V40.0761ZM59.5757 34.6471C59.5726 35.0869 59.9004 35.451 60.2977 35.4478C60.6949 35.4423 61.0301 35.0727 61.0332 34.6329C61.0375 34.1919 60.7085 33.8289 60.3113 33.8322C59.8468 33.9112 59.5799 34.2073 59.5757 34.6471ZM49.8123 45.4569C49.8081 45.8967 50.137 46.2598 50.5342 46.2565C50.9314 46.2521 51.2667 45.8814 51.2698 45.4416C51.273 45.0018 50.9451 44.6387 50.5479 44.642C50.1507 44.6464 49.8154 45.016 49.8123 45.4569ZM49.9237 40.1014C49.9195 40.5412 50.2484 40.9042 50.6456 40.9009C51.0428 40.8965 51.377 40.5258 51.3812 40.086C51.3844 39.6462 51.0565 39.2832 50.6593 39.2876C50.2621 39.2909 49.9268 39.6605 49.9237 40.1014ZM54.7156 45.4054C54.7113 45.8452 55.0403 46.2093 55.4375 46.2049C55.8347 46.2005 56.1699 45.8298 56.1731 45.39C56.1773 44.9502 55.8484 44.5872 55.4511 44.5905C55.0529 44.5949 54.7187 44.9656 54.7156 45.4054ZM54.6945 40.052C54.6903 40.4918 55.0182 40.856 55.4165 40.8516C55.8137 40.8472 56.1479 40.4776 56.1521 40.0367C56.1552 39.598 55.8263 39.2338 55.4301 39.2382C55.0319 39.2415 54.6977 39.6111 54.6945 40.052ZM52.3312 37.4362C52.327 37.876 52.6548 38.2401 53.0531 38.2358C53.4503 38.2314 53.7845 37.8618 53.7887 37.4219C53.7919 36.981 53.4629 36.618 53.0668 36.6213C52.6685 36.6268 52.3343 36.9964 52.3312 37.4362ZM52.286 42.7172C52.2828 43.157 52.6118 43.52 53.0079 43.5156C53.4062 43.5123 53.7404 43.1427 53.7435 42.7018C53.7477 42.262 53.4199 41.899 53.0216 41.9023C52.6244 41.9067 52.2902 42.2763 52.286 42.7172ZM57.102 37.3869C57.0978 37.8278 57.4257 38.1908 57.824 38.1875C58.2212 38.182 58.5553 37.8124 58.5596 37.3726C58.5627 36.9317 58.2338 36.5687 57.8376 36.572C57.4393 36.5774 57.1052 36.947 57.102 37.3869ZM57.123 42.7413C57.1188 43.18 57.4478 43.5441 57.845 43.5398C58.2422 43.5354 58.5774 43.1658 58.5806 42.726C58.5848 42.285 58.2559 41.922 57.8586 41.9253C57.4614 41.9297 57.1262 42.3004 57.123 42.7402V42.7413ZM49.9678 34.8204C49.9636 35.2613 50.2915 35.6243 50.6898 35.621C51.087 35.6156 51.4211 35.2459 51.4253 34.8061C51.4285 34.3663 51.0996 34.0022 50.7034 34.0066C50.3051 34.011 49.971 34.3806 49.9678 34.8204ZM54.7387 34.7721C54.7345 35.2109 55.0623 35.575 55.4606 35.5706C55.8578 35.5673 56.192 35.1977 56.1962 34.7568C56.1993 34.317 55.8704 33.9529 55.4743 33.9572C55.076 33.9616 54.7418 34.3312 54.7387 34.7721Z" fill="#0A3B3C"/>
<path id="Vector_30" d="M59.4853 45.356C59.4821 45.7958 59.8111 46.1599 60.2083 46.1556C60.6055 46.1512 60.9397 45.7816 60.9439 45.3407C60.947 44.9009 60.6181 44.5378 60.2209 44.5411C59.8237 44.5455 59.4895 44.9162 59.4853 45.356ZM59.5305 40.0761C59.5263 40.5149 59.8552 40.879 60.2524 40.8746C60.6496 40.8713 60.9838 40.5017 60.988 40.0608C60.9912 39.621 60.6633 39.2569 60.2661 39.2612C59.8678 39.2656 59.5336 39.6352 59.5305 40.075V40.0761ZM59.5757 34.6471C59.5725 35.0869 59.9004 35.451 60.2976 35.4478C60.6948 35.4423 61.03 35.0727 61.0332 34.6329C61.0374 34.1919 60.7085 33.8289 60.3113 33.8322C59.8468 33.9112 59.5799 34.2073 59.5757 34.6471ZM40.2705 45.5534C40.2663 45.9921 40.5942 46.3563 40.9925 46.3519C41.3897 46.3486 41.7239 45.979 41.7281 45.5381C41.7312 45.0983 41.4034 44.7341 41.0061 44.7385C40.6089 44.7429 40.2737 45.1125 40.2705 45.5534ZM45.0403 45.5041C45.0372 45.9439 45.3661 46.3069 45.7633 46.3036C46.1605 46.2992 46.4947 45.9285 46.4989 45.4887C46.5021 45.0489 46.1732 44.6848 45.777 44.6892C45.3787 44.6936 45.0445 45.0632 45.0414 45.5041H45.0403ZM45.0855 40.2231C45.0813 40.6629 45.4102 41.027 45.8075 41.0227C46.2047 41.0183 46.5389 40.6487 46.5431 40.2089C46.5473 39.7679 46.2183 39.4049 45.8211 39.4082C45.4229 39.4137 45.0887 39.7833 45.0855 40.2231ZM42.678 42.8883C42.6738 43.3281 43.0028 43.6922 43.4 43.6878C43.7972 43.6834 44.1314 43.3138 44.1356 42.8729C44.1387 42.4331 43.8109 42.0701 43.4136 42.0734C43.0154 42.0778 42.6812 42.4485 42.678 42.8883ZM47.5592 37.4834C47.5561 37.9232 47.885 38.2873 48.2822 38.2829C48.6794 38.2785 49.0136 37.9089 49.0178 37.4691C49.021 37.0282 48.692 36.6652 48.2948 36.6685C47.8976 36.6739 47.5634 37.0436 47.5592 37.4834ZM47.4489 42.8389C47.4447 43.2787 47.7736 43.6428 48.1708 43.6385C48.568 43.6341 48.9022 43.2645 48.9064 42.8236C48.9106 42.3848 48.5817 42.0207 48.1845 42.0251C47.7862 42.0284 47.452 42.398 47.4489 42.8389ZM49.8122 45.4525C49.808 45.8923 50.1359 46.2554 50.5342 46.2521C50.9314 46.2477 51.2656 45.877 51.2698 45.4372C51.2729 44.9974 50.944 44.6343 50.5478 44.6376C50.1496 44.642 49.8154 45.0127 49.8122 45.4525ZM49.9226 40.0992C49.9194 40.539 50.2483 40.9031 50.6445 40.8987C51.0428 40.8943 51.377 40.5247 51.3801 40.0838C51.3843 39.644 51.0564 39.281 50.6582 39.2854C50.261 39.2887 49.9268 39.6583 49.9226 40.0992ZM49.9678 34.8193C49.9636 35.258 50.2914 35.6221 50.6897 35.6178C51.0869 35.6145 51.4211 35.2449 51.4253 34.8039C51.4284 34.3641 51.0995 34 50.7034 34.0044C50.3051 34.0088 49.9709 34.3784 49.9678 34.8182V34.8193Z" fill="#0A3B3C"/>
<path id="Vector_31" d="M59.5757 34.6449C59.5726 35.0858 59.9004 35.4488 60.2976 35.4455C60.6949 35.4401 61.0301 35.0705 61.0332 34.6306C61.0374 34.1897 60.7085 33.8267 60.3113 33.83C59.8468 33.909 59.5799 34.2051 59.5757 34.6449ZM59.6198 29.365C59.6167 29.8048 59.9456 30.1679 60.3428 30.1646C60.7401 30.1602 61.0742 29.7895 61.0784 29.3497C61.0816 28.9099 60.7527 28.5468 60.3554 28.5501C59.9582 28.5545 59.6241 28.9252 59.6198 29.365ZM59.664 24.0863C59.6608 24.5272 59.9897 24.8902 60.3859 24.8869C60.7842 24.8814 61.1184 24.5118 61.1215 24.072C61.1257 23.6311 60.7979 23.2681 60.3996 23.2714C60.0024 23.2768 59.6682 23.6465 59.664 24.0863ZM49.9678 34.8204C49.9636 35.2613 50.2915 35.6243 50.6897 35.621C51.087 35.6155 51.4211 35.2459 51.4253 34.8061C51.4285 34.3663 51.0996 34.0022 50.7034 34.0066C50.3051 34.011 49.971 34.3806 49.9678 34.8204ZM54.7387 34.7721C54.7345 35.2108 55.0623 35.575 55.4595 35.5706C55.8578 35.5673 56.192 35.1977 56.1951 34.7568C56.1993 34.317 55.8715 33.9528 55.4732 33.9572C55.076 33.9616 54.7418 34.3312 54.7376 34.7721H54.7387ZM54.849 29.4155C54.8458 29.8564 55.1748 30.2194 55.5709 30.2161C55.9692 30.2117 56.3034 29.841 56.3065 29.4012C56.3107 28.9614 55.9829 28.5984 55.5846 28.6017C55.1201 28.6806 54.8532 28.9757 54.849 29.4166V29.4155ZM52.3743 32.1563C52.3711 32.5961 52.7 32.9592 53.0972 32.9559C53.4945 32.9515 53.8286 32.5808 53.8328 32.141C53.836 31.7012 53.5071 31.3381 53.1109 31.3414C52.7126 31.3458 52.3785 31.7154 52.3753 32.1563H52.3743ZM57.2565 26.7514C57.2533 27.1912 57.5823 27.5554 57.9784 27.551C58.3767 27.5466 58.7109 27.177 58.714 26.7361C58.7182 26.2974 58.3904 25.9332 57.9921 25.9376C57.5949 25.9409 57.2607 26.3105 57.2565 26.7514ZM57.2124 32.0324C57.2082 32.4711 57.5371 32.8352 57.9343 32.8308C58.3326 32.8275 58.6667 32.4579 58.6699 32.017C58.6741 31.5772 58.3452 31.2131 57.948 31.2175C57.4835 31.2954 57.2166 31.5915 57.2124 32.0313V32.0324Z" fill="#0A3B3C"/>
<path id="Vector_32" d="M59.5757 34.6471C59.5715 35.0869 59.9004 35.451 60.2977 35.4477C60.6949 35.4423 61.0301 35.0726 61.0333 34.6328C61.0375 34.1919 60.7085 33.8289 60.3113 33.8322C59.8468 33.9112 59.5789 34.2073 59.5757 34.6471ZM59.6199 29.3672C59.6167 29.807 59.9446 30.1701 60.3418 30.1668C60.7401 30.1624 61.0742 29.7917 61.0774 29.3519C61.0816 28.9121 60.7527 28.549 60.3555 28.5523C59.9582 28.5567 59.6241 28.9274 59.6199 29.3672ZM59.664 24.0863C59.6608 24.5272 59.9898 24.8902 60.3859 24.8869C60.7842 24.8814 61.1184 24.5118 61.1215 24.072C61.1257 23.6311 60.7979 23.2681 60.3996 23.2714C60.0024 23.2768 59.6682 23.6465 59.664 24.0863Z" fill="#0A3B3C"/>
<path id="Vector_33" d="M59.6638 24.0863C59.6607 24.5272 59.9896 24.8902 60.3858 24.8869C60.784 24.8814 61.1182 24.5118 61.1214 24.072C61.1256 23.6311 60.7977 23.2681 60.3994 23.2714C60.0022 23.2768 59.668 23.6465 59.6638 24.0863Z" fill="#0A3B3C"/>
</g>
<path id="Vector_34" fill-rule="evenodd" clip-rule="evenodd" d="M41.558 48.6595C40.8581 48.6595 40.2907 49.2868 40.2907 50.0612C40.2907 50.8355 40.8581 51.4639 41.558 51.4639C42.2578 51.4639 42.8242 50.8355 42.8242 50.0612C42.8242 49.2868 42.2568 48.6595 41.558 48.6595ZM38.1795 50.0612C38.1795 47.9959 39.6917 46.3212 41.558 46.3212C43.4232 46.3212 44.9365 47.9959 44.9365 50.0612C44.9365 52.1275 43.4232 53.8012 41.558 53.8012C39.6917 53.8012 38.1795 52.1275 38.1795 50.0612ZM20.0188 48.6595C19.3199 48.6595 18.7525 49.2868 18.7525 50.0612C18.7525 50.8355 19.3199 51.4639 20.0198 51.4639C20.7197 51.4639 21.2861 50.8355 21.2861 50.0612C21.2861 49.2868 20.7186 48.6595 20.0198 48.6595H20.0188ZM16.6413 50.0612C16.6413 47.9959 18.1546 46.3212 20.0198 46.3212C21.8851 46.3212 23.3983 47.9959 23.3983 50.0612C23.3983 52.1275 21.8851 53.8012 20.0198 53.8012C18.1535 53.8012 16.6413 52.1275 16.6413 50.0612ZM32.218 43.7503V65.6057H29.9913V43.7514H32.218V43.7503ZM45.8791 42.7084C43.5462 40.1266 39.7799 40.1266 37.4471 42.7084L36.701 43.5354L35.2077 41.8814L35.9538 41.0556C39.1116 37.5601 44.2135 37.5601 47.3723 41.0556L48.1184 41.8825L46.6252 43.5354L45.8791 42.7084ZM24.2348 42.7084C21.9019 40.1266 18.1367 40.1266 15.8038 42.7084L15.0577 43.5354L13.5645 41.8814L14.3106 41.0556C17.4673 37.5601 22.5702 37.5601 25.728 41.0556L26.4741 41.8825L24.9819 43.5354L24.2358 42.7084H24.2348Z" fill="#0B3B3D"/>
</g>
</g>
</svg>
