<svg width="62" height="68" viewBox="0 0 62 68" fill="none" xmlns="http://www.w3.org/2000/svg">
<g id="Frame">
<path id="Vector" fill-rule="evenodd" clip-rule="evenodd" d="M31.268 3.54916C15.915 3.54916 3.46801 17.1996 3.46801 34.0384C3.46801 50.8772 15.915 64.5276 31.268 64.5276C46.621 64.5276 59.067 50.8772 59.067 34.0373C59.067 17.1996 46.621 3.54916 31.267 3.54916H31.268ZM1.23901 34.0384C1.23901 15.8484 14.683 1.10226 31.268 1.10226C47.852 1.10226 61.297 15.8484 61.297 34.0384C61.297 52.2273 47.852 66.9723 31.267 66.9723C14.683 66.9723 1.23901 52.2273 1.23901 34.0384Z" fill="#0B3B3D"/>
<path id="Vector_2" d="M39.2331 21.2643C41.6081 21.2643 43.5871 22.2755 45.1701 24.185C46.2581 25.421 46.8511 27.1068 47.3461 29.2411C47.8411 32.4985 47.2471 35.3063 45.4661 38.2281C43.9821 40.7002 42.1021 42.9464 39.6291 45.3055C37.1561 47.6647 34.3851 49.799 31.2191 51.8204C31.1201 51.8204 31.1201 51.8204 31.1201 51.9334C31.0211 51.9334 31.0211 51.9334 30.9221 51.8215C26.9651 49.2375 24.3921 47.1032 22.0181 44.857C20.3361 43.1712 18.4561 41.1499 16.8731 38.5648C15.5871 36.4305 14.9931 34.1843 14.8941 31.7121C14.7961 29.2411 15.4881 26.769 16.9721 24.5228C18.3571 22.6122 20.1381 21.6021 22.3151 21.3772H23.1061C24.8871 21.3772 26.3711 21.8269 27.6571 22.7252C28.4491 23.2867 29.0431 23.9612 29.5371 24.6346L29.6371 24.7476L31.2671 26.5288L32.7031 24.6346C34.1871 22.5003 36.1661 21.3772 38.8371 21.2643H39.2331ZM39.2331 19.0181H38.8381C35.6721 19.1299 33.0991 20.5908 31.2191 23.1748C30.6261 22.2755 29.7351 21.3761 28.8451 20.7027C27.1631 19.5796 25.2831 19.0181 23.2051 19.0181H22.2151C19.4451 19.3548 17.1701 20.8157 15.4881 23.0619C13.7081 25.6459 12.9161 28.5677 13.0151 31.7121C13.1131 34.5199 13.9051 37.2179 15.2901 39.689C16.8731 42.4967 18.9501 44.744 20.7321 46.4286C23.3041 49.0126 26.2721 51.2599 30.0321 53.731C30.4281 53.9558 30.7251 54.0677 31.1201 54.0677H31.2201C31.6151 54.0677 31.8131 53.9558 32.2091 53.731C35.331 51.793 38.2791 49.5361 41.0141 46.9902C43.6851 44.5192 45.5651 42.16 47.1481 39.4641C49.2261 35.9819 49.9181 32.4996 49.3251 28.7925C48.8301 26.3204 48.0391 24.1861 46.7531 22.6133C44.6751 20.2541 42.2011 19.0181 39.2331 19.0181Z" fill="#0B3B3D"/>
<mask id="mask0_1_360" style="mask-type:alpha" maskUnits="userSpaceOnUse" x="14" y="21" width="34" height="31">
<g id="a">
<path id="Vector_3" d="M39.233 21.2654C41.607 21.2654 43.586 22.2766 45.169 24.1861C46.258 25.4221 46.851 27.1068 47.346 29.2422C47.841 32.4996 47.246 35.3074 45.466 38.2281C43.982 40.7002 42.102 42.9464 39.629 45.3055C37.155 47.6647 34.385 49.799 31.219 51.8215C31.119 51.8215 31.119 51.8215 31.119 51.9334C31.021 51.9334 31.021 51.9334 30.922 51.8215C26.965 49.2375 24.392 47.1032 22.018 44.857C20.336 43.1712 18.456 41.1499 16.873 38.5659C15.587 36.4315 14.993 34.1843 14.894 31.7132C14.795 29.2411 15.488 26.7701 16.972 24.5228C18.357 22.6133 20.138 21.6021 22.314 21.3772H23.106C24.886 21.3772 26.371 21.8269 27.657 22.7263C28.449 23.2867 29.042 23.9612 29.537 24.6346L29.636 24.7476L31.267 26.5288L32.703 24.6357C34.187 22.5003 36.166 21.3783 38.837 21.2654H39.233Z" fill="#C4C4C4"/>
</g>
</mask>
<g mask="url(#mask0_1_360)">
<g id="Group">
<path id="Vector_4" d="M45.258 49.8977C45.4138 50.0654 45.6233 50.1593 45.8415 50.1593C46.0598 50.1593 46.2693 50.0654 46.425 49.8977C46.5782 49.7269 46.664 49.4968 46.664 49.2572C46.664 49.0176 46.5782 48.7876 46.425 48.6167C46.2693 48.449 46.0598 48.3551 45.8415 48.3551C45.6233 48.3551 45.4138 48.449 45.258 48.6167C45.1049 48.7876 45.019 49.0176 45.019 49.2572C45.019 49.4968 45.1049 49.7269 45.258 49.8977ZM45.258 45.7048C45.4138 45.8724 45.6233 45.9664 45.8415 45.9664C46.0598 45.9664 46.2693 45.8724 46.425 45.7048C46.5779 45.534 46.6635 45.3042 46.6635 45.0648C46.6635 44.8255 46.5779 44.5957 46.425 44.4248C46.2693 44.2572 46.0598 44.1632 45.8415 44.1632C45.6233 44.1632 45.4138 44.2572 45.258 44.4248C45.1052 44.5957 45.0195 44.8255 45.0195 45.0648C45.0195 45.3042 45.1052 45.534 45.258 45.7048ZM41.435 45.7048C41.5908 45.8728 41.8006 45.9669 42.019 45.9669C42.2375 45.9669 42.4472 45.8728 42.603 45.7048C42.7559 45.534 42.8415 45.3042 42.8415 45.0648C42.8415 44.8255 42.7559 44.5957 42.603 44.4248C42.4472 44.2568 42.2375 44.1627 42.019 44.1627C41.8006 44.1627 41.5908 44.2568 41.435 44.4248C41.2822 44.5957 41.1965 44.8255 41.1965 45.0648C41.1965 45.3042 41.2822 45.534 41.435 45.7048ZM45.257 41.5129C45.4128 41.6809 45.6226 41.775 45.841 41.775C46.0595 41.775 46.2692 41.6809 46.425 41.5129C46.5782 41.342 46.664 41.112 46.664 40.8724C46.664 40.6328 46.5782 40.4027 46.425 40.2319C46.2692 40.0639 46.0595 39.9697 45.841 39.9697C45.6226 39.9697 45.4128 40.0639 45.257 40.2319C45.1039 40.4027 45.018 40.6328 45.018 40.8724C45.018 41.112 45.1039 41.342 45.257 41.5129ZM41.435 49.8999C41.5908 50.0679 41.8006 50.1621 42.019 50.1621C42.2375 50.1621 42.4472 50.0679 42.603 49.8999C42.7562 49.7291 42.842 49.499 42.842 49.2594C42.842 49.0198 42.7562 48.7898 42.603 48.6189C42.4472 48.4509 42.2375 48.3568 42.019 48.3568C41.8006 48.3568 41.5908 48.4509 41.435 48.6189C41.2819 48.7898 41.196 49.0198 41.196 49.2594C41.196 49.499 41.2819 49.7291 41.435 49.8999ZM37.613 49.8999C37.7688 50.0679 37.9785 50.1621 38.197 50.1621C38.4155 50.1621 38.6252 50.0679 38.781 49.8999C38.9342 49.7291 39.02 49.499 39.02 49.2594C39.02 49.0198 38.9342 48.7898 38.781 48.6189C38.6252 48.4509 38.4155 48.3568 38.197 48.3568C37.9785 48.3568 37.7688 48.4509 37.613 48.6189C37.4599 48.7898 37.374 49.0198 37.374 49.2594C37.374 49.499 37.4599 49.7291 37.613 49.8999Z" fill="#0A3B3C"/>
<path id="Vector_5" d="M45.258 49.8997C45.4138 50.0677 45.6236 50.1619 45.842 50.1619C46.0605 50.1619 46.2703 50.0677 46.426 49.8997C46.5792 49.7289 46.665 49.4988 46.665 49.2592C46.665 49.0196 46.5792 48.7896 46.426 48.6187C46.2703 48.4507 46.0605 48.3566 45.842 48.3566C45.6236 48.3566 45.4138 48.4507 45.258 48.6187C45.1049 48.7896 45.019 49.0196 45.019 49.2592C45.019 49.4988 45.1049 49.7289 45.258 49.8997ZM41.435 45.7068C41.5908 45.8748 41.8006 45.9689 42.019 45.9689C42.2375 45.9689 42.4473 45.8748 42.603 45.7068C42.7559 45.536 42.8416 45.3062 42.8416 45.0668C42.8416 44.8275 42.7559 44.5977 42.603 44.4268C42.4473 44.2588 42.2375 44.1647 42.019 44.1647C41.8006 44.1647 41.5908 44.2588 41.435 44.4268C41.2822 44.5977 41.1965 44.8275 41.1965 45.0668C41.1965 45.3062 41.2822 45.536 41.435 45.7068ZM45.258 33.0127C45.4138 33.1804 45.6233 33.2743 45.8415 33.2743C46.0598 33.2743 46.2693 33.1804 46.425 33.0127C46.5782 32.8418 46.664 32.6118 46.664 32.3722C46.664 32.1326 46.5782 31.9025 46.425 31.7317C46.2693 31.564 46.0598 31.4701 45.8415 31.4701C45.6233 31.4701 45.4138 31.564 45.258 31.7317C45.1049 31.9025 45.019 32.1326 45.019 32.3722C45.019 32.6118 45.1049 32.8418 45.258 33.0127ZM45.258 28.8208C45.4138 28.9885 45.6233 29.0824 45.8415 29.0824C46.0598 29.0824 46.2693 28.9885 46.425 28.8208C46.5782 28.65 46.664 28.4199 46.664 28.1803C46.664 27.9407 46.5782 27.7107 46.425 27.5398C46.2693 27.3721 46.0598 27.2782 45.8415 27.2782C45.6233 27.2782 45.4138 27.3721 45.258 27.5398C45.1049 27.7107 45.019 27.9407 45.019 28.1803C45.019 28.4199 45.1049 28.65 45.258 28.8208ZM41.435 28.8208C41.5908 28.9888 41.8006 29.083 42.019 29.083C42.2375 29.083 42.4473 28.9888 42.603 28.8208C42.7562 28.65 42.842 28.4199 42.842 28.1803C42.842 27.9407 42.7562 27.7107 42.603 27.5398C42.4473 27.3718 42.2375 27.2777 42.019 27.2777C41.8006 27.2777 41.5908 27.3718 41.435 27.5398C41.2819 27.7107 41.196 27.9407 41.196 28.1803C41.196 28.4199 41.2819 28.65 41.435 28.8208ZM45.257 24.629C45.4128 24.797 45.6226 24.8911 45.841 24.8911C46.0595 24.8911 46.2693 24.797 46.425 24.629C46.5782 24.4581 46.664 24.2281 46.664 23.9885C46.664 23.7488 46.5782 23.5188 46.425 23.3479C46.2693 23.1799 46.0595 23.0858 45.841 23.0858C45.6226 23.0858 45.4128 23.1799 45.257 23.3479C45.1039 23.5188 45.018 23.7488 45.018 23.9885C45.018 24.2281 45.1039 24.4581 45.257 24.629Z" fill="#0A3B3C"/>
<path id="Vector_6" d="M41.437 45.707C41.5928 45.875 41.8025 45.9691 42.021 45.9691C42.2395 45.9691 42.4492 45.875 42.605 45.707C42.7579 45.5361 42.8435 45.3064 42.8435 45.067C42.8435 44.8276 42.7579 44.5979 42.605 44.427C42.4492 44.259 42.2395 44.1649 42.021 44.1649C41.8025 44.1649 41.5928 44.259 41.437 44.427C41.2842 44.5979 41.1985 44.8276 41.1985 45.067C41.1985 45.3064 41.2842 45.5361 41.437 45.707ZM37.615 41.5129C37.7708 41.6809 37.9805 41.775 38.199 41.775C38.4175 41.775 38.6272 41.6809 38.783 41.5129C38.9362 41.342 39.022 41.112 39.022 40.8724C39.022 40.6328 38.9362 40.4027 38.783 40.2319C38.6272 40.0639 38.4175 39.9697 38.199 39.9697C37.9805 39.9697 37.7708 40.0639 37.615 40.2319C37.4619 40.4027 37.376 40.6328 37.376 40.8724C37.376 41.112 37.4619 41.342 37.615 41.5129ZM45.26 41.5129C45.4158 41.6809 45.6255 41.775 45.844 41.775C46.0625 41.775 46.2722 41.6809 46.428 41.5129C46.5812 41.342 46.667 41.112 46.667 40.8724C46.667 40.6328 46.5812 40.4027 46.428 40.2319C46.2722 40.0639 46.0625 39.9697 45.844 39.9697C45.6255 39.9697 45.4158 40.0639 45.26 40.2319C45.1069 40.4027 45.021 40.6328 45.021 40.8724C45.021 41.112 45.1069 41.342 45.26 41.5129ZM41.437 37.2048C41.5928 37.3728 41.8025 37.4669 42.021 37.4669C42.2395 37.4669 42.4492 37.3728 42.605 37.2048C42.7579 37.034 42.8435 36.8042 42.8435 36.5648C42.8435 36.3255 42.7579 36.0957 42.605 35.9248C42.4492 35.7568 42.2395 35.6627 42.021 35.6627C41.8025 35.6627 41.5928 35.7568 41.437 35.9248C41.119 36.3899 41.119 36.856 41.437 37.2048ZM37.615 37.2048C37.7708 37.3728 37.9805 37.4669 38.199 37.4669C38.4175 37.4669 38.6272 37.3728 38.783 37.2048C38.9359 37.034 39.0215 36.8042 39.0215 36.5648C39.0215 36.3255 38.9359 36.0957 38.783 35.9248C38.6272 35.7568 38.4175 35.6627 38.199 35.6627C37.9805 35.6627 37.7708 35.7568 37.615 35.9248C37.296 36.3899 37.296 36.856 37.615 37.2048ZM41.437 41.5129C41.5928 41.6809 41.8025 41.775 42.021 41.775C42.2395 41.775 42.4492 41.6809 42.605 41.5129C42.7582 41.342 42.844 41.112 42.844 40.8724C42.844 40.6328 42.7582 40.4027 42.605 40.2319C42.4492 40.0639 42.2395 39.9697 42.021 39.9697C41.8025 39.9697 41.5928 40.0639 41.437 40.2319C41.2839 40.4027 41.198 40.6328 41.198 40.8724C41.198 41.112 41.2839 41.342 41.437 41.5129ZM41.437 33.0129C41.5928 33.1809 41.8025 33.275 42.021 33.275C42.2395 33.275 42.4492 33.1809 42.605 33.0129C42.7582 32.842 42.844 32.612 42.844 32.3724C42.844 32.1328 42.7582 31.9027 42.605 31.7319C42.4492 31.5639 42.2395 31.4697 42.021 31.4697C41.8025 31.4697 41.5928 31.5639 41.437 31.7319C41.2839 31.9027 41.198 32.1328 41.198 32.3724C41.198 32.612 41.2839 32.842 41.437 33.0129ZM45.26 37.2048C45.4158 37.3728 45.6255 37.4669 45.844 37.4669C46.0625 37.4669 46.2722 37.3728 46.428 37.2048C46.5809 37.034 46.6665 36.8042 46.6665 36.5648C46.6665 36.3255 46.5809 36.0957 46.428 35.9248C46.2722 35.7568 46.0625 35.6627 45.844 35.6627C45.6255 35.6627 45.4158 35.7568 45.26 35.9248C44.941 36.3899 44.941 36.856 45.26 37.2048ZM33.792 37.2048C33.9478 37.3728 34.1575 37.4669 34.376 37.4669C34.5945 37.4669 34.8042 37.3728 34.96 37.2048C35.1129 37.034 35.1985 36.8042 35.1985 36.5648C35.1985 36.3255 35.1129 36.0957 34.96 35.9248C34.8042 35.7568 34.5945 35.6627 34.376 35.6627C34.1575 35.6627 33.9478 35.7568 33.792 35.9248C33.474 36.2736 33.367 36.856 33.792 37.2048ZM37.615 33.0129C37.7708 33.1809 37.9805 33.275 38.199 33.275C38.4175 33.275 38.6272 33.1809 38.783 33.0129C38.9362 32.842 39.022 32.612 39.022 32.3724C39.022 32.1328 38.9362 31.9027 38.783 31.7319C38.6272 31.5639 38.4175 31.4697 38.199 31.4697C37.9805 31.4697 37.7708 31.5639 37.615 31.7319C37.4619 31.9027 37.376 32.1328 37.376 32.3724C37.376 32.612 37.4619 32.842 37.615 33.0129ZM45.258 33.0129C45.4138 33.1809 45.6235 33.275 45.842 33.275C46.0605 33.275 46.2702 33.1809 46.426 33.0129C46.5792 32.842 46.665 32.612 46.665 32.3724C46.665 32.1328 46.5792 31.9027 46.426 31.7319C46.2702 31.5639 46.0605 31.4697 45.842 31.4697C45.6235 31.4697 45.4138 31.5639 45.258 31.7319C45.1049 31.9027 45.019 32.1328 45.019 32.3724C45.019 32.612 45.1049 32.842 45.258 33.0129ZM41.437 28.821C41.5928 28.989 41.8025 29.0832 42.021 29.0832C42.2395 29.0832 42.4492 28.989 42.605 28.821C42.7582 28.6502 42.844 28.4201 42.844 28.1805C42.844 27.9409 42.7582 27.7109 42.605 27.54C42.4492 27.372 42.2395 27.2779 42.021 27.2779C41.8025 27.2779 41.5928 27.372 41.437 27.54C41.2839 27.7109 41.198 27.9409 41.198 28.1805C41.198 28.4201 41.2839 28.6502 41.437 28.821ZM29.862 49.8977C30.0178 50.0657 30.2275 50.1599 30.446 50.1599C30.6645 50.1599 30.8742 50.0657 31.03 49.8977C31.1832 49.7269 31.269 49.4968 31.269 49.2572C31.269 49.0176 31.1832 48.7876 31.03 48.6167C30.8742 48.4487 30.6645 48.3546 30.446 48.3546C30.2275 48.3546 30.0178 48.4487 29.862 48.6167C29.7089 48.7876 29.623 49.0176 29.623 49.2572C29.623 49.4968 29.7089 49.7269 29.862 49.8977ZM37.613 49.8977C37.7688 50.0657 37.9785 50.1599 38.197 50.1599C38.4155 50.1599 38.6252 50.0657 38.781 49.8977C38.9342 49.7269 39.02 49.4968 39.02 49.2572C39.02 49.0176 38.9342 48.7876 38.781 48.6167C38.6252 48.4487 38.4155 48.3546 38.197 48.3546C37.9785 48.3546 37.7688 48.4487 37.613 48.6167C37.4599 48.7876 37.374 49.0176 37.374 49.2572C37.374 49.4968 37.4599 49.7269 37.613 49.8977ZM33.79 45.7048C33.9459 45.8731 34.1558 45.9674 34.3745 45.9674C34.5932 45.9674 34.8032 45.8731 34.959 45.7048C35.1119 45.534 35.1975 45.3042 35.1975 45.0648C35.1975 44.8255 35.1119 44.5957 34.959 44.4248C34.8032 44.2568 34.5935 44.1627 34.375 44.1627C34.1565 44.1627 33.9468 44.2568 33.791 44.4248C33.366 44.7736 33.366 45.356 33.791 45.7048H33.79ZM29.862 45.7048C30.0178 45.8728 30.2275 45.9669 30.446 45.9669C30.6645 45.9669 30.8742 45.8728 31.03 45.7048C31.1829 45.534 31.2685 45.3042 31.2685 45.0648C31.2685 44.8255 31.1829 44.5957 31.03 44.4248C30.8742 44.2568 30.6645 44.1627 30.446 44.1627C30.2275 44.1627 30.0178 44.2568 29.862 44.4248C29.7092 44.5957 29.6235 44.8255 29.6235 45.0648C29.6235 45.3042 29.7092 45.534 29.862 45.7048ZM33.79 49.8977C33.9459 50.0661 34.1558 50.1604 34.3745 50.1604C34.5932 50.1604 34.8032 50.0661 34.959 49.8977C35.1122 49.7269 35.198 49.4968 35.198 49.2572C35.198 49.0176 35.1122 48.7876 34.959 48.6167C34.8032 48.4487 34.5935 48.3546 34.375 48.3546C34.1565 48.3546 33.9468 48.4487 33.791 48.6167C33.366 48.9655 33.366 49.549 33.791 49.8977H33.79ZM33.79 41.5129C33.9459 41.6812 34.1558 41.7756 34.3745 41.7756C34.5932 41.7756 34.8032 41.6812 34.959 41.5129C35.1122 41.342 35.198 41.112 35.198 40.8724C35.198 40.6328 35.1122 40.4027 34.959 40.2319C34.8032 40.0639 34.5935 39.9697 34.375 39.9697C34.1565 39.9697 33.9468 40.0639 33.791 40.2319C33.366 40.5817 33.366 41.1641 33.791 41.5129H33.79ZM37.613 45.7048C37.7688 45.8728 37.9785 45.9669 38.197 45.9669C38.4155 45.9669 38.6252 45.8728 38.781 45.7048C38.9339 45.534 39.0195 45.3042 39.0195 45.0648C39.0195 44.8255 38.9339 44.5957 38.781 44.4248C38.6252 44.2568 38.4155 44.1627 38.197 44.1627C37.9785 44.1627 37.7688 44.2568 37.613 44.4248C37.4602 44.5957 37.3745 44.8255 37.3745 45.0648C37.3745 45.3042 37.4602 45.534 37.613 45.7048ZM26.04 45.7048C26.1958 45.8728 26.4055 45.9669 26.624 45.9669C26.8425 45.9669 27.0522 45.8728 27.208 45.7048C27.3609 45.534 27.4465 45.3042 27.4465 45.0648C27.4465 44.8255 27.3609 44.5957 27.208 44.4248C27.0522 44.2568 26.8425 44.1627 26.624 44.1627C26.4055 44.1627 26.1958 44.2568 26.04 44.4248C25.8872 44.5957 25.8015 44.8255 25.8015 45.0648C25.8015 45.3042 25.8872 45.534 26.04 45.7048ZM29.862 41.5129C30.0178 41.6809 30.2275 41.775 30.446 41.775C30.6645 41.775 30.8742 41.6809 31.03 41.5129C31.1832 41.342 31.269 41.112 31.269 40.8724C31.269 40.6328 31.1832 40.4027 31.03 40.2319C30.8742 40.0639 30.6645 39.9697 30.446 39.9697C30.2275 39.9697 30.0178 40.0639 29.862 40.2319C29.7089 40.4027 29.623 40.6328 29.623 40.8724C29.623 41.112 29.7089 41.342 29.862 41.5129Z" fill="#0A3B3C"/>
<path id="Vector_7" d="M41.4351 45.7046C41.5908 45.8726 41.8006 45.9667 42.0191 45.9667C42.2375 45.9667 42.4473 45.8726 42.6031 45.7046C42.7559 45.5338 42.8416 45.304 42.8416 45.0646C42.8416 44.8253 42.7559 44.5955 42.6031 44.4246C42.4473 44.2567 42.2375 44.1625 42.0191 44.1625C41.8006 44.1625 41.5908 44.2567 41.4351 44.4246C41.2822 44.5955 41.1965 44.8253 41.1965 45.0646C41.1965 45.304 41.2822 45.5338 41.4351 45.7046ZM37.6131 41.5127C37.7688 41.6807 37.9786 41.7748 38.1971 41.7748C38.4155 41.7748 38.6253 41.6807 38.7811 41.5127C38.9342 41.3418 39.0201 41.1118 39.0201 40.8722C39.0201 40.6326 38.9342 40.4025 38.7811 40.2317C38.6253 40.0637 38.4155 39.9695 38.1971 39.9695C37.9786 39.9695 37.7688 40.0637 37.6131 40.2317C37.4599 40.4025 37.3741 40.6326 37.3741 40.8722C37.3741 41.1118 37.4599 41.3418 37.6131 41.5127ZM33.7901 37.2046C33.9458 37.3726 34.1556 37.4667 34.3741 37.4667C34.5925 37.4667 34.8023 37.3726 34.9581 37.2046C35.1109 37.0338 35.1966 36.804 35.1966 36.5646C35.1966 36.3253 35.1109 36.0955 34.9581 35.9246C34.8023 35.7567 34.5925 35.6625 34.3741 35.6625C34.1556 35.6625 33.9458 35.7567 33.7901 35.9246C33.4721 36.2734 33.3651 36.8558 33.7901 37.2046ZM26.0391 49.8997C26.1948 50.0677 26.4046 50.1619 26.6231 50.1619C26.8415 50.1619 27.0513 50.0677 27.2071 49.8997C27.3602 49.7289 27.4461 49.4988 27.4461 49.2592C27.4461 49.0196 27.3602 48.7896 27.2071 48.6187C27.0513 48.4507 26.8415 48.3566 26.6231 48.3566C26.4046 48.3566 26.1948 48.4507 26.0391 48.6187C25.8859 48.7896 25.8001 49.0196 25.8001 49.2592C25.8001 49.4988 25.8859 49.7289 26.0391 49.8997ZM22.2161 49.8997C22.3718 50.0677 22.5816 50.1619 22.8001 50.1619C23.0185 50.1619 23.2283 50.0677 23.3841 49.8997C23.5372 49.7289 23.6231 49.4988 23.6231 49.2592C23.6231 49.0196 23.5372 48.7896 23.3841 48.6187C23.2283 48.4507 23.0185 48.3566 22.8001 48.3566C22.5816 48.3566 22.3718 48.4507 22.2161 48.6187C22.0629 48.7896 21.9771 49.0196 21.9771 49.2592C21.9771 49.4988 22.0629 49.7289 22.2161 49.8997ZM29.8621 49.8997C30.0178 50.0677 30.2276 50.1619 30.4461 50.1619C30.6645 50.1619 30.8743 50.0677 31.0301 49.8997C31.1832 49.7289 31.2691 49.4988 31.2691 49.2592C31.2691 49.0196 31.1832 48.7896 31.0301 48.6187C30.8743 48.4507 30.6645 48.3566 30.4461 48.3566C30.2276 48.3566 30.0178 48.4507 29.8621 48.6187C29.7089 48.7896 29.6231 49.0196 29.6231 49.2592C29.6231 49.4988 29.7089 49.7289 29.8621 49.8997ZM26.0401 45.7068C26.1958 45.8744 26.4053 45.9684 26.6236 45.9684C26.8418 45.9684 27.0513 45.8744 27.2071 45.7068C27.3599 45.536 27.4456 45.3062 27.4456 45.0668C27.4456 44.8275 27.3599 44.5977 27.2071 44.4268C27.0513 44.2588 26.8415 44.1647 26.6231 44.1647C26.4046 44.1647 26.1948 44.2588 26.0391 44.4268C25.8862 44.5977 25.8005 44.8275 25.8005 45.0668C25.8005 45.3062 25.8862 45.536 26.0391 45.7068H26.0401ZM41.4371 28.823C41.5928 28.991 41.8026 29.0852 42.0211 29.0852C42.2395 29.0852 42.4493 28.991 42.6051 28.823C42.7582 28.6522 42.8441 28.4221 42.8441 28.1825C42.8441 27.9429 42.7582 27.7129 42.6051 27.542C42.4493 27.374 42.2395 27.2799 42.0211 27.2799C41.8026 27.2799 41.5928 27.374 41.4371 27.542C41.2839 27.7129 41.1981 27.9429 41.1981 28.1825C41.1981 28.4221 41.2839 28.6522 41.4371 28.823ZM37.6151 24.629C37.7708 24.797 37.9806 24.8911 38.1991 24.8911C38.4175 24.8911 38.6273 24.797 38.7831 24.629C38.9362 24.4581 39.0221 24.2281 39.0221 23.9885C39.0221 23.7488 38.9362 23.5188 38.7831 23.3479C38.6273 23.1799 38.4175 23.0858 38.1991 23.0858C37.9806 23.0858 37.7708 23.1799 37.6151 23.3479C37.4619 23.5188 37.376 23.7488 37.376 23.9885C37.376 24.2281 37.4619 24.4581 37.6151 24.629ZM45.2601 24.629C45.4158 24.797 45.6256 24.8911 45.8441 24.8911C46.0625 24.8911 46.2723 24.797 46.4281 24.629C46.5812 24.4581 46.6671 24.2281 46.6671 23.9885C46.6671 23.7488 46.5812 23.5188 46.4281 23.3479C46.2723 23.1799 46.0625 23.0858 45.8441 23.0858C45.6256 23.0858 45.4158 23.1799 45.2601 23.3479C45.1069 23.5188 45.021 23.7488 45.021 23.9885C45.021 24.2281 45.1069 24.4581 45.2601 24.629ZM41.4371 24.629C41.5928 24.797 41.8026 24.8911 42.0211 24.8911C42.2395 24.8911 42.4493 24.797 42.6051 24.629C42.7582 24.4581 42.8441 24.2281 42.8441 23.9885C42.8441 23.7488 42.7582 23.5188 42.6051 23.3479C42.4493 23.1799 42.2395 23.0858 42.0211 23.0858C41.8026 23.0858 41.5928 23.1799 41.4371 23.3479C41.2839 23.5188 41.1981 23.7488 41.1981 23.9885C41.1981 24.2281 41.2839 24.4581 41.4371 24.629Z" fill="#0A3B3C"/>
<path id="Vector_8" d="M33.7901 37.2046C33.9459 37.3726 34.1556 37.4667 34.3741 37.4667C34.5926 37.4667 34.8023 37.3726 34.9581 37.2046C35.1109 37.0338 35.1966 36.804 35.1966 36.5646C35.1966 36.3253 35.1109 36.0955 34.9581 35.9246C34.8023 35.7567 34.5926 35.6625 34.3741 35.6625C34.1556 35.6625 33.9459 35.7567 33.7901 35.9246C33.4721 36.2734 33.3661 36.8558 33.7901 37.2046ZM29.8621 33.0127C30.0179 33.1807 30.2276 33.2748 30.4461 33.2748C30.6646 33.2748 30.8743 33.1807 31.0301 33.0127C31.1832 32.8418 31.2691 32.6118 31.2691 32.3722C31.2691 32.1326 31.1832 31.9025 31.0301 31.7317C30.8743 31.5637 30.6646 31.4695 30.4461 31.4695C30.2276 31.4695 30.0179 31.5637 29.8621 31.7317C29.7089 31.9025 29.6231 32.1326 29.6231 32.3722C29.6231 32.6118 29.7089 32.8418 29.8621 33.0127ZM37.6131 33.0127C37.7689 33.1807 37.9786 33.2748 38.1971 33.2748C38.4156 33.2748 38.6253 33.1807 38.7811 33.0127C38.9342 32.8418 39.0201 32.6118 39.0201 32.3722C39.0201 32.1326 38.9342 31.9025 38.7811 31.7317C38.6253 31.5637 38.4156 31.4695 38.1971 31.4695C37.9786 31.4695 37.7689 31.5637 37.6131 31.7317C37.4599 31.9025 37.3741 32.1326 37.3741 32.3722C37.3741 32.6118 37.4599 32.8418 37.6131 33.0127ZM33.7901 28.8208C33.9459 28.9892 34.1559 29.0835 34.3746 29.0835C34.5933 29.0835 34.8032 28.9892 34.9591 28.8208C35.1122 28.65 35.1981 28.4199 35.1981 28.1803C35.1981 27.9407 35.1122 27.7107 34.9591 27.5398C34.8033 27.3718 34.5936 27.2777 34.3751 27.2777C34.1566 27.2777 33.9469 27.3718 33.7911 27.5398C33.3661 27.8897 33.3661 28.4721 33.7911 28.8208H33.7901ZM29.8621 28.8208C30.0179 28.9888 30.2276 29.083 30.4461 29.083C30.6646 29.083 30.8743 28.9888 31.0301 28.8208C31.1832 28.65 31.2691 28.4199 31.2691 28.1803C31.2691 27.9407 31.1832 27.7107 31.0301 27.5398C30.8743 27.3718 30.6646 27.2777 30.4461 27.2777C30.2276 27.2777 30.0179 27.3718 29.8621 27.5398C29.7089 27.7107 29.6231 27.9407 29.6231 28.1803C29.6231 28.4199 29.7089 28.65 29.8621 28.8208ZM33.7901 33.0127C33.9459 33.181 34.1559 33.2754 34.3746 33.2754C34.5933 33.2754 34.8032 33.181 34.9591 33.0127C35.1122 32.8418 35.1981 32.6118 35.1981 32.3722C35.1981 32.1326 35.1122 31.9025 34.9591 31.7317C34.8033 31.5637 34.5936 31.4695 34.3751 31.4695C34.1566 31.4695 33.9469 31.5637 33.7911 31.7317C33.3661 32.0815 33.3661 32.6639 33.7911 33.0127H33.7901ZM33.7901 24.629C33.9459 24.7973 34.1559 24.8916 34.3746 24.8916C34.5933 24.8916 34.8032 24.7973 34.9591 24.629C35.1122 24.4581 35.1981 24.2281 35.1981 23.9885C35.1981 23.7488 35.1122 23.5188 34.9591 23.3479C34.8033 23.1799 34.5936 23.0858 34.3751 23.0858C34.1566 23.0858 33.9469 23.1799 33.7911 23.3479C33.3661 23.6967 33.3661 24.2802 33.7911 24.629H33.7901ZM37.6131 28.8208C37.7689 28.9888 37.9786 29.083 38.1971 29.083C38.4156 29.083 38.6253 28.9888 38.7811 28.8208C38.9342 28.65 39.0201 28.4199 39.0201 28.1803C39.0201 27.9407 38.9342 27.7107 38.7811 27.5398C38.6253 27.3718 38.4156 27.2777 38.1971 27.2777C37.9786 27.2777 37.7689 27.3718 37.6131 27.5398C37.4599 27.7107 37.3741 27.9407 37.3741 28.1803C37.3741 28.4199 37.4599 28.65 37.6131 28.8208ZM26.0401 28.8208C26.1959 28.9888 26.4056 29.083 26.6241 29.083C26.8426 29.083 27.0523 28.9888 27.2081 28.8208C27.3612 28.65 27.4471 28.4199 27.4471 28.1803C27.4471 27.9407 27.3612 27.7107 27.2081 27.5398C27.0523 27.3718 26.8426 27.2777 26.6241 27.2777C26.4056 27.2777 26.1959 27.3718 26.0401 27.5398C25.8869 27.7107 25.8011 27.9407 25.8011 28.1803C25.8011 28.4199 25.8869 28.65 26.0401 28.8208ZM29.8621 24.629C30.0179 24.797 30.2276 24.8911 30.4461 24.8911C30.6646 24.8911 30.8743 24.797 31.0301 24.629C31.1832 24.4581 31.2691 24.2281 31.2691 23.9885C31.2691 23.7488 31.1832 23.5188 31.0301 23.3479C30.8743 23.1799 30.6646 23.0858 30.4461 23.0858C30.2276 23.0858 30.0179 23.1799 29.8621 23.3479C29.7089 23.5188 29.6231 23.7488 29.6231 23.9885C29.6231 24.2281 29.7089 24.4581 29.8621 24.629ZM41.4351 28.8208C41.5909 28.9888 41.8006 29.083 42.0191 29.083C42.2376 29.083 42.4473 28.9888 42.6031 28.8208C42.7562 28.65 42.8421 28.4199 42.8421 28.1803C42.8421 27.9407 42.7562 27.7107 42.6031 27.5398C42.4473 27.3718 42.2376 27.2777 42.0191 27.2777C41.8006 27.2777 41.5909 27.3718 41.4351 27.5398C41.2819 27.7107 41.1961 27.9407 41.1961 28.1803C41.1961 28.4199 41.2819 28.65 41.4351 28.8208ZM37.6131 24.629C37.7689 24.797 37.9786 24.8911 38.1971 24.8911C38.4156 24.8911 38.6253 24.797 38.7811 24.629C38.9342 24.4581 39.0201 24.2281 39.0201 23.9885C39.0201 23.7488 38.9342 23.5188 38.7811 23.3479C38.6253 23.1799 38.4156 23.0858 38.1971 23.0858C37.9786 23.0858 37.7689 23.1799 37.6131 23.3479C37.4599 23.5188 37.3741 23.7488 37.3741 23.9885C37.3741 24.2281 37.4599 24.4581 37.6131 24.629ZM26.0391 45.7068C26.1949 45.8748 26.4046 45.9689 26.6231 45.9689C26.8416 45.9689 27.0513 45.8748 27.2071 45.7068C27.3599 45.536 27.4456 45.3062 27.4456 45.0668C27.4456 44.8275 27.3599 44.5977 27.2071 44.4268C27.0513 44.2588 26.8416 44.1647 26.6231 44.1647C26.4046 44.1647 26.1949 44.2588 26.0391 44.4268C25.8862 44.5977 25.8006 44.8275 25.8006 45.0668C25.8006 45.3062 25.8862 45.536 26.0391 45.7068ZM22.2161 41.5127C22.3719 41.6807 22.5816 41.7748 22.8001 41.7748C23.0186 41.7748 23.2283 41.6807 23.3841 41.5127C23.5372 41.3418 23.6231 41.1118 23.6231 40.8722C23.6231 40.6326 23.5372 40.4025 23.3841 40.2317C23.2283 40.0637 23.0186 39.9695 22.8001 39.9695C22.5816 39.9695 22.3719 40.0637 22.2161 40.2317C22.0629 40.4025 21.9771 40.6326 21.9771 40.8722C21.9771 41.1118 22.0629 41.3418 22.2161 41.5127ZM29.8611 41.5127C30.0169 41.6807 30.2266 41.7748 30.4451 41.7748C30.6636 41.7748 30.8733 41.6807 31.0291 41.5127C31.1822 41.3418 31.2681 41.1118 31.2681 40.8722C31.2681 40.6326 31.1822 40.4025 31.0291 40.2317C30.8733 40.0637 30.6636 39.9695 30.4451 39.9695C30.2266 39.9695 30.0169 40.0637 29.8611 40.2317C29.7079 40.4025 29.6221 40.6326 29.6221 40.8722C29.6221 41.1118 29.7079 41.3418 29.8611 41.5127ZM26.0391 37.2046C26.1949 37.3726 26.4046 37.4667 26.6231 37.4667C26.8416 37.4667 27.0513 37.3726 27.2071 37.2046C27.3599 37.0338 27.4456 36.804 27.4456 36.5646C27.4456 36.3253 27.3599 36.0955 27.2071 35.9246C27.0513 35.7567 26.8416 35.6625 26.6231 35.6625C26.4046 35.6625 26.1949 35.7567 26.0391 35.9246C25.7201 36.3897 25.7201 36.8558 26.0391 37.2046ZM22.2161 37.2046C22.3719 37.3726 22.5816 37.4667 22.8001 37.4667C23.0186 37.4667 23.2283 37.3726 23.3841 37.2046C23.5369 37.0338 23.6226 36.804 23.6226 36.5646C23.6226 36.3253 23.5369 36.0955 23.3841 35.9246C23.2283 35.7567 23.0186 35.6625 22.8001 35.6625C22.5816 35.6625 22.3719 35.7567 22.2161 35.9246C21.8981 36.3897 21.8981 36.8558 22.2161 37.2046ZM26.0391 41.5127C26.1949 41.6807 26.4046 41.7748 26.6231 41.7748C26.8416 41.7748 27.0513 41.6807 27.2071 41.5127C27.3602 41.3418 27.4461 41.1118 27.4461 40.8722C27.4461 40.6326 27.3602 40.4025 27.2071 40.2317C27.0513 40.0637 26.8416 39.9695 26.6231 39.9695C26.4046 39.9695 26.1949 40.0637 26.0391 40.2317C25.8859 40.4025 25.8001 40.6326 25.8001 40.8722C25.8001 41.1118 25.8859 41.3418 26.0391 41.5127ZM26.0391 33.0127C26.1949 33.1807 26.4046 33.2748 26.6231 33.2748C26.8416 33.2748 27.0513 33.1807 27.2071 33.0127C27.3602 32.8418 27.4461 32.6118 27.4461 32.3722C27.4461 32.1326 27.3602 31.9025 27.2071 31.7317C27.0513 31.5637 26.8416 31.4695 26.6231 31.4695C26.4046 31.4695 26.1949 31.5637 26.0391 31.7317C25.8859 31.9025 25.8001 32.1326 25.8001 32.3722C25.8001 32.6118 25.8859 32.8418 26.0391 33.0127ZM29.8611 37.2046C30.0169 37.3726 30.2266 37.4667 30.4451 37.4667C30.6636 37.4667 30.8733 37.3726 31.0291 37.2046C31.1819 37.0338 31.2676 36.804 31.2676 36.5646C31.2676 36.3253 31.1819 36.0955 31.0291 35.9246C30.8733 35.7567 30.6636 35.6625 30.4451 35.6625C30.2266 35.6625 30.0169 35.7567 29.8611 35.9246C29.5431 36.3897 29.5431 36.8558 29.8611 37.2046ZM18.2881 37.2046C18.4439 37.3726 18.6536 37.4667 18.8721 37.4667C19.0906 37.4667 19.3003 37.3726 19.4561 37.2046C19.6089 37.0338 19.6946 36.804 19.6946 36.5646C19.6946 36.3253 19.6089 36.0955 19.4561 35.9246C19.3003 35.7567 19.0906 35.6625 18.8721 35.6625C18.6536 35.6625 18.4439 35.7567 18.2881 35.9246C17.9691 36.3897 17.9691 36.8558 18.2881 37.2046ZM22.2161 33.0127C22.3719 33.1807 22.5816 33.2748 22.8001 33.2748C23.0186 33.2748 23.2283 33.1807 23.3841 33.0127C23.5372 32.8418 23.6231 32.6118 23.6231 32.3722C23.6231 32.1326 23.5372 31.9025 23.3841 31.7317C23.2283 31.5637 23.0186 31.4695 22.8001 31.4695C22.5816 31.4695 22.3719 31.5637 22.2161 31.7317C22.0629 31.9025 21.9771 32.1326 21.9771 32.3722C21.9771 32.6118 22.0629 32.8418 22.2161 33.0127Z" fill="#0A3B3C"/>
<path id="Vector_9" d="M33.7901 37.2048C33.9458 37.3728 34.1556 37.4669 34.3741 37.4669C34.5925 37.4669 34.8023 37.3728 34.9581 37.2048C35.1109 37.034 35.1966 36.8042 35.1966 36.5648C35.1966 36.3255 35.1109 36.0957 34.9581 35.9248C34.8023 35.7568 34.5925 35.6627 34.3741 35.6627C34.1556 35.6627 33.9458 35.7568 33.7901 35.9248C33.4721 36.2736 33.3651 36.856 33.7901 37.2048ZM29.8621 33.0129C30.0178 33.1809 30.2276 33.275 30.4461 33.275C30.6645 33.275 30.8743 33.1809 31.0301 33.0129C31.1832 32.842 31.2691 32.612 31.2691 32.3724C31.2691 32.1328 31.1832 31.9027 31.0301 31.7319C30.8743 31.5639 30.6645 31.4697 30.4461 31.4697C30.2276 31.4697 30.0178 31.5639 29.8621 31.7319C29.7089 31.9027 29.6231 32.1328 29.6231 32.3724C29.6231 32.612 29.7089 32.842 29.8621 33.0129ZM26.0401 28.821C26.1958 28.9887 26.4053 29.0826 26.6236 29.0826C26.8418 29.0826 27.0513 28.9887 27.2071 28.821C27.3602 28.6502 27.4461 28.4201 27.4461 28.1805C27.4461 27.9409 27.3602 27.7109 27.2071 27.54C27.0513 27.372 26.8415 27.2779 26.6231 27.2779C26.4046 27.2779 26.1948 27.372 26.0391 27.54C25.8859 27.7109 25.8001 27.9409 25.8001 28.1805C25.8001 28.4201 25.8859 28.6502 26.0391 28.821H26.0401ZM14.4661 49.8977C14.6218 50.0657 14.8316 50.1599 15.0501 50.1599C15.2685 50.1599 15.4783 50.0657 15.6341 49.8977C15.7872 49.7269 15.8731 49.4968 15.8731 49.2572C15.8731 49.0176 15.7872 48.7876 15.6341 48.6167C15.4783 48.4487 15.2685 48.3546 15.0501 48.3546C14.8316 48.3546 14.6218 48.4487 14.4661 48.6167C14.3129 48.7876 14.2271 49.0176 14.2271 49.2572C14.2271 49.4968 14.3129 49.7269 14.4661 49.8977ZM22.2171 49.8977C22.3728 50.0657 22.5826 50.1599 22.8011 50.1599C23.0195 50.1599 23.2293 50.0657 23.3851 49.8977C23.5382 49.7269 23.6241 49.4968 23.6241 49.2572C23.6241 49.0176 23.5382 48.7876 23.3851 48.6167C23.2293 48.4487 23.0195 48.3546 22.8011 48.3546C22.5826 48.3546 22.3728 48.4487 22.2171 48.6167C22.0639 48.7876 21.9781 49.0176 21.9781 49.2572C21.9781 49.4968 22.0639 49.7269 22.2171 49.8977ZM18.2891 45.7048C18.4448 45.8728 18.6546 45.9669 18.8731 45.9669C19.0915 45.9669 19.3013 45.8728 19.4571 45.7048C19.6099 45.534 19.6956 45.3042 19.6956 45.0648C19.6956 44.8255 19.6099 44.5957 19.4571 44.4248C19.3013 44.2568 19.0915 44.1627 18.8731 44.1627C18.6546 44.1627 18.4448 44.2568 18.2891 44.4248C18.1362 44.5957 18.0505 44.8255 18.0505 45.0648C18.0505 45.3042 18.1362 45.534 18.2891 45.7048ZM14.4661 45.7048C14.6218 45.8728 14.8316 45.9669 15.0501 45.9669C15.2685 45.9669 15.4783 45.8728 15.6341 45.7048C15.7869 45.534 15.8726 45.3042 15.8726 45.0648C15.8726 44.8255 15.7869 44.5957 15.6341 44.4248C15.4783 44.2568 15.2685 44.1627 15.0501 44.1627C14.8316 44.1627 14.6218 44.2568 14.4661 44.4248C14.3132 44.5957 14.2275 44.8255 14.2275 45.0648C14.2275 45.3042 14.3132 45.534 14.4661 45.7048ZM18.2891 49.8977C18.4448 50.0657 18.6546 50.1599 18.8731 50.1599C19.0915 50.1599 19.3013 50.0657 19.4571 49.8977C19.6102 49.7269 19.6961 49.4968 19.6961 49.2572C19.6961 49.0176 19.6102 48.7876 19.4571 48.6167C19.3013 48.4487 19.0915 48.3546 18.8731 48.3546C18.6546 48.3546 18.4448 48.4487 18.2891 48.6167C18.1359 48.7876 18.0501 49.0176 18.0501 49.2572C18.0501 49.4968 18.1359 49.7269 18.2891 49.8977ZM18.2891 41.5129C18.4448 41.6809 18.6546 41.775 18.8731 41.775C19.0915 41.775 19.3013 41.6809 19.4571 41.5129C19.6102 41.342 19.6961 41.112 19.6961 40.8724C19.6961 40.6328 19.6102 40.4027 19.4571 40.2319C19.3013 40.0639 19.0915 39.9697 18.8731 39.9697C18.6546 39.9697 18.4448 40.0639 18.2891 40.2319C18.1359 40.4027 18.0501 40.6328 18.0501 40.8724C18.0501 41.112 18.1359 41.342 18.2891 41.5129ZM22.2171 45.7048C22.3728 45.8728 22.5826 45.9669 22.8011 45.9669C23.0195 45.9669 23.2293 45.8728 23.3851 45.7048C23.5379 45.534 23.6236 45.3042 23.6236 45.0648C23.6236 44.8255 23.5379 44.5957 23.3851 44.4248C23.2293 44.2568 23.0195 44.1627 22.8011 44.1627C22.5826 44.1627 22.3728 44.2568 22.2171 44.4248C22.0642 44.5957 21.9785 44.8255 21.9785 45.0648C21.9785 45.3042 22.0642 45.534 22.2171 45.7048ZM14.4671 41.5129C14.6228 41.6809 14.8326 41.775 15.0511 41.775C15.2695 41.775 15.4793 41.6809 15.6351 41.5129C15.7882 41.342 15.8741 41.112 15.8741 40.8724C15.8741 40.6328 15.7882 40.4027 15.6351 40.2319C15.4793 40.0639 15.2695 39.9697 15.0511 39.9697C14.8326 39.9697 14.6228 40.0639 14.4671 40.2319C14.3139 40.4027 14.2281 40.6328 14.2281 40.8724C14.2281 41.112 14.3139 41.342 14.4671 41.5129ZM26.0401 45.7048C26.1958 45.8728 26.4056 45.9669 26.6241 45.9669C26.8425 45.9669 27.0523 45.8728 27.2081 45.7048C27.3609 45.534 27.4466 45.3042 27.4466 45.0648C27.4466 44.8255 27.3609 44.5957 27.2081 44.4248C27.0523 44.2568 26.8425 44.1627 26.6241 44.1627C26.4056 44.1627 26.1958 44.2568 26.0401 44.4248C25.8872 44.5957 25.8015 44.8255 25.8015 45.0648C25.8015 45.3042 25.8872 45.534 26.0401 45.7048ZM22.2181 41.5129C22.3738 41.6809 22.5836 41.775 22.8021 41.775C23.0205 41.775 23.2303 41.6809 23.3861 41.5129C23.5392 41.342 23.6251 41.112 23.6251 40.8724C23.6251 40.6328 23.5392 40.4027 23.3861 40.2319C23.2303 40.0639 23.0205 39.9697 22.8021 39.9697C22.5836 39.9697 22.3738 40.0639 22.2181 40.2319C22.0649 40.4027 21.9791 40.6328 21.9791 40.8724C21.9791 41.112 22.0649 41.342 22.2181 41.5129ZM18.2901 37.2048C18.4458 37.3724 18.6553 37.4664 18.8736 37.4664C19.0918 37.4664 19.3013 37.3724 19.4571 37.2048C19.6099 37.034 19.6956 36.8042 19.6956 36.5648C19.6956 36.3255 19.6099 36.0957 19.4571 35.9248C19.3013 35.7568 19.0915 35.6627 18.8731 35.6627C18.6546 35.6627 18.4448 35.7568 18.2891 35.9248C17.9711 36.3899 17.9711 36.856 18.2891 37.2048H18.2901Z" fill="#0A3B3C"/>
<path id="Vector_10" d="M14.4661 49.8997C14.6218 50.0677 14.8316 50.1619 15.0501 50.1619C15.2685 50.1619 15.4783 50.0677 15.6341 49.8997C15.7872 49.7289 15.8731 49.4988 15.8731 49.2592C15.8731 49.0196 15.7872 48.7896 15.6341 48.6187C15.4783 48.4507 15.2685 48.3566 15.0501 48.3566C14.8316 48.3566 14.6218 48.4507 14.4661 48.6187C14.3129 48.7896 14.2271 49.0196 14.2271 49.2592C14.2271 49.4988 14.3129 49.7289 14.4661 49.8997ZM26.0391 28.823C26.1948 28.991 26.4046 29.0852 26.6231 29.0852C26.8415 29.0852 27.0513 28.991 27.2071 28.823C27.3602 28.6522 27.4461 28.4221 27.4461 28.1825C27.4461 27.9429 27.3602 27.7129 27.2071 27.542C27.0513 27.374 26.8415 27.2799 26.6231 27.2799C26.4046 27.2799 26.1948 27.374 26.0391 27.542C25.8859 27.7129 25.8001 27.9429 25.8001 28.1825C25.8001 28.4221 25.8859 28.6522 26.0391 28.823ZM22.2161 24.6312C22.3718 24.7992 22.5816 24.8933 22.8001 24.8933C23.0185 24.8933 23.2283 24.7992 23.3841 24.6312C23.5372 24.4603 23.6231 24.2303 23.6231 23.9906C23.6231 23.751 23.5372 23.521 23.3841 23.3501C23.2283 23.1821 23.0185 23.088 22.8001 23.088C22.5816 23.088 22.3718 23.1821 22.2161 23.3501C22.0629 23.521 21.9771 23.751 21.9771 23.9906C21.9771 24.2303 22.0629 24.4603 22.2161 24.6312ZM29.8611 24.6312C30.0168 24.7992 30.2266 24.8933 30.4451 24.8933C30.6635 24.8933 30.8733 24.7992 31.0291 24.6312C31.1822 24.4603 31.2681 24.2303 31.2681 23.9906C31.2681 23.751 31.1822 23.521 31.0291 23.3501C30.8733 23.1821 30.6635 23.088 30.4451 23.088C30.2266 23.088 30.0168 23.1821 29.8611 23.3501C29.7079 23.521 29.6221 23.751 29.6221 23.9906C29.6221 24.2303 29.7079 24.4603 29.8611 24.6312ZM26.0391 24.6312C26.1948 24.7992 26.4046 24.8933 26.6231 24.8933C26.8415 24.8933 27.0513 24.7992 27.2071 24.6312C27.3602 24.4603 27.4461 24.2303 27.4461 23.9906C27.4461 23.751 27.3602 23.521 27.2071 23.3501C27.0513 23.1821 26.8415 23.088 26.6231 23.088C26.4046 23.088 26.1948 23.1821 26.0391 23.3501C25.8859 23.521 25.8001 23.751 25.8001 23.9906C25.8001 24.2303 25.8859 24.4603 26.0391 24.6312ZM18.2891 37.2046C18.4448 37.3726 18.6546 37.4667 18.8731 37.4667C19.0915 37.4667 19.3013 37.3726 19.4571 37.2046C19.6099 37.0338 19.6956 36.804 19.6956 36.5646C19.6956 36.3253 19.6099 36.0955 19.4571 35.9246C19.3013 35.7567 19.0915 35.6625 18.8731 35.6625C18.6546 35.6625 18.4448 35.7567 18.2891 35.9246C17.9701 36.3897 17.9701 36.8558 18.2891 37.2046ZM14.4661 33.0127C14.6218 33.1807 14.8316 33.2748 15.0501 33.2748C15.2685 33.2748 15.4783 33.1807 15.6341 33.0127C15.7872 32.8418 15.8731 32.6118 15.8731 32.3722C15.8731 32.1326 15.7872 31.9025 15.6341 31.7317C15.4783 31.5637 15.2685 31.4695 15.0501 31.4695C14.8316 31.4695 14.6218 31.5637 14.4661 31.7317C14.3129 31.9025 14.2271 32.1326 14.2271 32.3722C14.2271 32.6118 14.3129 32.8418 14.4661 33.0127ZM22.2171 33.0127C22.3728 33.1807 22.5826 33.2748 22.8011 33.2748C23.0195 33.2748 23.2293 33.1807 23.3851 33.0127C23.5382 32.8418 23.6241 32.6118 23.6241 32.3722C23.6241 32.1326 23.5382 31.9025 23.3851 31.7317C23.2293 31.5637 23.0195 31.4695 22.8011 31.4695C22.5826 31.4695 22.3728 31.5637 22.2171 31.7317C22.0639 31.9025 21.9781 32.1326 21.9781 32.3722C21.9781 32.6118 22.0639 32.8418 22.2171 33.0127ZM18.2891 28.8208C18.4448 28.9888 18.6546 29.083 18.8731 29.083C19.0915 29.083 19.3013 28.9888 19.4571 28.8208C19.6102 28.65 19.6961 28.4199 19.6961 28.1803C19.6961 27.9407 19.6102 27.7107 19.4571 27.5398C19.3013 27.3718 19.0915 27.2777 18.8731 27.2777C18.6546 27.2777 18.4448 27.3718 18.2891 27.5398C18.1359 27.7107 18.0501 27.9407 18.0501 28.1803C18.0501 28.4199 18.1359 28.65 18.2891 28.8208ZM14.4661 28.8208C14.6218 28.9888 14.8316 29.083 15.0501 29.083C15.2685 29.083 15.4783 28.9888 15.6341 28.8208C15.7872 28.65 15.8731 28.4199 15.8731 28.1803C15.8731 27.9407 15.7872 27.7107 15.6341 27.5398C15.4783 27.3718 15.2685 27.2777 15.0501 27.2777C14.8316 27.2777 14.6218 27.3718 14.4661 27.5398C14.3129 27.7107 14.2271 27.9407 14.2271 28.1803C14.2271 28.4199 14.3129 28.65 14.4661 28.8208ZM18.2891 33.0127C18.4448 33.1807 18.6546 33.2748 18.8731 33.2748C19.0915 33.2748 19.3013 33.1807 19.4571 33.0127C19.6102 32.8418 19.6961 32.6118 19.6961 32.3722C19.6961 32.1326 19.6102 31.9025 19.4571 31.7317C19.3013 31.5637 19.0915 31.4695 18.8731 31.4695C18.6546 31.4695 18.4448 31.5637 18.2891 31.7317C18.1359 31.9025 18.0501 32.1326 18.0501 32.3722C18.0501 32.6118 18.1359 32.8418 18.2891 33.0127ZM18.2891 24.629C18.4448 24.797 18.6546 24.8911 18.8731 24.8911C19.0915 24.8911 19.3013 24.797 19.4571 24.629C19.6102 24.4581 19.6961 24.2281 19.6961 23.9885C19.6961 23.7488 19.6102 23.5188 19.4571 23.3479C19.3013 23.1799 19.0915 23.0858 18.8731 23.0858C18.6546 23.0858 18.4448 23.1799 18.2891 23.3479C18.1359 23.5188 18.0501 23.7488 18.0501 23.9885C18.0501 24.2281 18.1359 24.4581 18.2891 24.629ZM22.2171 28.8208C22.3728 28.9888 22.5826 29.083 22.8011 29.083C23.0195 29.083 23.2293 28.9888 23.3851 28.8208C23.5382 28.65 23.6241 28.4199 23.6241 28.1803C23.6241 27.9407 23.5382 27.7107 23.3851 27.5398C23.2293 27.3718 23.0195 27.2777 22.8011 27.2777C22.5826 27.2777 22.3728 27.3718 22.2171 27.5398C22.0639 27.7107 21.9781 27.9407 21.9781 28.1803C21.9781 28.4199 22.0639 28.65 22.2171 28.8208ZM14.4671 24.629C14.6228 24.797 14.8326 24.8911 15.0511 24.8911C15.2695 24.8911 15.4793 24.797 15.6351 24.629C15.7882 24.4581 15.8741 24.2281 15.8741 23.9885C15.8741 23.7488 15.7882 23.5188 15.6351 23.3479C15.4793 23.1799 15.2695 23.0858 15.0511 23.0858C14.8326 23.0858 14.6228 23.1799 14.4671 23.3479C14.3139 23.5188 14.2281 23.7488 14.2281 23.9885C14.2281 24.2281 14.3139 24.4581 14.4671 24.629Z" fill="#0A3B3C"/>
<path id="Vector_11" d="M26.0401 28.821C26.1958 28.989 26.4056 29.0832 26.6241 29.0832C26.8425 29.0832 27.0523 28.989 27.2081 28.821C27.3612 28.6502 27.4471 28.4201 27.4471 28.1805C27.4471 27.9409 27.3612 27.7109 27.2081 27.54C27.0523 27.372 26.8425 27.2779 26.6241 27.2779C26.4056 27.2779 26.1958 27.372 26.0401 27.54C25.8869 27.7109 25.8011 27.9409 25.8011 28.1805C25.8011 28.4201 25.8869 28.6502 26.0401 28.821ZM22.2181 24.6292C22.3738 24.7972 22.5836 24.8913 22.8021 24.8913C23.0205 24.8913 23.2303 24.7972 23.3861 24.6292C23.5392 24.4583 23.6251 24.2283 23.6251 23.9886C23.6251 23.749 23.5392 23.519 23.3861 23.3481C23.2303 23.1801 23.0205 23.086 22.8021 23.086C22.5836 23.086 22.3738 23.1801 22.2181 23.3481C22.0649 23.519 21.9791 23.749 21.9791 23.9886C21.9791 24.2283 22.0649 24.4583 22.2181 24.6292ZM14.4661 41.5129C14.6218 41.6809 14.8316 41.775 15.0501 41.775C15.2685 41.775 15.4783 41.6809 15.6341 41.5129C15.7872 41.342 15.8731 41.112 15.8731 40.8724C15.8731 40.6328 15.7872 40.4027 15.6341 40.2319C15.4783 40.0639 15.2685 39.9697 15.0501 39.9697C14.8316 39.9697 14.6218 40.0639 14.4661 40.2319C14.3129 40.4027 14.2271 40.6328 14.2271 40.8724C14.2271 41.112 14.3129 41.342 14.4661 41.5129ZM14.4661 37.2048C14.6218 37.3728 14.8316 37.4669 15.0501 37.4669C15.2685 37.4669 15.4783 37.3728 15.6341 37.2048C15.7869 37.034 15.8726 36.8042 15.8726 36.5648C15.8726 36.3255 15.7869 36.0957 15.6341 35.9248C15.4783 35.7568 15.2685 35.6627 15.0501 35.6627C14.8316 35.6627 14.6218 35.7568 14.4661 35.9248C14.1481 36.3899 14.1481 36.856 14.4661 37.2048ZM18.2881 37.2048C18.4438 37.3728 18.6536 37.4669 18.8721 37.4669C19.0905 37.4669 19.3003 37.3728 19.4561 37.2048C19.6089 37.034 19.6946 36.8042 19.6946 36.5648C19.6946 36.3255 19.6089 36.0957 19.4561 35.9248C19.3003 35.7568 19.0905 35.6627 18.8721 35.6627C18.6536 35.6627 18.4438 35.7568 18.2881 35.9248C17.9691 36.3899 17.9691 36.856 18.2881 37.2048ZM14.4661 33.0129C14.6218 33.1809 14.8316 33.275 15.0501 33.275C15.2685 33.275 15.4783 33.1809 15.6341 33.0129C15.7872 32.842 15.8731 32.612 15.8731 32.3724C15.8731 32.1328 15.7872 31.9027 15.6341 31.7319C15.4783 31.5639 15.2685 31.4697 15.0501 31.4697C14.8316 31.4697 14.6218 31.5639 14.4661 31.7319C14.3129 31.9027 14.2271 32.1328 14.2271 32.3724C14.2271 32.612 14.3129 32.842 14.4661 33.0129ZM14.4661 24.627C14.6218 24.795 14.8316 24.8891 15.0501 24.8891C15.2685 24.8891 15.4783 24.795 15.6341 24.627C15.7872 24.4561 15.8731 24.2261 15.8731 23.9865C15.8731 23.7468 15.7872 23.5168 15.6341 23.3459C15.4783 23.1779 15.2685 23.0838 15.0501 23.0838C14.8316 23.0838 14.6218 23.1779 14.4661 23.3459C14.3129 23.5168 14.2271 23.7468 14.2271 23.9865C14.2271 24.2261 14.3129 24.4561 14.4661 24.627Z" fill="#0A3B3C"/>
</g>
</g>
</g>
</svg>
