<svg width="62" height="68" viewBox="0 0 62 68" fill="none" xmlns="http://www.w3.org/2000/svg">
<g id="Frame">
<path id="Vector" fill-rule="evenodd" clip-rule="evenodd" d="M30.811 3.0455C15.458 3.0455 3.01098 16.9197 3.01098 34.0345C3.01198 51.1494 15.458 65.0236 30.811 65.0236C46.164 65.0236 58.611 51.1494 58.611 34.0334C58.611 16.9197 46.164 3.0455 30.811 3.0455ZM0.781982 34.0334C0.781982 15.5464 14.227 0.559601 30.812 0.559601C47.395 0.559601 60.84 15.5464 60.84 34.0345C60.84 52.5216 47.395 67.5095 30.811 67.5095C14.227 67.5095 0.781982 52.5216 0.781982 34.0334Z" fill="#0B3B3D"/>
<mask id="mask0_1_248" style="mask-type:alpha" maskUnits="userSpaceOnUse" x="18" y="18" width="25" height="35">
<g id="a">
<path id="Vector_2" d="M30.811 52.6944C30.811 52.6944 42.985 45.9089 42.985 35.7301V23.8546L30.811 18.7658L18.637 23.8546V35.7301C18.637 45.9078 30.811 52.6944 30.811 52.6944Z" fill="#C4C4C4"/>
</g>
</mask>
<g mask="url(#mask0_1_248)">
<g id="Group">
<path id="Vector_3" d="M63.9041 56.246C64.0794 56.4382 64.3153 56.5458 64.5611 56.5458C64.8069 56.5458 65.0429 56.4382 65.2181 56.246C65.3905 56.0507 65.4871 55.7876 65.4871 55.5136C65.4871 55.2396 65.3905 54.9766 65.2181 54.7812C65.0429 54.5891 64.8069 54.4815 64.5611 54.4815C64.3153 54.4815 64.0794 54.5891 63.9041 54.7812C63.7318 54.9766 63.6352 55.2396 63.6352 55.5136C63.6352 55.7876 63.7318 56.0507 63.9041 56.246ZM59.4851 51.3188C59.6603 51.5106 59.8961 51.6181 60.1416 51.6181C60.3872 51.6181 60.6229 51.5106 60.7981 51.3188C60.9705 51.1235 61.0671 50.8604 61.0671 50.5864C61.0671 50.3124 60.9705 50.0494 60.7981 49.854C60.6229 49.6622 60.3872 49.5548 60.1416 49.5548C59.8961 49.5548 59.6603 49.6622 59.4851 49.854C59.313 50.0495 59.2166 50.3125 59.2166 50.5864C59.2166 50.8603 59.313 51.1233 59.4851 51.3188ZM55.1841 46.5254C55.3594 46.7175 55.5953 46.8252 55.8411 46.8252C56.0869 46.8252 56.3229 46.7175 56.4981 46.5254C56.6702 46.3299 56.7667 46.0669 56.7667 45.793C56.7667 45.5191 56.6702 45.2561 56.4981 45.0606C56.3229 44.8688 56.0872 44.7614 55.8416 44.7614C55.5961 44.7614 55.3603 44.8688 55.1851 45.0606C55.0128 45.256 54.9162 45.519 54.9162 45.793C54.9162 46.067 55.0128 46.33 55.1851 46.5254H55.1841ZM46.5841 75.5536C46.7594 75.7457 46.9953 75.8534 47.2411 75.8534C47.4869 75.8534 47.7229 75.7457 47.8981 75.5536C48.0705 75.3582 48.1671 75.0952 48.1671 74.8212C48.1671 74.5472 48.0705 74.2841 47.8981 74.0888C47.7229 73.8967 47.4869 73.789 47.2411 73.789C46.9953 73.789 46.7594 73.8967 46.5841 74.0888C46.1061 74.4879 46.1061 75.1545 46.5841 75.5536ZM42.1641 70.6264C42.3394 70.8185 42.5753 70.9261 42.8211 70.9261C43.0669 70.9261 43.3029 70.8185 43.4781 70.6264C43.6505 70.431 43.7471 70.168 43.7471 69.894C43.7471 69.62 43.6505 69.3569 43.4781 69.1616C43.3029 68.9695 43.0669 68.8618 42.8211 68.8618C42.5753 68.8618 42.3394 68.9695 42.1641 69.1616C41.8061 69.6944 41.8061 70.2273 42.1641 70.6264ZM50.8841 70.6264C51.0595 70.8182 51.2954 70.9257 51.5411 70.9257C51.7869 70.9257 52.0228 70.8182 52.1981 70.6264C52.3705 70.431 52.4671 70.168 52.4671 69.894C52.4671 69.62 52.3705 69.3569 52.1981 69.1616C52.0228 68.9697 51.7869 68.8622 51.5411 68.8622C51.2954 68.8622 51.0595 68.9697 50.8841 69.1616C50.5261 69.6944 50.5261 70.2273 50.8841 70.6264ZM46.5841 65.8329C46.7594 66.025 46.9953 66.1327 47.2411 66.1327C47.4869 66.1327 47.7229 66.025 47.8981 65.8329C48.0705 65.6376 48.1671 65.3745 48.1671 65.1005C48.1671 64.8265 48.0705 64.5635 47.8981 64.3681C47.7229 64.176 47.4869 64.0683 47.2411 64.0683C46.9953 64.0683 46.7594 64.176 46.5841 64.3681C46.1061 64.7672 46.1061 65.4338 46.5841 65.8329ZM42.1641 65.8329C42.3394 66.025 42.5753 66.1327 42.8211 66.1327C43.0669 66.1327 43.3029 66.025 43.4781 65.8329C43.6505 65.6376 43.7471 65.3745 43.7471 65.1005C43.7471 64.8265 43.6505 64.5635 43.4781 64.3681C43.3029 64.176 43.0669 64.0683 42.8211 64.0683C42.5753 64.0683 42.3394 64.176 42.1641 64.3681C41.992 64.5636 41.8956 64.8266 41.8956 65.1005C41.8956 65.3744 41.992 65.6374 42.1641 65.8329ZM46.5841 70.6264C46.7594 70.8185 46.9953 70.9261 47.2411 70.9261C47.4869 70.9261 47.7229 70.8185 47.8981 70.6264C48.0705 70.431 48.1671 70.168 48.1671 69.894C48.1671 69.62 48.0705 69.3569 47.8981 69.1616C47.7229 68.9695 47.4869 68.8618 47.2411 68.8618C46.9953 68.8618 46.7594 68.9695 46.5841 69.1616C46.2261 69.6944 46.2261 70.2273 46.5841 70.6264ZM46.5841 61.0395C46.7594 61.2316 46.9953 61.3393 47.2411 61.3393C47.4869 61.3393 47.7229 61.2316 47.8981 61.0395C48.0705 60.8441 48.1671 60.5811 48.1671 60.3071C48.1671 60.0331 48.0705 59.7701 47.8981 59.5747C47.7229 59.3826 47.4869 59.2749 47.2411 59.2749C46.9953 59.2749 46.7594 59.3826 46.5841 59.5747C46.4118 59.7701 46.3152 60.0331 46.3152 60.3071C46.3152 60.5811 46.4118 60.8441 46.5841 61.0395ZM50.8841 65.8329C51.0595 66.0248 51.2954 66.1323 51.5411 66.1323C51.7869 66.1323 52.0228 66.0248 52.1981 65.8329C52.3705 65.6376 52.4671 65.3745 52.4671 65.1005C52.4671 64.8265 52.3705 64.5635 52.1981 64.3681C52.0228 64.1763 51.7869 64.0688 51.5411 64.0688C51.2954 64.0688 51.0595 64.1763 50.8841 64.3681C50.712 64.5636 50.6156 64.8266 50.6156 65.1005C50.6156 65.3744 50.712 65.6374 50.8841 65.8329ZM37.8641 65.8329C38.0394 66.025 38.2753 66.1327 38.5211 66.1327C38.7669 66.1327 39.0029 66.025 39.1781 65.8329C39.3503 65.6374 39.4467 65.3744 39.4467 65.1005C39.4467 64.8266 39.3503 64.5636 39.1781 64.3681C39.0029 64.176 38.7669 64.0683 38.5211 64.0683C38.2753 64.0683 38.0394 64.176 37.8641 64.3681C37.6918 64.5635 37.5952 64.8265 37.5952 65.1005C37.5952 65.3745 37.6918 65.6376 37.8641 65.8329ZM42.1641 61.0395C42.3394 61.2316 42.5753 61.3393 42.8211 61.3393C43.0669 61.3393 43.3029 61.2316 43.4781 61.0395C43.6505 60.8441 43.7471 60.5811 43.7471 60.3071C43.7471 60.0331 43.6505 59.7701 43.4781 59.5747C43.3029 59.3826 43.0669 59.2749 42.8211 59.2749C42.5753 59.2749 42.3394 59.3826 42.1641 59.5747C41.9918 59.7701 41.8952 60.0331 41.8952 60.3071C41.8952 60.5811 41.9918 60.8441 42.1641 61.0395ZM55.1841 65.8329C55.3594 66.025 55.5953 66.1327 55.8411 66.1327C56.0869 66.1327 56.3229 66.025 56.4981 65.8329C56.6702 65.6374 56.7667 65.3744 56.7667 65.1005C56.7667 64.8266 56.6702 64.5636 56.4981 64.3681C56.3229 64.1763 56.0872 64.0689 55.8416 64.0689C55.5961 64.0689 55.3603 64.1763 55.1851 64.3681C55.0128 64.5635 54.9162 64.8265 54.9162 65.1005C54.9162 65.3745 55.0128 65.6376 55.1851 65.8329H55.1841ZM50.8841 61.0395C51.0595 61.2313 51.2954 61.3388 51.5411 61.3388C51.7869 61.3388 52.0228 61.2313 52.1981 61.0395C52.3705 60.8441 52.4671 60.5811 52.4671 60.3071C52.4671 60.0331 52.3705 59.7701 52.1981 59.5747C52.0229 59.3826 51.7869 59.2749 51.5411 59.2749C51.2953 59.2749 51.0594 59.3826 50.8841 59.5747C50.7118 59.7701 50.6152 60.0331 50.6152 60.3071C50.6152 60.5811 50.7118 60.8441 50.8841 61.0395ZM46.5841 56.246C46.7594 56.4382 46.9953 56.5458 47.2411 56.5458C47.4869 56.5458 47.7229 56.4382 47.8981 56.246C48.0705 56.0507 48.1671 55.7876 48.1671 55.5136C48.1671 55.2396 48.0705 54.9766 47.8981 54.7812C47.7229 54.5891 47.4869 54.4815 47.2411 54.4815C46.9953 54.4815 46.7594 54.5891 46.5841 54.7812C46.1061 55.1803 46.1061 55.8458 46.5841 56.246ZM63.9041 36.8047C64.0794 36.9968 64.3153 37.1045 64.5611 37.1045C64.8069 37.1045 65.0429 36.9968 65.2181 36.8047C65.3905 36.6094 65.4871 36.3463 65.4871 36.0723C65.4871 35.7983 65.3905 35.5353 65.2181 35.3399C65.0429 35.1478 64.8069 35.0401 64.5611 35.0401C64.3153 35.0401 64.0794 35.1478 63.9041 35.3399C63.5461 35.8728 63.5461 36.4056 63.9041 36.8047ZM59.4851 32.0113C59.6603 32.2031 59.8961 32.3105 60.1416 32.3105C60.3872 32.3105 60.6229 32.2031 60.7981 32.0113C60.9705 31.8159 61.0671 31.5529 61.0671 31.2789C61.0671 31.0049 60.9705 30.7419 60.7981 30.5465C60.6229 30.3547 60.3872 30.2473 60.1416 30.2473C59.8961 30.2473 59.6603 30.3547 59.4851 30.5465C59.313 30.742 59.2166 31.005 59.2166 31.2789C59.2166 31.5528 59.313 31.8158 59.4851 32.0113ZM68.2041 32.0113C68.3795 32.2031 68.6154 32.3106 68.8611 32.3106C69.1069 32.3106 69.3428 32.2031 69.5181 32.0113C69.6905 31.8159 69.7871 31.5529 69.7871 31.2789C69.7871 31.0049 69.6905 30.7419 69.5181 30.5465C69.3428 30.3546 69.1069 30.2472 68.8611 30.2472C68.6154 30.2472 68.3795 30.3546 68.2041 30.5465C68.032 30.742 67.9356 31.005 67.9356 31.2789C67.9356 31.5528 68.032 31.8158 68.2041 32.0113ZM63.9041 27.2178C64.0794 27.41 64.3153 27.5176 64.5611 27.5176C64.8069 27.5176 65.0429 27.41 65.2181 27.2178C65.3905 27.0225 65.4871 26.7594 65.4871 26.4854C65.4871 26.2114 65.3905 25.9484 65.2181 25.753C65.0429 25.5609 64.8069 25.4533 64.5611 25.4533C64.3153 25.4533 64.0794 25.5609 63.9041 25.753C63.7318 25.9484 63.6352 26.2114 63.6352 26.4854C63.6352 26.7594 63.7318 27.0225 63.9041 27.2178ZM59.4851 27.2178C59.6603 27.4096 59.8961 27.5171 60.1416 27.5171C60.3872 27.5171 60.6229 27.4096 60.7981 27.2178C60.9705 27.0225 61.0671 26.7594 61.0671 26.4854C61.0671 26.2114 60.9705 25.9484 60.7981 25.753C60.6229 25.5613 60.3872 25.4538 60.1416 25.4538C59.8961 25.4538 59.6603 25.5613 59.4851 25.753C59.3128 25.9484 59.2162 26.2114 59.2162 26.4854C59.2162 26.7594 59.3128 27.0225 59.4851 27.2178ZM63.9041 32.0113C64.0794 32.2034 64.3153 32.3111 64.5611 32.3111C64.8069 32.3111 65.0429 32.2034 65.2181 32.0113C65.3905 31.8159 65.4871 31.5529 65.4871 31.2789C65.4871 31.0049 65.3905 30.7419 65.2181 30.5465C65.0429 30.3544 64.8069 30.2467 64.5611 30.2467C64.3153 30.2467 64.0794 30.3544 63.9041 30.5465C63.7318 30.7419 63.6352 31.0049 63.6352 31.2789C63.6352 31.5529 63.7318 31.8159 63.9041 32.0113ZM63.9041 22.4244C64.0794 22.6165 64.3153 22.7242 64.5611 22.7242C64.8069 22.7242 65.0429 22.6165 65.2181 22.4244C65.3905 22.229 65.4871 21.966 65.4871 21.692C65.4871 21.418 65.3905 21.155 65.2181 20.9596C65.0429 20.7675 64.8069 20.6598 64.5611 20.6598C64.3153 20.6598 64.0794 20.7675 63.9041 20.9596C63.7318 21.155 63.6352 21.418 63.6352 21.692C63.6352 21.966 63.7318 22.229 63.9041 22.4244ZM68.2041 27.2178C68.3795 27.4097 68.6154 27.5172 68.8611 27.5172C69.1069 27.5172 69.3428 27.4097 69.5181 27.2178C69.6905 27.0225 69.7871 26.7594 69.7871 26.4854C69.7871 26.2114 69.6905 25.9484 69.5181 25.753C69.3429 25.5609 69.1069 25.4533 68.8611 25.4533C68.6153 25.4533 68.3794 25.5609 68.2041 25.753C68.0318 25.9484 67.9352 26.2114 67.9352 26.4854C67.9352 26.7594 68.0318 27.0225 68.2041 27.2178ZM55.1841 27.2178C55.3594 27.41 55.5953 27.5176 55.8411 27.5176C56.0869 27.5176 56.3229 27.41 56.4981 27.2178C56.6705 27.0225 56.7671 26.7594 56.7671 26.4854C56.7671 26.2114 56.6705 25.9484 56.4981 25.753C56.3229 25.5613 56.0872 25.4538 55.8416 25.4538C55.5961 25.4538 55.3603 25.5613 55.1851 25.753C55.0128 25.9484 54.9162 26.2114 54.9162 26.4854C54.9162 26.7594 55.0128 27.0225 55.1851 27.2178H55.1841ZM59.4851 22.4244C59.6603 22.6162 59.8961 22.7236 60.1416 22.7236C60.3872 22.7236 60.6229 22.6162 60.7981 22.4244C60.9705 22.229 61.0671 21.966 61.0671 21.692C61.0671 21.418 60.9705 21.155 60.7981 20.9596C60.6229 20.7678 60.3872 20.6604 60.1416 20.6604C59.8961 20.6604 59.6603 20.7678 59.4851 20.9596C59.3128 21.155 59.2162 21.418 59.2162 21.692C59.2162 21.966 59.3128 22.229 59.4851 22.4244ZM72.5051 27.2178C72.6804 27.41 72.9163 27.5176 73.1621 27.5176C73.4079 27.5176 73.6439 27.41 73.8191 27.2178C73.9915 27.0225 74.0881 26.7594 74.0881 26.4854C74.0881 26.2114 73.9915 25.9484 73.8191 25.753C73.6439 25.5609 73.4079 25.4533 73.1621 25.4533C72.9163 25.4533 72.6804 25.5609 72.5051 25.753C72.3328 25.9484 72.2362 26.2114 72.2362 26.4854C72.2362 26.7594 72.3328 27.0225 72.5051 27.2178ZM68.2041 22.4244C68.3794 22.6165 68.6153 22.7242 68.8611 22.7242C69.1069 22.7242 69.3429 22.6165 69.5181 22.4244C69.6905 22.229 69.7871 21.966 69.7871 21.692C69.7871 21.418 69.6905 21.155 69.5181 20.9596C69.3429 20.7675 69.1069 20.6598 68.8611 20.6598C68.6153 20.6598 68.3794 20.7675 68.2041 20.9596C68.0318 21.155 67.9352 21.418 67.9352 21.692C67.9352 21.966 68.0318 22.229 68.2041 22.4244ZM63.9041 17.4972C64.0794 17.6893 64.3153 17.797 64.5611 17.797C64.8069 17.797 65.0429 17.6893 65.2181 17.4972C65.3905 17.3018 65.4871 17.0388 65.4871 16.7648C65.4871 16.4908 65.3905 16.2278 65.2181 16.0324C65.0429 15.8403 64.8069 15.7326 64.5611 15.7326C64.3153 15.7326 64.0794 15.8403 63.9041 16.0324C63.7318 16.2278 63.6352 16.4908 63.6352 16.7648C63.6352 17.0388 63.7318 17.3018 63.9041 17.4972Z" fill="#0A3B3C"/>
<path id="Vector_4" d="M55.1841 46.5254C55.3594 46.7175 55.5953 46.8252 55.8411 46.8252C56.0869 46.8252 56.3229 46.7175 56.4981 46.5254C56.6702 46.3299 56.7667 46.0669 56.7667 45.793C56.7667 45.5191 56.6702 45.2561 56.4981 45.0606C56.3229 44.8688 56.0872 44.7613 55.8416 44.7613C55.5961 44.7613 55.3603 44.8688 55.1851 45.0606C55.0128 45.2559 54.9162 45.519 54.9162 45.793C54.9162 46.067 55.0128 46.33 55.1851 46.5254H55.1841ZM50.8841 41.7319C51.0594 41.924 51.2953 42.0317 51.5411 42.0317C51.7869 42.0317 52.0229 41.924 52.1981 41.7319C52.3705 41.5366 52.4671 41.2735 52.4671 40.9995C52.4671 40.7255 52.3705 40.4625 52.1981 40.2671C52.0229 40.075 51.7869 39.9673 51.5411 39.9673C51.2953 39.9673 51.0594 40.075 50.8841 40.2671C50.7118 40.4625 50.6152 40.7255 50.6152 40.9995C50.6152 41.2735 50.7118 41.5366 50.8841 41.7319ZM59.4851 41.7319C59.6603 41.9237 59.8961 42.0312 60.1416 42.0312C60.3872 42.0312 60.6229 41.9237 60.7981 41.7319C60.9705 41.5366 61.0671 41.2735 61.0671 40.9995C61.0671 40.7255 60.9705 40.4625 60.7981 40.2671C60.6229 40.0753 60.3872 39.9679 60.1416 39.9679C59.8961 39.9679 59.6603 40.0753 59.4851 40.2671C59.3128 40.4625 59.2162 40.7255 59.2162 40.9995C59.2162 41.2735 59.3128 41.5366 59.4851 41.7319ZM55.1841 36.8047C55.3594 36.9968 55.5953 37.1045 55.8411 37.1045C56.0869 37.1045 56.3229 36.9968 56.4981 36.8047C56.6702 36.6092 56.7667 36.3462 56.7667 36.0723C56.7667 35.7984 56.6702 35.5354 56.4981 35.3399C56.3229 35.1481 56.0872 35.0407 55.8416 35.0407C55.5961 35.0407 55.3603 35.1481 55.1851 35.3399C54.8261 35.8728 54.8261 36.4056 55.1851 36.8047H55.1841ZM50.8841 36.8047C51.0595 36.9966 51.2954 37.104 51.5411 37.104C51.7869 37.104 52.0228 36.9966 52.1981 36.8047C52.3705 36.6093 52.4671 36.3463 52.4671 36.0723C52.4671 35.7983 52.3705 35.5353 52.1981 35.3399C52.0228 35.1481 51.7869 35.0406 51.5411 35.0406C51.2954 35.0406 51.0595 35.1481 50.8841 35.3399C50.5261 35.8728 50.5261 36.4056 50.8841 36.8047ZM55.1841 41.7319C55.3594 41.924 55.5953 42.0317 55.8411 42.0317C56.0869 42.0317 56.3229 41.924 56.4981 41.7319C56.6705 41.5366 56.7671 41.2735 56.7671 40.9995C56.7671 40.7255 56.6705 40.4625 56.4981 40.2671C56.3229 40.0753 56.0872 39.9679 55.8416 39.9679C55.5961 39.9679 55.3603 40.0753 55.1851 40.2671C55.0128 40.4625 54.9162 40.7255 54.9162 40.9995C54.9162 41.2735 55.0128 41.5366 55.1851 41.7319H55.1841ZM55.1841 32.0113C55.3594 32.2034 55.5953 32.3111 55.8411 32.3111C56.0869 32.3111 56.3229 32.2034 56.4981 32.0113C56.6702 31.8158 56.7667 31.5528 56.7667 31.2789C56.7667 31.005 56.6702 30.742 56.4981 30.5465C56.3229 30.3547 56.0872 30.2472 55.8416 30.2472C55.5961 30.2472 55.3603 30.3547 55.1851 30.5465C55.0128 30.7418 54.9162 31.0049 54.9162 31.2789C54.9162 31.5529 55.0128 31.8159 55.1851 32.0113H55.1841ZM59.4851 36.8047C59.6603 36.9965 59.8961 37.1039 60.1416 37.1039C60.3872 37.1039 60.6229 36.9965 60.7981 36.8047C60.9705 36.6093 61.0671 36.3463 61.0671 36.0723C61.0671 35.7983 60.9705 35.5353 60.7981 35.3399C60.6229 35.1481 60.3872 35.0407 60.1416 35.0407C59.8961 35.0407 59.6603 35.1481 59.4851 35.3399C59.1261 35.8728 59.1261 36.4056 59.4851 36.8047ZM46.5841 36.8047C46.7594 36.9968 46.9953 37.1045 47.2411 37.1045C47.4869 37.1045 47.7229 36.9968 47.8981 36.8047C48.0705 36.6093 48.1671 36.3463 48.1671 36.0723C48.1671 35.7983 48.0705 35.5353 47.8981 35.3399C47.7229 35.1478 47.4869 35.0401 47.2411 35.0401C46.9953 35.0401 46.7594 35.1478 46.5841 35.3399C46.2261 35.739 46.1061 36.4056 46.5841 36.8047ZM50.8841 32.0113C51.0595 32.2031 51.2954 32.3106 51.5411 32.3106C51.7869 32.3106 52.0228 32.2031 52.1981 32.0113C52.3705 31.8159 52.4671 31.5529 52.4671 31.2789C52.4671 31.0049 52.3705 30.7418 52.1981 30.5465C52.0228 30.3546 51.7869 30.2471 51.5411 30.2471C51.2954 30.2471 51.0595 30.3546 50.8841 30.5465C50.712 30.742 50.6156 31.005 50.6156 31.2789C50.6156 31.5528 50.712 31.8158 50.8841 32.0113ZM63.9041 36.8047C64.0794 36.9968 64.3153 37.1045 64.5611 37.1045C64.8069 37.1045 65.0429 36.9968 65.2181 36.8047C65.3905 36.6093 65.4871 36.3463 65.4871 36.0723C65.4871 35.7983 65.3905 35.5353 65.2181 35.3399C65.0429 35.1478 64.8069 35.0401 64.5611 35.0401C64.3153 35.0401 64.0794 35.1478 63.9041 35.3399C63.5461 35.8728 63.5461 36.4056 63.9041 36.8047ZM59.4851 32.0113C59.6603 32.2031 59.8961 32.3105 60.1416 32.3105C60.3872 32.3105 60.6229 32.2031 60.7981 32.0113C60.9705 31.8159 61.0671 31.5529 61.0671 31.2789C61.0671 31.0049 60.9705 30.7418 60.7981 30.5465C60.6229 30.3547 60.3872 30.2472 60.1416 30.2472C59.8961 30.2472 59.6603 30.3547 59.4851 30.5465C59.313 30.742 59.2166 31.005 59.2166 31.2789C59.2166 31.5528 59.313 31.8158 59.4851 32.0113ZM55.1841 27.2178C55.3594 27.4099 55.5953 27.5176 55.8411 27.5176C56.0869 27.5176 56.3229 27.4099 56.4981 27.2178C56.6705 27.0225 56.7671 26.7594 56.7671 26.4854C56.7671 26.2114 56.6705 25.9484 56.4981 25.753C56.3229 25.5612 56.0872 25.4538 55.8416 25.4538C55.5961 25.4538 55.3603 25.5612 55.1851 25.753C55.0128 25.9484 54.9162 26.2114 54.9162 26.4854C54.9162 26.7594 55.0128 27.0225 55.1851 27.2178H55.1841ZM46.5841 56.246C46.7594 56.4381 46.9953 56.5458 47.2411 56.5458C47.4869 56.5458 47.7229 56.4381 47.8981 56.246C48.0705 56.0507 48.1671 55.7876 48.1671 55.5136C48.1671 55.2396 48.0705 54.9766 47.8981 54.7812C47.7229 54.5891 47.4869 54.4814 47.2411 54.4814C46.9953 54.4814 46.7594 54.5891 46.5841 54.7812C46.1061 55.1803 46.1061 55.8458 46.5841 56.246ZM42.1641 51.3188C42.3394 51.5109 42.5753 51.6186 42.8211 51.6186C43.0669 51.6186 43.3029 51.5109 43.4781 51.3188C43.6505 51.1234 43.7471 50.8604 43.7471 50.5864C43.7471 50.3124 43.6505 50.0494 43.4781 49.854C43.3029 49.6619 43.0669 49.5542 42.8211 49.5542C42.5753 49.5542 42.3394 49.6619 42.1641 49.854C41.992 50.0495 41.8956 50.3125 41.8956 50.5864C41.8956 50.8603 41.992 51.1233 42.1641 51.3188ZM50.8841 51.3188C51.0595 51.5107 51.2954 51.6181 51.5411 51.6181C51.7869 51.6181 52.0228 51.5107 52.1981 51.3188C52.3705 51.1234 52.4671 50.8604 52.4671 50.5864C52.4671 50.3124 52.3705 50.0494 52.1981 49.854C52.0228 49.6622 51.7869 49.5547 51.5411 49.5547C51.2954 49.5547 51.0595 49.6622 50.8841 49.854C50.712 50.0495 50.6156 50.3125 50.6156 50.5864C50.6156 50.8603 50.712 51.1233 50.8841 51.3188ZM46.5841 46.5254C46.7594 46.7175 46.9953 46.8252 47.2411 46.8252C47.4869 46.8252 47.7229 46.7175 47.8981 46.5254C48.0705 46.33 48.1671 46.067 48.1671 45.793C48.1671 45.519 48.0705 45.2559 47.8981 45.0606C47.7229 44.8685 47.4869 44.7608 47.2411 44.7608C46.9953 44.7608 46.7594 44.8685 46.5841 45.0606C46.1061 45.4597 46.1061 46.1263 46.5841 46.5254ZM42.1641 46.5254C42.3394 46.7175 42.5753 46.8252 42.8211 46.8252C43.0669 46.8252 43.3029 46.7175 43.4781 46.5254C43.6505 46.33 43.7471 46.067 43.7471 45.793C43.7471 45.519 43.6505 45.2559 43.4781 45.0606C43.3029 44.8685 43.0669 44.7608 42.8211 44.7608C42.5753 44.7608 42.3394 44.8685 42.1641 45.0606C41.992 45.2561 41.8956 45.5191 41.8956 45.793C41.8956 46.0669 41.992 46.3299 42.1641 46.5254ZM46.5841 51.3188C46.7594 51.5109 46.9953 51.6186 47.2411 51.6186C47.4869 51.6186 47.7229 51.5109 47.8981 51.3188C48.0705 51.1234 48.1671 50.8604 48.1671 50.5864C48.1671 50.3124 48.0705 50.0494 47.8981 49.854C47.7229 49.6619 47.4869 49.5542 47.2411 49.5542C46.9953 49.5542 46.7594 49.6619 46.5841 49.854C46.1061 50.2531 46.1061 50.9197 46.5841 51.3188ZM46.5841 41.7319C46.7594 41.924 46.9953 42.0317 47.2411 42.0317C47.4869 42.0317 47.7229 41.924 47.8981 41.7319C48.0705 41.5366 48.1671 41.2735 48.1671 40.9995C48.1671 40.7255 48.0705 40.4625 47.8981 40.2671C47.7229 40.075 47.4869 39.9673 47.2411 39.9673C46.9953 39.9673 46.7594 40.075 46.5841 40.2671C46.1061 40.6662 46.1061 41.3317 46.5841 41.7319ZM50.8841 46.5254C51.0595 46.7172 51.2954 46.8247 51.5411 46.8247C51.7869 46.8247 52.0228 46.7172 52.1981 46.5254C52.3705 46.33 52.4671 46.067 52.4671 45.793C52.4671 45.519 52.3705 45.2559 52.1981 45.0606C52.0228 44.8687 51.7869 44.7612 51.5411 44.7612C51.2954 44.7612 51.0595 44.8687 50.8841 45.0606C50.712 45.2561 50.6156 45.5191 50.6156 45.793C50.6156 46.0669 50.712 46.3299 50.8841 46.5254ZM37.8641 46.5254C38.0394 46.7175 38.2753 46.8252 38.5211 46.8252C38.7669 46.8252 39.0029 46.7175 39.1781 46.5254C39.3503 46.3299 39.4467 46.0669 39.4467 45.793C39.4467 45.5191 39.3503 45.2561 39.1781 45.0606C39.0029 44.8685 38.7669 44.7608 38.5211 44.7608C38.2753 44.7608 38.0394 44.8685 37.8641 45.0606C37.6918 45.2559 37.5952 45.519 37.5952 45.793C37.5952 46.067 37.6918 46.33 37.8641 46.5254ZM42.1641 41.7319C42.3394 41.924 42.5753 42.0317 42.8211 42.0317C43.0669 42.0317 43.3029 41.924 43.4781 41.7319C43.6505 41.5366 43.7471 41.2735 43.7471 40.9995C43.7471 40.7255 43.6505 40.4625 43.4781 40.2671C43.3029 40.075 43.0669 39.9673 42.8211 39.9673C42.5753 39.9673 42.3394 40.075 42.1641 40.2671C41.9918 40.4625 41.8952 40.7255 41.8952 40.9995C41.8952 41.2735 41.9918 41.5366 42.1641 41.7319Z" fill="#0A3B3C"/>
<path id="Vector_5" d="M55.1841 46.5254C55.3593 46.7175 55.5953 46.8252 55.8411 46.8252C56.0869 46.8252 56.3228 46.7175 56.4981 46.5254C56.6702 46.3299 56.7666 46.0669 56.7666 45.793C56.7666 45.5191 56.6702 45.2561 56.4981 45.0606C56.3229 44.8688 56.0871 44.7613 55.8416 44.7613C55.596 44.7613 55.3603 44.8688 55.1851 45.0606C55.0127 45.2559 54.9161 45.519 54.9161 45.793C54.9161 46.067 55.0127 46.33 55.1851 46.5254H55.1841ZM50.8841 41.7319C51.0593 41.924 51.2953 42.0317 51.5411 42.0317C51.7869 42.0317 52.0228 41.924 52.1981 41.7319C52.3704 41.5366 52.467 41.2735 52.467 40.9995C52.467 40.7255 52.3704 40.4625 52.1981 40.2671C52.0228 40.075 51.7869 39.9673 51.5411 39.9673C51.2953 39.9673 51.0593 40.075 50.8841 40.2671C50.7117 40.4625 50.6151 40.7255 50.6151 40.9995C50.6151 41.2735 50.7117 41.5366 50.8841 41.7319ZM46.5841 36.8047C46.7593 36.9968 46.9953 37.1045 47.2411 37.1045C47.4869 37.1045 47.7228 36.9968 47.8981 36.8047C48.0704 36.6093 48.167 36.3463 48.167 36.0723C48.167 35.7983 48.0704 35.5353 47.8981 35.3399C47.7228 35.1478 47.4869 35.0401 47.2411 35.0401C46.9953 35.0401 46.7593 35.1478 46.5841 35.3399C46.2261 35.739 46.1061 36.4056 46.5841 36.8047ZM37.8641 65.8329C38.0393 66.025 38.2753 66.1327 38.5211 66.1327C38.7669 66.1327 39.0028 66.025 39.1781 65.8329C39.3502 65.6374 39.4466 65.3744 39.4466 65.1005C39.4466 64.8266 39.3502 64.5636 39.1781 64.3681C39.0028 64.176 38.7669 64.0683 38.5211 64.0683C38.2753 64.0683 38.0393 64.176 37.8641 64.3681C37.6917 64.5635 37.5951 64.8265 37.5951 65.1005C37.5951 65.3745 37.6917 65.6375 37.8641 65.8329ZM33.5641 61.0395C33.7394 61.2313 33.9754 61.3388 34.2211 61.3388C34.4668 61.3388 34.7027 61.2313 34.8781 61.0395C35.0504 60.8441 35.147 60.5811 35.147 60.3071C35.147 60.0331 35.0504 59.77 34.8781 59.5747C34.7028 59.3826 34.4669 59.2749 34.2211 59.2749C33.9753 59.2749 33.7393 59.3826 33.5641 59.5747C33.3917 59.77 33.2951 60.0331 33.2951 60.3071C33.2951 60.5811 33.3917 60.8441 33.5641 61.0395ZM42.1641 61.0395C42.3393 61.2316 42.5753 61.3393 42.8211 61.3393C43.0669 61.3393 43.3028 61.2316 43.4781 61.0395C43.6504 60.8441 43.747 60.5811 43.747 60.3071C43.747 60.0331 43.6504 59.77 43.4781 59.5747C43.3028 59.3826 43.0669 59.2749 42.8211 59.2749C42.5753 59.2749 42.3393 59.3826 42.1641 59.5747C41.9917 59.77 41.8951 60.0331 41.8951 60.3071C41.8951 60.5811 41.9917 60.8441 42.1641 61.0395ZM37.8641 56.246C38.0393 56.4381 38.2753 56.5458 38.5211 56.5458C38.7669 56.5458 39.0028 56.4381 39.1781 56.246C39.3504 56.0507 39.447 55.7876 39.447 55.5136C39.447 55.2396 39.3504 54.9766 39.1781 54.7812C39.0028 54.5891 38.7669 54.4814 38.5211 54.4814C38.2753 54.4814 38.0393 54.5891 37.8641 54.7812C37.6917 54.9766 37.5951 55.2396 37.5951 55.5136C37.5951 55.7876 37.6917 56.0507 37.8641 56.246ZM33.5641 56.246C33.7393 56.4381 33.9753 56.5458 34.2211 56.5458C34.4669 56.5458 34.7028 56.4381 34.8781 56.246C35.0504 56.0507 35.147 55.7876 35.147 55.5136C35.147 55.2396 35.0504 54.9766 34.8781 54.7812C34.7028 54.5891 34.4669 54.4814 34.2211 54.4814C33.9753 54.4814 33.7393 54.5891 33.5641 54.7812C33.3917 54.9766 33.2951 55.2396 33.2951 55.5136C33.2951 55.7876 33.3917 56.0507 33.5641 56.246ZM37.8641 61.0395C38.0393 61.2316 38.2753 61.3393 38.5211 61.3393C38.7669 61.3393 39.0028 61.2316 39.1781 61.0395C39.3504 60.8441 39.447 60.5811 39.447 60.3071C39.447 60.0331 39.3504 59.77 39.1781 59.5747C39.0028 59.3826 38.7669 59.2749 38.5211 59.2749C38.2753 59.2749 38.0393 59.3826 37.8641 59.5747C37.6917 59.77 37.5951 60.0331 37.5951 60.3071C37.5951 60.5811 37.6917 60.8441 37.8641 61.0395ZM37.8641 51.3188C38.0393 51.5109 38.2753 51.6186 38.5211 51.6186C38.7669 51.6186 39.0028 51.5109 39.1781 51.3188C39.3502 51.1233 39.4466 50.8603 39.4466 50.5864C39.4466 50.3125 39.3502 50.0495 39.1781 49.854C39.0028 49.6619 38.7669 49.5542 38.5211 49.5542C38.2753 49.5542 38.0393 49.6619 37.8641 49.854C37.6917 50.0494 37.5951 50.3124 37.5951 50.5864C37.5951 50.8604 37.6917 51.1234 37.8641 51.3188ZM42.1641 56.246C42.3393 56.4381 42.5753 56.5458 42.8211 56.5458C43.0669 56.5458 43.3028 56.4381 43.4781 56.246C43.6504 56.0507 43.747 55.7876 43.747 55.5136C43.747 55.2396 43.6504 54.9766 43.4781 54.7812C43.3028 54.5891 43.0669 54.4814 42.8211 54.4814C42.5753 54.4814 42.3393 54.5891 42.1641 54.7812C41.9917 54.9766 41.8951 55.2396 41.8951 55.5136C41.8951 55.7876 41.9917 56.0507 42.1641 56.246ZM29.1441 56.246C29.3193 56.4381 29.5553 56.5458 29.8011 56.5458C30.0469 56.5458 30.2828 56.4381 30.4581 56.246C30.6304 56.0507 30.727 55.7876 30.727 55.5136C30.727 55.2396 30.6304 54.9766 30.4581 54.7812C30.2828 54.5891 30.0469 54.4814 29.8011 54.4814C29.5553 54.4814 29.3193 54.5891 29.1441 54.7812C28.9717 54.9766 28.8751 55.2396 28.8751 55.5136C28.8751 55.7876 28.9717 56.0507 29.1441 56.246ZM33.5641 51.3188C33.7394 51.5107 33.9754 51.6181 34.2211 51.6181C34.4668 51.6181 34.7027 51.5107 34.8781 51.3188C35.0504 51.1234 35.147 50.8604 35.147 50.5864C35.147 50.3124 35.0504 50.0494 34.8781 49.854C34.7027 49.6622 34.4668 49.5547 34.2211 49.5547C33.9754 49.5547 33.7394 49.6622 33.5641 49.854C33.3917 50.0494 33.2951 50.3124 33.2951 50.5864C33.2951 50.8604 33.3917 51.1234 33.5641 51.3188ZM46.5841 56.246C46.7593 56.4381 46.9953 56.5458 47.2411 56.5458C47.4869 56.5458 47.7228 56.4381 47.8981 56.246C48.0704 56.0507 48.167 55.7876 48.167 55.5136C48.167 55.2396 48.0704 54.9766 47.8981 54.7812C47.7228 54.5891 47.4869 54.4814 47.2411 54.4814C46.9953 54.4814 46.7593 54.5891 46.5841 54.7812C46.1061 55.1803 46.1061 55.8458 46.5841 56.246ZM42.1641 51.3188C42.3393 51.5109 42.5753 51.6186 42.8211 51.6186C43.0669 51.6186 43.3028 51.5109 43.4781 51.3188C43.6504 51.1234 43.747 50.8604 43.747 50.5864C43.747 50.3124 43.6504 50.0494 43.4781 49.854C43.3028 49.6619 43.0669 49.5542 42.8211 49.5542C42.5753 49.5542 42.3393 49.6619 42.1641 49.854C41.992 50.0495 41.8955 50.3125 41.8955 50.5864C41.8955 50.8603 41.992 51.1233 42.1641 51.3188ZM37.8641 46.5254C38.0393 46.7175 38.2753 46.8252 38.5211 46.8252C38.7669 46.8252 39.0028 46.7175 39.1781 46.5254C39.3502 46.3299 39.4466 46.0669 39.4466 45.793C39.4466 45.5191 39.3502 45.2561 39.1781 45.0606C39.0028 44.8685 38.7669 44.7608 38.5211 44.7608C38.2753 44.7608 38.0393 44.8685 37.8641 45.0606C37.6917 45.2559 37.5951 45.519 37.5951 45.793C37.5951 46.067 37.6917 46.33 37.8641 46.5254ZM29.1441 75.5536C29.3193 75.7457 29.5553 75.8533 29.8011 75.8533C30.0469 75.8533 30.2828 75.7457 30.4581 75.5536C30.6304 75.3582 30.727 75.0952 30.727 74.8212C30.727 74.5472 30.6304 74.2841 30.4581 74.0888C30.2828 73.8966 30.0469 73.789 29.8011 73.789C29.5553 73.789 29.3193 73.8966 29.1441 74.0888C28.9717 74.2841 28.8751 74.5472 28.8751 74.8212C28.8751 75.0952 28.9717 75.3582 29.1441 75.5536ZM24.8441 70.6263C25.0193 70.8185 25.2553 70.9261 25.5011 70.9261C25.7469 70.9261 25.9828 70.8185 26.1581 70.6263C26.3304 70.431 26.427 70.168 26.427 69.894C26.427 69.62 26.3304 69.3569 26.1581 69.1616C25.9828 68.9694 25.7469 68.8618 25.5011 68.8618C25.2553 68.8618 25.0193 68.9694 24.8441 69.1616C24.4861 69.6944 24.4861 70.2273 24.8441 70.6263ZM33.5641 70.6263C33.7394 70.8182 33.9754 70.9257 34.2211 70.9257C34.4668 70.9257 34.7027 70.8182 34.8781 70.6263C35.0504 70.431 35.147 70.168 35.147 69.894C35.147 69.62 35.0504 69.3569 34.8781 69.1616C34.7027 68.9697 34.4668 68.8622 34.2211 68.8622C33.9754 68.8622 33.7394 68.9697 33.5641 69.1616C33.2061 69.6944 33.2061 70.2273 33.5641 70.6263ZM29.1441 65.8329C29.3193 66.025 29.5553 66.1327 29.8011 66.1327C30.0469 66.1327 30.2828 66.025 30.4581 65.8329C30.6302 65.6374 30.7266 65.3744 30.7266 65.1005C30.7266 64.8266 30.6302 64.5636 30.4581 64.3681C30.2828 64.176 30.0469 64.0683 29.8011 64.0683C29.5553 64.0683 29.3193 64.176 29.1441 64.3681C28.9717 64.5635 28.8751 64.8265 28.8751 65.1005C28.8751 65.3745 28.9717 65.6375 29.1441 65.8329ZM24.8441 65.8329C25.0193 66.025 25.2553 66.1327 25.5011 66.1327C25.7469 66.1327 25.9828 66.025 26.1581 65.8329C26.3304 65.6375 26.427 65.3745 26.427 65.1005C26.427 64.8265 26.3304 64.5635 26.1581 64.3681C25.9828 64.176 25.7469 64.0683 25.5011 64.0683C25.2553 64.0683 25.0193 64.176 24.8441 64.3681C24.672 64.5636 24.5755 64.8266 24.5755 65.1005C24.5755 65.3744 24.672 65.6374 24.8441 65.8329ZM29.1441 70.6263C29.3193 70.8185 29.5553 70.9261 29.8011 70.9261C30.0469 70.9261 30.2828 70.8185 30.4581 70.6263C30.6302 70.4308 30.7266 70.1679 30.7266 69.894C30.7266 69.62 30.6302 69.3571 30.4581 69.1616C30.2828 68.9694 30.0469 68.8618 29.8011 68.8618C29.5553 68.8618 29.3193 68.9694 29.1441 69.1616C28.7861 69.6944 28.7861 70.2273 29.1441 70.6263ZM29.1441 61.0395C29.3193 61.2316 29.5553 61.3393 29.8011 61.3393C30.0469 61.3393 30.2828 61.2316 30.4581 61.0395C30.6304 60.8441 30.727 60.5811 30.727 60.3071C30.727 60.0331 30.6304 59.77 30.4581 59.5747C30.2828 59.3826 30.0469 59.2749 29.8011 59.2749C29.5553 59.2749 29.3193 59.3826 29.1441 59.5747C28.9717 59.77 28.8751 60.0331 28.8751 60.3071C28.8751 60.5811 28.9717 60.8441 29.1441 61.0395ZM33.5641 65.8329C33.7394 66.0248 33.9754 66.1322 34.2211 66.1322C34.4668 66.1322 34.7027 66.0248 34.8781 65.8329C35.0504 65.6375 35.147 65.3745 35.147 65.1005C35.147 64.8265 35.0504 64.5635 34.8781 64.3681C34.7027 64.1763 34.4668 64.0688 34.2211 64.0688C33.9754 64.0688 33.7394 64.1763 33.5641 64.3681C33.3917 64.5635 33.2951 64.8265 33.2951 65.1005C33.2951 65.3745 33.3917 65.6375 33.5641 65.8329ZM20.5441 65.8329C20.7193 66.025 20.9553 66.1327 21.2011 66.1327C21.4469 66.1327 21.6828 66.025 21.8581 65.8329C22.0302 65.6374 22.1266 65.3744 22.1266 65.1005C22.1266 64.8266 22.0302 64.5636 21.8581 64.3681C21.6828 64.176 21.4469 64.0683 21.2011 64.0683C20.9553 64.0683 20.7193 64.176 20.5441 64.3681C20.3717 64.5635 20.2751 64.8265 20.2751 65.1005C20.2751 65.3745 20.3717 65.6375 20.5441 65.8329ZM24.8441 61.0395C25.0193 61.2316 25.2553 61.3393 25.5011 61.3393C25.7469 61.3393 25.9828 61.2316 26.1581 61.0395C26.3304 60.8441 26.427 60.5811 26.427 60.3071C26.427 60.0331 26.3304 59.77 26.1581 59.5747C25.9828 59.3826 25.7469 59.2749 25.5011 59.2749C25.2553 59.2749 25.0193 59.3826 24.8441 59.5747C24.6717 59.77 24.5751 60.0331 24.5751 60.3071C24.5751 60.5811 24.6717 60.8441 24.8441 61.0395Z" fill="#0A3B3C"/>
<path id="Vector_6" d="M37.8642 65.8329C38.0394 66.025 38.2754 66.1327 38.5212 66.1327C38.767 66.1327 39.0029 66.025 39.1782 65.8329C39.3503 65.6374 39.4467 65.3744 39.4467 65.1005C39.4467 64.8266 39.3503 64.5636 39.1782 64.3681C39.0029 64.176 38.767 64.0683 38.5212 64.0683C38.2754 64.0683 38.0394 64.176 37.8642 64.3681C37.6918 64.5635 37.5952 64.8265 37.5952 65.1005C37.5952 65.3745 37.6918 65.6375 37.8642 65.8329ZM33.5642 61.0395C33.7395 61.2313 33.9755 61.3388 34.2212 61.3388C34.4669 61.3388 34.7028 61.2313 34.8782 61.0395C35.0505 60.8441 35.1471 60.5811 35.1471 60.3071C35.1471 60.0331 35.0505 59.77 34.8782 59.5747C34.7029 59.3825 34.467 59.2749 34.2212 59.2749C33.9754 59.2749 33.7394 59.3825 33.5642 59.5747C33.3918 59.77 33.2952 60.0331 33.2952 60.3071C33.2952 60.5811 33.3918 60.8441 33.5642 61.0395ZM29.1442 56.246C29.3194 56.4381 29.5554 56.5458 29.8012 56.5458C30.047 56.5458 30.2829 56.4381 30.4582 56.246C30.6305 56.0506 30.7271 55.7876 30.7271 55.5136C30.7271 55.2396 30.6305 54.9766 30.4582 54.7812C30.2829 54.5891 30.047 54.4814 29.8012 54.4814C29.5554 54.4814 29.3194 54.5891 29.1442 54.7812C28.9718 54.9766 28.8752 55.2396 28.8752 55.5136C28.8752 55.7876 28.9718 56.0506 29.1442 56.246ZM55.1842 27.2178C55.3594 27.4099 55.5954 27.5176 55.8412 27.5176C56.087 27.5176 56.3229 27.4099 56.4982 27.2178C56.6705 27.0224 56.7671 26.7594 56.7671 26.4854C56.7671 26.2114 56.6705 25.9484 56.4982 25.753C56.323 25.5612 56.0872 25.4538 55.8417 25.4538C55.5961 25.4538 55.3604 25.5612 55.1852 25.753C55.0128 25.9484 54.9162 26.2114 54.9162 26.4854C54.9162 26.7594 55.0128 27.0224 55.1852 27.2178H55.1842ZM50.8842 22.4244C51.0594 22.6165 51.2954 22.7242 51.5412 22.7242C51.787 22.7242 52.0229 22.6165 52.1982 22.4244C52.3705 22.229 52.4671 21.966 52.4671 21.692C52.4671 21.418 52.3705 21.1549 52.1982 20.9596C52.0229 20.7675 51.787 20.6598 51.5412 20.6598C51.2954 20.6598 51.0594 20.7675 50.8842 20.9596C50.7118 21.1549 50.6152 21.418 50.6152 21.692C50.6152 21.966 50.7118 22.229 50.8842 22.4244ZM59.4852 22.4244C59.6604 22.6162 59.8961 22.7236 60.1417 22.7236C60.3872 22.7236 60.623 22.6162 60.7982 22.4244C60.9705 22.229 61.0671 21.966 61.0671 21.692C61.0671 21.418 60.9705 21.1549 60.7982 20.9596C60.623 20.7678 60.3872 20.6603 60.1417 20.6603C59.8961 20.6603 59.6604 20.7678 59.4852 20.9596C59.3128 21.1549 59.2162 21.418 59.2162 21.692C59.2162 21.966 59.3128 22.229 59.4852 22.4244ZM55.1842 17.4972C55.3594 17.6893 55.5954 17.7969 55.8412 17.7969C56.087 17.7969 56.3229 17.6893 56.4982 17.4972C56.6703 17.3017 56.7667 17.0387 56.7667 16.7648C56.7667 16.4908 56.6703 16.2279 56.4982 16.0324C56.323 15.8406 56.0872 15.7331 55.8417 15.7331C55.5961 15.7331 55.3604 15.8406 55.1852 16.0324C55.0128 16.2277 54.9162 16.4908 54.9162 16.7648C54.9162 17.0388 55.0128 17.3018 55.1852 17.4972H55.1842ZM50.8842 17.4972C51.0595 17.689 51.2955 17.7965 51.5412 17.7965C51.7869 17.7965 52.0228 17.689 52.1982 17.4972C52.3705 17.3018 52.4671 17.0388 52.4671 16.7648C52.4671 16.4908 52.3705 16.2277 52.1982 16.0324C52.0228 15.8405 51.7869 15.733 51.5412 15.733C51.2955 15.733 51.0595 15.8405 50.8842 16.0324C50.7118 16.2277 50.6152 16.4908 50.6152 16.7648C50.6152 17.0388 50.7118 17.3018 50.8842 17.4972ZM55.1842 22.4244C55.3594 22.6165 55.5954 22.7242 55.8412 22.7242C56.087 22.7242 56.3229 22.6165 56.4982 22.4244C56.6705 22.229 56.7671 21.966 56.7671 21.692C56.7671 21.418 56.6705 21.1549 56.4982 20.9596C56.323 20.7678 56.0872 20.6603 55.8417 20.6603C55.5961 20.6603 55.3604 20.7678 55.1852 20.9596C55.0128 21.1549 54.9162 21.418 54.9162 21.692C54.9162 21.966 55.0128 22.229 55.1852 22.4244H55.1842ZM55.1842 12.7037C55.3594 12.8958 55.5954 13.0035 55.8412 13.0035C56.087 13.0035 56.3229 12.8958 56.4982 12.7037C56.6703 12.5082 56.7667 12.2452 56.7667 11.9713C56.7667 11.6974 56.6703 11.4344 56.4982 11.2389C56.323 11.0471 56.0872 10.9397 55.8417 10.9397C55.5961 10.9397 55.3604 11.0471 55.1852 11.2389C55.0128 11.4343 54.9162 11.6973 54.9162 11.9713C54.9162 12.2453 55.0128 12.5083 55.1852 12.7037H55.1842ZM59.4852 17.4972C59.6604 17.6889 59.8961 17.7964 60.1417 17.7964C60.3872 17.7964 60.623 17.6889 60.7982 17.4972C60.9705 17.3018 61.0671 17.0388 61.0671 16.7648C61.0671 16.4908 60.9705 16.2277 60.7982 16.0324C60.623 15.8406 60.3872 15.7331 60.1417 15.7331C59.8961 15.7331 59.6604 15.8406 59.4852 16.0324C59.3131 16.2279 59.2166 16.4908 59.2166 16.7648C59.2166 17.0387 59.3131 17.3017 59.4852 17.4972ZM46.5842 17.4972C46.7594 17.6893 46.9954 17.7969 47.2412 17.7969C47.487 17.7969 47.7229 17.6893 47.8982 17.4972C48.0705 17.3018 48.1671 17.0388 48.1671 16.7648C48.1671 16.4908 48.0705 16.2277 47.8982 16.0324C47.7229 15.8402 47.487 15.7326 47.2412 15.7326C46.9954 15.7326 46.7594 15.8402 46.5842 16.0324C46.2262 16.4314 46.1062 17.0981 46.5842 17.4972ZM50.8842 12.7037C51.0595 12.8956 51.2955 13.0031 51.5412 13.0031C51.7869 13.0031 52.0228 12.8956 52.1982 12.7037C52.3705 12.5083 52.4671 12.2453 52.4671 11.9713C52.4671 11.6973 52.3705 11.4343 52.1982 11.2389C52.0228 11.0471 51.7869 10.9396 51.5412 10.9396C51.2955 10.9396 51.0595 11.0471 50.8842 11.2389C50.7121 11.4344 50.6156 11.6974 50.6156 11.9713C50.6156 12.2452 50.7121 12.5082 50.8842 12.7037ZM63.9042 17.4972C64.0794 17.6893 64.3154 17.7969 64.5612 17.7969C64.807 17.7969 65.0429 17.6893 65.2182 17.4972C65.3905 17.3018 65.4871 17.0388 65.4871 16.7648C65.4871 16.4908 65.3905 16.2277 65.2182 16.0324C65.0429 15.8402 64.807 15.7326 64.5612 15.7326C64.3154 15.7326 64.0794 15.8402 63.9042 16.0324C63.7318 16.2277 63.6352 16.4908 63.6352 16.7648C63.6352 17.0388 63.7318 17.3018 63.9042 17.4972ZM59.4852 12.7037C59.6604 12.8955 59.8961 13.003 60.1417 13.003C60.3872 13.003 60.623 12.8955 60.7982 12.7037C60.9705 12.5083 61.0671 12.2453 61.0671 11.9713C61.0671 11.6973 60.9705 11.4343 60.7982 11.2389C60.623 11.0471 60.3872 10.9397 60.1417 10.9397C59.8961 10.9397 59.6604 11.0471 59.4852 11.2389C59.3131 11.4344 59.2166 11.6974 59.2166 11.9713C59.2166 12.2452 59.3131 12.5082 59.4852 12.7037ZM55.1842 7.91027C55.3594 8.10239 55.5954 8.21006 55.8412 8.21006C56.087 8.21006 56.3229 8.10239 56.4982 7.91027C56.6705 7.71491 56.7671 7.45188 56.7671 7.17787C56.7671 6.90387 56.6705 6.64084 56.4982 6.44548C56.323 6.25369 56.0872 6.14624 55.8417 6.14624C55.5961 6.14624 55.3604 6.25369 55.1852 6.44548C55.0128 6.64084 54.9162 6.90387 54.9162 7.17787C54.9162 7.45188 55.0128 7.71491 55.1852 7.91027H55.1842ZM46.5842 36.8047C46.7594 36.9968 46.9954 37.1045 47.2412 37.1045C47.487 37.1045 47.7229 36.9968 47.8982 36.8047C48.0705 36.6093 48.1671 36.3463 48.1671 36.0723C48.1671 35.7983 48.0705 35.5353 47.8982 35.3399C47.7229 35.1478 47.487 35.0401 47.2412 35.0401C46.9954 35.0401 46.7594 35.1478 46.5842 35.3399C46.2262 35.739 46.1062 36.4056 46.5842 36.8047ZM42.1642 32.0113C42.3394 32.2034 42.5754 32.311 42.8212 32.311C43.067 32.311 43.3029 32.2034 43.4782 32.0113C43.6505 31.8159 43.7471 31.5529 43.7471 31.2789C43.7471 31.0049 43.6505 30.7418 43.4782 30.5465C43.3029 30.3543 43.067 30.2467 42.8212 30.2467C42.5754 30.2467 42.3394 30.3543 42.1642 30.5465C41.9921 30.742 41.8956 31.0049 41.8956 31.2789C41.8956 31.5528 41.9921 31.8158 42.1642 32.0113ZM50.8842 32.0113C51.0595 32.2031 51.2955 32.3106 51.5412 32.3106C51.7869 32.3106 52.0228 32.2031 52.1982 32.0113C52.3705 31.8159 52.4671 31.5529 52.4671 31.2789C52.4671 31.0049 52.3705 30.7418 52.1982 30.5465C52.0228 30.3546 51.7869 30.2471 51.5412 30.2471C51.2955 30.2471 51.0595 30.3546 50.8842 30.5465C50.7121 30.742 50.6156 31.0049 50.6156 31.2789C50.6156 31.5528 50.7121 31.8158 50.8842 32.0113ZM46.5842 27.2178C46.7594 27.4099 46.9954 27.5176 47.2412 27.5176C47.487 27.5176 47.7229 27.4099 47.8982 27.2178C48.0705 27.0224 48.1671 26.7594 48.1671 26.4854C48.1671 26.2114 48.0705 25.9484 47.8982 25.753C47.7229 25.5609 47.487 25.4532 47.2412 25.4532C46.9954 25.4532 46.7594 25.5609 46.5842 25.753C46.1062 26.1521 46.1062 26.8176 46.5842 27.2178ZM42.1642 27.2178C42.3394 27.4099 42.5754 27.5176 42.8212 27.5176C43.067 27.5176 43.3029 27.4099 43.4782 27.2178C43.6505 27.0224 43.7471 26.7594 43.7471 26.4854C43.7471 26.2114 43.6505 25.9484 43.4782 25.753C43.3029 25.5609 43.067 25.4532 42.8212 25.4532C42.5754 25.4532 42.3394 25.5609 42.1642 25.753C41.9918 25.9484 41.8952 26.2114 41.8952 26.4854C41.8952 26.7594 41.9918 27.0224 42.1642 27.2178ZM46.5842 32.0113C46.7594 32.2034 46.9954 32.311 47.2412 32.311C47.487 32.311 47.7229 32.2034 47.8982 32.0113C48.0705 31.8159 48.1671 31.5529 48.1671 31.2789C48.1671 31.0049 48.0705 30.7418 47.8982 30.5465C47.7229 30.3543 47.487 30.2467 47.2412 30.2467C46.9954 30.2467 46.7594 30.3543 46.5842 30.5465C46.1062 30.9455 46.1062 31.6122 46.5842 32.0113ZM46.5842 22.4244C46.7594 22.6165 46.9954 22.7242 47.2412 22.7242C47.487 22.7242 47.7229 22.6165 47.8982 22.4244C48.0705 22.229 48.1671 21.966 48.1671 21.692C48.1671 21.418 48.0705 21.1549 47.8982 20.9596C47.7229 20.7675 47.487 20.6598 47.2412 20.6598C46.9954 20.6598 46.7594 20.7675 46.5842 20.9596C46.1062 21.3587 46.1062 22.0242 46.5842 22.4244ZM50.8842 27.2178C51.0595 27.4097 51.2955 27.5171 51.5412 27.5171C51.7869 27.5171 52.0228 27.4097 52.1982 27.2178C52.3705 27.0224 52.4671 26.7594 52.4671 26.4854C52.4671 26.2114 52.3705 25.9484 52.1982 25.753C52.0229 25.5609 51.787 25.4532 51.5412 25.4532C51.2954 25.4532 51.0594 25.5609 50.8842 25.753C50.7118 25.9484 50.6152 26.2114 50.6152 26.4854C50.6152 26.7594 50.7118 27.0224 50.8842 27.2178ZM37.8642 27.2178C38.0394 27.4099 38.2754 27.5176 38.5212 27.5176C38.767 27.5176 39.0029 27.4099 39.1782 27.2178C39.3505 27.0224 39.4471 26.7594 39.4471 26.4854C39.4471 26.2114 39.3505 25.9484 39.1782 25.753C39.0029 25.5609 38.767 25.4532 38.5212 25.4532C38.2754 25.4532 38.0394 25.5609 37.8642 25.753C37.6918 25.9484 37.5952 26.2114 37.5952 26.4854C37.5952 26.7594 37.6918 27.0224 37.8642 27.2178ZM42.1642 22.4244C42.3394 22.6165 42.5754 22.7242 42.8212 22.7242C43.067 22.7242 43.3029 22.6165 43.4782 22.4244C43.6505 22.229 43.7471 21.966 43.7471 21.692C43.7471 21.418 43.6505 21.1549 43.4782 20.9596C43.3029 20.7675 43.067 20.6598 42.8212 20.6598C42.5754 20.6598 42.3394 20.7675 42.1642 20.9596C41.9918 21.1549 41.8952 21.418 41.8952 21.692C41.8952 21.966 41.9918 22.229 42.1642 22.4244Z" fill="#0A3B3C"/>
<path id="Vector_7" d="M55.1841 27.2178C55.3593 27.41 55.5953 27.5176 55.8411 27.5176C56.0869 27.5176 56.3228 27.41 56.4981 27.2178C56.6704 27.0225 56.767 26.7594 56.767 26.4854C56.767 26.2114 56.6704 25.9484 56.4981 25.753C56.3229 25.5613 56.0871 25.4538 55.8416 25.4538C55.596 25.4538 55.3603 25.5613 55.1851 25.753C55.0127 25.9484 54.9161 26.2114 54.9161 26.4854C54.9161 26.7594 55.0127 27.0225 55.1851 27.2178H55.1841ZM50.8841 22.4244C51.0593 22.6165 51.2953 22.7242 51.5411 22.7242C51.7869 22.7242 52.0228 22.6165 52.1981 22.4244C52.3704 22.229 52.467 21.966 52.467 21.692C52.467 21.418 52.3704 21.155 52.1981 20.9596C52.0228 20.7675 51.7869 20.6598 51.5411 20.6598C51.2953 20.6598 51.0593 20.7675 50.8841 20.9596C50.7117 21.155 50.6151 21.418 50.6151 21.692C50.6151 21.966 50.7117 22.229 50.8841 22.4244ZM46.5841 17.4972C46.7593 17.6893 46.9953 17.797 47.2411 17.797C47.4869 17.797 47.7228 17.6893 47.8981 17.4972C48.0704 17.3018 48.167 17.0388 48.167 16.7648C48.167 16.4908 48.0704 16.2278 47.8981 16.0324C47.7228 15.8403 47.4869 15.7326 47.2411 15.7326C46.9953 15.7326 46.7593 15.8403 46.5841 16.0324C46.2261 16.4315 46.1061 17.0981 46.5841 17.4972ZM37.8641 46.5254C38.0393 46.7175 38.2753 46.8252 38.5211 46.8252C38.7669 46.8252 39.0028 46.7175 39.1781 46.5254C39.3502 46.3299 39.4466 46.0669 39.4466 45.793C39.4466 45.5191 39.3502 45.2561 39.1781 45.0606C39.0028 44.8685 38.7669 44.7608 38.5211 44.7608C38.2753 44.7608 38.0393 44.8685 37.8641 45.0606C37.6917 45.256 37.5951 45.519 37.5951 45.793C37.5951 46.067 37.6917 46.33 37.8641 46.5254ZM33.5641 41.7319C33.7393 41.9241 33.9753 42.0317 34.2211 42.0317C34.4669 42.0317 34.7028 41.9241 34.8781 41.7319C35.0504 41.5366 35.147 41.2735 35.147 40.9995C35.147 40.7255 35.0504 40.4625 34.8781 40.2671C34.7028 40.075 34.4669 39.9674 34.2211 39.9674C33.9753 39.9674 33.7393 40.075 33.5641 40.2671C33.3917 40.4625 33.2951 40.7255 33.2951 40.9995C33.2951 41.2735 33.3917 41.5366 33.5641 41.7319ZM42.1641 41.7319C42.3393 41.9241 42.5753 42.0317 42.8211 42.0317C43.0669 42.0317 43.3028 41.9241 43.4781 41.7319C43.6504 41.5366 43.747 41.2735 43.747 40.9995C43.747 40.7255 43.6504 40.4625 43.4781 40.2671C43.3028 40.075 43.0669 39.9674 42.8211 39.9674C42.5753 39.9674 42.3393 40.075 42.1641 40.2671C41.9917 40.4625 41.8951 40.7255 41.8951 40.9995C41.8951 41.2735 41.9917 41.5366 42.1641 41.7319ZM37.8641 36.8047C38.0393 36.9968 38.2753 37.1045 38.5211 37.1045C38.7669 37.1045 39.0028 36.9968 39.1781 36.8047C39.3502 36.6092 39.4466 36.3462 39.4466 36.0723C39.4466 35.7984 39.3502 35.5354 39.1781 35.3399C39.0028 35.1478 38.7669 35.0401 38.5211 35.0401C38.2753 35.0401 38.0393 35.1478 37.8641 35.3399C37.5061 35.8728 37.5061 36.4056 37.8641 36.8047ZM33.5641 36.8047C33.7394 36.9966 33.9754 37.1041 34.2211 37.1041C34.4668 37.1041 34.7027 36.9966 34.8781 36.8047C35.0504 36.6094 35.147 36.3463 35.147 36.0723C35.147 35.7983 35.0504 35.5353 34.8781 35.3399C34.7027 35.1481 34.4668 35.0406 34.2211 35.0406C33.9754 35.0406 33.7394 35.1481 33.5641 35.3399C33.2061 35.8728 33.2061 36.4056 33.5641 36.8047ZM37.8641 41.7319C38.0393 41.9241 38.2753 42.0317 38.5211 42.0317C38.7669 42.0317 39.0028 41.9241 39.1781 41.7319C39.3504 41.5366 39.447 41.2735 39.447 40.9995C39.447 40.7255 39.3504 40.4625 39.1781 40.2671C39.0028 40.075 38.7669 39.9674 38.5211 39.9674C38.2753 39.9674 38.0393 40.075 37.8641 40.2671C37.6917 40.4625 37.5951 40.7255 37.5951 40.9995C37.5951 41.2735 37.6917 41.5366 37.8641 41.7319ZM37.8641 32.0113C38.0393 32.2034 38.2753 32.3111 38.5211 32.3111C38.7669 32.3111 39.0028 32.2034 39.1781 32.0113C39.3502 31.8158 39.4466 31.5528 39.4466 31.2789C39.4466 31.005 39.3502 30.742 39.1781 30.5465C39.0028 30.3544 38.7669 30.2467 38.5211 30.2467C38.2753 30.2467 38.0393 30.3544 37.8641 30.5465C37.6917 30.7419 37.5951 31.0049 37.5951 31.2789C37.5951 31.5529 37.6917 31.8159 37.8641 32.0113ZM42.1641 36.8047C42.3393 36.9968 42.5753 37.1045 42.8211 37.1045C43.0669 37.1045 43.3028 36.9968 43.4781 36.8047C43.6504 36.6094 43.747 36.3463 43.747 36.0723C43.747 35.7983 43.6504 35.5353 43.4781 35.3399C43.3028 35.1478 43.0669 35.0401 42.8211 35.0401C42.5753 35.0401 42.3393 35.1478 42.1641 35.3399C41.8061 35.8728 41.8061 36.4056 42.1641 36.8047ZM29.1441 36.8047C29.3193 36.9968 29.5553 37.1045 29.8011 37.1045C30.0469 37.1045 30.2828 36.9968 30.4581 36.8047C30.6302 36.6092 30.7266 36.3462 30.7266 36.0723C30.7266 35.7984 30.6302 35.5354 30.4581 35.3399C30.2828 35.1478 30.0469 35.0401 29.8011 35.0401C29.5553 35.0401 29.3193 35.1478 29.1441 35.3399C28.7861 35.8728 28.7861 36.4056 29.1441 36.8047ZM33.5641 32.0113C33.7394 32.2031 33.9754 32.3106 34.2211 32.3106C34.4668 32.3106 34.7027 32.2031 34.8781 32.0113C35.0504 31.8159 35.147 31.5529 35.147 31.2789C35.147 31.0049 35.0504 30.7419 34.8781 30.5465C34.7027 30.3546 34.4668 30.2472 34.2211 30.2472C33.9754 30.2472 33.7394 30.3546 33.5641 30.5465C33.3917 30.7419 33.2951 31.0049 33.2951 31.2789C33.2951 31.5529 33.3917 31.8159 33.5641 32.0113ZM46.5841 36.8047C46.7593 36.9968 46.9953 37.1045 47.2411 37.1045C47.4869 37.1045 47.7228 36.9968 47.8981 36.8047C48.0704 36.6094 48.167 36.3463 48.167 36.0723C48.167 35.7983 48.0704 35.5353 47.8981 35.3399C47.7228 35.1478 47.4869 35.0401 47.2411 35.0401C46.9953 35.0401 46.7593 35.1478 46.5841 35.3399C46.2261 35.739 46.1061 36.4056 46.5841 36.8047ZM42.1641 32.0113C42.3393 32.2034 42.5753 32.3111 42.8211 32.3111C43.0669 32.3111 43.3028 32.2034 43.4781 32.0113C43.6504 31.8159 43.747 31.5529 43.747 31.2789C43.747 31.0049 43.6504 30.7419 43.4781 30.5465C43.3028 30.3544 43.0669 30.2467 42.8211 30.2467C42.5753 30.2467 42.3393 30.3544 42.1641 30.5465C41.992 30.742 41.8955 31.005 41.8955 31.2789C41.8955 31.5528 41.992 31.8158 42.1641 32.0113ZM37.8641 27.2178C38.0393 27.41 38.2753 27.5176 38.5211 27.5176C38.7669 27.5176 39.0028 27.41 39.1781 27.2178C39.3504 27.0225 39.447 26.7594 39.447 26.4854C39.447 26.2114 39.3504 25.9484 39.1781 25.753C39.0028 25.5609 38.7669 25.4533 38.5211 25.4533C38.2753 25.4533 38.0393 25.5609 37.8641 25.753C37.6917 25.9484 37.5951 26.2114 37.5951 26.4854C37.5951 26.7594 37.6917 27.0225 37.8641 27.2178ZM29.1441 56.246C29.3193 56.4382 29.5553 56.5458 29.8011 56.5458C30.0469 56.5458 30.2828 56.4382 30.4581 56.246C30.6304 56.0507 30.727 55.7876 30.727 55.5136C30.727 55.2396 30.6304 54.9766 30.4581 54.7812C30.2828 54.5891 30.0469 54.4815 29.8011 54.4815C29.5553 54.4815 29.3193 54.5891 29.1441 54.7812C28.9717 54.9766 28.8751 55.2396 28.8751 55.5136C28.8751 55.7876 28.9717 56.0507 29.1441 56.246ZM24.8441 51.3188C25.0193 51.5109 25.2553 51.6186 25.5011 51.6186C25.7469 51.6186 25.9828 51.5109 26.1581 51.3188C26.3304 51.1235 26.427 50.8604 26.427 50.5864C26.427 50.3124 26.3304 50.0494 26.1581 49.854C25.9828 49.6619 25.7469 49.5542 25.5011 49.5542C25.2553 49.5542 25.0193 49.6619 24.8441 49.854C24.672 50.0495 24.5755 50.3125 24.5755 50.5864C24.5755 50.8603 24.672 51.1233 24.8441 51.3188ZM33.5641 51.3188C33.7394 51.5107 33.9754 51.6182 34.2211 51.6182C34.4668 51.6182 34.7027 51.5107 34.8781 51.3188C35.0504 51.1235 35.147 50.8604 35.147 50.5864C35.147 50.3124 35.0504 50.0494 34.8781 49.854C34.7027 49.6622 34.4668 49.5547 34.2211 49.5547C33.9754 49.5547 33.7394 49.6622 33.5641 49.854C33.3917 50.0494 33.2951 50.3124 33.2951 50.5864C33.2951 50.8604 33.3917 51.1235 33.5641 51.3188ZM29.1441 46.5254C29.3193 46.7175 29.5553 46.8252 29.8011 46.8252C30.0469 46.8252 30.2828 46.7175 30.4581 46.5254C30.6302 46.3299 30.7266 46.0669 30.7266 45.793C30.7266 45.5191 30.6302 45.2561 30.4581 45.0606C30.2828 44.8685 30.0469 44.7608 29.8011 44.7608C29.5553 44.7608 29.3193 44.8685 29.1441 45.0606C28.9717 45.256 28.8751 45.519 28.8751 45.793C28.8751 46.067 28.9717 46.33 29.1441 46.5254ZM24.8441 46.5254C25.0193 46.7175 25.2553 46.8252 25.5011 46.8252C25.7469 46.8252 25.9828 46.7175 26.1581 46.5254C26.3304 46.33 26.427 46.067 26.427 45.793C26.427 45.519 26.3304 45.256 26.1581 45.0606C25.9828 44.8685 25.7469 44.7608 25.5011 44.7608C25.2553 44.7608 25.0193 44.8685 24.8441 45.0606C24.672 45.2561 24.5755 45.5191 24.5755 45.793C24.5755 46.0669 24.672 46.3299 24.8441 46.5254ZM29.1441 51.3188C29.3193 51.5109 29.5553 51.6186 29.8011 51.6186C30.0469 51.6186 30.2828 51.5109 30.4581 51.3188C30.6302 51.1233 30.7266 50.8603 30.7266 50.5864C30.7266 50.3125 30.6302 50.0495 30.4581 49.854C30.2828 49.6619 30.0469 49.5542 29.8011 49.5542C29.5553 49.5542 29.3193 49.6619 29.1441 49.854C28.9717 50.0494 28.8751 50.3124 28.8751 50.5864C28.8751 50.8604 28.9717 51.1235 29.1441 51.3188ZM29.1441 41.7319C29.3193 41.9241 29.5553 42.0317 29.8011 42.0317C30.0469 42.0317 30.2828 41.9241 30.4581 41.7319C30.6304 41.5366 30.727 41.2735 30.727 40.9995C30.727 40.7255 30.6304 40.4625 30.4581 40.2671C30.2828 40.075 30.0469 39.9674 29.8011 39.9674C29.5553 39.9674 29.3193 40.075 29.1441 40.2671C28.9717 40.4625 28.8751 40.7255 28.8751 40.9995C28.8751 41.2735 28.9717 41.5366 29.1441 41.7319ZM33.5641 46.5254C33.7394 46.7172 33.9754 46.8247 34.2211 46.8247C34.4668 46.8247 34.7027 46.7172 34.8781 46.5254C35.0504 46.33 35.147 46.067 35.147 45.793C35.147 45.519 35.0504 45.256 34.8781 45.0606C34.7027 44.8687 34.4668 44.7612 34.2211 44.7612C33.9754 44.7612 33.7394 44.8687 33.5641 45.0606C33.3917 45.256 33.2951 45.519 33.2951 45.793C33.2951 46.067 33.3917 46.33 33.5641 46.5254ZM20.5441 46.5254C20.7193 46.7175 20.9553 46.8252 21.2011 46.8252C21.4469 46.8252 21.6828 46.7175 21.8581 46.5254C22.0302 46.3299 22.1266 46.0669 22.1266 45.793C22.1266 45.5191 22.0302 45.2561 21.8581 45.0606C21.6828 44.8685 21.4469 44.7608 21.2011 44.7608C20.9553 44.7608 20.7193 44.8685 20.5441 45.0606C20.3717 45.256 20.2751 45.519 20.2751 45.793C20.2751 46.067 20.3717 46.33 20.5441 46.5254ZM24.8441 41.7319C25.0193 41.9241 25.2553 42.0317 25.5011 42.0317C25.7469 42.0317 25.9828 41.9241 26.1581 41.7319C26.3304 41.5366 26.427 41.2735 26.427 40.9995C26.427 40.7255 26.3304 40.4625 26.1581 40.2671C25.9828 40.075 25.7469 39.9674 25.5011 39.9674C25.2553 39.9674 25.0193 40.075 24.8441 40.2671C24.6717 40.4625 24.5751 40.7255 24.5751 40.9995C24.5751 41.2735 24.6717 41.5366 24.8441 41.7319Z" fill="#0A3B3C"/>
<path id="Vector_8" d="M37.8641 46.5254C38.0394 46.7175 38.2753 46.8251 38.5211 46.8251C38.7669 46.8251 39.0029 46.7175 39.1781 46.5254C39.3502 46.3299 39.4466 46.0669 39.4466 45.793C39.4466 45.5191 39.3502 45.2561 39.1781 45.0606C39.0029 44.8685 38.7669 44.7608 38.5211 44.7608C38.2753 44.7608 38.0394 44.8685 37.8641 45.0606C37.6918 45.2559 37.5952 45.519 37.5952 45.793C37.5952 46.067 37.6918 46.33 37.8641 46.5254ZM33.5641 41.7319C33.7394 41.924 33.9753 42.0317 34.2211 42.0317C34.4669 42.0317 34.7029 41.924 34.8781 41.7319C35.0504 41.5366 35.147 41.2735 35.147 40.9995C35.147 40.7255 35.0504 40.4625 34.8781 40.2671C34.7029 40.075 34.4669 39.9673 34.2211 39.9673C33.9753 39.9673 33.7394 40.075 33.5641 40.2671C33.3918 40.4625 33.2952 40.7255 33.2952 40.9995C33.2952 41.2735 33.3918 41.5366 33.5641 41.7319ZM29.1441 36.8047C29.3194 36.9968 29.5553 37.1045 29.8011 37.1045C30.0469 37.1045 30.2829 36.9968 30.4581 36.8047C30.6302 36.6092 30.7266 36.3462 30.7266 36.0723C30.7266 35.7984 30.6302 35.5354 30.4581 35.3399C30.2829 35.1478 30.0469 35.0401 29.8011 35.0401C29.5553 35.0401 29.3194 35.1478 29.1441 35.3399C28.7861 35.8728 28.7861 36.4056 29.1441 36.8047ZM20.5441 65.8329C20.7194 66.025 20.9553 66.1327 21.2011 66.1327C21.4469 66.1327 21.6829 66.025 21.8581 65.8329C22.0302 65.6374 22.1266 65.3744 22.1266 65.1005C22.1266 64.8266 22.0302 64.5636 21.8581 64.3681C21.6829 64.176 21.4469 64.0683 21.2011 64.0683C20.9553 64.0683 20.7194 64.176 20.5441 64.3681C20.3718 64.5635 20.2752 64.8265 20.2752 65.1005C20.2752 65.3745 20.3718 65.6375 20.5441 65.8329ZM16.1241 61.0395C16.2995 61.2313 16.5354 61.3388 16.7811 61.3388C17.0268 61.3388 17.2627 61.2313 17.4381 61.0395C17.6104 60.8441 17.707 60.5811 17.707 60.3071C17.707 60.0331 17.6104 59.77 17.4381 59.5747C17.2629 59.3825 17.0269 59.2749 16.7811 59.2749C16.5353 59.2749 16.2994 59.3825 16.1241 59.5747C15.9518 59.77 15.8552 60.0331 15.8552 60.3071C15.8552 60.5811 15.9518 60.8441 16.1241 61.0395ZM24.8441 61.0395C25.0194 61.2316 25.2553 61.3392 25.5011 61.3392C25.7469 61.3392 25.9829 61.2316 26.1581 61.0395C26.3305 60.8441 26.427 60.5811 26.427 60.3071C26.427 60.0331 26.3305 59.77 26.1581 59.5747C25.9829 59.3825 25.7469 59.2749 25.5011 59.2749C25.2553 59.2749 25.0194 59.3825 24.8441 59.5747C24.6718 59.77 24.5752 60.0331 24.5752 60.3071C24.5752 60.5811 24.6718 60.8441 24.8441 61.0395ZM20.5441 56.246C20.7194 56.4381 20.9553 56.5458 21.2011 56.5458C21.4469 56.5458 21.6829 56.4381 21.8581 56.246C22.0304 56.0507 22.127 55.7876 22.127 55.5136C22.127 55.2396 22.0304 54.9766 21.8581 54.7812C21.6829 54.5891 21.4469 54.4814 21.2011 54.4814C20.9553 54.4814 20.7194 54.5891 20.5441 54.7812C20.3718 54.9766 20.2752 55.2396 20.2752 55.5136C20.2752 55.7876 20.3718 56.0507 20.5441 56.246ZM16.1241 56.246C16.2994 56.4381 16.5353 56.5458 16.7811 56.5458C17.0269 56.5458 17.2629 56.4381 17.4381 56.246C17.6104 56.0507 17.707 55.7876 17.707 55.5136C17.707 55.2396 17.6104 54.9766 17.4381 54.7812C17.2629 54.5891 17.0269 54.4814 16.7811 54.4814C16.5353 54.4814 16.2994 54.5891 16.1241 54.7812C15.9518 54.9766 15.8552 55.2396 15.8552 55.5136C15.8552 55.7876 15.9518 56.0507 16.1241 56.246ZM20.5441 61.0395C20.7194 61.2316 20.9553 61.3392 21.2011 61.3392C21.4469 61.3392 21.6829 61.2316 21.8581 61.0395C22.0304 60.8441 22.127 60.5811 22.127 60.3071C22.127 60.0331 22.0304 59.77 21.8581 59.5747C21.6829 59.3825 21.4469 59.2749 21.2011 59.2749C20.9553 59.2749 20.7194 59.3825 20.5441 59.5747C20.3718 59.77 20.2752 60.0331 20.2752 60.3071C20.2752 60.5811 20.3718 60.8441 20.5441 61.0395ZM20.5441 51.3188C20.7194 51.5109 20.9553 51.6186 21.2011 51.6186C21.4469 51.6186 21.6829 51.5109 21.8581 51.3188C22.0302 51.1233 22.1266 50.8603 22.1266 50.5864C22.1266 50.3125 22.0302 50.0495 21.8581 49.854C21.6829 49.6619 21.4469 49.5542 21.2011 49.5542C20.9553 49.5542 20.7194 49.6619 20.5441 49.854C20.3718 50.0494 20.2752 50.3124 20.2752 50.5864C20.2752 50.8604 20.3718 51.1234 20.5441 51.3188ZM24.8441 56.246C25.0194 56.4381 25.2553 56.5458 25.5011 56.5458C25.7469 56.5458 25.9829 56.4381 26.1581 56.246C26.3305 56.0507 26.427 55.7876 26.427 55.5136C26.427 55.2396 26.3305 54.9766 26.1581 54.7812C25.9829 54.5891 25.7469 54.4814 25.5011 54.4814C25.2553 54.4814 25.0194 54.5891 24.8441 54.7812C24.6718 54.9766 24.5752 55.2396 24.5752 55.5136C24.5752 55.7876 24.6718 56.0507 24.8441 56.246ZM11.8241 56.246C11.9994 56.4381 12.2353 56.5458 12.4811 56.5458C12.7269 56.5458 12.9629 56.4381 13.1381 56.246C13.3104 56.0507 13.407 55.7876 13.407 55.5136C13.407 55.2396 13.3104 54.9766 13.1381 54.7812C12.9629 54.5891 12.7269 54.4814 12.4811 54.4814C12.2353 54.4814 11.9994 54.5891 11.8241 54.7812C11.6518 54.9766 11.5552 55.2396 11.5552 55.5136C11.5552 55.7876 11.6518 56.0507 11.8241 56.246ZM16.1241 51.3188C16.2995 51.5107 16.5354 51.6181 16.7811 51.6181C17.0268 51.6181 17.2627 51.5107 17.4381 51.3188C17.6102 51.1233 17.7066 50.8603 17.7066 50.5864C17.7066 50.3125 17.6102 50.0495 17.4381 49.854C17.2627 49.6622 17.0268 49.5547 16.7811 49.5547C16.5354 49.5547 16.2995 49.6622 16.1241 49.854C15.952 50.0495 15.8556 50.3125 15.8556 50.5864C15.8556 50.8603 15.952 51.1233 16.1241 51.3188ZM29.1441 56.246C29.3194 56.4381 29.5553 56.5458 29.8011 56.5458C30.0469 56.5458 30.2829 56.4381 30.4581 56.246C30.6304 56.0507 30.727 55.7876 30.727 55.5136C30.727 55.2396 30.6304 54.9766 30.4581 54.7812C30.2829 54.5891 30.0469 54.4814 29.8011 54.4814C29.5553 54.4814 29.3194 54.5891 29.1441 54.7812C28.9718 54.9766 28.8752 55.2396 28.8752 55.5136C28.8752 55.7876 28.9718 56.0507 29.1441 56.246ZM24.8441 51.3188C25.0194 51.5109 25.2553 51.6186 25.5011 51.6186C25.7469 51.6186 25.9829 51.5109 26.1581 51.3188C26.3305 51.1234 26.427 50.8604 26.427 50.5864C26.427 50.3124 26.3305 50.0494 26.1581 49.854C25.9829 49.6619 25.7469 49.5542 25.5011 49.5542C25.2553 49.5542 25.0194 49.6619 24.8441 49.854C24.672 50.0495 24.5756 50.3125 24.5756 50.5864C24.5756 50.8603 24.672 51.1233 24.8441 51.3188ZM20.5441 46.5254C20.7194 46.7175 20.9553 46.8251 21.2011 46.8251C21.4469 46.8251 21.6829 46.7175 21.8581 46.5254C22.0302 46.3299 22.1266 46.0669 22.1266 45.793C22.1266 45.5191 22.0302 45.2561 21.8581 45.0606C21.6829 44.8685 21.4469 44.7608 21.2011 44.7608C20.9553 44.7608 20.7194 44.8685 20.5441 45.0606C20.3718 45.2559 20.2752 45.519 20.2752 45.793C20.2752 46.067 20.3718 46.33 20.5441 46.5254ZM46.5841 17.4972C46.7594 17.6893 46.9953 17.797 47.2411 17.797C47.4869 17.797 47.7229 17.6893 47.8981 17.4972C48.0704 17.3018 48.167 17.0388 48.167 16.7648C48.167 16.4908 48.0704 16.2277 47.8981 16.0324C47.7229 15.8403 47.4869 15.7326 47.2411 15.7326C46.9953 15.7326 46.7594 15.8403 46.5841 16.0324C46.2261 16.4315 46.1061 17.0981 46.5841 17.4972ZM42.1641 12.7037C42.3394 12.8958 42.5753 13.0035 42.8211 13.0035C43.0669 13.0035 43.3029 12.8958 43.4781 12.7037C43.6504 12.5084 43.747 12.2453 43.747 11.9713C43.747 11.6973 43.6504 11.4343 43.4781 11.2389C43.3029 11.0468 43.0669 10.9391 42.8211 10.9391C42.5753 10.9391 42.3394 11.0468 42.1641 11.2389C41.992 11.4344 41.8956 11.6974 41.8956 11.9713C41.8956 12.2452 41.992 12.5082 42.1641 12.7037ZM50.8841 12.7037C51.0595 12.8956 51.2954 13.0031 51.5411 13.0031C51.7868 13.0031 52.0227 12.8956 52.1981 12.7037C52.3704 12.5084 52.467 12.2453 52.467 11.9713C52.467 11.6973 52.3704 11.4343 52.1981 11.2389C52.0227 11.0471 51.7868 10.9396 51.5411 10.9396C51.2954 10.9396 51.0595 11.0471 50.8841 11.2389C50.712 11.4344 50.6156 11.6974 50.6156 11.9713C50.6156 12.2452 50.712 12.5082 50.8841 12.7037ZM46.5841 7.91028C46.7594 8.1024 46.9953 8.21007 47.2411 8.21007C47.4869 8.21007 47.7229 8.1024 47.8981 7.91028C48.0704 7.71492 48.167 7.45189 48.167 7.17789C48.167 6.90388 48.0704 6.64085 47.8981 6.44549C47.7229 6.25337 47.4869 6.1457 47.2411 6.1457C46.9953 6.1457 46.7594 6.25337 46.5841 6.44549C46.1061 6.84457 46.1061 7.51008 46.5841 7.91028ZM42.1641 7.91028C42.3394 8.1024 42.5753 8.21007 42.8211 8.21007C43.0669 8.21007 43.3029 8.1024 43.4781 7.91028C43.6504 7.71492 43.747 7.45189 43.747 7.17789C43.747 6.90388 43.6504 6.64085 43.4781 6.44549C43.3029 6.25337 43.0669 6.1457 42.8211 6.1457C42.5753 6.1457 42.3394 6.25337 42.1641 6.44549C41.9918 6.64085 41.8952 6.90388 41.8952 7.17789C41.8952 7.45189 41.9918 7.71492 42.1641 7.91028ZM46.5841 12.7037C46.7594 12.8958 46.9953 13.0035 47.2411 13.0035C47.4869 13.0035 47.7229 12.8958 47.8981 12.7037C48.0704 12.5084 48.167 12.2453 48.167 11.9713C48.167 11.6973 48.0704 11.4343 47.8981 11.2389C47.7229 11.0468 47.4869 10.9391 47.2411 10.9391C46.9953 10.9391 46.7594 11.0468 46.5841 11.2389C46.1061 11.638 46.1061 12.3035 46.5841 12.7037ZM46.5841 2.98307C46.7594 3.17519 46.9953 3.28286 47.2411 3.28286C47.4869 3.28286 47.7229 3.17519 47.8981 2.98307C48.0704 2.78771 48.167 2.52468 48.167 2.25067C48.167 1.97667 48.0704 1.71364 47.8981 1.51828C47.7229 1.32616 47.4869 1.21849 47.2411 1.21849C46.9953 1.21849 46.7594 1.32616 46.5841 1.51828C46.1061 2.05113 46.1061 2.58399 46.5841 2.98307ZM50.8841 7.91028C51.0595 8.10214 51.2954 8.20962 51.5411 8.20962C51.7868 8.20962 52.0227 8.10214 52.1981 7.91028C52.3704 7.71492 52.467 7.45189 52.467 7.17789C52.467 6.90388 52.3704 6.64085 52.1981 6.44549C52.0227 6.25364 51.7868 6.14615 51.5411 6.14615C51.2954 6.14615 51.0595 6.25364 50.8841 6.44549C50.7118 6.64085 50.6152 6.90388 50.6152 7.17789C50.6152 7.45189 50.7118 7.71492 50.8841 7.91028ZM37.8641 7.91028C38.0394 8.1024 38.2753 8.21007 38.5211 8.21007C38.7669 8.21007 39.0029 8.1024 39.1781 7.91028C39.3505 7.71492 39.447 7.45189 39.447 7.17789C39.447 6.90388 39.3505 6.64085 39.1781 6.44549C39.0029 6.25337 38.7669 6.1457 38.5211 6.1457C38.2753 6.1457 38.0394 6.25337 37.8641 6.44549C37.6918 6.64085 37.5952 6.90388 37.5952 7.17789C37.5952 7.45189 37.6918 7.71492 37.8641 7.91028ZM42.1641 2.98307C42.3394 3.17519 42.5753 3.28286 42.8211 3.28286C43.0669 3.28286 43.3029 3.17519 43.4781 2.98307C43.6504 2.78771 43.747 2.52468 43.747 2.25067C43.747 1.97667 43.6504 1.71364 43.4781 1.51828C43.3029 1.32616 43.0669 1.21849 42.8211 1.21849C42.5753 1.21849 42.3394 1.32616 42.1641 1.51828C41.8061 2.05113 41.8061 2.58399 42.1641 2.98307ZM55.1841 7.91028C55.3594 8.1024 55.5953 8.21007 55.8411 8.21007C56.0869 8.21007 56.3229 8.1024 56.4981 7.91028C56.6704 7.71492 56.767 7.45189 56.767 7.17789C56.767 6.90388 56.6704 6.64085 56.4981 6.44549C56.3229 6.25371 56.0872 6.14625 55.8416 6.14625C55.5961 6.14625 55.3603 6.25371 55.1851 6.44549C55.0128 6.64085 54.9162 6.90388 54.9162 7.17789C54.9162 7.45189 55.0128 7.71492 55.1851 7.91028H55.1841ZM50.8841 2.98307C51.0595 3.17492 51.2954 3.28241 51.5411 3.28241C51.7868 3.28241 52.0227 3.17492 52.1981 2.98307C52.3704 2.78771 52.467 2.52468 52.467 2.25067C52.467 1.97667 52.3704 1.71364 52.1981 1.51828C52.0227 1.32642 51.7868 1.21894 51.5411 1.21894C51.2954 1.21894 51.0595 1.32642 50.8841 1.51828C50.5261 2.05113 50.5261 2.58399 50.8841 2.98307ZM46.5841 -1.81038C46.7594 -1.61825 46.9953 -1.51059 47.2411 -1.51059C47.4869 -1.51059 47.7229 -1.61825 47.8981 -1.81038C48.0704 -2.00574 48.167 -2.26877 48.167 -2.54277C48.167 -2.81677 48.0704 -3.0798 47.8981 -3.27516C47.7229 -3.46729 47.4869 -3.57495 47.2411 -3.57495C46.9953 -3.57495 46.7594 -3.46729 46.5841 -3.27516C46.2261 -2.87608 46.1061 -2.21057 46.5841 -1.81038ZM37.8641 27.2178C38.0394 27.4099 38.2753 27.5176 38.5211 27.5176C38.7669 27.5176 39.0029 27.4099 39.1781 27.2178C39.3505 27.0225 39.447 26.7594 39.447 26.4854C39.447 26.2114 39.3505 25.9484 39.1781 25.753C39.0029 25.5609 38.7669 25.4532 38.5211 25.4532C38.2753 25.4532 38.0394 25.5609 37.8641 25.753C37.6918 25.9484 37.5952 26.2114 37.5952 26.4854C37.5952 26.7594 37.6918 27.0225 37.8641 27.2178ZM33.5641 22.4244C33.7394 22.6165 33.9753 22.7242 34.2211 22.7242C34.4669 22.7242 34.7029 22.6165 34.8781 22.4244C35.0504 22.229 35.147 21.966 35.147 21.692C35.147 21.418 35.0504 21.155 34.8781 20.9596C34.7029 20.7675 34.4669 20.6598 34.2211 20.6598C33.9753 20.6598 33.7394 20.7675 33.5641 20.9596C33.3918 21.155 33.2952 21.418 33.2952 21.692C33.2952 21.966 33.3918 22.229 33.5641 22.4244ZM42.1641 22.4244C42.3394 22.6165 42.5753 22.7242 42.8211 22.7242C43.0669 22.7242 43.3029 22.6165 43.4781 22.4244C43.6504 22.229 43.747 21.966 43.747 21.692C43.747 21.418 43.6504 21.155 43.4781 20.9596C43.3029 20.7675 43.0669 20.6598 42.8211 20.6598C42.5753 20.6598 42.3394 20.7675 42.1641 20.9596C41.9918 21.155 41.8952 21.418 41.8952 21.692C41.8952 21.966 41.9918 22.229 42.1641 22.4244ZM37.8641 17.4972C38.0394 17.6893 38.2753 17.797 38.5211 17.797C38.7669 17.797 39.0029 17.6893 39.1781 17.4972C39.3502 17.3017 39.4466 17.0387 39.4466 16.7648C39.4466 16.4909 39.3502 16.2279 39.1781 16.0324C39.0029 15.8403 38.7669 15.7326 38.5211 15.7326C38.2753 15.7326 38.0394 15.8403 37.8641 16.0324C37.6918 16.2277 37.5952 16.4908 37.5952 16.7648C37.5952 17.0388 37.6918 17.3018 37.8641 17.4972ZM33.5641 17.4972C33.7395 17.689 33.9754 17.7965 34.2211 17.7965C34.4668 17.7965 34.7027 17.689 34.8781 17.4972C35.0504 17.3018 35.147 17.0388 35.147 16.7648C35.147 16.4908 35.0504 16.2277 34.8781 16.0324C34.7027 15.8405 34.4668 15.733 34.2211 15.733C33.9754 15.733 33.7395 15.8405 33.5641 16.0324C33.3918 16.2277 33.2952 16.4908 33.2952 16.7648C33.2952 17.0388 33.3918 17.3018 33.5641 17.4972ZM37.8641 22.4244C38.0394 22.6165 38.2753 22.7242 38.5211 22.7242C38.7669 22.7242 39.0029 22.6165 39.1781 22.4244C39.3505 22.229 39.447 21.966 39.447 21.692C39.447 21.418 39.3505 21.155 39.1781 20.9596C39.0029 20.7675 38.7669 20.6598 38.5211 20.6598C38.2753 20.6598 38.0394 20.7675 37.8641 20.9596C37.6918 21.155 37.5952 21.418 37.5952 21.692C37.5952 21.966 37.6918 22.229 37.8641 22.4244ZM37.8641 12.7037C38.0394 12.8958 38.2753 13.0035 38.5211 13.0035C38.7669 13.0035 39.0029 12.8958 39.1781 12.7037C39.3502 12.5082 39.4466 12.2452 39.4466 11.9713C39.4466 11.6974 39.3502 11.4344 39.1781 11.2389C39.0029 11.0468 38.7669 10.9391 38.5211 10.9391C38.2753 10.9391 38.0394 11.0468 37.8641 11.2389C37.6918 11.4343 37.5952 11.6973 37.5952 11.9713C37.5952 12.2453 37.6918 12.5084 37.8641 12.7037ZM42.1641 17.4972C42.3394 17.6893 42.5753 17.797 42.8211 17.797C43.0669 17.797 43.3029 17.6893 43.4781 17.4972C43.6504 17.3018 43.747 17.0388 43.747 16.7648C43.747 16.4908 43.6504 16.2277 43.4781 16.0324C43.3029 15.8403 43.0669 15.7326 42.8211 15.7326C42.5753 15.7326 42.3394 15.8403 42.1641 16.0324C41.992 16.2279 41.8956 16.4909 41.8956 16.7648C41.8956 17.0387 41.992 17.3017 42.1641 17.4972ZM29.1441 17.4972C29.3194 17.6893 29.5553 17.797 29.8011 17.797C30.0469 17.797 30.2829 17.6893 30.4581 17.4972C30.6302 17.3017 30.7266 17.0387 30.7266 16.7648C30.7266 16.4909 30.6302 16.2279 30.4581 16.0324C30.2829 15.8403 30.0469 15.7326 29.8011 15.7326C29.5553 15.7326 29.3194 15.8403 29.1441 16.0324C28.9718 16.2277 28.8752 16.4908 28.8752 16.7648C28.8752 17.0388 28.9718 17.3018 29.1441 17.4972ZM33.5641 12.7037C33.7395 12.8956 33.9754 13.0031 34.2211 13.0031C34.4668 13.0031 34.7027 12.8956 34.8781 12.7037C35.0504 12.5084 35.147 12.2453 35.147 11.9713C35.147 11.6973 35.0504 11.4343 34.8781 11.2389C34.7029 11.0468 34.4669 10.9391 34.2211 10.9391C33.9753 10.9391 33.7394 11.0468 33.5641 11.2389C33.3918 11.4343 33.2952 11.6973 33.2952 11.9713C33.2952 12.2453 33.3918 12.5084 33.5641 12.7037Z" fill="#0A3B3C"/>
<path id="Vector_9" d="M46.5842 17.4972C46.7594 17.6893 46.9954 17.7969 47.2412 17.7969C47.487 17.7969 47.7229 17.6893 47.8982 17.4972C48.0705 17.3018 48.1671 17.0388 48.1671 16.7648C48.1671 16.4908 48.0705 16.2277 47.8982 16.0324C47.7229 15.8402 47.487 15.7326 47.2412 15.7326C46.9954 15.7326 46.7594 15.8402 46.5842 16.0324C46.2262 16.4314 46.1062 17.0981 46.5842 17.4972ZM42.1642 12.7037C42.3394 12.8958 42.5754 13.0035 42.8212 13.0035C43.067 13.0035 43.3029 12.8958 43.4782 12.7037C43.6505 12.5083 43.7471 12.2453 43.7471 11.9713C43.7471 11.6973 43.6505 11.4343 43.4782 11.2389C43.3029 11.0468 43.067 10.9391 42.8212 10.9391C42.5754 10.9391 42.3394 11.0468 42.1642 11.2389C41.9921 11.4344 41.8956 11.6974 41.8956 11.9713C41.8956 12.2452 41.9921 12.5082 42.1642 12.7037ZM37.8642 7.91027C38.0394 8.10239 38.2754 8.21006 38.5212 8.21006C38.767 8.21006 39.0029 8.10239 39.1782 7.91027C39.3505 7.71491 39.4471 7.45188 39.4471 7.17787C39.4471 6.90387 39.3505 6.64084 39.1782 6.44548C39.0029 6.25336 38.767 6.14569 38.5212 6.14569C38.2754 6.14569 38.0394 6.25336 37.8642 6.44548C37.6918 6.64084 37.5952 6.90387 37.5952 7.17787C37.5952 7.45188 37.6918 7.71491 37.8642 7.91027ZM29.1442 36.8047C29.3194 36.9968 29.5554 37.1045 29.8012 37.1045C30.047 37.1045 30.2829 36.9968 30.4582 36.8047C30.6303 36.6092 30.7267 36.3462 30.7267 36.0723C30.7267 35.7984 30.6303 35.5354 30.4582 35.3399C30.2829 35.1478 30.047 35.0401 29.8012 35.0401C29.5554 35.0401 29.3194 35.1478 29.1442 35.3399C28.7862 35.8728 28.7862 36.4056 29.1442 36.8047ZM24.8442 32.0112C25.0194 32.2034 25.2554 32.311 25.5012 32.311C25.747 32.311 25.9829 32.2034 26.1582 32.0112C26.3305 31.8159 26.4271 31.5529 26.4271 31.2789C26.4271 31.0049 26.3305 30.7418 26.1582 30.5465C25.9829 30.3543 25.747 30.2467 25.5012 30.2467C25.2554 30.2467 25.0194 30.3543 24.8442 30.5465C24.6721 30.742 24.5756 31.0049 24.5756 31.2789C24.5756 31.5528 24.6721 31.8157 24.8442 32.0112ZM33.5642 32.0112C33.7395 32.2031 33.9754 32.3106 34.2212 32.3106C34.4669 32.3106 34.7028 32.2031 34.8782 32.0112C35.0505 31.8159 35.1471 31.5529 35.1471 31.2789C35.1471 31.0049 35.0505 30.7418 34.8782 30.5465C34.7028 30.3546 34.4669 30.2471 34.2212 30.2471C33.9754 30.2471 33.7395 30.3546 33.5642 30.5465C33.3918 30.7418 33.2952 31.0049 33.2952 31.2789C33.2952 31.5529 33.3918 31.8159 33.5642 32.0112ZM29.1442 27.2178C29.3194 27.4099 29.5554 27.5176 29.8012 27.5176C30.047 27.5176 30.2829 27.4099 30.4582 27.2178C30.6305 27.0224 30.7271 26.7594 30.7271 26.4854C30.7271 26.2114 30.6305 25.9484 30.4582 25.753C30.2829 25.5609 30.047 25.4532 29.8012 25.4532C29.5554 25.4532 29.3194 25.5609 29.1442 25.753C28.9718 25.9484 28.8752 26.2114 28.8752 26.4854C28.8752 26.7594 28.9718 27.0224 29.1442 27.2178ZM24.8442 27.2178C25.0194 27.4099 25.2554 27.5176 25.5012 27.5176C25.747 27.5176 25.9829 27.4099 26.1582 27.2178C26.3305 27.0224 26.4271 26.7594 26.4271 26.4854C26.4271 26.2114 26.3305 25.9484 26.1582 25.753C25.9829 25.5609 25.747 25.4532 25.5012 25.4532C25.2554 25.4532 25.0194 25.5609 24.8442 25.753C24.6718 25.9484 24.5752 26.2114 24.5752 26.4854C24.5752 26.7594 24.6718 27.0224 24.8442 27.2178ZM29.1442 32.0112C29.3194 32.2034 29.5554 32.311 29.8012 32.311C30.047 32.311 30.2829 32.2034 30.4582 32.0112C30.6303 31.8157 30.7267 31.5528 30.7267 31.2789C30.7267 31.0049 30.6303 30.742 30.4582 30.5465C30.2829 30.3543 30.047 30.2467 29.8012 30.2467C29.5554 30.2467 29.3194 30.3543 29.1442 30.5465C28.9718 30.7418 28.8752 31.0049 28.8752 31.2789C28.8752 31.5529 28.9718 31.8159 29.1442 32.0112ZM29.1442 22.4244C29.3194 22.6165 29.5554 22.7242 29.8012 22.7242C30.047 22.7242 30.2829 22.6165 30.4582 22.4244C30.6305 22.229 30.7271 21.966 30.7271 21.692C30.7271 21.418 30.6305 21.1549 30.4582 20.9596C30.2829 20.7675 30.047 20.6598 29.8012 20.6598C29.5554 20.6598 29.3194 20.7675 29.1442 20.9596C28.9718 21.1549 28.8752 21.418 28.8752 21.692C28.8752 21.966 28.9718 22.229 29.1442 22.4244ZM33.5642 27.2178C33.7395 27.4097 33.9754 27.5171 34.2212 27.5171C34.4669 27.5171 34.7028 27.4097 34.8782 27.2178C35.0505 27.0224 35.1471 26.7594 35.1471 26.4854C35.1471 26.2114 35.0505 25.9484 34.8782 25.753C34.7029 25.5609 34.467 25.4532 34.2212 25.4532C33.9754 25.4532 33.7394 25.5609 33.5642 25.753C33.3918 25.9484 33.2952 26.2114 33.2952 26.4854C33.2952 26.7594 33.3918 27.0224 33.5642 27.2178ZM20.5442 27.2178C20.7194 27.4099 20.9554 27.5176 21.2012 27.5176C21.447 27.5176 21.6829 27.4099 21.8582 27.2178C22.0305 27.0224 22.1271 26.7594 22.1271 26.4854C22.1271 26.2114 22.0305 25.9484 21.8582 25.753C21.6829 25.5609 21.447 25.4532 21.2012 25.4532C20.9554 25.4532 20.7194 25.5609 20.5442 25.753C20.3718 25.9484 20.2752 26.2114 20.2752 26.4854C20.2752 26.7594 20.3718 27.0224 20.5442 27.2178ZM24.8442 22.4244C25.0194 22.6165 25.2554 22.7242 25.5012 22.7242C25.747 22.7242 25.9829 22.6165 26.1582 22.4244C26.3305 22.229 26.4271 21.966 26.4271 21.692C26.4271 21.418 26.3305 21.1549 26.1582 20.9596C25.9829 20.7675 25.747 20.6598 25.5012 20.6598C25.2554 20.6598 25.0194 20.7675 24.8442 20.9596C24.6718 21.1549 24.5752 21.418 24.5752 21.692C24.5752 21.966 24.6718 22.229 24.8442 22.4244ZM37.8642 27.2178C38.0394 27.4099 38.2754 27.5176 38.5212 27.5176C38.767 27.5176 39.0029 27.4099 39.1782 27.2178C39.3505 27.0224 39.4471 26.7594 39.4471 26.4854C39.4471 26.2114 39.3505 25.9484 39.1782 25.753C39.0029 25.5609 38.767 25.4532 38.5212 25.4532C38.2754 25.4532 38.0394 25.5609 37.8642 25.753C37.6918 25.9484 37.5952 26.2114 37.5952 26.4854C37.5952 26.7594 37.6918 27.0224 37.8642 27.2178ZM33.5642 22.4244C33.7394 22.6165 33.9754 22.7242 34.2212 22.7242C34.467 22.7242 34.7029 22.6165 34.8782 22.4244C35.0505 22.229 35.1471 21.966 35.1471 21.692C35.1471 21.418 35.0505 21.1549 34.8782 20.9596C34.7029 20.7675 34.467 20.6598 34.2212 20.6598C33.9754 20.6598 33.7394 20.7675 33.5642 20.9596C33.3918 21.1549 33.2952 21.418 33.2952 21.692C33.2952 21.966 33.3918 22.229 33.5642 22.4244ZM29.1442 17.4972C29.3194 17.6893 29.5554 17.7969 29.8012 17.7969C30.047 17.7969 30.2829 17.6893 30.4582 17.4972C30.6303 17.3017 30.7267 17.0387 30.7267 16.7648C30.7267 16.4908 30.6303 16.2279 30.4582 16.0324C30.2829 15.8402 30.047 15.7326 29.8012 15.7326C29.5554 15.7326 29.3194 15.8402 29.1442 16.0324C28.9718 16.2277 28.8752 16.4908 28.8752 16.7648C28.8752 17.0388 28.9718 17.3018 29.1442 17.4972ZM20.5442 46.5253C20.7194 46.7175 20.9554 46.8251 21.2012 46.8251C21.447 46.8251 21.6829 46.7175 21.8582 46.5253C22.0303 46.3298 22.1267 46.0669 22.1267 45.793C22.1267 45.519 22.0303 45.2561 21.8582 45.0606C21.6829 44.8684 21.447 44.7608 21.2012 44.7608C20.9554 44.7608 20.7194 44.8684 20.5442 45.0606C20.3718 45.2559 20.2752 45.5189 20.2752 45.793C20.2752 46.067 20.3718 46.33 20.5442 46.5253ZM16.1242 41.7319C16.2994 41.924 16.5354 42.0317 16.7812 42.0317C17.027 42.0317 17.2629 41.924 17.4382 41.7319C17.6105 41.5365 17.7071 41.2735 17.7071 40.9995C17.7071 40.7255 17.6105 40.4625 17.4382 40.2671C17.2629 40.075 17.027 39.9673 16.7812 39.9673C16.5354 39.9673 16.2994 40.075 16.1242 40.2671C15.9518 40.4625 15.8552 40.7255 15.8552 40.9995C15.8552 41.2735 15.9518 41.5365 16.1242 41.7319ZM24.8442 41.7319C25.0194 41.924 25.2554 42.0317 25.5012 42.0317C25.747 42.0317 25.9829 41.924 26.1582 41.7319C26.3305 41.5365 26.4271 41.2735 26.4271 40.9995C26.4271 40.7255 26.3305 40.4625 26.1582 40.2671C25.9829 40.075 25.747 39.9673 25.5012 39.9673C25.2554 39.9673 25.0194 40.075 24.8442 40.2671C24.6718 40.4625 24.5752 40.7255 24.5752 40.9995C24.5752 41.2735 24.6718 41.5365 24.8442 41.7319ZM20.5442 36.8047C20.7194 36.9968 20.9554 37.1045 21.2012 37.1045C21.447 37.1045 21.6829 36.9968 21.8582 36.8047C22.0303 36.6092 22.1267 36.3462 22.1267 36.0723C22.1267 35.7984 22.0303 35.5354 21.8582 35.3399C21.6829 35.1478 21.447 35.0401 21.2012 35.0401C20.9554 35.0401 20.7194 35.1478 20.5442 35.3399C20.1862 35.8728 20.1862 36.4056 20.5442 36.8047ZM16.1242 36.8047C16.2995 36.9965 16.5354 37.104 16.7812 37.104C17.0269 37.104 17.2628 36.9965 17.4382 36.8047C17.6103 36.6092 17.7067 36.3462 17.7067 36.0723C17.7067 35.7984 17.6103 35.5354 17.4382 35.3399C17.2628 35.148 17.0269 35.0406 16.7812 35.0406C16.5354 35.0406 16.2995 35.148 16.1242 35.3399C15.7662 35.8728 15.7662 36.4056 16.1242 36.8047ZM20.5442 41.7319C20.7194 41.924 20.9554 42.0317 21.2012 42.0317C21.447 42.0317 21.6829 41.924 21.8582 41.7319C22.0305 41.5365 22.1271 41.2735 22.1271 40.9995C22.1271 40.7255 22.0305 40.4625 21.8582 40.2671C21.6829 40.075 21.447 39.9673 21.2012 39.9673C20.9554 39.9673 20.7194 40.075 20.5442 40.2671C20.3718 40.4625 20.2752 40.7255 20.2752 40.9995C20.2752 41.2735 20.3718 41.5365 20.5442 41.7319ZM20.5442 32.0112C20.7194 32.2034 20.9554 32.311 21.2012 32.311C21.447 32.311 21.6829 32.2034 21.8582 32.0112C22.0303 31.8157 22.1267 31.5528 22.1267 31.2789C22.1267 31.0049 22.0303 30.742 21.8582 30.5465C21.6829 30.3543 21.447 30.2467 21.2012 30.2467C20.9554 30.2467 20.7194 30.3543 20.5442 30.5465C20.3718 30.7418 20.2752 31.0049 20.2752 31.2789C20.2752 31.5529 20.3718 31.8159 20.5442 32.0112ZM24.8442 36.8047C25.0194 36.9968 25.2554 37.1045 25.5012 37.1045C25.747 37.1045 25.9829 36.9968 26.1582 36.8047C26.3305 36.6093 26.4271 36.3463 26.4271 36.0723C26.4271 35.7983 26.3305 35.5353 26.1582 35.3399C25.9829 35.1478 25.747 35.0401 25.5012 35.0401C25.2554 35.0401 25.0194 35.1478 24.8442 35.3399C24.4862 35.8728 24.4862 36.4056 24.8442 36.8047ZM11.8242 36.8047C11.9994 36.9968 12.2354 37.1045 12.4812 37.1045C12.727 37.1045 12.9629 36.9968 13.1382 36.8047C13.3103 36.6092 13.4067 36.3462 13.4067 36.0723C13.4067 35.7984 13.3103 35.5354 13.1382 35.3399C12.9629 35.1478 12.727 35.0401 12.4812 35.0401C12.2354 35.0401 11.9994 35.1478 11.8242 35.3399C11.4662 35.8728 11.4662 36.4056 11.8242 36.8047ZM16.1242 32.0112C16.2995 32.2031 16.5354 32.3106 16.7812 32.3106C17.0269 32.3106 17.2628 32.2031 17.4382 32.0112C17.6103 31.8157 17.7067 31.5528 17.7067 31.2789C17.7067 31.0049 17.6103 30.742 17.4382 30.5465C17.2628 30.3546 17.0269 30.2471 16.7812 30.2471C16.5354 30.2471 16.2995 30.3546 16.1242 30.5465C15.9521 30.742 15.8556 31.0049 15.8556 31.2789C15.8556 31.5528 15.9521 31.8157 16.1242 32.0112Z" fill="#0A3B3C"/>
<path id="Vector_10" d="M29.1441 36.8047C29.3193 36.9968 29.5553 37.1045 29.8011 37.1045C30.0469 37.1045 30.2828 36.9968 30.4581 36.8047C30.6302 36.6092 30.7266 36.3462 30.7266 36.0723C30.7266 35.7984 30.6302 35.5354 30.4581 35.3399C30.2828 35.1478 30.0469 35.0401 29.8011 35.0401C29.5553 35.0401 29.3193 35.1478 29.1441 35.3399C28.7861 35.8728 28.7861 36.4056 29.1441 36.8047ZM24.8441 32.0113C25.0193 32.2034 25.2553 32.3111 25.5011 32.3111C25.7469 32.3111 25.9828 32.2034 26.1581 32.0113C26.3304 31.8159 26.427 31.5529 26.427 31.2789C26.427 31.0049 26.3304 30.7418 26.1581 30.5465C25.9828 30.3544 25.7469 30.2467 25.5011 30.2467C25.2553 30.2467 25.0193 30.3544 24.8441 30.5465C24.672 30.742 24.5755 31.005 24.5755 31.2789C24.5755 31.5528 24.672 31.8158 24.8441 32.0113ZM20.5441 27.2178C20.7193 27.4099 20.9553 27.5176 21.2011 27.5176C21.4469 27.5176 21.6828 27.4099 21.8581 27.2178C22.0304 27.0225 22.127 26.7594 22.127 26.4854C22.127 26.2114 22.0304 25.9484 21.8581 25.753C21.6828 25.5609 21.4469 25.4532 21.2011 25.4532C20.9553 25.4532 20.7193 25.5609 20.5441 25.753C20.3717 25.9484 20.2751 26.2114 20.2751 26.4854C20.2751 26.7594 20.3717 27.0225 20.5441 27.2178ZM29.1441 17.4972C29.3193 17.6893 29.5553 17.797 29.8011 17.797C30.0469 17.797 30.2828 17.6893 30.4581 17.4972C30.6302 17.3017 30.7266 17.0387 30.7266 16.7648C30.7266 16.4909 30.6302 16.2279 30.4581 16.0324C30.2828 15.8403 30.0469 15.7326 29.8011 15.7326C29.5553 15.7326 29.3193 15.8403 29.1441 16.0324C28.9717 16.2277 28.8751 16.4908 28.8751 16.7648C28.8751 17.0388 28.9717 17.3018 29.1441 17.4972ZM24.8441 12.7037C25.0193 12.8958 25.2553 13.0035 25.5011 13.0035C25.7469 13.0035 25.9828 12.8958 26.1581 12.7037C26.3304 12.5084 26.427 12.2453 26.427 11.9713C26.427 11.6973 26.3304 11.4343 26.1581 11.2389C25.9828 11.0468 25.7469 10.9391 25.5011 10.9391C25.2553 10.9391 25.0193 11.0468 24.8441 11.2389C24.672 11.4344 24.5755 11.6974 24.5755 11.9713C24.5755 12.2452 24.672 12.5082 24.8441 12.7037ZM33.5641 12.7037C33.7394 12.8956 33.9754 13.0031 34.2211 13.0031C34.4668 13.0031 34.7027 12.8956 34.8781 12.7037C35.0504 12.5084 35.147 12.2453 35.147 11.9713C35.147 11.6973 35.0504 11.4343 34.8781 11.2389C34.7028 11.0468 34.4669 10.9391 34.2211 10.9391C33.9753 10.9391 33.7393 11.0468 33.5641 11.2389C33.3917 11.4343 33.2951 11.6973 33.2951 11.9713C33.2951 12.2453 33.3917 12.5084 33.5641 12.7037ZM29.1441 7.91028C29.3193 8.1024 29.5553 8.21007 29.8011 8.21007C30.0469 8.21007 30.2828 8.1024 30.4581 7.91028C30.6304 7.71492 30.727 7.45189 30.727 7.17789C30.727 6.90388 30.6304 6.64085 30.4581 6.44549C30.2828 6.25337 30.0469 6.1457 29.8011 6.1457C29.5553 6.1457 29.3193 6.25337 29.1441 6.44549C28.9717 6.64085 28.8751 6.90388 28.8751 7.17789C28.8751 7.45189 28.9717 7.71492 29.1441 7.91028ZM24.8441 7.91028C25.0193 8.1024 25.2553 8.21007 25.5011 8.21007C25.7469 8.21007 25.9828 8.1024 26.1581 7.91028C26.3304 7.71492 26.427 7.45189 26.427 7.17789C26.427 6.90388 26.3304 6.64085 26.1581 6.44549C25.9828 6.25337 25.7469 6.1457 25.5011 6.1457C25.2553 6.1457 25.0193 6.25337 24.8441 6.44549C24.6717 6.64085 24.5751 6.90388 24.5751 7.17789C24.5751 7.45189 24.6717 7.71492 24.8441 7.91028ZM29.1441 12.7037C29.3193 12.8958 29.5553 13.0035 29.8011 13.0035C30.0469 13.0035 30.2828 12.8958 30.4581 12.7037C30.6302 12.5082 30.7266 12.2452 30.7266 11.9713C30.7266 11.6974 30.6302 11.4344 30.4581 11.2389C30.2828 11.0468 30.0469 10.9391 29.8011 10.9391C29.5553 10.9391 29.3193 11.0468 29.1441 11.2389C28.9717 11.4343 28.8751 11.6973 28.8751 11.9713C28.8751 12.2453 28.9717 12.5084 29.1441 12.7037ZM29.1441 2.98307C29.3193 3.17519 29.5553 3.28286 29.8011 3.28286C30.0469 3.28286 30.2828 3.17519 30.4581 2.98307C30.6304 2.78771 30.727 2.52468 30.727 2.25067C30.727 1.97667 30.6304 1.71364 30.4581 1.51828C30.2828 1.32616 30.0469 1.21849 29.8011 1.21849C29.5553 1.21849 29.3193 1.32616 29.1441 1.51828C28.7861 2.05113 28.7861 2.58399 29.1441 2.98307ZM33.5641 7.91028C33.7393 8.1024 33.9753 8.21007 34.2211 8.21007C34.4669 8.21007 34.7028 8.1024 34.8781 7.91028C35.0504 7.71492 35.147 7.45189 35.147 7.17789C35.147 6.90388 35.0504 6.64085 34.8781 6.44549C34.7028 6.25337 34.4669 6.1457 34.2211 6.1457C33.9753 6.1457 33.7393 6.25337 33.5641 6.44549C33.3917 6.64085 33.2951 6.90388 33.2951 7.17789C33.2951 7.45189 33.3917 7.71492 33.5641 7.91028ZM20.5441 7.91028C20.7193 8.1024 20.9553 8.21007 21.2011 8.21007C21.4469 8.21007 21.6828 8.1024 21.8581 7.91028C22.0304 7.71492 22.127 7.45189 22.127 7.17789C22.127 6.90388 22.0304 6.64085 21.8581 6.44549C21.6828 6.25337 21.4469 6.1457 21.2011 6.1457C20.9553 6.1457 20.7193 6.25337 20.5441 6.44549C20.3717 6.64085 20.2751 6.90388 20.2751 7.17789C20.2751 7.45189 20.3717 7.71492 20.5441 7.91028ZM24.8441 2.98307C25.0193 3.17519 25.2553 3.28286 25.5011 3.28286C25.7469 3.28286 25.9828 3.17519 26.1581 2.98307C26.3304 2.78771 26.427 2.52468 26.427 2.25067C26.427 1.97667 26.3304 1.71364 26.1581 1.51828C25.9828 1.32616 25.7469 1.21849 25.5011 1.21849C25.2553 1.21849 25.0193 1.32616 24.8441 1.51828C24.4861 2.05113 24.4861 2.58399 24.8441 2.98307ZM37.8641 7.91028C38.0393 8.1024 38.2753 8.21007 38.5211 8.21007C38.7669 8.21007 39.0028 8.1024 39.1781 7.91028C39.3504 7.71492 39.447 7.45189 39.447 7.17789C39.447 6.90388 39.3504 6.64085 39.1781 6.44549C39.0028 6.25337 38.7669 6.1457 38.5211 6.1457C38.2753 6.1457 38.0393 6.25337 37.8641 6.44549C37.6917 6.64085 37.5951 6.90388 37.5951 7.17789C37.5951 7.45189 37.6917 7.71492 37.8641 7.91028ZM33.5641 2.98307C33.7393 3.17519 33.9753 3.28286 34.2211 3.28286C34.4669 3.28286 34.7028 3.17519 34.8781 2.98307C35.0504 2.78771 35.147 2.52468 35.147 2.25067C35.147 1.97667 35.0504 1.71364 34.8781 1.51828C34.7028 1.32616 34.4669 1.21849 34.2211 1.21849C33.9753 1.21849 33.7393 1.32616 33.5641 1.51828C33.2061 2.05113 33.2061 2.58399 33.5641 2.98307ZM29.1441 -1.81038C29.3193 -1.61825 29.5553 -1.51059 29.8011 -1.51059C30.0469 -1.51059 30.2828 -1.61825 30.4581 -1.81038C30.6304 -2.00574 30.727 -2.26877 30.727 -2.54277C30.727 -2.81677 30.6304 -3.0798 30.4581 -3.27516C30.2828 -3.46729 30.0469 -3.57495 29.8011 -3.57495C29.5553 -3.57495 29.3193 -3.46729 29.1441 -3.27516C28.9717 -3.0798 28.8751 -2.81677 28.8751 -2.54277C28.8751 -2.26877 28.9717 -2.00574 29.1441 -1.81038Z" fill="#0A3B3C"/>
<path id="Vector_11" d="M20.5441 27.2178C20.7194 27.4099 20.9553 27.5176 21.2011 27.5176C21.4469 27.5176 21.6829 27.4099 21.8581 27.2178C22.0304 27.0224 22.127 26.7594 22.127 26.4854C22.127 26.2114 22.0304 25.9484 21.8581 25.753C21.6829 25.5609 21.4469 25.4532 21.2011 25.4532C20.9553 25.4532 20.7194 25.5609 20.5441 25.753C20.3718 25.9484 20.2752 26.2114 20.2752 26.4854C20.2752 26.7594 20.3718 27.0224 20.5441 27.2178ZM16.1241 22.4244C16.2994 22.6165 16.5353 22.7242 16.7811 22.7242C17.0269 22.7242 17.2629 22.6165 17.4381 22.4244C17.6104 22.229 17.707 21.966 17.707 21.692C17.707 21.418 17.6104 21.1549 17.4381 20.9596C17.2629 20.7675 17.0269 20.6598 16.7811 20.6598C16.5353 20.6598 16.2994 20.7675 16.1241 20.9596C15.9518 21.1549 15.8552 21.418 15.8552 21.692C15.8552 21.966 15.9518 22.229 16.1241 22.4244ZM24.8441 22.4244C25.0194 22.6165 25.2553 22.7242 25.5011 22.7242C25.7469 22.7242 25.9829 22.6165 26.1581 22.4244C26.3305 22.229 26.427 21.966 26.427 21.692C26.427 21.418 26.3305 21.1549 26.1581 20.9596C25.9829 20.7675 25.7469 20.6598 25.5011 20.6598C25.2553 20.6598 25.0194 20.7675 24.8441 20.9596C24.6718 21.1549 24.5752 21.418 24.5752 21.692C24.5752 21.966 24.6718 22.229 24.8441 22.4244ZM20.5441 17.4972C20.7194 17.6893 20.9553 17.7969 21.2011 17.7969C21.4469 17.7969 21.6829 17.6893 21.8581 17.4972C22.0302 17.3017 22.1266 17.0387 22.1266 16.7648C22.1266 16.4908 22.0302 16.2279 21.8581 16.0324C21.6829 15.8402 21.4469 15.7326 21.2011 15.7326C20.9553 15.7326 20.7194 15.8402 20.5441 16.0324C20.3718 16.2277 20.2752 16.4908 20.2752 16.7648C20.2752 17.0388 20.3718 17.3018 20.5441 17.4972ZM16.1241 17.4972C16.2995 17.689 16.5354 17.7965 16.7811 17.7965C17.0268 17.7965 17.2627 17.689 17.4381 17.4972C17.6102 17.3017 17.7066 17.0387 17.7066 16.7648C17.7066 16.4908 17.6102 16.2279 17.4381 16.0324C17.2627 15.8405 17.0268 15.733 16.7811 15.733C16.5354 15.733 16.2995 15.8405 16.1241 16.0324C15.952 16.2279 15.8556 16.4908 15.8556 16.7648C15.8556 17.0387 15.952 17.3017 16.1241 17.4972ZM20.5441 22.4244C20.7194 22.6165 20.9553 22.7242 21.2011 22.7242C21.4469 22.7242 21.6829 22.6165 21.8581 22.4244C22.0304 22.229 22.127 21.966 22.127 21.692C22.127 21.418 22.0304 21.1549 21.8581 20.9596C21.6829 20.7675 21.4469 20.6598 21.2011 20.6598C20.9553 20.6598 20.7194 20.7675 20.5441 20.9596C20.3718 21.1549 20.2752 21.418 20.2752 21.692C20.2752 21.966 20.3718 22.229 20.5441 22.4244ZM20.5441 12.7037C20.7194 12.8958 20.9553 13.0035 21.2011 13.0035C21.4469 13.0035 21.6829 12.8958 21.8581 12.7037C22.0302 12.5082 22.1266 12.2452 22.1266 11.9713C22.1266 11.6974 22.0302 11.4344 21.8581 11.2389C21.6829 11.0468 21.4469 10.9391 21.2011 10.9391C20.9553 10.9391 20.7194 11.0468 20.5441 11.2389C20.3718 11.4343 20.2752 11.6973 20.2752 11.9713C20.2752 12.2453 20.3718 12.5083 20.5441 12.7037ZM24.8441 17.4972C25.0194 17.6893 25.2553 17.7969 25.5011 17.7969C25.7469 17.7969 25.9829 17.6893 26.1581 17.4972C26.3305 17.3018 26.427 17.0388 26.427 16.7648C26.427 16.4908 26.3305 16.2277 26.1581 16.0324C25.9829 15.8402 25.7469 15.7326 25.5011 15.7326C25.2553 15.7326 25.0194 15.8402 24.8441 16.0324C24.672 16.2279 24.5756 16.4908 24.5756 16.7648C24.5756 17.0387 24.672 17.3017 24.8441 17.4972ZM11.8241 17.4972C11.9994 17.6893 12.2353 17.7969 12.4811 17.7969C12.7269 17.7969 12.9629 17.6893 13.1381 17.4972C13.3102 17.3017 13.4066 17.0387 13.4066 16.7648C13.4066 16.4908 13.3102 16.2279 13.1381 16.0324C12.9629 15.8402 12.7269 15.7326 12.4811 15.7326C12.2353 15.7326 11.9994 15.8402 11.8241 16.0324C11.6518 16.2277 11.5552 16.4908 11.5552 16.7648C11.5552 17.0388 11.6518 17.3018 11.8241 17.4972ZM16.1241 12.7037C16.2995 12.8956 16.5354 13.003 16.7811 13.003C17.0268 13.003 17.2627 12.8956 17.4381 12.7037C17.6102 12.5082 17.7066 12.2452 17.7066 11.9713C17.7066 11.6974 17.6102 11.4344 17.4381 11.2389C17.2629 11.0468 17.0269 10.9391 16.7811 10.9391C16.5353 10.9391 16.2994 11.0468 16.1241 11.2389C15.952 11.4344 15.8556 11.6974 15.8556 11.9713C15.8556 12.2452 15.952 12.5082 16.1241 12.7037ZM29.1441 17.4972C29.3194 17.6893 29.5553 17.7969 29.8011 17.7969C30.0469 17.7969 30.2829 17.6893 30.4581 17.4972C30.6302 17.3017 30.7266 17.0387 30.7266 16.7648C30.7266 16.4908 30.6302 16.2279 30.4581 16.0324C30.2829 15.8402 30.0469 15.7326 29.8011 15.7326C29.5553 15.7326 29.3194 15.8402 29.1441 16.0324C28.9718 16.2277 28.8752 16.4908 28.8752 16.7648C28.8752 17.0388 28.9718 17.3018 29.1441 17.4972ZM24.8441 12.7037C25.0194 12.8958 25.2553 13.0035 25.5011 13.0035C25.7469 13.0035 25.9829 12.8958 26.1581 12.7037C26.3305 12.5083 26.427 12.2453 26.427 11.9713C26.427 11.6973 26.3305 11.4343 26.1581 11.2389C25.9829 11.0468 25.7469 10.9391 25.5011 10.9391C25.2553 10.9391 25.0194 11.0468 24.8441 11.2389C24.672 11.4344 24.5756 11.6974 24.5756 11.9713C24.5756 12.2452 24.672 12.5082 24.8441 12.7037ZM20.5441 7.91027C20.7194 8.10239 20.9553 8.21006 21.2011 8.21006C21.4469 8.21006 21.6829 8.10239 21.8581 7.91027C22.0304 7.71491 22.127 7.45188 22.127 7.17787C22.127 6.90387 22.0304 6.64084 21.8581 6.44548C21.6829 6.25336 21.4469 6.14569 21.2011 6.14569C20.9553 6.14569 20.7194 6.25336 20.5441 6.44548C20.3718 6.64084 20.2752 6.90387 20.2752 7.17787C20.2752 7.45188 20.3718 7.71491 20.5441 7.91027Z" fill="#0A3B3C"/>
<path id="Vector_12" d="M30.811 17.0702H49.073V57.7844H30.811V17.0702Z" fill="white"/>
</g>
<path id="Vector_13" fill-rule="evenodd" clip-rule="evenodd" d="M30.8111 17.4069L44.1271 22.974V35.7301C44.1271 41.3875 40.7611 45.9524 37.6501 48.9868C35.7558 50.8199 33.686 52.4148 31.4781 53.7423L31.3661 53.807L31.3361 53.8248L31.3261 53.8304H31.3231C31.3231 53.8315 31.3211 53.8326 30.8111 52.6933C30.3011 53.8326 30.3011 53.8326 30.3001 53.8315L30.2961 53.8293L30.2861 53.8248L30.2561 53.807C30.081 53.707 29.9076 53.6033 29.7361 53.4959C27.6808 52.2183 25.7496 50.7072 23.9731 48.9868C20.8601 45.9513 17.4951 41.3875 17.4951 35.7301V22.9751L30.8111 17.408V17.4069ZM30.8111 52.6944L30.3001 53.8315L30.8111 54.1169L31.3211 53.8326L30.8111 52.6944ZM30.8111 51.2519C32.7134 50.0656 34.5014 48.6649 36.1471 47.0716C39.1221 44.1699 41.8441 40.2515 41.8441 35.7301V24.7375L30.8111 20.1247L19.7781 24.7364V35.7301C19.7781 40.2515 22.5001 44.1688 25.4751 47.0716C27.1208 48.6649 28.9089 50.0656 30.8111 51.2519Z" fill="#0B3B3C"/>
</g>
</g>
</svg>
