<svg width="62" height="68" viewBox="0 0 62 68" fill="none" xmlns="http://www.w3.org/2000/svg">
<g id="Frame">
<path id="Vector" d="M32.3101 24.6335C32.3569 27.1874 32.1943 29.7408 31.8241 32.2627C31.1251 35.6265 28.0801 39.1362 27.5271 40.6761C24.5371 36.8242 14.1071 32.4733 7.69707 36.1288C3.28707 39.225 2.41507 38.5757 2.92507 42.3837C3.26507 44.9206 6.33507 52.4675 8.25207 53.9799C11.9981 56.3676 9.77307 57.3854 18.1181 57.3854C23.0641 57.5203 26.6341 56.9621 28.1881 56.1154C30.7551 56.4729 36.1761 56.4312 38.3911 53.9799C39.9111 52.2986 43.0151 42.6492 41.1541 32.3548C39.1781 21.4902 35.8841 12.3409 32.3241 12.3409C30.5811 12.3409 27.7471 12.4034 26.4251 13.5693C25.1031 14.7352 26.0531 18.2152 26.4681 18.6912C26.0234 19.0772 25.7291 19.6341 25.645 20.2492C25.5609 20.8643 25.6932 21.4914 26.0151 22.0035C27.0927 23.3352 28.4898 24.3081 30.0471 24.8112C30.8041 24.9274 31.575 24.8665 32.3091 24.6324L32.3101 24.6335Z" fill="white"/>
<mask id="mask0_1_412" style="mask-type:alpha" maskUnits="userSpaceOnUse" x="27" y="25" width="8" height="21">
<g id="a">
<path id="Vector_2" d="M31.0779 45.7212L27.2739 41.5491C29.7089 41.5491 31.8389 30.9784 32.5999 25.693C36.8609 37.0425 33.3609 43.7745 31.0779 45.7212Z" fill="#C4C4C4"/>
</g>
</mask>
<g mask="url(#mask0_1_412)">
<g id="Group">
<path id="Vector_3" d="M42.532 28.1498L24.386 21.9914L17.988 44.6683L36.134 50.8278L42.532 28.1498Z" fill="white"/>
<path id="Vector_4" d="M27.5491 41.7794C27.4828 41.8168 27.4058 41.8242 27.3345 41.8C27.2633 41.7758 27.2036 41.7219 27.1681 41.65C27.134 41.5774 27.1271 41.493 27.1489 41.4149C27.1708 41.3368 27.2197 41.2712 27.2851 41.2321C27.3515 41.1944 27.4288 41.1868 27.5003 41.211C27.5717 41.2353 27.6317 41.2893 27.6671 41.3616C27.7731 41.5228 27.7201 41.7125 27.5491 41.7794ZM27.6721 46.3212C27.6058 46.3585 27.5288 46.3659 27.4575 46.3417C27.3863 46.3175 27.3266 46.2637 27.2911 46.1917C27.257 46.119 27.2503 46.0345 27.2724 45.9564C27.2944 45.8783 27.3435 45.8127 27.4091 45.7739C27.4754 45.7365 27.5525 45.7291 27.6237 45.7533C27.6949 45.7775 27.7547 45.8313 27.7901 45.9033C27.8511 46.0897 27.8081 46.2433 27.6721 46.3212ZM28.0581 44.9524C27.9918 44.9898 27.9148 44.9971 27.8435 44.973C27.7723 44.9488 27.7126 44.8949 27.6771 44.823C27.643 44.7502 27.6363 44.6657 27.6584 44.5876C27.6804 44.5095 27.7295 44.444 27.7951 44.4051C27.8614 44.3677 27.9385 44.3603 28.0097 44.3845C28.0809 44.4087 28.1407 44.4626 28.1761 44.5345C28.2099 44.6071 28.2164 44.6914 28.1944 44.7692C28.1724 44.8471 28.1235 44.9124 28.0581 44.9513V44.9524ZM27.1621 43.1482C27.0958 43.1856 27.0188 43.193 26.9475 43.1688C26.8763 43.1446 26.8166 43.0907 26.7811 43.0188C26.7473 42.9461 26.7408 42.8619 26.7628 42.7841C26.7849 42.7062 26.8338 42.6409 26.8991 42.602C26.9653 42.5645 27.0423 42.557 27.1135 42.581C27.1847 42.605 27.2445 42.6586 27.2801 42.7303C27.3142 42.8031 27.3209 42.8875 27.2989 42.9657C27.2768 43.0438 27.2277 43.1093 27.1621 43.1482ZM29.3071 45.3768C29.2408 45.4142 29.1638 45.4216 29.0925 45.3974C29.0213 45.3732 28.9616 45.3194 28.9261 45.2474C28.8917 45.1746 28.8848 45.0898 28.9069 45.0114C28.929 44.9331 28.9783 44.8673 29.0441 44.8285C29.1104 44.7911 29.1875 44.7837 29.2587 44.8079C29.3299 44.8321 29.3897 44.8859 29.4251 44.9579C29.4595 45.0307 29.4664 45.1155 29.4443 45.1939C29.4223 45.2722 29.373 45.338 29.3071 45.3768ZM28.4451 43.5836C28.3789 43.6207 28.3021 43.6279 28.2311 43.6037C28.1601 43.5795 28.1006 43.5259 28.0651 43.4542C28.031 43.3816 28.0241 43.2972 28.0459 43.2191C28.0678 43.141 28.1167 43.0754 28.1821 43.0363C28.2484 42.9989 28.3255 42.9916 28.3967 43.0158C28.4679 43.0399 28.5277 43.0938 28.5631 43.1657C28.5969 43.2384 28.6034 43.3226 28.5814 43.4005C28.5594 43.4783 28.5105 43.5436 28.4451 43.5825V43.5836Z" fill="#0A3B3C"/>
<path id="Vector_5" d="M27.549 41.7794C27.4827 41.8168 27.4057 41.8242 27.3344 41.8C27.2632 41.7758 27.2035 41.7219 27.168 41.65C27.1339 41.5774 27.127 41.493 27.1489 41.4149C27.1707 41.3368 27.2196 41.2712 27.285 41.2321C27.3514 41.1944 27.4287 41.1868 27.5002 41.211C27.5717 41.2353 27.6316 41.2893 27.667 41.3615C27.773 41.5228 27.72 41.7125 27.549 41.7794ZM27.391 32.6455C27.3247 32.6829 27.2477 32.6902 27.1764 32.6661C27.1052 32.6419 27.0455 32.588 27.01 32.5161C26.9759 32.4433 26.9692 32.3588 26.9913 32.2807C27.0133 32.2026 27.0624 32.1371 27.128 32.0982C27.1943 32.0608 27.2714 32.0534 27.3426 32.0776C27.4138 32.1018 27.4736 32.1557 27.509 32.2276C27.5431 32.3003 27.5498 32.3848 27.5278 32.463C27.5057 32.5411 27.4566 32.6066 27.391 32.6455ZM27.47 37.2135C27.4036 37.2508 27.3265 37.2581 27.2552 37.2337C27.184 37.2092 27.1243 37.1552 27.089 37.083C27.0549 37.0103 27.0482 36.9258 27.0703 36.8477C27.0923 36.7696 27.1414 36.704 27.207 36.6652C27.2733 36.6278 27.3504 36.6204 27.4216 36.6446C27.4928 36.6688 27.5526 36.7226 27.588 36.7946C27.6221 36.8673 27.6288 36.9518 27.6068 37.0299C27.5847 37.108 27.5356 37.1736 27.47 37.2125V37.2135ZM27.867 35.8053C27.8007 35.8427 27.7237 35.8501 27.6524 35.8259C27.5812 35.8017 27.5215 35.7478 27.486 35.6759C27.4519 35.6031 27.4452 35.5186 27.4673 35.4405C27.4893 35.3624 27.5384 35.2969 27.604 35.258C27.6703 35.2206 27.7474 35.2132 27.8186 35.2374C27.8898 35.2616 27.9496 35.3155 27.985 35.3874C28.046 35.5739 28.003 35.7274 27.867 35.8053ZM29.114 36.2297C29.0477 36.2671 28.9707 36.2745 28.8994 36.2503C28.8282 36.2261 28.7685 36.1723 28.733 36.1003C28.6986 36.0275 28.6917 35.9427 28.7138 35.8643C28.7359 35.786 28.7852 35.7202 28.851 35.6814C28.9173 35.644 28.9944 35.6366 29.0656 35.6608C29.1368 35.685 29.1966 35.7388 29.232 35.8108C29.304 35.9599 29.285 36.1617 29.114 36.2297ZM28.253 34.4365C28.1866 34.4742 28.1093 34.4818 28.0379 34.4576C27.9664 34.4334 27.9065 34.3793 27.871 34.3071C27.8369 34.2344 27.8302 34.1499 27.8523 34.0717C27.8743 33.9936 27.9234 33.9281 27.989 33.8892C28.0554 33.8515 28.1327 33.8439 28.2042 33.8681C28.2757 33.8924 28.3356 33.9464 28.371 34.0186C28.4051 34.0914 28.4118 34.1759 28.3898 34.254C28.3677 34.3321 28.3186 34.3976 28.253 34.4365Z" fill="#0A3B3C"/>
<path id="Vector_6" d="M27.3909 32.6433C27.3246 32.6807 27.2476 32.6881 27.1763 32.6639C27.1051 32.6397 27.0454 32.5858 27.0099 32.5139C26.9758 32.4411 26.9691 32.3566 26.9912 32.2785C27.0132 32.2004 27.0623 32.1349 27.1279 32.096C27.1942 32.0586 27.2713 32.0512 27.3425 32.0754C27.4137 32.0996 27.4735 32.1535 27.5089 32.2254C27.543 32.2982 27.5497 32.3826 27.5277 32.4608C27.5056 32.5389 27.4565 32.6044 27.3909 32.6433ZM27.5479 41.7794C27.4816 41.8168 27.4046 41.8242 27.3333 41.8C27.2621 41.7758 27.2024 41.7219 27.1669 41.65C27.1328 41.5773 27.1261 41.4928 27.1482 41.4147C27.1702 41.3365 27.2193 41.271 27.2849 41.2321C27.3512 41.1948 27.4283 41.1874 27.4995 41.2116C27.5707 41.2358 27.6305 41.2896 27.6659 41.3616C27.7729 41.5228 27.7189 41.7125 27.5479 41.7794ZM29.2279 40.8099C29.1615 40.8476 29.0842 40.8552 29.0128 40.831C28.9413 40.8067 28.8814 40.7527 28.8459 40.6805C28.8115 40.6076 28.8046 40.5229 28.8267 40.4445C28.8488 40.3661 28.8981 40.3004 28.9639 40.2615C29.0303 40.2238 29.1076 40.2162 29.1791 40.2404C29.2505 40.2646 29.3105 40.3187 29.3459 40.3909C29.3803 40.4638 29.3872 40.5485 29.3651 40.6269C29.3431 40.7053 29.2938 40.771 29.2279 40.8099ZM28.3309 39.0057C28.2646 39.0431 28.1876 39.0504 28.1163 39.0262C28.0451 39.0021 27.9854 38.9482 27.9499 38.8763C27.9158 38.8035 27.9091 38.719 27.9312 38.6409C27.9532 38.5628 28.0023 38.4973 28.0679 38.4584C28.1341 38.4209 28.2111 38.4134 28.2823 38.4374C28.3535 38.4613 28.4133 38.515 28.4489 38.5867C28.5559 38.7479 28.5019 38.9377 28.3309 39.0057ZM29.6139 39.44C29.5477 39.4775 29.4708 39.485 29.3996 39.461C29.3284 39.437 29.2685 39.3834 29.2329 39.3117C29.1985 39.2388 29.1916 39.1541 29.2137 39.0757C29.2358 38.9973 29.2851 38.9316 29.3509 38.8927C29.4171 38.8557 29.4939 38.8485 29.5649 38.8727C29.6359 38.8968 29.6955 38.9505 29.7309 39.0221C29.7654 39.0948 29.7724 39.1795 29.7506 39.2579C29.7287 39.3362 29.6796 39.402 29.6139 39.4411V39.44ZM27.9449 40.3745C27.8786 40.4118 27.8016 40.4192 27.7303 40.395C27.6591 40.3708 27.5994 40.317 27.5639 40.245C27.5298 40.1723 27.5231 40.0878 27.5452 40.0097C27.5672 39.9316 27.6163 39.866 27.6819 39.8272C27.7482 39.7898 27.8253 39.7824 27.8965 39.8066C27.9677 39.8308 28.0275 39.8846 28.0629 39.9566C28.1699 40.1178 28.1159 40.3075 27.9449 40.3734V40.3745ZM28.7179 37.6369C28.6515 37.6746 28.5742 37.6822 28.5028 37.658C28.4313 37.6338 28.3714 37.5797 28.3359 37.5075C28.3015 37.4346 28.2946 37.3499 28.3167 37.2715C28.3388 37.1931 28.3881 37.1274 28.4539 37.0885C28.5202 37.0511 28.5973 37.0438 28.6685 37.0679C28.7397 37.0921 28.7995 37.146 28.8349 37.2179C28.9419 37.3792 28.8879 37.5689 28.7179 37.6369ZM27.0829 38.5812C27.0166 38.6186 26.9396 38.626 26.8683 38.6018C26.7971 38.5776 26.7374 38.5238 26.7019 38.4518C26.6678 38.3791 26.6611 38.2946 26.6832 38.2165C26.7052 38.1383 26.7543 38.0728 26.8199 38.0339C26.8862 37.9966 26.9633 37.9892 27.0345 38.0134C27.1057 38.0376 27.1655 38.0914 27.2009 38.1634C27.235 38.2361 27.2417 38.3206 27.2197 38.3987C27.1976 38.4768 27.1485 38.5423 27.0829 38.5812ZM30.8609 39.8645C30.7946 39.9018 30.7176 39.9092 30.6463 39.885C30.5751 39.8608 30.5154 39.807 30.4799 39.735C30.4458 39.6623 30.4391 39.5778 30.4612 39.4997C30.4832 39.4216 30.5323 39.356 30.5979 39.3172C30.6642 39.2798 30.7413 39.2724 30.8125 39.2966C30.8837 39.3208 30.9435 39.3746 30.9789 39.4466C31.013 39.5193 31.0197 39.6038 30.9977 39.6819C30.9756 39.76 30.9265 39.8256 30.8609 39.8645ZM29.9999 38.0712C29.9335 38.1089 29.8562 38.1165 29.7848 38.0923C29.7133 38.0681 29.6534 38.014 29.6179 37.9418C29.5842 37.8692 29.5776 37.785 29.5996 37.7071C29.6217 37.6292 29.6706 37.5639 29.7359 37.525C29.8022 37.4872 29.8794 37.4795 29.9509 37.5035C30.0223 37.5275 30.0823 37.5813 30.1179 37.6534C30.152 37.7261 30.1587 37.8106 30.1367 37.8887C30.1146 37.9668 30.0655 38.0324 29.9999 38.0712ZM27.4699 37.2135C27.4034 37.2512 27.326 37.2586 27.2545 37.2342C27.1831 37.2097 27.1232 37.1555 27.0879 37.083C27.0538 37.0103 27.0471 36.9258 27.0692 36.8477C27.0912 36.7696 27.1403 36.704 27.2059 36.6652C27.2723 36.6274 27.3496 36.6199 27.4211 36.6441C27.4925 36.6683 27.5525 36.7223 27.5879 36.7946C27.622 36.8673 27.6287 36.9518 27.6067 37.0299C27.5846 37.108 27.5355 37.1736 27.4699 37.2125V37.2135ZM29.1139 36.2297C29.0476 36.2671 28.9706 36.2745 28.8993 36.2503C28.8281 36.2261 28.7684 36.1723 28.7329 36.1003C28.6985 36.0275 28.6916 35.9427 28.7137 35.8643C28.7358 35.786 28.7851 35.7202 28.8509 35.6814C28.9172 35.644 28.9943 35.6366 29.0655 35.6608C29.1367 35.685 29.1965 35.7388 29.2319 35.8108C29.3039 35.9599 29.2849 36.1617 29.1139 36.2297ZM29.3059 45.3768C29.2397 45.4139 29.1629 45.4211 29.0919 45.3969C29.0209 45.3727 28.9614 45.3191 28.9259 45.2474C28.8915 45.1747 28.8844 45.09 28.9063 45.0117C28.9282 44.9333 28.9772 44.8675 29.0429 44.8285C29.1092 44.7911 29.1863 44.7837 29.2575 44.8079C29.3287 44.8321 29.3885 44.8859 29.4239 44.9579C29.4584 45.0306 29.4654 45.1152 29.4436 45.1936C29.4217 45.272 29.3726 45.3378 29.3069 45.3768H29.3059ZM30.9399 44.4314C30.8736 44.4688 30.7966 44.4762 30.7253 44.452C30.6541 44.4278 30.5944 44.374 30.5589 44.302C30.5248 44.2293 30.5181 44.1448 30.5402 44.0667C30.5622 43.9885 30.6113 43.923 30.6769 43.8841C30.7432 43.8468 30.8203 43.8394 30.8915 43.8636C30.9627 43.8878 31.0225 43.9416 31.0579 44.0136C31.092 44.0863 31.0987 44.1708 31.0767 44.2489C31.0546 44.327 31.0055 44.3925 30.9399 44.4314ZM28.4439 43.5836C28.3777 43.6207 28.3009 43.6279 28.2299 43.6037C28.1589 43.5795 28.0994 43.5259 28.0639 43.4542C28.0298 43.3816 28.0229 43.2972 28.0447 43.2191C28.0666 43.141 28.1155 43.0754 28.1809 43.0363C28.2472 42.9989 28.3243 42.9916 28.3955 43.0158C28.4667 43.0399 28.5265 43.0938 28.5619 43.1657C28.5957 43.2384 28.6023 43.3226 28.5802 43.4005C28.5582 43.4783 28.5093 43.5436 28.4439 43.5825V43.5836ZM30.0779 42.6393C30.0117 42.6763 29.9349 42.6835 29.8639 42.6594C29.7929 42.6352 29.7334 42.5815 29.6979 42.5099C29.6635 42.4372 29.6564 42.3525 29.6783 42.2741C29.7002 42.1958 29.7492 42.13 29.8149 42.0909C29.8812 42.0535 29.9583 42.0461 30.0295 42.0703C30.1007 42.0945 30.1605 42.1484 30.1959 42.2203C30.2303 42.2932 30.2372 42.3779 30.2151 42.4563C30.1931 42.5347 30.1438 42.6004 30.0779 42.6393ZM31.3259 43.0626C31.2596 43.1 31.1826 43.1074 31.1113 43.0832C31.0401 43.059 30.9804 43.0052 30.9449 42.9332C30.9108 42.8605 30.9041 42.776 30.9262 42.6979C30.9482 42.6198 30.9973 42.5542 31.0629 42.5154C31.1292 42.478 31.2063 42.4706 31.2775 42.4948C31.3487 42.519 31.4085 42.5728 31.4439 42.6448C31.478 42.7175 31.4847 42.802 31.4627 42.8801C31.4406 42.9582 31.3915 43.0238 31.3259 43.0626ZM29.6919 44.0081C29.6256 44.0454 29.5486 44.0528 29.4773 44.0286C29.4061 44.0044 29.3464 43.9506 29.3109 43.8786C29.2765 43.8058 29.2696 43.721 29.2917 43.6427C29.3138 43.5643 29.3631 43.4986 29.4289 43.4597C29.4952 43.4223 29.5723 43.4149 29.6435 43.4391C29.7147 43.4633 29.7745 43.5171 29.8099 43.5891C29.8443 43.6619 29.8512 43.7467 29.8291 43.8251C29.8071 43.9035 29.7578 43.9692 29.6919 44.0081ZM30.4749 41.231C30.4087 41.2681 30.3319 41.2753 30.2609 41.2511C30.1899 41.2269 30.1304 41.1733 30.0949 41.1016C30.0611 41.0291 30.0544 40.945 30.0762 40.8672C30.0981 40.7893 30.1468 40.7239 30.2119 40.6848C30.2781 40.6474 30.3551 40.6398 30.4263 40.6638C30.4975 40.6878 30.5573 40.7414 30.5929 40.8132C30.627 40.8859 30.6337 40.9704 30.6117 41.0485C30.5896 41.1266 30.5405 41.1922 30.4749 41.231ZM28.8299 42.2148C28.7637 42.2519 28.6869 42.2591 28.6159 42.2349C28.5449 42.2107 28.4854 42.1571 28.4499 42.0854C28.4158 42.0128 28.4089 41.9284 28.4307 41.8503C28.4526 41.7722 28.5015 41.7066 28.5669 41.6676C28.6331 41.6301 28.7101 41.6225 28.7813 41.6465C28.8525 41.6705 28.9123 41.7241 28.9479 41.7959C28.9823 41.8687 28.9892 41.9535 28.9671 42.0319C28.9451 42.1102 28.8958 42.176 28.8299 42.2148ZM32.6089 43.4981C32.5425 43.5358 32.4652 43.5434 32.3938 43.5191C32.3223 43.4949 32.2624 43.4409 32.2269 43.3686C32.1925 43.2958 32.1856 43.211 32.2077 43.1327C32.2298 43.0543 32.2791 42.9886 32.3449 42.9497C32.4115 42.912 32.4888 42.9046 32.5603 42.9291C32.6318 42.9535 32.6916 43.0078 32.7269 43.0802C32.7607 43.1528 32.7673 43.237 32.7452 43.3149C32.7232 43.3928 32.6743 43.4581 32.6089 43.497V43.4981ZM31.7229 41.6555C31.6566 41.6929 31.5796 41.7002 31.5083 41.6761C31.4371 41.6519 31.3774 41.598 31.3419 41.5261C31.3078 41.4533 31.3011 41.3688 31.3232 41.2907C31.3452 41.2126 31.3943 41.1471 31.4599 41.1082C31.5262 41.0708 31.6033 41.0634 31.6745 41.0876C31.7457 41.1118 31.8055 41.1657 31.8409 41.2376C31.875 41.3104 31.8817 41.3948 31.8597 41.473C31.8376 41.5511 31.7885 41.6166 31.7229 41.6555Z" fill="#0A3B3C"/>
<path id="Vector_7" d="M27.5479 41.7794C27.4815 41.8171 27.4042 41.8247 27.3328 41.8005C27.2613 41.7763 27.2014 41.7222 27.1659 41.65C27.1318 41.5773 27.1251 41.4928 27.1472 41.4147C27.1692 41.3365 27.2183 41.271 27.2839 41.2321C27.3503 41.1944 27.4276 41.1868 27.4991 41.2111C27.5706 41.2353 27.6305 41.2893 27.6659 41.3616C27.7719 41.5228 27.7179 41.7125 27.5479 41.7794ZM29.2279 40.8077C29.1615 40.8454 29.0842 40.853 29.0128 40.8288C28.9413 40.8045 28.8814 40.7505 28.8459 40.6783C28.8115 40.6054 28.8046 40.5207 28.8267 40.4423C28.8488 40.3639 28.8981 40.2982 28.9639 40.2593C29.0303 40.2216 29.1076 40.214 29.1791 40.2382C29.2506 40.2624 29.3105 40.3165 29.3459 40.3887C29.3803 40.4616 29.3872 40.5463 29.3651 40.6247C29.3431 40.7031 29.2938 40.7688 29.2279 40.8077ZM30.8619 39.8623C30.7955 39.9 30.7182 39.9076 30.6468 39.8833C30.5753 39.8591 30.5154 39.8051 30.4799 39.7328C30.4458 39.6601 30.4391 39.5756 30.4612 39.4975C30.4832 39.4194 30.5323 39.3538 30.5979 39.315C30.6643 39.2772 30.7416 39.2697 30.8131 39.2939C30.8846 39.3181 30.9445 39.3722 30.9799 39.4444C31.014 39.5171 31.0207 39.6016 30.9987 39.6797C30.9766 39.7579 30.9275 39.8234 30.8619 39.8623ZM31.8369 46.2334C31.7706 46.2708 31.6936 46.2782 31.6223 46.254C31.5511 46.2298 31.4914 46.1759 31.4559 46.104C31.4218 46.0314 31.4149 45.947 31.4368 45.8689C31.4586 45.7908 31.5075 45.7252 31.5729 45.6861C31.6393 45.6484 31.7166 45.6408 31.7881 45.6651C31.8596 45.6893 31.9195 45.7433 31.9549 45.8155C31.9887 45.8882 31.9953 45.9724 31.9732 46.0503C31.9512 46.1281 31.9023 46.1935 31.8369 46.2323V46.2334ZM32.2229 44.8646C32.1566 44.902 32.0796 44.9094 32.0083 44.8852C31.9371 44.861 31.8774 44.8072 31.8419 44.7352C31.8078 44.6625 31.8011 44.578 31.8232 44.4999C31.8452 44.4218 31.8943 44.3562 31.9599 44.3174C32.0262 44.28 32.1033 44.2726 32.1745 44.2968C32.2457 44.321 32.3055 44.3748 32.3409 44.4468C32.3747 44.5194 32.3813 44.6036 32.3592 44.6815C32.3372 44.7593 32.2883 44.8247 32.2229 44.8635V44.8646ZM30.5539 45.798C30.4876 45.8354 30.4106 45.8428 30.3393 45.8186C30.2681 45.7944 30.2084 45.7405 30.1729 45.6686C30.1392 45.596 30.1326 45.5117 30.1546 45.4339C30.1767 45.356 30.2256 45.2907 30.2909 45.2518C30.3571 45.2143 30.4341 45.2068 30.5053 45.2308C30.5765 45.2548 30.6363 45.3084 30.6719 45.3801C30.706 45.4529 30.7127 45.5374 30.6907 45.6155C30.6686 45.6936 30.6195 45.7591 30.5539 45.798ZM33.4719 45.2891C33.4056 45.3265 33.3286 45.3339 33.2573 45.3097C33.1861 45.2855 33.1264 45.2316 33.0909 45.1597C33.0565 45.0868 33.0496 45.0021 33.0717 44.9237C33.0938 44.8453 33.1431 44.7796 33.2089 44.7407C33.2752 44.7033 33.3523 44.6959 33.4235 44.7201C33.4947 44.7443 33.5545 44.7982 33.5899 44.8701C33.6243 44.943 33.6312 45.0277 33.6091 45.1061C33.5871 45.1845 33.5378 45.2502 33.4719 45.2891ZM29.3069 45.3735C29.2406 45.4114 29.1634 45.4191 29.092 45.3951C29.0205 45.3711 28.9605 45.3173 28.9249 45.2452C28.8905 45.1724 28.8836 45.0876 28.9057 45.0092C28.9278 44.9309 28.9771 44.8651 29.0429 44.8263C29.1093 44.7885 29.1866 44.781 29.2581 44.8052C29.3296 44.8294 29.3895 44.8834 29.4249 44.9557C29.4593 45.0285 29.4662 45.1133 29.4441 45.1917C29.4221 45.27 29.3728 45.3358 29.3069 45.3746V45.3735ZM30.9399 44.4303C30.8736 44.4673 30.7967 44.4743 30.7257 44.4499C30.6547 44.4255 30.5952 44.3717 30.5599 44.2998C30.5261 44.2273 30.5194 44.1432 30.5412 44.0653C30.5631 43.9875 30.6118 43.9221 30.6769 43.883C30.7432 43.8452 30.8204 43.8375 30.8919 43.8615C30.9633 43.8855 31.0233 43.9393 31.0589 44.0114C31.093 44.0841 31.0997 44.1686 31.0777 44.2467C31.0556 44.3248 31.0065 44.3903 30.9409 44.4292L30.9399 44.4303ZM32.6099 43.4981C32.5435 43.5358 32.4662 43.5434 32.3948 43.5191C32.3233 43.4949 32.2634 43.4409 32.2279 43.3686C32.1935 43.2958 32.1866 43.211 32.2087 43.1327C32.2308 43.0543 32.2801 42.9886 32.3459 42.9497C32.4125 42.912 32.4898 42.9046 32.5613 42.9291C32.6328 42.9535 32.6926 43.0078 32.7279 43.0802C32.7616 43.153 32.768 43.2373 32.7458 43.3152C32.7236 43.393 32.6744 43.4583 32.6089 43.497L32.6099 43.4981ZM27.3909 32.6455C27.3246 32.6829 27.2476 32.6902 27.1763 32.6661C27.1051 32.6419 27.0454 32.588 27.0099 32.5161C26.9758 32.4433 26.9691 32.3588 26.9912 32.2807C27.0132 32.2026 27.0623 32.1371 27.1279 32.0982C27.1942 32.0608 27.2713 32.0534 27.3425 32.0776C27.4137 32.1018 27.4735 32.1557 27.5089 32.2276C27.543 32.3004 27.5497 32.3848 27.5277 32.463C27.5056 32.5411 27.4565 32.6066 27.3909 32.6455ZM29.0249 31.7012C28.9586 31.7385 28.8816 31.7459 28.8103 31.7217C28.7391 31.6975 28.6794 31.6437 28.6439 31.5717C28.6098 31.499 28.6031 31.4145 28.6252 31.3364C28.6472 31.2583 28.6963 31.1928 28.7619 31.1539C28.8282 31.1165 28.9053 31.1091 28.9765 31.1333C29.0477 31.1575 29.1075 31.2113 29.1429 31.2833C29.1767 31.3559 29.1833 31.4401 29.1612 31.518C29.1392 31.5959 29.0903 31.6612 29.0249 31.7001V31.7012ZM28.1739 29.8695C28.1076 29.9069 28.0306 29.9143 27.9593 29.8901C27.8881 29.8659 27.8284 29.8121 27.7929 29.7401C27.7588 29.6674 27.7521 29.5829 27.7742 29.5048C27.7962 29.4267 27.8453 29.3611 27.9109 29.3223C27.9772 29.2849 28.0543 29.2775 28.1255 29.3017C28.1967 29.3259 28.2565 29.3797 28.2919 29.4517C28.326 29.5244 28.3327 29.6089 28.3107 29.687C28.2886 29.7651 28.2395 29.8307 28.1739 29.8695ZM29.4219 30.2929C29.3557 30.3304 29.2788 30.3379 29.2076 30.3139C29.1364 30.2899 29.0765 30.2363 29.0409 30.1646C29.0065 30.0917 28.9996 30.007 29.0217 29.9286C29.0438 29.8502 29.0931 29.7845 29.1589 29.7456C29.2252 29.7082 29.3023 29.7008 29.3735 29.725C29.4447 29.7492 29.5045 29.8031 29.5399 29.875C29.5743 29.9479 29.5812 30.0326 29.5591 30.111C29.5371 30.1894 29.4878 30.2551 29.4219 30.294V30.2929ZM27.7769 31.2767C27.7106 31.3141 27.6336 31.3215 27.5623 31.2973C27.4911 31.2731 27.4314 31.2192 27.3959 31.1473C27.3618 31.0746 27.3551 30.9901 27.3772 30.9119C27.3992 30.8338 27.4483 30.7683 27.5139 30.7294C27.5802 30.692 27.6573 30.6847 27.7285 30.7089C27.7997 30.733 27.8595 30.7869 27.8949 30.8588C27.929 30.9316 27.9357 31.0161 27.9137 31.0942C27.8916 31.1723 27.8425 31.2378 27.7769 31.2767ZM28.5599 28.5008C28.4937 28.5378 28.4169 28.545 28.3459 28.5208C28.2749 28.4967 28.2154 28.443 28.1799 28.3714C28.1458 28.2987 28.1389 28.2144 28.1608 28.1363C28.1826 28.0582 28.2315 27.9925 28.2969 27.9535C28.3632 27.9161 28.4403 27.9087 28.5115 27.9329C28.5827 27.9571 28.6425 28.011 28.6779 28.0829C28.7117 28.1555 28.7183 28.2398 28.6962 28.3176C28.6742 28.3955 28.6253 28.4608 28.5599 28.4997V28.5008ZM30.6699 30.7174C30.6035 30.7551 30.5262 30.7626 30.4548 30.7384C30.3833 30.7142 30.3234 30.6602 30.2879 30.5879C30.2538 30.5152 30.2471 30.4307 30.2692 30.3526C30.2912 30.2745 30.3403 30.2089 30.4059 30.1701C30.4722 30.1327 30.5493 30.1253 30.6205 30.1495C30.6917 30.1737 30.7515 30.2275 30.7869 30.2995C30.8589 30.4486 30.8399 30.6505 30.6689 30.7174H30.6699ZM29.8079 28.9252C29.7415 28.9629 29.6642 28.9705 29.5928 28.9463C29.5213 28.9221 29.4614 28.868 29.4259 28.7958C29.3915 28.723 29.3846 28.6382 29.4067 28.5598C29.4288 28.4814 29.4781 28.4157 29.5439 28.3768C29.6103 28.3391 29.6876 28.3315 29.7591 28.3558C29.8306 28.38 29.8905 28.434 29.9259 28.5063C29.9603 28.5791 29.9672 28.6639 29.9451 28.7422C29.9231 28.8206 29.8738 28.8863 29.8079 28.9252ZM27.3119 28.0785C27.2456 28.1159 27.1686 28.1233 27.0973 28.0991C27.0261 28.0749 26.9664 28.021 26.9309 27.9491C26.8968 27.8764 26.8901 27.7919 26.9122 27.7138C26.9342 27.6356 26.9833 27.5701 27.0489 27.5312C27.1152 27.4938 27.1923 27.4865 27.2635 27.5107C27.3347 27.5349 27.3945 27.5887 27.4299 27.6606C27.464 27.7334 27.4707 27.8179 27.4487 27.896C27.4266 27.9741 27.3775 28.0396 27.3119 28.0785ZM28.9459 27.132C28.8796 27.1694 28.8026 27.1768 28.7313 27.1526C28.6601 27.1284 28.6004 27.0745 28.5649 27.0026C28.5308 26.9298 28.5241 26.8454 28.5462 26.7672C28.5682 26.6891 28.6173 26.6236 28.6829 26.5847C28.7492 26.5473 28.8263 26.5399 28.8975 26.5641C28.9687 26.5883 29.0285 26.6422 29.0639 26.7141C29.0977 26.7868 29.1043 26.871 29.0822 26.9488C29.0602 27.0267 29.0113 27.092 28.9459 27.1309V27.132ZM29.1139 36.2297C29.0476 36.2671 28.9706 36.2745 28.8993 36.2503C28.8281 36.2261 28.7684 36.1723 28.7329 36.1003C28.6985 36.0275 28.6916 35.9427 28.7137 35.8643C28.7358 35.786 28.7851 35.7202 28.8509 35.6814C28.9172 35.644 28.9943 35.6366 29.0655 35.6608C29.1367 35.685 29.1965 35.7388 29.2319 35.8108C29.3039 35.9599 29.2849 36.1617 29.1139 36.2297ZM30.7819 35.2953C30.7156 35.3327 30.6386 35.3401 30.5673 35.3159C30.4961 35.2917 30.4364 35.2378 30.4009 35.1659C30.3668 35.0931 30.3601 35.0086 30.3822 34.9305C30.4042 34.8524 30.4533 34.7869 30.5189 34.748C30.5852 34.7106 30.6623 34.7032 30.7335 34.7274C30.8047 34.7516 30.8645 34.8055 30.8999 34.8774C30.934 34.9502 30.9407 35.0346 30.9187 35.1128C30.8966 35.1909 30.8475 35.2564 30.7819 35.2953ZM28.2519 34.4365C28.1856 34.4739 28.1086 34.4813 28.0373 34.4571C27.9661 34.4329 27.9064 34.379 27.8709 34.3071C27.8368 34.2344 27.8301 34.1499 27.8522 34.0718C27.8742 33.9936 27.9233 33.9281 27.9889 33.8892C28.0552 33.8518 28.1323 33.8445 28.2035 33.8687C28.2747 33.8929 28.3345 33.9467 28.3699 34.0186C28.404 34.0914 28.4107 34.1759 28.3887 34.254C28.3666 34.3321 28.3175 34.3976 28.2519 34.4365ZM29.8859 33.4922C29.8196 33.5296 29.7426 33.537 29.6713 33.5128C29.6001 33.4886 29.5404 33.4347 29.5049 33.3628C29.4705 33.2899 29.4636 33.2052 29.4857 33.1268C29.5078 33.0484 29.5571 32.9827 29.6229 32.9438C29.6892 32.9064 29.7663 32.899 29.8375 32.9232C29.9087 32.9474 29.9685 33.0013 30.0039 33.0732C30.1109 33.2345 30.0569 33.4242 29.8859 33.4911V33.4922ZM31.1689 33.9265C31.1025 33.9642 31.0252 33.9718 30.9538 33.9476C30.8823 33.9234 30.8224 33.8693 30.7869 33.7971C30.7528 33.7244 30.7461 33.6399 30.7682 33.5617C30.7902 33.4836 30.8393 33.4181 30.9049 33.3792C30.9712 33.3418 31.0483 33.3345 31.1195 33.3587C31.1907 33.3829 31.2505 33.4367 31.2859 33.5086C31.3201 33.5813 31.327 33.6656 31.3051 33.7437C31.2832 33.8218 31.2344 33.8875 31.1689 33.9265ZM29.4999 34.861C29.4335 34.8983 29.3564 34.9055 29.2851 34.8811C29.2139 34.8567 29.1542 34.8026 29.1189 34.7305C29.0852 34.6578 29.0786 34.5736 29.1006 34.4957C29.1227 34.4179 29.1716 34.3526 29.2369 34.3137C29.3031 34.2762 29.3801 34.2687 29.4513 34.2926C29.5225 34.3166 29.5823 34.3702 29.6179 34.442C29.7239 34.6032 29.6709 34.793 29.4999 34.861ZM30.2719 32.1223C30.2058 32.1594 30.1291 32.1668 30.0582 32.1428C29.9872 32.1189 29.9275 32.0655 29.8919 31.994C29.8575 31.9213 29.8504 31.8366 29.8723 31.7583C29.8942 31.6799 29.9432 31.6141 30.0089 31.575C30.0752 31.5377 30.1523 31.5303 30.2235 31.5545C30.2947 31.5787 30.3545 31.6325 30.3899 31.7045C30.4969 31.8657 30.4429 32.0554 30.2719 32.1223ZM28.6379 33.0677C28.5716 33.1051 28.4946 33.1125 28.4233 33.0883C28.3521 33.0641 28.2924 33.0103 28.2569 32.9383C28.2228 32.8656 28.2161 32.7811 28.2382 32.703C28.2602 32.6249 28.3093 32.5593 28.3749 32.5205C28.4412 32.4831 28.5183 32.4757 28.5895 32.4999C28.6607 32.5241 28.7205 32.5779 28.7559 32.6499C28.79 32.7226 28.7967 32.8071 28.7747 32.8852C28.7526 32.9633 28.7035 33.0289 28.6379 33.0677ZM32.4159 34.351C32.3496 34.3883 32.2726 34.3957 32.2013 34.3715C32.1301 34.3473 32.0704 34.2935 32.0349 34.2215C32.0008 34.1488 31.9941 34.0643 32.0162 33.9862C32.0382 33.9081 32.0873 33.8426 32.1529 33.8037C32.2191 33.7666 32.2959 33.7594 32.3669 33.7836C32.4379 33.8078 32.4975 33.8614 32.5329 33.9331C32.5668 34.0056 32.5735 34.0897 32.5516 34.1676C32.5298 34.2454 32.4811 34.3108 32.4159 34.3499V34.351ZM31.5539 32.5577C31.4876 32.5951 31.4106 32.6025 31.3393 32.5783C31.2681 32.5541 31.2084 32.5003 31.1729 32.4283C31.1388 32.3556 31.1321 32.2711 31.1542 32.193C31.1762 32.1149 31.2253 32.0493 31.2909 32.0105C31.3572 31.9731 31.4343 31.9657 31.5055 31.9899C31.5767 32.0141 31.6365 32.0679 31.6719 32.1399C31.706 32.2126 31.7127 32.2971 31.6907 32.3752C31.6686 32.4533 31.6195 32.5189 31.5539 32.5577Z" fill="#0A3B3C"/>
<path id="Vector_8" d="M27.39 32.6433C27.3238 32.6803 27.247 32.6875 27.176 32.6634C27.105 32.6392 27.0454 32.5855 27.01 32.5139C26.9758 32.4413 26.969 32.3569 26.9908 32.2788C27.0127 32.2007 27.0616 32.1351 27.127 32.096C27.1934 32.0583 27.2707 32.0507 27.3422 32.0749C27.4136 32.0991 27.4736 32.1532 27.509 32.2254C27.5431 32.2982 27.5498 32.3826 27.5278 32.4608C27.5057 32.5389 27.4566 32.6044 27.391 32.6433H27.39ZM29.024 31.699C28.9578 31.736 28.881 31.7432 28.81 31.719C28.739 31.6949 28.6794 31.6412 28.644 31.5695C28.6098 31.4969 28.603 31.4126 28.6248 31.3345C28.6467 31.2563 28.6956 31.1907 28.761 31.1517C28.8273 31.1143 28.9044 31.1069 28.9756 31.1311C29.0468 31.1553 29.1066 31.2091 29.142 31.2811C29.1762 31.3537 29.183 31.4381 29.1612 31.5162C29.1393 31.5943 29.0904 31.6599 29.025 31.699H29.024ZM30.67 30.7152C30.6036 30.7529 30.5263 30.7605 30.4548 30.7362C30.3834 30.712 30.3235 30.658 30.288 30.5857C30.2539 30.513 30.2472 30.4285 30.2692 30.3504C30.2913 30.2723 30.3404 30.2068 30.406 30.1679C30.4724 30.1302 30.5497 30.1226 30.6212 30.1468C30.6926 30.171 30.7526 30.2251 30.788 30.2973C30.859 30.4465 30.84 30.6483 30.669 30.7152H30.67ZM30.863 39.8645C30.7967 39.9018 30.7196 39.9092 30.6484 39.885C30.5772 39.8608 30.5175 39.807 30.482 39.735C30.4479 39.6623 30.4412 39.5778 30.4632 39.4997C30.4853 39.4216 30.5344 39.356 30.6 39.3172C30.6663 39.2798 30.7434 39.2724 30.8146 39.2966C30.8858 39.3208 30.9456 39.3746 30.981 39.4466C31.0151 39.5193 31.0218 39.6038 30.9998 39.6819C30.9777 39.76 30.9286 39.8256 30.863 39.8645ZM32.497 38.9201C32.4307 38.9575 32.3536 38.9649 32.2824 38.9407C32.2112 38.9165 32.1515 38.8627 32.116 38.7907C32.0819 38.718 32.0752 38.6335 32.0972 38.5554C32.1193 38.4772 32.1684 38.4117 32.234 38.3728C32.3002 38.3358 32.377 38.3286 32.448 38.3528C32.519 38.377 32.5786 38.4306 32.614 38.5023C32.6479 38.5748 32.6546 38.6589 32.6327 38.7367C32.6109 38.8146 32.5622 38.88 32.497 38.919V38.9201ZM30.001 38.0712C29.9347 38.1086 29.8576 38.116 29.7864 38.0918C29.7152 38.0676 29.6555 38.0138 29.62 37.9418C29.5862 37.8692 29.5797 37.785 29.6017 37.7071C29.6238 37.6292 29.6727 37.5639 29.738 37.525C29.8042 37.4876 29.8811 37.48 29.9524 37.504C30.0236 37.528 30.0834 37.5816 30.119 37.6534C30.1531 37.7261 30.1598 37.8106 30.1378 37.8887C30.1157 37.9668 30.0666 38.0323 30.001 38.0712ZM31.646 37.0885C31.5797 37.1259 31.5026 37.1333 31.4314 37.1091C31.3602 37.0849 31.3004 37.031 31.265 36.9591C31.2309 36.8864 31.2242 36.8019 31.2462 36.7237C31.2683 36.6456 31.3174 36.5801 31.383 36.5412C31.4493 36.5038 31.5264 36.4965 31.5976 36.5207C31.6688 36.5448 31.7286 36.5987 31.764 36.6706C31.825 36.8571 31.782 37.0106 31.646 37.0885ZM32.894 37.513C32.8277 37.5503 32.7506 37.5577 32.6794 37.5335C32.6082 37.5093 32.5485 37.4555 32.513 37.3835C32.4786 37.3107 32.4717 37.2259 32.4938 37.1476C32.5159 37.0692 32.5651 37.0035 32.631 36.9646C32.6972 36.9275 32.774 36.9203 32.845 36.9445C32.916 36.9687 32.9756 37.0223 33.011 37.094C33.073 37.2815 33.031 37.434 32.894 37.513ZM31.25 38.4968C31.1835 38.5344 31.1061 38.5418 31.0346 38.5174C30.9631 38.493 30.9033 38.4387 30.868 38.3663C30.8339 38.2935 30.8272 38.209 30.8492 38.1309C30.8713 38.0528 30.9204 37.9873 30.986 37.9484C31.0523 37.911 31.1294 37.9036 31.2006 37.9278C31.2718 37.952 31.3316 38.0059 31.367 38.0778C31.4011 38.1505 31.4078 38.235 31.3858 38.3132C31.3637 38.3913 31.3146 38.4568 31.249 38.4957L31.25 38.4968ZM32.032 35.7197C31.9657 35.7571 31.8886 35.7645 31.8174 35.7403C31.7462 35.7161 31.6864 35.6623 31.651 35.5903C31.6169 35.5176 31.6102 35.4331 31.6322 35.355C31.6543 35.2769 31.7034 35.2113 31.769 35.1725C31.8353 35.1351 31.9124 35.1277 31.9836 35.1519C32.0548 35.1761 32.1146 35.2299 32.15 35.3019C32.1841 35.3746 32.1908 35.4591 32.1688 35.5372C32.1467 35.6153 32.0976 35.6809 32.032 35.7197ZM30.398 36.6652C30.3316 36.7025 30.2544 36.7097 30.1832 36.6853C30.112 36.6609 30.0523 36.6068 30.017 36.5346C29.9829 36.4619 29.9762 36.3774 29.9982 36.2993C30.0203 36.2212 30.0694 36.1557 30.135 36.1168C30.2013 36.0794 30.2784 36.072 30.3496 36.0962C30.4208 36.1204 30.4806 36.1742 30.516 36.2462C30.577 36.4326 30.534 36.5862 30.398 36.6641V36.6652ZM34.177 37.9484C34.1105 37.986 34.0331 37.9934 33.9616 37.969C33.8901 37.9446 33.8303 37.8903 33.795 37.8179C33.7609 37.7451 33.7542 37.6606 33.7762 37.5825C33.7983 37.5044 33.8474 37.4389 33.913 37.4C33.9794 37.3623 34.0567 37.3547 34.1282 37.3789C34.1996 37.4031 34.2595 37.4572 34.295 37.5294C34.355 37.7159 34.313 37.8694 34.177 37.9473V37.9484ZM33.28 36.1442C33.2137 36.1816 33.1366 36.189 33.0654 36.1648C32.9942 36.1406 32.9344 36.0867 32.899 36.0148C32.8646 35.9419 32.8577 35.8572 32.8798 35.7788C32.9019 35.7004 32.9511 35.6347 33.017 35.5958C33.0833 35.5584 33.1604 35.551 33.2316 35.5752C33.3028 35.5994 33.3626 35.6533 33.398 35.7252C33.4324 35.7981 33.4393 35.8828 33.4172 35.9612C33.3951 36.0396 33.3459 36.1053 33.28 36.1442ZM29.115 36.2297C29.0487 36.2671 28.9716 36.2745 28.9004 36.2503C28.8292 36.2261 28.7694 36.1723 28.734 36.1003C28.6996 36.0275 28.6927 35.9427 28.7148 35.8643C28.7369 35.786 28.7861 35.7202 28.852 35.6814C28.9183 35.644 28.9954 35.6366 29.0666 35.6608C29.1378 35.685 29.1976 35.7388 29.233 35.8108C29.305 35.9599 29.286 36.1617 29.115 36.2297ZM30.784 35.2953C30.7177 35.3327 30.6406 35.3401 30.5694 35.3159C30.4982 35.2917 30.4385 35.2378 30.403 35.1659C30.3688 35.0933 30.362 35.0089 30.3838 34.9308C30.4057 34.8527 30.4546 34.7871 30.52 34.748C30.5864 34.7103 30.6637 34.7027 30.7352 34.7269C30.8066 34.7511 30.8666 34.8052 30.902 34.8774C30.9361 34.9502 30.9428 35.0346 30.9208 35.1128C30.8987 35.1909 30.8496 35.2564 30.784 35.2953ZM32.418 34.351C32.3516 34.3887 32.2743 34.3963 32.2028 34.372C32.1314 34.3478 32.0715 34.2938 32.036 34.2215C32.0019 34.1488 31.9952 34.0643 32.0172 33.9862C32.0393 33.9081 32.0884 33.8426 32.154 33.8037C32.2204 33.766 32.2977 33.7584 32.3692 33.7826C32.4406 33.8068 32.5006 33.8609 32.536 33.9331C32.5698 34.0057 32.5763 34.0899 32.5543 34.1678C32.5322 34.2457 32.4833 34.311 32.418 34.3499V34.351ZM32.61 43.4981C32.5436 43.5358 32.4663 43.5434 32.3948 43.5191C32.3234 43.4949 32.2635 43.4409 32.228 43.3686C32.1936 43.2958 32.1867 43.211 32.2088 43.1327C32.2309 43.0543 32.2801 42.9886 32.346 42.9497C32.4125 42.912 32.4899 42.9046 32.5614 42.9291C32.6329 42.9535 32.6927 43.0078 32.728 43.0802C32.7617 43.1529 32.7681 43.2373 32.7459 43.3152C32.7236 43.393 32.6745 43.4583 32.609 43.497L32.61 43.4981ZM34.254 42.5143C34.1877 42.5516 34.1106 42.559 34.0394 42.5348C33.9682 42.5106 33.9085 42.4568 33.873 42.3848C33.8389 42.3121 33.8322 42.2276 33.8542 42.1495C33.8763 42.0714 33.9254 42.0058 33.991 41.967C34.0573 41.9296 34.1344 41.9222 34.2056 41.9464C34.2768 41.9706 34.3366 42.0244 34.372 42.0964C34.4061 42.1691 34.4128 42.2536 34.3908 42.3317C34.3687 42.4099 34.3196 42.4754 34.254 42.5143ZM31.724 41.6555C31.6576 41.6932 31.5803 41.7008 31.5088 41.6766C31.4374 41.6524 31.3775 41.5983 31.342 41.5261C31.3079 41.4533 31.3012 41.3688 31.3232 41.2907C31.3453 41.2126 31.3944 41.1471 31.46 41.1082C31.5264 41.0705 31.6037 41.0629 31.6752 41.0871C31.7466 41.1113 31.8066 41.1654 31.842 41.2376C31.8761 41.3103 31.8828 41.3948 31.8608 41.473C31.8387 41.5511 31.7896 41.6166 31.724 41.6555ZM33.392 40.7221C33.3258 40.7592 33.249 40.7664 33.178 40.7422C33.107 40.718 33.0474 40.6644 33.012 40.5927C32.9775 40.52 32.9705 40.4353 32.9924 40.357C33.0142 40.2786 33.0633 40.2128 33.129 40.1737C33.1953 40.1364 33.2724 40.129 33.3436 40.1532C33.4148 40.1774 33.4746 40.2312 33.51 40.3032C33.5444 40.376 33.5513 40.4608 33.5292 40.5391C33.5071 40.6175 33.4579 40.6832 33.392 40.7221ZM34.64 41.1455C34.5737 41.1829 34.4966 41.1902 34.4254 41.166C34.3542 41.1419 34.2944 41.088 34.259 41.0161C34.2249 40.9433 34.2182 40.8588 34.2402 40.7807C34.2623 40.7026 34.3114 40.6371 34.377 40.5982C34.4433 40.5608 34.5204 40.5534 34.5916 40.5776C34.6628 40.6018 34.7226 40.6557 34.758 40.7276C34.7921 40.8003 34.7988 40.8848 34.7768 40.963C34.7547 41.0411 34.7056 41.1066 34.64 41.1455ZM33.006 42.0909C32.9397 42.1283 32.8626 42.1357 32.7914 42.1115C32.7202 42.0873 32.6605 42.0334 32.625 41.9615C32.5906 41.8886 32.5837 41.8039 32.6058 41.7255C32.6279 41.6471 32.6771 41.5814 32.743 41.5425C32.8093 41.5051 32.8864 41.4978 32.9576 41.5219C33.0288 41.5461 33.0886 41.6 33.124 41.6719C33.1584 41.7448 33.1653 41.8295 33.1432 41.9079C33.1211 41.9863 33.0719 42.052 33.006 42.0909ZM33.779 39.3523C33.7127 39.3901 33.6355 39.3978 33.5641 39.3738C33.4926 39.3498 33.4326 39.296 33.397 39.2239C33.3626 39.1511 33.3557 39.0663 33.3778 38.9879C33.3999 38.9096 33.4491 38.8438 33.515 38.805C33.5814 38.7672 33.6587 38.7597 33.7302 38.7839C33.8016 38.8081 33.8616 38.8622 33.897 38.9344C33.9311 39.0071 33.9378 39.0916 33.9158 39.1697C33.8937 39.2479 33.8446 39.3134 33.779 39.3523ZM32.11 40.2867C32.0437 40.3241 31.9666 40.3315 31.8954 40.3073C31.8242 40.2831 31.7645 40.2292 31.729 40.1573C31.6949 40.0845 31.6882 40.0001 31.7102 39.9219C31.7323 39.8438 31.7814 39.7783 31.847 39.7394C31.9133 39.702 31.9904 39.6947 32.0616 39.7188C32.1328 39.743 32.1926 39.7969 32.228 39.8688C32.2621 39.9416 32.2688 40.0261 32.2468 40.1042C32.2247 40.1823 32.1756 40.2478 32.11 40.2867ZM35.026 39.7767C34.9597 39.8141 34.8827 39.8215 34.8114 39.7973C34.7402 39.7731 34.6805 39.7192 34.645 39.6473C34.6109 39.5745 34.6042 39.4901 34.6263 39.4119C34.6483 39.3338 34.6974 39.2683 34.763 39.2294C34.8293 39.192 34.9064 39.1847 34.9776 39.2088C35.0488 39.233 35.1086 39.2869 35.144 39.3588C35.1781 39.4316 35.1848 39.5161 35.1628 39.5942C35.1407 39.6723 35.0916 39.7378 35.026 39.7767Z" fill="#0A3B3C"/>
<path id="Vector_9" d="M30.8622 39.8623C30.7959 39.8993 30.7191 39.9065 30.6482 39.8823C30.5772 39.8581 30.5176 39.8045 30.4822 39.7328C30.448 39.6602 30.4411 39.5758 30.463 39.4977C30.4848 39.4196 30.5337 39.354 30.5992 39.315C30.6655 39.2776 30.7425 39.2702 30.8137 39.2944C30.885 39.3186 30.9447 39.3724 30.9802 39.4444C31.0142 39.5171 31.021 39.6016 30.9989 39.6797C30.9769 39.7579 30.9278 39.8234 30.8622 39.8623ZM32.4962 38.9179C32.4297 38.9557 32.3525 38.9632 32.281 38.939C32.2095 38.9148 32.1496 38.8608 32.1142 38.7885C32.0801 38.7158 32.0733 38.6313 32.0954 38.5532C32.1175 38.475 32.1666 38.4095 32.2322 38.3706C32.2986 38.3329 32.3759 38.3254 32.4473 38.3496C32.5188 38.3738 32.5787 38.4278 32.6142 38.5001C32.6482 38.5728 32.655 38.6573 32.6329 38.7354C32.6109 38.8135 32.5618 38.8791 32.4962 38.9179ZM34.1752 37.9484C34.1087 37.9857 34.0316 37.9929 33.9603 37.9685C33.8891 37.9441 33.8294 37.89 33.7942 37.8179C33.7601 37.7451 33.7533 37.6606 33.7754 37.5825C33.7975 37.5044 33.8466 37.4389 33.9122 37.4C33.9785 37.3626 34.0555 37.3552 34.1267 37.3794C34.198 37.4036 34.2577 37.4575 34.2932 37.5294C34.3542 37.7159 34.3112 37.8694 34.1752 37.9473V37.9484ZM33.4722 45.2891C33.4057 45.3268 33.3285 45.3344 33.257 45.3102C33.1855 45.286 33.1256 45.2319 33.0902 45.1597C33.0558 45.0868 33.0489 45.0021 33.0709 44.9237C33.093 44.8453 33.1423 44.7796 33.2082 44.7407C33.2746 44.703 33.3519 44.6954 33.4233 44.7196C33.4948 44.7438 33.5547 44.7979 33.5902 44.8701C33.6245 44.943 33.6314 45.0277 33.6094 45.1061C33.5873 45.1845 33.538 45.2502 33.4722 45.2891ZM35.1062 44.3426C35.0396 44.3802 34.9622 44.3876 34.8908 44.3632C34.8193 44.3388 34.7594 44.2845 34.7242 44.2121C34.6902 44.1392 34.6836 44.0546 34.7058 43.9765C34.7281 43.8983 34.7774 43.8329 34.8432 43.7942C34.9094 43.7572 34.9862 43.75 35.0572 43.7741C35.1281 43.7983 35.1877 43.8519 35.2232 43.9236C35.2573 43.9962 35.2642 44.0806 35.2423 44.1587C35.2205 44.2368 35.1716 44.3024 35.1062 44.3415V44.3426ZM34.7202 45.7103C34.6537 45.748 34.5765 45.7555 34.505 45.7313C34.4335 45.7071 34.3736 45.6531 34.3382 45.5808C34.3044 45.5082 34.2978 45.424 34.3199 45.3461C34.3419 45.2683 34.3908 45.2029 34.4562 45.1641C34.5225 45.1263 34.5996 45.1185 34.6711 45.1425C34.7425 45.1665 34.8025 45.2203 34.8382 45.2924C34.8722 45.3651 34.879 45.4496 34.8569 45.5277C34.8348 45.6059 34.7858 45.6714 34.7202 45.7103ZM33.8582 43.9192C33.792 43.9567 33.715 43.9642 33.6438 43.9403C33.5726 43.9163 33.5128 43.8627 33.4772 43.7909C33.4428 43.7181 33.4359 43.6333 33.4579 43.5549C33.48 43.4765 33.5293 43.4108 33.5952 43.3719C33.6615 43.3346 33.7385 43.3272 33.8097 43.3514C33.881 43.3756 33.9407 43.4294 33.9762 43.5014C34.0105 43.5742 34.0175 43.659 33.9954 43.7373C33.9733 43.8157 33.924 43.8814 33.8582 43.9203V43.9192ZM32.6092 43.4959C32.5428 43.5333 32.4658 43.5406 32.3946 43.5164C32.3233 43.4922 32.2636 43.4384 32.2282 43.3665C32.1938 43.2936 32.1869 43.2088 32.2089 43.1305C32.231 43.0521 32.2803 42.9864 32.3462 42.9475C32.4125 42.9101 32.4895 42.9027 32.5607 42.9269C32.632 42.9511 32.6917 43.005 32.7272 43.0769C32.7615 43.1498 32.7684 43.2345 32.7464 43.3129C32.7243 43.3913 32.675 43.457 32.6092 43.4959ZM34.2542 42.5121C34.1878 42.5494 34.1108 42.5568 34.0396 42.5326C33.9683 42.5084 33.9086 42.4546 33.8732 42.3826C33.8391 42.3099 33.8323 42.2254 33.8544 42.1473C33.8765 42.0692 33.9256 42.0037 33.9912 41.9648C34.0575 41.9274 34.1345 41.92 34.2057 41.9442C34.277 41.9684 34.3367 42.0222 34.3722 42.0942C34.4062 42.1669 34.413 42.2514 34.3909 42.3295C34.3689 42.4077 34.3198 42.4732 34.2542 42.5121ZM30.6702 30.7152C30.6037 30.7529 30.5265 30.7605 30.455 30.7362C30.3835 30.712 30.3236 30.658 30.2882 30.5857C30.2541 30.513 30.2473 30.4285 30.2694 30.3504C30.2915 30.2723 30.3406 30.2067 30.4062 30.1679C30.4726 30.1302 30.5499 30.1226 30.6213 30.1468C30.6928 30.171 30.7527 30.2251 30.7882 30.2973C30.8602 30.4465 30.8412 30.6483 30.6702 30.7152ZM32.3382 29.784C32.2718 29.8214 32.1948 29.8288 32.1236 29.8046C32.0523 29.7804 31.9926 29.7265 31.9572 29.6546C31.9231 29.5818 31.9163 29.4974 31.9384 29.4192C31.9605 29.3411 32.0096 29.2756 32.0752 29.2367C32.1415 29.1993 32.2185 29.1919 32.2897 29.2161C32.361 29.2403 32.4207 29.2942 32.4562 29.3661C32.4899 29.4388 32.4965 29.523 32.4744 29.6008C32.4524 29.6787 32.4035 29.744 32.3382 29.7829V29.784ZM29.8082 28.9252C29.7417 28.9629 29.6645 28.9705 29.593 28.9463C29.5215 28.9221 29.4616 28.868 29.4262 28.7958C29.3918 28.723 29.3849 28.6382 29.4069 28.5598C29.429 28.4814 29.4783 28.4157 29.5442 28.3768C29.6106 28.3391 29.6879 28.3315 29.7593 28.3558C29.8308 28.38 29.8907 28.434 29.9262 28.5063C29.9605 28.5791 29.9675 28.6639 29.9454 28.7422C29.9233 28.8206 29.874 28.8863 29.8082 28.9252ZM31.4422 27.9798C31.3758 28.0172 31.2988 28.0246 31.2276 28.0004C31.1563 27.9762 31.0966 27.9223 31.0612 27.8504C31.0271 27.7776 31.0203 27.6932 31.0424 27.615C31.0645 27.5369 31.1136 27.4714 31.1792 27.4325C31.2454 27.3955 31.3222 27.3883 31.3932 27.4125C31.4641 27.4366 31.5237 27.4903 31.5592 27.5619C31.6662 27.7232 31.6132 27.9129 31.4422 27.9798ZM32.7242 28.4152C32.6578 28.4526 32.5808 28.46 32.5096 28.4358C32.4383 28.4116 32.3786 28.3578 32.3432 28.2858C32.3091 28.2131 32.3023 28.1286 32.3244 28.0505C32.3465 27.9723 32.3956 27.9068 32.4612 27.8679C32.5274 27.8305 32.6043 27.8229 32.6755 27.8469C32.7467 27.8709 32.8065 27.9245 32.8422 27.9963C32.8765 28.0691 32.8835 28.1539 32.8614 28.2322C32.8393 28.3106 32.79 28.3763 32.7242 28.4152ZM31.0562 29.3497C30.9896 29.3873 30.9122 29.3947 30.8408 29.3703C30.7693 29.3459 30.7094 29.2916 30.6742 29.2192C30.6401 29.1464 30.6333 29.0619 30.6554 28.9838C30.6775 28.9057 30.7266 28.8402 30.7922 28.8013C30.8586 28.7636 30.9359 28.756 31.0073 28.7802C31.0788 28.8044 31.1387 28.8585 31.1742 28.9307C31.2802 29.0919 31.2272 29.2817 31.0562 29.3486V29.3497ZM31.8392 26.5726C31.7728 26.61 31.6958 26.6174 31.6246 26.5932C31.5533 26.569 31.4936 26.5152 31.4582 26.4432C31.4241 26.3705 31.4173 26.286 31.4394 26.2079C31.4615 26.1298 31.5106 26.0642 31.5762 26.0254C31.6424 25.9883 31.7192 25.9811 31.7902 26.0053C31.8611 26.0295 31.9207 26.0831 31.9562 26.1548C32.0532 26.3533 32.0102 26.5057 31.8392 26.5715V26.5726ZM30.1942 27.5565C30.1278 27.5938 30.0508 27.6012 29.9796 27.577C29.9083 27.5528 29.8486 27.499 29.8132 27.427C29.7788 27.3542 29.7719 27.2694 29.7939 27.191C29.816 27.1127 29.8653 27.0469 29.9312 27.0081C29.9974 26.971 30.0742 26.9638 30.1452 26.988C30.2161 27.0122 30.2757 27.0658 30.3112 27.1375C30.3456 27.2102 30.3527 27.2949 30.3308 27.3732C30.3089 27.4516 30.2598 27.5174 30.1942 27.5565ZM33.9732 28.8386C33.907 28.876 33.83 28.8836 33.7588 28.8596C33.6876 28.8356 33.6278 28.782 33.5922 28.7103C33.5578 28.6374 33.5509 28.5527 33.5729 28.4743C33.595 28.3959 33.6443 28.3302 33.7102 28.2913C33.7765 28.2539 33.8535 28.2465 33.9247 28.2707C33.996 28.2949 34.0557 28.3488 34.0912 28.4207C34.1252 28.4934 34.132 28.5779 34.1099 28.6561C34.0878 28.7342 34.0388 28.7997 33.9732 28.8386ZM33.1222 27.0081C33.0559 27.0451 32.9791 27.0523 32.9082 27.0281C32.8372 27.0039 32.7776 26.9503 32.7422 26.8786C32.7077 26.8059 32.7006 26.7213 32.7225 26.6429C32.7444 26.5645 32.7935 26.4987 32.8592 26.4597C32.9255 26.4223 33.0025 26.4149 33.0737 26.4391C33.145 26.4633 33.2047 26.5171 33.2402 26.5891C33.3012 26.7766 33.2592 26.9291 33.1222 27.0081ZM28.9462 27.132C28.8799 27.169 28.8031 27.1762 28.7322 27.1521C28.6612 27.1279 28.6016 27.0742 28.5662 27.0026C28.532 26.93 28.5251 26.8456 28.547 26.7675C28.5688 26.6894 28.6177 26.6238 28.6832 26.5847C28.7495 26.5473 28.8265 26.5399 28.8977 26.5641C28.969 26.5883 29.0287 26.6422 29.0642 26.7141C29.0979 26.7868 29.1045 26.871 29.0824 26.9488C29.0604 27.0267 29.0115 27.092 28.9462 27.1309V27.132ZM30.5912 26.1482C30.5249 26.1852 30.4481 26.1924 30.3772 26.1683C30.3062 26.1441 30.2466 26.0904 30.2112 26.0188C30.1773 25.9463 30.1706 25.8622 30.1924 25.7843C30.2143 25.7065 30.263 25.6411 30.3282 25.602C30.3944 25.5645 30.4713 25.557 30.5425 25.581C30.6137 25.605 30.6735 25.6586 30.7092 25.7303C30.7702 25.9168 30.7282 26.0703 30.5912 26.1482ZM32.4172 34.351C32.3508 34.3883 32.2738 34.3957 32.2026 34.3715C32.1313 34.3473 32.0716 34.2935 32.0362 34.2215C32.0021 34.1488 31.9953 34.0643 32.0174 33.9862C32.0395 33.9081 32.0886 33.8426 32.1542 33.8037C32.2205 33.7663 32.2975 33.7589 32.3687 33.7831C32.44 33.8073 32.4997 33.8611 32.5352 33.9331C32.5689 34.0057 32.5755 34.0899 32.5534 34.1678C32.5314 34.2457 32.4825 34.311 32.4172 34.3499V34.351ZM34.0502 33.4066C33.9839 33.4437 33.9071 33.4509 33.8362 33.4267C33.7652 33.4025 33.7056 33.3489 33.6702 33.2772C33.6357 33.2045 33.6286 33.1199 33.6505 33.0415C33.6724 32.9631 33.7215 32.8973 33.7872 32.8583C33.8536 32.8205 33.9309 32.813 34.0023 32.8372C34.0738 32.8614 34.1337 32.9154 34.1692 32.9877C34.2035 33.0605 34.2105 33.1453 34.1884 33.2237C34.1663 33.302 34.117 33.3678 34.0512 33.4066H34.0502ZM31.5552 32.5577C31.4888 32.5951 31.4118 32.6025 31.3406 32.5783C31.2693 32.5541 31.2096 32.5003 31.1742 32.4283C31.1401 32.3556 31.1333 32.2711 31.1554 32.193C31.1775 32.1149 31.2266 32.0493 31.2922 32.0105C31.3585 31.9731 31.4355 31.9657 31.5067 31.9899C31.578 32.0141 31.6377 32.0679 31.6732 32.1399C31.7072 32.2126 31.714 32.2971 31.6919 32.3752C31.6698 32.4533 31.6208 32.5189 31.5552 32.5577ZM33.2002 31.575C33.1338 31.6124 33.0568 31.6198 32.9856 31.5956C32.9143 31.5714 32.8546 31.5176 32.8192 31.4456C32.7848 31.3728 32.7779 31.288 32.7999 31.2096C32.822 31.1312 32.8713 31.0655 32.9372 31.0266C33.0035 30.9893 33.0805 30.9819 33.1517 31.0061C33.223 31.0303 33.2827 31.0841 33.3182 31.1561C33.3525 31.2289 33.3594 31.3137 33.3374 31.392C33.3153 31.4704 33.266 31.5361 33.2002 31.575ZM34.4482 31.9984C34.3817 32.0361 34.3045 32.0437 34.233 32.0195C34.1615 31.9953 34.1016 31.9412 34.0662 31.869C34.0324 31.7963 34.0258 31.7121 34.0479 31.6343C34.0699 31.5564 34.1188 31.4911 34.1842 31.4522C34.2505 31.4144 34.3276 31.4067 34.3991 31.4307C34.4705 31.4547 34.5305 31.5085 34.5662 31.5805C34.6002 31.6533 34.607 31.7377 34.5849 31.8159C34.5629 31.894 34.5138 31.9595 34.4482 31.9984ZM32.8032 32.9822C32.7368 33.0196 32.6598 33.027 32.5886 33.0028C32.5173 32.9786 32.4576 32.9247 32.4222 32.8528C32.3881 32.78 32.3813 32.6955 32.4034 32.6174C32.4255 32.5393 32.4746 32.4738 32.5402 32.4349C32.6065 32.3975 32.6835 32.3901 32.7547 32.4143C32.826 32.4385 32.8857 32.4924 32.9212 32.5643C32.9549 32.6369 32.9615 32.7212 32.9394 32.799C32.9174 32.8769 32.8685 32.9422 32.8032 32.9811V32.9822ZM33.5862 30.2052C33.52 30.2426 33.443 30.2502 33.3718 30.2262C33.3006 30.2022 33.2408 30.1486 33.2052 30.0768C33.1708 30.004 33.1639 29.9192 33.1859 29.8409C33.208 29.7625 33.2573 29.6968 33.3232 29.6579C33.3895 29.6205 33.4665 29.6131 33.5377 29.6373C33.609 29.6615 33.6687 29.7153 33.7042 29.7873C33.7385 29.8601 33.7455 29.9449 33.7234 30.0233C33.7013 30.1017 33.652 30.1674 33.5862 30.2063V30.2052ZM31.9522 31.1506C31.8858 31.188 31.8088 31.1953 31.7376 31.1711C31.6663 31.147 31.6066 31.0931 31.5712 31.0212C31.5371 30.9484 31.5303 30.8639 31.5524 30.7858C31.5745 30.7077 31.6236 30.6422 31.6892 30.6033C31.7555 30.5659 31.8325 30.5585 31.9037 30.5827C31.975 30.6069 32.0347 30.6608 32.0702 30.7327C32.1042 30.8054 32.111 30.8899 32.0889 30.9681C32.0668 31.0462 32.0178 31.1117 31.9522 31.1506ZM34.8342 30.6296C34.7678 30.667 34.6908 30.6744 34.6196 30.6502C34.5483 30.626 34.4886 30.5721 34.4532 30.5002C34.4191 30.4275 34.4123 30.343 34.4344 30.2648C34.4565 30.1867 34.5056 30.1212 34.5712 30.0823C34.6375 30.0449 34.7145 30.0376 34.7857 30.0618C34.857 30.0859 34.9167 30.1398 34.9522 30.2117C34.9862 30.2845 34.993 30.369 34.9709 30.4471C34.9488 30.5252 34.8998 30.5907 34.8342 30.6296Z" fill="#0A3B3C"/>
<path id="Vector_10" d="M30.6691 30.7152C30.6028 30.7525 30.5257 30.7599 30.4545 30.7357C30.3833 30.7115 30.3235 30.6577 30.2881 30.5857C30.2539 30.5131 30.247 30.4287 30.2689 30.3506C30.2908 30.2725 30.3397 30.2069 30.4051 30.1679C30.4715 30.1302 30.5488 30.1226 30.6202 30.1468C30.6917 30.171 30.7516 30.2251 30.7871 30.2973C30.8591 30.4465 30.8401 30.6483 30.6691 30.7152ZM32.3381 29.7818C32.2718 29.8192 32.1947 29.8266 32.1235 29.8024C32.0523 29.7782 31.9925 29.7243 31.9571 29.6524C31.923 29.5796 31.9163 29.4952 31.9383 29.417C31.9604 29.3389 32.0095 29.2734 32.0751 29.2345C32.1414 29.1971 32.2184 29.1898 32.2897 29.2139C32.3609 29.2381 32.4206 29.292 32.4561 29.3639C32.4899 29.4366 32.4964 29.5208 32.4744 29.5986C32.4523 29.6765 32.4034 29.7418 32.3381 29.7807V29.7818ZM33.9721 28.8375C33.9059 28.8745 33.8291 28.8817 33.7581 28.8575C33.6871 28.8334 33.6275 28.7797 33.5921 28.7081C33.5576 28.6353 33.5506 28.5507 33.5724 28.4723C33.5943 28.394 33.6434 28.3282 33.7091 28.2891C33.7754 28.2517 33.8524 28.2443 33.9237 28.2685C33.9949 28.2927 34.0546 28.3466 34.0901 28.4185C34.1245 28.4914 34.1314 28.5761 34.1093 28.6545C34.0872 28.7329 34.0379 28.7986 33.9721 28.8375ZM34.1751 37.9451C34.1088 37.9825 34.0317 37.9899 33.9605 37.9657C33.8893 37.9415 33.8295 37.8876 33.7941 37.8157C33.76 37.7429 33.7533 37.6585 33.7753 37.5803C33.7974 37.5022 33.8465 37.4367 33.9121 37.3978C33.9783 37.3608 34.0551 37.3536 34.1261 37.3777C34.1971 37.4019 34.2566 37.4556 34.2921 37.5272C34.3541 37.7137 34.3121 37.8672 34.1751 37.9451ZM33.2791 36.142C33.2127 36.1797 33.1354 36.1873 33.0639 36.1631C32.9925 36.1389 32.9325 36.0848 32.8971 36.0126C32.8627 35.9397 32.8558 35.855 32.8779 35.7766C32.8999 35.6982 32.9492 35.6325 33.0151 35.5936C33.0815 35.5559 33.1588 35.5483 33.2302 35.5725C33.3017 35.5967 33.3616 35.6508 33.3971 35.723C33.4315 35.7959 33.4384 35.8806 33.4163 35.959C33.3942 36.0374 33.3449 36.1031 33.2791 36.142ZM34.9471 35.2076C34.8809 35.2446 34.8041 35.2518 34.7331 35.2276C34.6621 35.2034 34.6025 35.1498 34.5671 35.0781C34.5329 35.0055 34.526 34.9211 34.5479 34.843C34.5698 34.7649 34.6187 34.6993 34.6841 34.6603C34.7504 34.6229 34.8274 34.6155 34.8987 34.6397C34.9699 34.6639 35.0296 34.7177 35.0651 34.7897C35.0992 34.8624 35.1059 34.9469 35.0838 35.025C35.0618 35.1031 35.0127 35.1687 34.9471 35.2076ZM34.5611 36.5774C34.4946 36.6147 34.4175 36.6219 34.3463 36.5975C34.275 36.5731 34.2154 36.519 34.1801 36.4469C34.146 36.3742 34.1393 36.2897 34.1613 36.2116C34.1834 36.1334 34.2325 36.0679 34.2981 36.029C34.3644 35.9917 34.4414 35.9843 34.5127 36.0085C34.5839 36.0327 34.6436 36.0865 34.6791 36.1585C34.7132 36.2312 34.7199 36.3157 34.6978 36.3938C34.6758 36.4719 34.6267 36.5374 34.5611 36.5763V36.5774ZM33.6651 34.7732C33.5988 34.8106 33.5217 34.818 33.4505 34.7938C33.3793 34.7696 33.3195 34.7158 33.2841 34.6438C33.2496 34.5711 33.2426 34.4864 33.2644 34.4081C33.2863 34.3297 33.3354 34.2639 33.4011 34.2248C33.4675 34.1871 33.5448 34.1795 33.6162 34.2038C33.6877 34.228 33.7476 34.282 33.7831 34.3543C33.8175 34.4271 33.8244 34.5119 33.8023 34.5902C33.7802 34.6686 33.7309 34.7343 33.6651 34.7732ZM32.4171 34.3488C32.3508 34.3862 32.2737 34.3935 32.2025 34.3693C32.1313 34.3451 32.0715 34.2913 32.0361 34.2194C32.002 34.1466 31.9953 34.0621 32.0173 33.984C32.0394 33.9059 32.0885 33.8404 32.1541 33.8015C32.2204 33.7641 32.2974 33.7567 32.3687 33.7809C32.4399 33.8051 32.4996 33.859 32.5351 33.9309C32.5692 34.0036 32.5759 34.0881 32.5538 34.1663C32.5318 34.2444 32.4827 34.3099 32.4171 34.3488ZM34.0501 33.4045C33.9839 33.4415 33.9071 33.4487 33.8361 33.4245C33.7651 33.4003 33.7055 33.3467 33.6701 33.275C33.6356 33.2023 33.6286 33.1177 33.6504 33.0393C33.6723 32.9609 33.7214 32.8951 33.7871 32.8561C33.8535 32.8183 33.9308 32.8108 34.0022 32.835C34.0737 32.8592 34.1336 32.9133 34.1691 32.9855C34.2035 33.0583 34.2104 33.1431 34.1883 33.2215C34.1662 33.2998 34.1169 33.3656 34.0511 33.4045H34.0501ZM35.0271 39.7767C34.9607 39.8144 34.8834 39.822 34.8119 39.7978C34.7405 39.7736 34.6805 39.7195 34.6451 39.6473C34.611 39.5745 34.6043 39.4901 34.6263 39.4119C34.6484 39.3338 34.6975 39.2683 34.7631 39.2294C34.8295 39.1917 34.9068 39.1841 34.9782 39.2083C35.0497 39.2325 35.1096 39.2866 35.1451 39.3588C35.1792 39.4316 35.1859 39.5161 35.1638 39.5942C35.1418 39.6723 35.0927 39.7378 35.0271 39.7767Z" fill="#0A3B3C"/>
<path id="Vector_11" d="M34.176 37.9451C34.1098 37.9821 34.033 37.9893 33.962 37.9652C33.891 37.941 33.8314 37.8873 33.796 37.8157C33.7618 37.7431 33.7549 37.6587 33.7768 37.5806C33.7987 37.5025 33.8475 37.4369 33.913 37.3978C33.9793 37.3604 34.0563 37.353 34.1276 37.3772C34.1988 37.4014 34.2585 37.4553 34.294 37.5272C34.355 37.7137 34.313 37.8672 34.176 37.9451ZM34.834 30.6296C34.7677 30.667 34.6906 30.6744 34.6194 30.6502C34.5482 30.626 34.4884 30.5721 34.453 30.5002C34.4189 30.4275 34.4122 30.343 34.4342 30.2648C34.4563 30.1867 34.5054 30.1212 34.571 30.0823C34.6373 30.0449 34.7143 30.0376 34.7856 30.0618C34.8568 30.0859 34.9165 30.1398 34.952 30.2117C34.9861 30.2845 34.9928 30.369 34.9707 30.4471C34.9487 30.5252 34.8996 30.5907 34.834 30.6296ZM33.973 28.8375C33.9067 28.8749 33.8296 28.8822 33.7584 28.8581C33.6872 28.8339 33.6274 28.78 33.592 28.7081C33.5576 28.6352 33.5507 28.5505 33.5728 28.4721C33.5948 28.3937 33.6441 28.328 33.71 28.2891C33.7763 28.2517 33.8533 28.2443 33.9246 28.2685C33.9958 28.2927 34.0555 28.3466 34.091 28.4185C34.1254 28.4914 34.1323 28.5761 34.1102 28.6545C34.0881 28.7329 34.0388 28.7986 33.973 28.8375Z" fill="#0A3B3C"/>
</g>
<path id="Vector_12" fill-rule="evenodd" clip-rule="evenodd" d="M12.4841 58.5787C11.585 57.7489 10.7334 56.8592 9.93407 55.9146C11.9611 56.1121 14.5251 56.134 18.1181 56.134H18.1461C20.5761 56.2009 22.6481 56.0967 24.2861 55.8763C25.9531 55.6536 27.0791 55.3224 27.6801 54.9955C27.8821 54.8859 28.1081 54.8431 28.3321 54.8749C29.5321 55.0416 31.4321 55.1173 33.2771 54.8595C35.1791 54.5952 36.7561 54.0117 37.5801 53.0992C37.7881 52.8689 38.1981 52.1538 38.6661 50.8739C39.1141 49.6477 39.5681 48.0343 39.9221 46.1457C40.6321 42.3629 40.9291 37.5503 40.0341 32.6005C39.0551 27.2154 37.7591 22.3172 36.2941 18.7932C35.5601 17.0274 34.8091 15.6707 34.0781 14.7768C33.3331 13.8665 32.7451 13.5934 32.3241 13.5934C31.4571 13.5934 30.3791 13.6099 29.3691 13.759C28.3141 13.9159 27.5441 14.1901 27.1401 14.5465C27.0881 14.5926 26.9941 14.7176 26.9351 15.0401C26.8771 15.3614 26.8751 15.776 26.9271 16.2323C26.9791 16.6819 27.0771 17.1163 27.1821 17.4541C27.2272 17.6039 27.2817 17.7501 27.3451 17.8917C27.4422 18.0197 27.515 18.1677 27.5593 18.327C27.6036 18.4863 27.6185 18.6537 27.603 18.8194C27.5875 18.9851 27.5421 19.1457 27.4693 19.2919C27.3965 19.4381 27.2978 19.5668 27.1791 19.6706C26.9591 19.8637 26.8151 20.1379 26.7741 20.4384C26.7361 20.7148 26.7881 20.9977 26.9221 21.239C27.8315 22.3381 28.9943 23.1478 30.2881 23.5828C30.8581 23.6596 31.4381 23.607 31.9911 23.4315C32.1593 23.3777 32.3365 23.3672 32.5091 23.4006C32.6816 23.4341 32.8448 23.5107 32.986 23.6245C33.1272 23.7384 33.2426 23.8863 33.3232 24.0569C33.4039 24.2275 33.4476 24.4162 33.4511 24.6083C33.4992 27.2646 33.3272 29.9202 32.9371 32.5424C32.5371 34.4705 31.4901 36.3559 30.5671 37.8552C30.2977 38.289 30.025 38.7204 29.7491 39.1494C29.5731 39.4235 29.4101 39.6769 29.2751 39.8941C28.8901 40.5083 28.6731 40.9031 28.5891 41.1356C28.5169 41.3367 28.3984 41.5138 28.2453 41.6497C28.0922 41.7857 27.9095 41.8758 27.7152 41.9114C27.5209 41.9469 27.3215 41.9267 27.1364 41.8526C26.9513 41.7786 26.7869 41.6532 26.6591 41.4888C25.3751 39.8348 22.2711 37.8771 18.5991 36.7968C14.9591 35.7263 11.1041 35.6221 8.26907 37.2157C7.46081 37.7774 6.63884 38.3151 5.80407 38.828L5.58507 38.9651C4.86307 39.417 4.47507 39.678 4.23207 39.9182C4.05507 40.0937 3.99507 40.2187 3.96207 40.4414C3.91407 40.755 3.92807 41.2595 4.05407 42.2028C4.16007 42.9925 4.07207 44.0947 3.95107 45.1816C3.21724 42.978 2.7052 40.693 2.42407 38.3674C2.51094 38.2603 2.60308 38.1585 2.70007 38.0624C3.16407 37.6018 3.78907 37.207 4.45407 36.7902L4.67507 36.652C5.33207 36.2418 6.11907 35.7515 7.08207 35.0748C7.11207 35.0551 7.14107 35.0365 7.17207 35.0189C10.7411 32.9833 15.2851 33.2312 19.1901 34.3795C22.3701 35.3139 25.3571 36.9141 27.2751 38.6668L27.3921 38.4781C27.5661 38.2006 27.7381 37.9319 27.9141 37.6577C28.1551 37.2815 28.4041 36.8944 28.6751 36.4535C29.5791 34.986 30.3981 33.4483 30.7031 32.0236C30.9884 30.0668 31.1451 28.0901 31.1721 26.1087C30.7437 26.1355 30.314 26.116 29.8891 26.0506C29.8336 26.0422 29.7788 26.0294 29.7251 26.0122C27.9624 25.443 26.3809 24.342 25.1611 22.8348C25.1298 22.7966 25.1008 22.7563 25.0741 22.7142C24.6832 22.0914 24.4756 21.3522 24.4792 20.5962C24.4827 19.8401 24.6973 19.1034 25.0941 18.485C24.8857 17.8585 24.7414 17.2085 24.6641 16.547C24.5911 15.9285 24.5741 15.2243 24.6961 14.5509C24.8181 13.8786 25.1011 13.1317 25.7101 12.5954C26.6281 11.7848 27.9361 11.4448 29.0641 11.2792C30.2381 11.1037 31.4481 11.0895 32.3241 11.0895C33.6831 11.0895 34.8411 11.9603 35.7771 13.1054C36.7271 14.2657 37.5901 15.8769 38.3711 17.7557C39.9371 21.522 41.2761 26.6297 42.2731 32.1114C43.2391 37.4559 42.9151 42.6141 42.1581 46.6502C41.7781 48.6704 41.2881 50.4275 40.7851 51.805C40.3011 53.1299 39.7531 54.2508 39.2021 54.8617C37.8111 56.4005 35.5691 57.0641 33.5651 57.3437C31.841 57.5731 30.099 57.5922 28.3711 57.4008C27.4301 57.8351 26.1191 58.1532 24.5631 58.3615C22.7941 58.5984 20.6131 58.7059 18.1031 58.6379C15.9281 58.6379 14.0891 58.6335 12.4841 58.5798V58.5787Z" fill="#0B3B3C"/>
<path id="Vector_13" fill-rule="evenodd" clip-rule="evenodd" d="M31.078 3.54916C15.725 3.54916 3.28005 17.1996 3.28005 34.0384C3.28005 50.8772 15.726 64.5276 31.08 64.5276C46.432 64.5276 58.878 50.8772 58.878 34.0373C58.878 17.1996 46.432 3.54916 31.0791 3.54916H31.078ZM1.05005 34.0384C1.05005 15.8484 14.494 1.10226 31.078 1.10226C47.663 1.10226 61.1081 15.8484 61.1081 34.0384C61.1081 52.2273 47.663 66.9723 31.078 66.9723C14.494 66.9723 1.05005 52.2273 1.05005 34.0384Z" fill="#0B3B3D"/>
</g>
</g>
</svg>
