<svg width="62" height="68" viewBox="0 0 62 68" fill="none" xmlns="http://www.w3.org/2000/svg">
<g id="Frame">
<path id="Vector" fill-rule="evenodd" clip-rule="evenodd" d="M31.2658 3.59523C15.9297 3.59523 3.49819 17.3565 3.49819 34.3323C3.49819 51.3082 15.9297 65.0694 31.2658 65.0694C46.6008 65.0694 59.0323 51.3082 59.0323 34.3323C59.0323 17.3565 46.6008 3.59523 31.2658 3.59523ZM1.38599 34.3323C1.38599 16.0655 14.7633 1.2569 31.2658 1.2569C47.7672 1.2569 61.1445 16.0655 61.1445 34.3323C61.1445 52.5991 47.7672 67.4066 31.2658 67.4066C14.7633 67.4066 1.38599 52.5991 1.38599 34.3323Z" fill="#0B3B3D"/>
<path id="Vector_2" fill-rule="evenodd" clip-rule="evenodd" d="M31.2658 38.6558C32.0854 38.5988 32.8557 38.2511 33.6586 37.6961C34.3416 37.2223 34.9868 36.6454 35.6867 36.0181C35.8464 35.8755 36.0082 35.7296 36.1753 35.5826C37.8619 34.0888 39.972 32.3647 42.7747 33.071C43.9201 33.3024 44.8501 33.9693 45.6119 34.714C46.2992 35.3874 46.9087 36.1892 47.4362 36.8801L47.5917 37.0841L47.6043 37.1006C50.3723 40.8581 53.4471 40.9875 58.3545 41.1937L59.1805 41.2299L60.4856 41.287L60.1609 42.6875C56.876 56.8688 45.1653 67.4088 31.2658 67.4088C17.3589 67.4088 5.76171 56.8634 2.37167 42.6963L2.0354 41.2881L3.35001 41.2299L4.17598 41.1937C9.08343 40.9875 12.1582 40.8581 14.9272 37.1006L14.9388 37.0841L14.9945 37.0117C16.101 35.564 17.5711 33.6403 19.7264 33.0787H19.7296C22.5458 32.3526 24.6633 34.0834 26.3562 35.5826L26.8438 36.0181C27.5437 36.6454 28.1889 37.2223 28.8719 37.6961C29.6748 38.2511 30.4461 38.5988 31.2658 38.6558ZM20.2088 35.3545C18.8143 35.7186 17.7645 37.0073 16.5571 38.5867C13.2542 43.0615 9.3556 43.3248 4.78337 43.5101C8.34889 55.9728 18.8195 65.0705 31.2647 65.0705C43.7194 65.0705 54.2825 55.964 57.7576 43.5101C53.1812 43.3259 49.2794 43.0659 45.9734 38.5856L45.8347 38.4035C45.2883 37.6895 44.7776 37.0183 44.2122 36.4644C43.6069 35.8722 43.0142 35.4916 42.3785 35.3677L42.3512 35.3622L42.3238 35.3545C40.6004 34.9114 39.2333 35.8678 37.4941 37.4077L37.0528 37.8025C36.3487 38.4332 35.5816 39.1208 34.7788 39.678C33.7826 40.3668 32.6434 40.9217 31.3173 40.9941L31.2647 40.9963L31.2143 40.993C29.8881 40.9217 28.7479 40.3668 27.7528 39.6769C26.9489 39.1208 26.1818 38.4332 25.4777 37.8014C25.331 37.6697 25.1839 37.5384 25.0363 37.4077C23.2982 35.8678 21.9321 34.9114 20.2088 35.3545ZM27.4617 27.9425L31.9488 2.66626L29.7378 2.18477L24.987 28.9483C24.9218 29.3146 25.008 29.6941 25.2223 29.9814C25.4357 30.2699 25.7551 30.4366 26.0924 30.4366H35.383C35.6982 30.4366 35.9998 30.2896 36.2132 30.0319C37.1852 28.8583 37.739 27.7177 37.9534 26.6198C38.1487 25.6597 38.0712 24.6611 37.7306 23.7463C37.3792 22.8175 36.7939 22.005 36.0366 21.3948L36.0198 21.3816L36.0135 21.3772L36.0103 21.375L36.0093 21.3739L35.383 22.4104C34.7577 23.4479 34.7577 23.4479 34.7567 23.4468L34.7546 23.4457L34.7514 23.4435L34.7493 23.4414L34.7588 23.449L34.8218 23.5028C35.187 23.8245 35.4707 24.235 35.6478 24.6983C35.7886 25.0755 35.8611 25.5329 35.7529 26.0912C35.6573 26.5737 35.4135 27.1945 34.8681 27.9425H27.4617Z" fill="#0B3B3D"/>
<path id="Vector_3" fill-rule="evenodd" clip-rule="evenodd" d="M23.7701 47.2874L24.5162 48.1144C28.4327 52.4499 34.7315 52.4499 38.648 48.1144L39.3941 47.2874L40.8884 48.9403L40.1423 49.7672C35.4009 55.0153 27.7633 55.0153 23.023 49.7672L22.2769 48.9403L23.7691 47.2874H23.7701Z" fill="#0B3B3D"/>
<mask id="mask0_1_377" style="mask-type:alpha" maskUnits="userSpaceOnUse" x="2" y="32" width="59" height="36">
<g id="a">
<path id="Vector_4" d="M31.2658 38.6558C32.0854 38.5988 32.8557 38.2511 33.6586 37.6961C34.3416 37.2223 34.9868 36.6454 35.6867 36.0181C35.8464 35.8755 36.0082 35.7296 36.1753 35.5826C37.8619 34.0888 39.972 32.3647 42.7747 33.071C43.9201 33.3025 44.8501 33.9693 45.6119 34.714C46.2992 35.3874 46.9087 36.1892 47.4362 36.8801L47.5917 37.0841L47.6043 37.1006C50.3733 40.8581 53.4471 40.9875 58.3545 41.1937L59.1805 41.2299L60.4856 41.287L60.1609 42.6875C56.876 56.8688 45.1653 67.4088 31.2658 67.4088C17.3589 67.4088 5.76171 56.8634 2.37167 42.6963L2.0354 41.2881L3.35001 41.2299L4.17598 41.1937C9.08343 40.9875 12.1582 40.8581 14.9272 37.1006L14.9388 37.0841L14.9945 37.0117C16.101 35.564 17.5711 33.6403 19.7264 33.0787H19.7296C22.5458 32.3526 24.6633 34.0834 26.3562 35.5826L26.8438 36.0181C27.5437 36.6454 28.1889 37.2223 28.8719 37.6961C29.6748 38.2511 30.4461 38.5988 31.2658 38.6558Z" fill="#C4C4C4"/>
</g>
</mask>
<g mask="url(#mask0_1_377)">
<g id="Group">
<path id="Vector_5" d="M8.90791 61.3152C8.90371 61.755 9.23157 62.118 9.62984 62.1136C10.0271 62.1103 10.3612 61.7407 10.3654 61.2998C10.3686 60.86 10.0397 60.4959 9.64351 60.5003C9.24523 60.5046 8.91106 60.8754 8.90791 61.3152ZM4.02673 66.7201C4.02252 67.1588 4.35039 67.5229 4.74866 67.5185C5.14588 67.5141 5.48005 67.1445 5.48425 66.7047C5.4874 66.2638 5.15849 65.9008 4.76232 65.9052C4.36405 65.9096 4.02988 66.2792 4.02673 66.719V66.7201ZM1.66337 64.1021C1.65917 64.5419 1.98808 64.9049 2.3853 64.9016C2.78252 64.8972 3.11669 64.5265 3.1209 64.0867C3.12405 63.6469 2.79618 63.2839 2.39896 63.2872C2.00069 63.2916 1.66652 63.6612 1.66337 64.1021ZM6.50042 63.9792C6.49727 64.4201 6.82618 64.7832 7.22235 64.7799C7.62062 64.7744 7.95479 64.4048 7.95795 63.965C7.96215 63.5252 7.63428 63.161 7.23601 63.1654C6.83879 63.1698 6.50462 63.5394 6.50042 63.9792ZM4.13706 61.3645C4.13391 61.8032 4.46283 62.1674 4.859 62.163C5.25727 62.1597 5.59144 61.7901 5.59459 61.3492C5.59879 60.9094 5.27093 60.5452 4.87266 60.5496C4.47544 60.554 4.14127 60.9236 4.13706 61.3645ZM1.70856 58.6752C1.7054 59.1161 2.03432 59.4792 2.43154 59.4759C2.82876 59.4715 3.16293 59.1008 3.16713 58.661C3.17029 58.2212 2.84137 57.857 2.44415 57.8614C2.04693 57.8658 1.71276 58.2354 1.70856 58.6752Z" fill="#0A3B3C"/>
<path id="Vector_6" d="M8.90798 61.3152C8.90483 61.755 9.23374 62.118 9.62991 62.1136C10.0282 62.1103 10.3624 61.7407 10.3655 61.2998C10.3697 60.86 10.0418 60.4959 9.64357 60.5003C9.24635 60.5046 8.91218 60.8754 8.90798 61.3152ZM18.6042 50.581C18.601 51.0197 18.9299 51.3839 19.3261 51.3795C19.7244 51.3762 20.0585 51.0066 20.0617 50.5657C20.0659 50.1259 19.738 49.7617 19.3397 49.7661C18.9425 49.7705 18.6084 50.1401 18.6042 50.581Z" fill="#0A3B3C"/>
<path id="Vector_7" d="M8.90789 61.3152C8.90369 61.755 9.2326 62.118 9.62982 62.1136C10.027 62.1103 10.3623 61.7407 10.3654 61.2998C10.3696 60.86 10.0407 60.4959 9.64348 60.5003C9.24626 60.5046 8.9121 60.8754 8.90789 61.3152ZM8.95203 56.0342C8.94782 56.474 9.27674 56.8381 9.67396 56.8348C10.0722 56.8294 10.4064 56.4597 10.4096 56.0199C10.4138 55.579 10.0848 55.216 9.68762 55.2193C9.2904 55.2248 8.95623 55.5944 8.95203 56.0342ZM6.52352 53.3471C6.52037 53.7858 6.84928 54.1499 7.24545 54.1456C7.64372 54.1412 7.97789 53.7716 7.98104 53.3317C7.98525 52.8908 7.65738 52.5278 7.25911 52.5311C6.86189 52.5355 6.52772 52.9062 6.52352 53.346V53.3471ZM13.7901 55.9103C13.7859 56.3501 14.1148 56.7142 14.5121 56.7098C14.9093 56.7054 15.2435 56.3358 15.2477 55.8949C15.2519 55.4562 14.9229 55.0921 14.5257 55.0954C14.0612 55.1743 13.7933 55.4705 13.7901 55.9103ZM11.4268 53.2945C11.4226 53.7343 11.7515 54.0984 12.1487 54.0951C12.5459 54.0896 12.8811 53.72 12.8843 53.2802C12.8885 52.8393 12.5596 52.4763 12.1624 52.4795C11.6979 52.5585 11.4299 52.8546 11.4268 53.2945ZM8.99826 50.6063C8.99406 51.0461 9.32298 51.4102 9.7202 51.4058C10.1174 51.4014 10.4526 51.0318 10.4558 50.592C10.46 50.1511 10.1311 49.7881 9.73386 49.7914C9.26938 49.8703 9.00142 50.1665 8.99826 50.6063ZM11.3154 58.65C11.3112 59.0898 11.6401 59.4539 12.0373 59.4496C12.4356 59.4452 12.7698 59.0756 12.7729 58.6346C12.7771 58.1959 12.4482 57.8318 12.051 57.8362C11.6538 57.8395 11.3185 58.2091 11.3154 58.65ZM16.1976 53.2451C16.1934 53.686 16.5223 54.049 16.9196 54.0457C17.3168 54.0403 17.6509 53.6706 17.6551 53.2308C17.6593 52.7899 17.3304 52.4269 16.9332 52.4302C16.5349 52.4357 16.2008 52.8053 16.1976 53.2451ZM13.8343 50.6304C13.8301 51.0691 14.159 51.4332 14.5562 51.4288C14.9534 51.4255 15.2886 51.0559 15.2918 50.615C15.296 50.1752 14.9671 49.8111 14.5699 49.8155C14.1716 49.8199 13.8374 50.1895 13.8343 50.6293V50.6304ZM11.4058 47.9411C11.4026 48.382 11.7305 48.745 12.1277 48.7417C12.5249 48.7363 12.8601 48.3666 12.8633 47.9268C12.8675 47.487 12.5386 47.1229 12.1413 47.1262C11.7441 47.1317 11.4089 47.5013 11.4058 47.9411ZM18.6051 50.581C18.6009 51.0197 18.9298 51.3839 19.327 51.3795C19.7243 51.3762 20.0595 51.0066 20.0626 50.5657C20.0668 50.1259 19.7379 49.7617 19.3407 49.7661C18.9424 49.7705 18.6083 50.1401 18.6051 50.581ZM4.13599 61.3623C4.13284 61.8021 4.46176 62.1652 4.85898 62.1619C5.2562 62.1575 5.59037 61.7868 5.59457 61.347C5.59772 60.9072 5.26881 60.5441 4.87264 60.5474C4.47437 60.5518 4.1402 60.9214 4.13704 61.3623H4.13599ZM1.70854 58.673C1.70433 59.1139 2.03325 59.477 2.43047 59.4737C2.82769 59.4693 3.16186 59.0986 3.16606 58.6588C3.16921 58.219 2.84135 57.8548 2.44413 57.8592C2.04586 57.8636 1.71169 58.2332 1.70854 58.673ZM1.75162 53.3932C1.74847 53.833 2.07738 54.1971 2.4746 54.1927C2.87182 54.1883 3.20599 53.8187 3.2102 53.3778C3.21335 52.9391 2.88443 52.575 2.48721 52.5794C2.08999 52.5826 1.75582 52.9523 1.75162 53.3932ZM6.54454 58.6972C6.54033 59.137 6.8682 59.5011 7.26647 59.4967C7.66369 59.4923 7.99786 59.1227 8.00206 58.6818C8.00521 58.2431 7.6763 57.879 7.28013 57.8834C6.88186 57.8867 6.54769 58.2563 6.54454 58.6972ZM4.11603 56.009C4.11182 56.4488 4.44074 56.8118 4.83796 56.8085C5.23518 56.8041 5.56935 56.4345 5.57355 55.9936C5.57671 55.5538 5.24884 55.1908 4.85162 55.1941C4.45335 55.1985 4.11918 55.5692 4.11603 56.009ZM4.15911 50.728C4.15596 51.1689 4.48487 51.5319 4.8821 51.5286C5.27932 51.5232 5.61349 51.1535 5.61769 50.7137C5.62084 50.2739 5.29193 49.9098 4.89471 49.9131C4.49748 49.9186 4.16332 50.2882 4.15911 50.728Z" fill="#0A3B3C"/>
<path id="Vector_8" d="M8.90785 61.3152C8.90365 61.755 9.23151 62.118 9.62978 62.1136C10.027 62.1103 10.3612 61.7407 10.3654 61.2998C10.3685 60.86 10.0396 60.4959 9.64344 60.5003C9.24517 60.5046 8.911 60.8754 8.90785 61.3152ZM8.95199 56.0342C8.94778 56.474 9.27565 56.8381 9.67392 56.8348C10.0711 56.8294 10.4053 56.4597 10.4095 56.0199C10.4127 55.579 10.0837 55.216 9.68758 55.2193C9.28931 55.2248 8.95514 55.5944 8.95199 56.0342ZM6.52348 53.3471C6.51927 53.7858 6.84819 54.1499 7.24541 54.1456C7.64263 54.1412 7.9768 53.7716 7.981 53.3317C7.98415 52.8908 7.65629 52.5278 7.25907 52.5311C6.8608 52.5355 6.52663 52.9062 6.52348 53.346V53.3471ZM18.6051 50.581C18.6009 51.0197 18.9298 51.3839 19.327 51.3795C19.7242 51.3762 20.0594 51.0066 20.0626 50.5657C20.0668 50.1259 19.7379 49.7617 19.3407 49.7661C18.9424 49.7705 18.6082 50.1401 18.6051 50.581ZM18.6492 45.2979C18.6461 45.7377 18.9739 46.1018 19.3711 46.0985C19.7694 46.093 20.1036 45.7234 20.1067 45.2836C20.1109 44.8427 19.782 44.4797 19.3848 44.483C18.9876 44.4885 18.6534 44.8581 18.6492 45.2979ZM16.2207 42.6119C16.2165 43.0517 16.5454 43.4158 16.9426 43.4114C17.3399 43.407 17.6751 43.0374 17.6782 42.5965C17.6824 42.1578 17.3535 41.7937 16.9563 41.797C16.5591 41.8014 16.2249 42.1721 16.2207 42.6119ZM23.4863 45.1761C23.4831 45.6159 23.812 45.979 24.2092 45.9757C24.6065 45.9713 24.9406 45.6017 24.9448 45.1608C24.948 44.721 24.6191 44.3579 24.2229 44.3612C23.8246 44.3656 23.4905 44.7363 23.4873 45.1761H23.4863ZM21.124 42.5603C21.1197 43.0001 21.4476 43.3643 21.8459 43.3599C22.2431 43.3555 22.5773 42.9859 22.5815 42.5461C22.5846 42.1052 22.2557 41.7421 21.8595 41.7454C21.4613 41.7498 21.1271 42.1205 21.124 42.5603ZM18.6944 39.8721C18.6912 40.3119 19.0202 40.6761 19.4174 40.6717C19.8146 40.6673 20.1488 40.2977 20.153 39.8568C20.1561 39.4181 19.8283 39.0539 19.431 39.0572C19.0328 39.0616 18.6986 39.4323 18.6954 39.8721H18.6944ZM21.0126 47.9159C21.0084 48.3557 21.3373 48.7187 21.7345 48.7154C22.1317 48.711 22.4669 48.3403 22.4701 47.9005C22.4743 47.4607 22.1454 47.0977 21.7482 47.1021C21.3499 47.1054 21.0157 47.475 21.0126 47.9159ZM9.04131 45.3242C9.03816 45.7629 9.36602 46.127 9.76324 46.1226C10.1615 46.1194 10.4957 45.7497 10.4988 45.3088C10.503 44.869 10.1752 44.5049 9.7769 44.5093C9.37968 44.5137 9.04551 44.8833 9.04131 45.3242ZM13.8332 50.6271C13.83 51.068 14.1589 51.431 14.5562 51.4277C14.9534 51.4234 15.2875 51.0526 15.2917 50.6128C15.2949 50.173 14.966 49.8089 14.5688 49.8133C14.1715 49.8177 13.8374 50.1873 13.8332 50.6282V50.6271ZM11.4057 47.94C11.4015 48.3787 11.7294 48.7428 12.1276 48.7385C12.5249 48.7352 12.859 48.3656 12.8632 47.9246C12.8664 47.4848 12.5375 47.1207 12.1403 47.1251C11.743 47.1295 11.4089 47.4991 11.4047 47.9389L11.4057 47.94ZM11.4488 42.659C11.4456 43.0988 11.7735 43.4619 12.1707 43.4586C12.569 43.4542 12.9032 43.0835 12.9063 42.6437C12.9105 42.2039 12.5827 41.8408 12.1844 41.8452C11.7872 41.8485 11.453 42.2181 11.4488 42.659ZM16.2407 47.9619C16.2375 48.4028 16.5664 48.767 16.9626 48.7626C17.3609 48.7582 17.695 48.3886 17.6982 47.9477C17.7024 47.509 17.3745 47.1448 16.9763 47.1481C16.579 47.1525 16.2449 47.5232 16.2407 47.963V47.9619ZM13.8132 45.2748C13.809 45.7146 14.1369 46.0777 14.5351 46.0744C14.9324 46.07 15.2665 45.6993 15.2707 45.2595C15.2739 44.8197 14.945 44.4555 14.5477 44.4599C14.1505 44.4643 13.8164 44.835 13.8122 45.2748H13.8132ZM9.08544 40.0432C9.08229 40.483 9.41121 40.8472 9.80843 40.8428C10.2056 40.8384 10.5398 40.4688 10.544 40.029C10.5472 39.5881 10.2183 39.225 9.82104 39.2283C9.42382 39.2338 9.08965 39.6034 9.08544 40.0432ZM13.8563 39.9939C13.8531 40.4337 14.1821 40.7978 14.5782 40.7945C14.9765 40.789 15.3107 40.4194 15.3138 39.9796C15.318 39.5387 14.9902 39.1757 14.5919 39.179C14.1947 39.1845 13.8605 39.5541 13.8563 39.9939Z" fill="#0A3B3C"/>
<path id="Vector_9" d="M18.6042 50.581C18.601 51.0197 18.9299 51.3839 19.3272 51.3795C19.7244 51.3762 20.0585 51.0066 20.0627 50.5657C20.0659 50.1259 19.737 49.7617 19.3398 49.7661C18.9425 49.7705 18.6084 50.1401 18.6042 50.581ZM18.6483 45.3001C18.6452 45.7399 18.9741 46.104 19.3713 46.0996C19.7685 46.0952 20.1027 45.7256 20.1069 45.2858C20.11 44.8449 19.7811 44.4819 19.3839 44.4852C18.9867 44.4896 18.6525 44.8603 18.6483 45.3001ZM16.2198 42.6119C16.2166 43.0517 16.5456 43.4158 16.9428 43.4114C17.34 43.407 17.6742 43.0374 17.6784 42.5965C17.6815 42.1578 17.3526 41.7937 16.9554 41.797C16.5582 41.8014 16.224 42.1721 16.2198 42.6119ZM4.16027 50.728C4.15607 51.1689 4.48498 51.5319 4.8822 51.5286C5.27942 51.5232 5.61359 51.1535 5.6178 50.7137C5.62095 50.2739 5.29308 49.9098 4.89586 49.9131C4.49759 49.9186 4.16342 50.2882 4.16027 50.728ZM4.27166 45.3735C4.26746 45.8123 4.59532 46.1764 4.99359 46.172C5.39081 46.1687 5.72498 45.7991 5.72919 45.3582C5.73234 44.9184 5.40447 44.5543 5.00725 44.5586C4.54278 44.6365 4.27481 44.9326 4.27166 45.3735ZM1.9083 42.7577C1.9041 43.1976 2.23302 43.5606 2.63024 43.5573C3.02746 43.5529 3.36163 43.1833 3.36583 42.7424C3.36898 42.3026 3.04112 41.9396 2.6439 41.9428C2.17942 42.0218 1.91146 42.3179 1.9083 42.7577ZM1.79691 48.1133C1.79271 48.552 2.12163 48.9161 2.51885 48.9117C2.91607 48.9085 3.25129 48.5388 3.25444 48.0979C3.25864 47.6581 2.92973 47.294 2.53251 47.2984C2.13529 47.3028 1.80007 47.6724 1.79691 48.1133ZM6.67915 42.7084C6.67495 43.1482 7.00281 43.5112 7.40108 43.5079C7.79831 43.5035 8.13247 43.1339 8.13668 42.693C8.13983 42.2532 7.81197 41.8902 7.41475 41.8935C7.01647 41.8979 6.6823 42.2686 6.67915 42.7084ZM6.63397 47.9905C6.63081 48.4303 6.95973 48.7944 7.35695 48.7911C7.75417 48.7856 8.08834 48.416 8.09254 47.9762C8.09569 47.5353 7.76678 47.1723 7.36956 47.1755C6.90614 47.2545 6.63817 47.5506 6.63397 47.9905ZM4.3158 40.0926C4.31159 40.5324 4.64051 40.8965 5.03773 40.8921C5.43495 40.8877 5.76912 40.5181 5.77332 40.0783C5.77647 39.6374 5.44861 39.2744 5.05139 39.2777C4.65312 39.2821 4.31895 39.6528 4.3158 40.0926ZM9.04146 45.3264C9.0383 45.7651 9.36722 46.1292 9.76444 46.1248C10.1617 46.1215 10.4958 45.7519 10.5 45.311C10.5032 44.8712 10.1743 44.5071 9.77705 44.5115C9.37983 44.5159 9.04566 44.8855 9.04146 45.3264ZM9.08664 40.0432C9.08244 40.483 9.41136 40.8472 9.80858 40.8428C10.2058 40.8384 10.54 40.4688 10.5442 40.029C10.5473 39.5881 10.2195 39.225 9.82224 39.2283C9.42397 39.2338 9.0898 39.6034 9.08664 40.0432Z" fill="#0A3B3C"/>
<path id="Vector_10" d="M9.0866 40.0432C9.0824 40.483 9.41131 40.8472 9.80854 40.8428C10.2058 40.8384 10.5399 40.4688 10.5441 40.029C10.5473 39.5881 10.2194 39.225 9.8222 39.2283C9.42393 39.2338 9.08976 39.6034 9.0866 40.0432ZM9.13074 34.7634C9.12654 35.2032 9.45545 35.5662 9.85267 35.5629C10.2499 35.5585 10.5841 35.1878 10.5883 34.748C10.5914 34.3082 10.2636 33.9452 9.86633 33.9485C9.46806 33.9528 9.13389 34.3225 9.13074 34.7634ZM13.8575 39.9939C13.8532 40.4337 14.1811 40.7978 14.5794 40.7945C14.9766 40.789 15.3108 40.4194 15.315 39.9796C15.3181 39.5387 14.9892 39.1757 14.592 39.179C14.1948 39.1845 13.8606 39.5541 13.8564 39.9939H13.8575ZM13.9678 34.6383C13.9646 35.0792 14.2936 35.4423 14.6908 35.439C15.088 35.4335 15.4222 35.0639 15.4264 34.6241C15.4295 34.1843 15.1006 33.8201 14.7034 33.8245C14.3062 33.8289 13.972 34.1985 13.9678 34.6383ZM11.6044 32.0236C11.6013 32.4623 11.9302 32.8265 12.3274 32.8232C12.7246 32.8188 13.0588 32.4481 13.063 32.0083C13.0662 31.5685 12.7372 31.2043 12.34 31.2087C11.9428 31.2131 11.6086 31.5827 11.6044 32.0236ZM11.4941 37.3781C11.4899 37.819 11.8178 38.182 12.216 38.1787C12.6132 38.1743 12.9474 37.8036 12.9516 37.3638C12.9548 36.924 12.6269 36.5599 12.2297 36.5643C11.8314 36.5686 11.4972 36.9383 11.4941 37.3781ZM16.3311 37.2541C16.328 37.6939 16.6559 38.0581 17.0531 38.0537C17.4514 38.0493 17.7855 37.6797 17.7887 37.2399C17.7929 36.799 17.465 36.4359 17.0667 36.4392C16.6695 36.4447 16.3354 36.8143 16.3311 37.2541ZM4.31576 40.0904C4.31155 40.5302 4.64047 40.8943 5.03769 40.8899C5.43491 40.8856 5.76908 40.5159 5.77328 40.0761C5.77643 39.6352 5.44857 39.2722 5.05135 39.2755C4.65308 39.2799 4.31891 39.6506 4.31576 40.0904ZM4.29369 34.737C4.29054 35.1779 4.61945 35.541 5.01667 35.5377C5.41389 35.5322 5.74806 35.1626 5.75226 34.7228C5.75542 34.2819 5.4265 33.9188 5.02928 33.9221C4.63206 33.9276 4.29789 34.2972 4.29369 34.737ZM1.93138 32.1223C1.92718 32.561 2.25504 32.9252 2.65331 32.9208C3.05054 32.9175 3.3847 32.5479 3.38891 32.107C3.39206 31.6672 3.0642 31.303 2.66698 31.3074C2.2687 31.3118 1.93454 31.6814 1.93138 32.1212V32.1223ZM1.88725 37.4022C1.88304 37.842 2.21091 38.2061 2.60918 38.2017C3.0064 38.1974 3.34057 37.8277 3.34477 37.3868C3.34793 36.9481 3.02006 36.584 2.62284 36.5873C2.22457 36.5917 1.8904 36.9624 1.88725 37.4022ZM6.70118 32.073C6.69803 32.5117 7.02694 32.8758 7.42416 32.8714C7.82138 32.8681 8.15555 32.4985 8.15976 32.0576C8.16291 31.6178 7.83399 31.2537 7.43677 31.2581C7.03955 31.2625 6.70538 31.6321 6.70118 32.073ZM6.72325 37.4252C6.71904 37.8661 7.04796 38.2292 7.44518 38.2259C7.8424 38.2215 8.17657 37.8508 8.18077 37.411C8.18393 36.9712 7.85606 36.607 7.45884 36.6114C7.06057 36.6158 6.7264 36.9854 6.72325 37.4252Z" fill="#0A3B3C"/>
<path id="Vector_11" d="M9.08647 40.041C9.08226 40.4808 9.41118 40.845 9.8084 40.8406C10.2056 40.8362 10.5398 40.4666 10.544 40.0268C10.5471 39.5859 10.2193 39.2228 9.82206 39.2261C9.42379 39.2316 9.08962 39.6012 9.08647 40.041ZM9.1306 34.7612C9.1264 35.201 9.45531 35.564 9.85253 35.5607C10.2498 35.5563 10.5839 35.1856 10.5881 34.7458C10.5913 34.306 10.2634 33.943 9.86619 33.9463C9.46792 33.9506 9.13375 34.3203 9.1306 34.7612ZM35.6571 31.7023C35.654 32.1421 35.9829 32.5051 36.3801 32.5018C36.7773 32.4974 37.1115 32.1267 37.1157 31.6869C37.1189 31.2471 36.79 30.8841 36.3927 30.8874C35.9955 30.8917 35.6613 31.2614 35.6571 31.7023ZM25.961 42.4364C25.9578 42.8762 26.2867 43.2392 26.6829 43.2359C27.0812 43.2315 27.4153 42.8608 27.4185 42.421C27.4227 41.9812 27.0948 41.6182 26.6966 41.6215C26.2993 41.6259 25.9652 41.9966 25.961 42.4364ZM26.0051 37.1554C26.002 37.5963 26.3309 37.9594 26.7281 37.9561C27.1253 37.9506 27.4595 37.581 27.4637 37.1412C27.4668 36.7014 27.1379 36.3372 26.7407 36.3405C26.3435 36.346 26.0093 36.7156 26.0051 37.1554ZM23.5766 34.4672C23.5735 34.9081 23.9024 35.2712 24.2996 35.2679C24.6968 35.2624 25.031 34.8928 25.0352 34.453C25.0383 34.0121 24.7094 33.649 24.3122 33.6523C23.915 33.6578 23.5808 34.0274 23.5766 34.4672ZM30.776 37.1072C30.7728 37.5459 31.1017 37.91 31.4989 37.9056C31.8962 37.9012 32.2303 37.5316 32.2345 37.0918C32.2377 36.6509 31.9088 36.2879 31.5116 36.2923C31.1143 36.2966 30.7802 36.6663 30.776 37.1061V37.1072ZM28.4126 34.4892C28.4094 34.929 28.7384 35.292 29.1356 35.2887C29.5328 35.2843 29.867 34.9136 29.8712 34.4738C29.8743 34.034 29.5454 33.671 29.1492 33.6743C28.751 33.6786 28.4168 34.0483 28.4137 34.4892H28.4126ZM25.9841 31.8032C25.9809 32.2419 26.3099 32.606 26.7071 32.6016C27.1043 32.5983 27.4385 32.2287 27.4427 31.7878C27.4458 31.348 27.1169 30.9839 26.7197 30.9883C26.3225 30.9926 25.9883 31.3623 25.9841 31.8021V31.8032ZM28.3685 39.7712C28.3653 40.211 28.6942 40.5752 29.0904 40.5708C29.4887 40.5664 29.8228 40.1968 29.826 39.757C29.8302 39.3161 29.5023 38.953 29.1041 38.9563C28.7068 38.9607 28.3727 39.3314 28.3685 39.7712ZM33.2507 34.3663C33.2476 34.8072 33.5754 35.1703 33.9726 35.167C34.3709 35.1615 34.7051 34.7919 34.7082 34.3521C34.7124 33.9112 34.3835 33.5481 33.9863 33.5525C33.5891 33.5569 33.2549 33.9265 33.2507 34.3663ZM30.8873 31.7516C30.8842 32.1903 31.2121 32.5545 31.6093 32.5512C32.0076 32.5468 32.3417 32.1761 32.3449 31.7363C32.3491 31.2965 32.0202 30.9323 31.6229 30.9367C31.2257 30.9411 30.8905 31.3107 30.8873 31.7516Z" fill="#0A3B3C"/>
<path id="Vector_12" d="M35.6582 31.7023C35.6551 32.1421 35.9829 32.5051 36.3802 32.5018C36.7784 32.4974 37.1126 32.1267 37.1157 31.6869C37.12 31.2471 36.791 30.8841 36.3938 30.8874C35.9966 30.8917 35.6624 31.2614 35.6582 31.7023ZM18.8058 34.5155C18.8016 34.9542 19.1294 35.3183 19.5277 35.3139C19.9249 35.3095 20.2591 34.9399 20.2633 34.5001C20.2665 34.0592 19.9386 33.6962 19.5414 33.6995C19.1431 33.7039 18.8089 34.0746 18.8058 34.5144V34.5155ZM23.5976 39.8184C23.5934 40.2582 23.9224 40.6223 24.3196 40.6179C24.7168 40.6135 25.052 40.2439 25.0552 39.8041C25.0583 39.3632 24.7305 39.0002 24.3332 39.0035C23.936 39.0079 23.6008 39.3786 23.5976 39.8184ZM21.1691 37.1302C21.166 37.57 21.4938 37.9341 21.8911 37.9297C22.2883 37.9254 22.6235 37.5557 22.6267 37.1148C22.6309 36.6761 22.3019 36.312 21.9047 36.3153C21.5075 36.3197 21.1723 36.6904 21.1691 37.1302ZM16.4424 31.8986C16.4382 32.3395 16.7671 32.7025 17.1644 32.6992C17.5616 32.6937 17.8968 32.3241 17.8999 31.8843C17.9042 31.4434 17.5752 31.0804 17.178 31.0848C16.7808 31.0892 16.4456 31.4588 16.4424 31.8986ZM21.2133 31.8503C21.2091 32.289 21.538 32.6532 21.9352 32.6488C22.3324 32.6455 22.6666 32.2759 22.6708 31.835C22.6739 31.3952 22.3461 31.031 21.9489 31.0354C21.5506 31.0398 21.2164 31.4094 21.2133 31.8492V31.8503ZM25.961 42.4364C25.9568 42.8762 26.2857 43.2392 26.6829 43.2359C27.0802 43.2315 27.4154 42.8608 27.4185 42.421C27.4227 41.9812 27.0938 41.6182 26.6966 41.6215C26.2983 41.6259 25.9642 41.9966 25.961 42.4364ZM26.0051 37.1554C26.0009 37.5963 26.3298 37.9594 26.7271 37.9561C27.1243 37.9506 27.4595 37.581 27.4627 37.1412C27.4669 36.7014 27.138 36.3372 26.7407 36.3405C26.3435 36.346 26.0083 36.7156 26.0051 37.1554ZM23.5766 34.4672C23.5735 34.9081 23.9013 35.2712 24.2986 35.2679C24.6958 35.2624 25.031 34.8928 25.0342 34.453C25.0384 34.0121 24.7094 33.649 24.3122 33.6523C23.915 33.6578 23.5798 34.0274 23.5766 34.4672Z" fill="#0A3B3C"/>
<path id="Vector_13" d="M16.4424 31.8986C16.4382 32.3395 16.7671 32.7025 17.1644 32.6992C17.5616 32.6937 17.8968 32.3241 17.8999 31.8843C17.9042 31.4434 17.5752 31.0804 17.178 31.0848C16.7808 31.0892 16.4456 31.4588 16.4424 31.8986ZM37.6212 66.3C37.618 66.7387 37.947 67.1028 38.3431 67.0985C38.7414 67.0952 39.0756 66.7255 39.0787 66.2846C39.0829 65.8448 38.7551 65.4807 38.3568 65.4851C37.9596 65.4895 37.6254 65.8591 37.6212 66.3ZM42.5245 66.2484C42.5203 66.6883 42.8492 67.0513 43.2464 67.048C43.6436 67.0436 43.9778 66.6729 43.982 66.2331C43.9862 65.7933 43.6573 65.4303 43.26 65.4335C42.8618 65.4379 42.5276 65.8086 42.5245 66.2484ZM40.0959 63.5603C40.0928 63.999 40.4207 64.3631 40.8179 64.3598C41.2151 64.3554 41.5503 63.9847 41.5535 63.5449C41.5577 63.1051 41.2288 62.741 40.8315 62.7454C40.4343 62.7497 40.0991 63.1194 40.0959 63.5603ZM32.8493 66.3472C32.8462 66.7859 33.1751 67.15 33.5723 67.1456C33.9695 67.1423 34.3037 66.7727 34.3079 66.3318C34.311 65.892 33.9821 65.5279 33.5849 65.5323C33.1877 65.5366 32.8535 65.9063 32.8493 66.3472ZM30.487 63.7314C30.4828 64.1712 30.8107 64.5342 31.2089 64.5309C31.6061 64.5265 31.9403 64.1558 31.9445 63.716C31.9477 63.2762 31.6198 62.9132 31.2226 62.9165C30.8243 62.9208 30.4901 63.2916 30.487 63.7314ZM35.2568 63.682C35.2536 64.1218 35.5826 64.4848 35.9798 64.4816C36.377 64.4772 36.7112 64.1065 36.7154 63.6666C36.7185 63.2268 36.3896 62.8638 35.9924 62.8682C35.5952 62.8715 35.261 63.2411 35.2568 63.682Z" fill="#0A3B3C"/>
<path id="Vector_14" d="M37.6202 66.3C37.6171 66.7387 37.946 67.1028 38.3432 67.0985C38.7404 67.0952 39.0757 66.7256 39.0788 66.2846C39.082 65.8448 38.7541 65.4807 38.3569 65.4851C37.9597 65.4895 37.6244 65.8591 37.6213 66.3H37.6202ZM23.3077 66.4459C23.3045 66.8846 23.6334 67.2487 24.0307 67.2443C24.4279 67.241 24.7631 66.8714 24.7663 66.4305C24.7705 65.9907 24.4416 65.6266 24.0443 65.631C23.5799 65.7088 23.3119 66.005 23.3087 66.4448L23.3077 66.4459ZM28.0785 66.3965C28.0754 66.8352 28.4043 67.1994 28.8015 67.195C29.1987 67.1917 29.534 66.8221 29.5371 66.3812C29.5413 65.9414 29.2124 65.5772 28.8152 65.5816C28.418 65.586 28.0827 65.9556 28.0796 66.3954L28.0785 66.3965ZM20.8802 63.7566C20.876 64.1964 21.2039 64.5605 21.6022 64.5572C21.9994 64.5517 22.3336 64.1821 22.3378 63.7423C22.3409 63.3014 22.013 62.9384 21.6158 62.9417C21.1513 63.0206 20.8834 63.3168 20.8802 63.7566ZM25.7162 63.7807C25.712 64.2205 26.0409 64.5835 26.4382 64.5803C26.8354 64.5759 27.1706 64.2052 27.1738 63.7654C27.178 63.3255 26.849 62.9625 26.4518 62.9658C26.0546 62.9702 25.7194 63.3409 25.7162 63.7807ZM30.4871 63.7314C30.4829 64.1712 30.8118 64.5342 31.209 64.5309C31.6062 64.5265 31.9415 64.1558 31.9446 63.716C31.9488 63.2762 31.6199 62.9132 31.2227 62.9165C30.8254 62.9208 30.4902 63.2916 30.4871 63.7314ZM13.6346 66.5435C13.6315 66.9844 13.9593 67.3474 14.3566 67.3441C14.7538 67.3386 15.089 66.969 15.0922 66.5292C15.0964 66.0883 14.7674 65.7253 14.3702 65.7286C13.973 65.7341 13.6388 66.1037 13.6346 66.5435ZM18.4055 66.4941C18.4013 66.935 18.7302 67.2981 19.1274 67.2948C19.5246 67.2893 19.8588 66.9197 19.863 66.4799C19.8662 66.0401 19.5383 65.6759 19.1411 65.6792C18.7439 65.6847 18.4086 66.0543 18.4055 66.4941ZM11.2713 63.9288C11.2671 64.3675 11.596 64.7316 11.9932 64.7272C12.3904 64.7239 12.7257 64.3543 12.7288 63.9134C12.733 63.4736 12.4041 63.1095 12.0069 63.1139C11.6097 63.1183 11.2755 63.4879 11.2713 63.9277V63.9288ZM16.0421 63.8794C16.0379 64.3181 16.3668 64.6823 16.7641 64.6779C17.1613 64.6746 17.4965 64.305 17.4997 63.8641C17.5039 63.4243 17.1749 63.0601 16.7777 63.0645C16.3805 63.0689 16.0453 63.4385 16.0421 63.8794Z" fill="#0A3B3C"/>
<path id="Vector_15" d="M20.8802 63.7555C20.876 64.1942 21.2039 64.5583 21.6022 64.5539C21.9994 64.5495 22.3336 64.1799 22.3378 63.7401C22.3409 63.2992 22.013 62.9362 21.6158 62.9395C21.1514 63.0185 20.8834 63.3146 20.8802 63.7544V63.7555ZM8.86379 66.5928C8.86064 67.0326 9.1885 67.3968 9.58572 67.3924C9.98294 67.388 10.3182 67.0184 10.3213 66.5786C10.3255 66.1377 9.99661 65.7746 9.59939 65.7779C9.20216 65.7834 8.868 66.153 8.86379 66.5928ZM11.2713 63.9288C11.2671 64.3675 11.596 64.7316 11.9932 64.7272C12.3904 64.7239 12.7257 64.3543 12.7288 63.9134C12.733 63.4736 12.4041 63.1095 12.0069 63.1139C11.6097 63.1183 11.2755 63.4879 11.2713 63.9277V63.9288ZM30.4871 63.7314C30.4829 64.1712 30.8118 64.5342 31.209 64.5309C31.6062 64.5265 31.9415 64.1558 31.9446 63.716C31.9488 63.2762 31.6199 62.9132 31.2227 62.9165C30.8255 62.9208 30.4902 63.2915 30.4871 63.7314ZM30.5312 58.4504C30.527 58.8913 30.8559 59.2543 31.2531 59.251C31.6504 59.2455 31.9856 58.8759 31.9887 58.4361C31.9929 57.9963 31.664 57.6322 31.2668 57.6355C30.8696 57.641 30.5344 58.0106 30.5312 58.4504ZM35.2579 63.682C35.2537 64.1218 35.5826 64.4848 35.9799 64.4815C36.3771 64.4772 36.7112 64.1065 36.7155 63.6666C36.7186 63.2268 36.3907 62.8638 35.9935 62.8682C35.5952 62.8715 35.2611 63.2411 35.2579 63.682ZM35.3693 58.3265C35.3651 58.7663 35.694 59.1304 36.0912 59.126C36.4885 59.1216 36.8226 58.752 36.8268 58.3111C36.83 57.8724 36.5021 57.5083 36.1049 57.5126C35.7066 57.5159 35.3725 57.8855 35.3693 58.3265ZM33.006 55.7106C33.0018 56.1515 33.3307 56.5146 33.7279 56.5113C34.1251 56.5058 34.4593 56.1362 34.4635 55.6964C34.4666 55.2566 34.1388 54.8924 33.7416 54.8957C33.3433 54.9012 33.0091 55.2708 33.006 55.7106ZM32.8946 61.0662C32.8904 61.506 33.2193 61.8701 33.6165 61.8657C34.0137 61.8614 34.3489 61.4917 34.3521 61.0519C34.3563 60.611 34.0274 60.248 33.6302 60.2513C33.2329 60.2557 32.8977 60.6264 32.8946 61.0662ZM37.7327 60.9423C37.7285 61.3821 38.0563 61.7451 38.4546 61.7418C38.8518 61.7374 39.186 61.3678 39.1902 60.9269C39.1933 60.4871 38.8644 60.1241 38.4672 60.1274C38.07 60.1317 37.7358 60.5024 37.7316 60.9423H37.7327ZM30.5764 53.0225C30.5732 53.4623 30.9022 53.8264 31.2994 53.822C31.6966 53.8176 32.0308 53.448 32.035 53.0082C32.0381 52.5673 31.7092 52.2043 31.312 52.2075C30.9148 52.2119 30.5806 52.5826 30.5764 53.0225Z" fill="#0A3B3C"/>
<path id="Vector_16" d="M20.8802 63.7555C20.876 64.1942 21.2039 64.5583 21.6022 64.5539C21.9994 64.5496 22.3336 64.1799 22.3378 63.7401C22.3409 63.2992 22.013 62.9362 21.6158 62.9395C21.1514 63.0185 20.8834 63.3146 20.8802 63.7544V63.7555ZM20.9244 58.4745C20.9202 58.9143 21.2491 59.2774 21.6463 59.2741C22.0435 59.2697 22.3787 58.9001 22.3819 58.4592C22.385 58.0194 22.0572 57.6563 21.66 57.6596C21.2627 57.664 20.9275 58.0347 20.9244 58.4745ZM25.7162 63.7774C25.712 64.2183 26.0409 64.5814 26.4382 64.5781C26.8354 64.5737 27.1706 64.203 27.1738 63.7632C27.178 63.3234 26.849 62.9603 26.4518 62.9636C26.0546 62.968 25.7194 63.3387 25.7162 63.7785V63.7774ZM25.6952 58.4252C25.691 58.865 26.0199 59.228 26.4171 59.2247C26.8144 59.2203 27.1496 58.8496 27.1527 58.4098C27.1569 57.97 26.828 57.607 26.4308 57.6114C26.0336 57.6146 25.6984 57.9843 25.6952 58.4252ZM23.3319 55.8094C23.3277 56.2492 23.6566 56.6133 24.0538 56.6089C24.451 56.6045 24.7862 56.2349 24.7894 55.7951C24.7925 55.3542 24.4647 54.9912 24.0675 54.9945C23.6702 54.9999 23.335 55.3695 23.3319 55.8094ZM23.2867 61.0903C23.2835 61.529 23.6124 61.8932 24.0097 61.8888C24.4069 61.8855 24.7421 61.5159 24.7452 61.075C24.7495 60.6352 24.4205 60.271 24.0233 60.2754C23.6261 60.2798 23.2909 60.6494 23.2877 61.0903H23.2867ZM28.1027 55.76C28.0985 56.1998 28.4274 56.5639 28.8246 56.5606C29.2219 56.5552 29.556 56.1855 29.5602 55.7457C29.5634 55.3048 29.2355 54.9418 28.8383 54.9451C28.44 54.9506 28.1059 55.3202 28.1027 55.76ZM28.1237 61.1134C28.1195 61.5532 28.4484 61.9173 28.8457 61.9129C29.2429 61.9085 29.5781 61.5389 29.5812 61.0991C29.5855 60.6582 29.2565 60.2952 28.8593 60.2985C28.4621 60.3028 28.1269 60.6735 28.1237 61.1134ZM20.9685 53.1936C20.9643 53.6345 21.2932 53.9975 21.6904 53.9942C22.0877 53.9887 22.4229 53.6191 22.426 53.1793C22.4292 52.7395 22.1013 52.3754 21.7041 52.3797C21.3069 52.3841 20.9717 52.7537 20.9685 53.1936ZM25.7394 53.1453C25.7351 53.584 26.063 53.9481 26.4613 53.9437C26.8585 53.9405 27.1927 53.5708 27.1969 53.1299C27.2 52.6901 26.8722 52.326 26.4749 52.3304C26.0767 52.3348 25.7425 52.7044 25.7394 53.1442V53.1453ZM30.4871 63.7292C30.4829 64.169 30.8118 64.532 31.209 64.5287C31.6062 64.5243 31.9415 64.1536 31.9446 63.7138C31.9488 63.274 31.6199 62.911 31.2227 62.9143C30.8255 62.9186 30.4902 63.2894 30.4871 63.7292ZM30.5312 58.4482C30.527 58.8891 30.8559 59.2521 31.2531 59.2488C31.6504 59.2445 31.9856 58.8737 31.9887 58.4339C31.9929 57.9941 31.664 57.63 31.2668 57.6344C30.8696 57.6388 30.5344 58.0084 30.5312 58.4482ZM30.5764 53.0203C30.5732 53.4601 30.9022 53.8242 31.2994 53.8198C31.6966 53.8154 32.0308 53.4458 32.035 53.006C32.0381 52.5651 31.7092 52.2021 31.312 52.2054C30.9148 52.2108 30.5806 52.5805 30.5764 53.0203ZM11.2713 63.9288C11.2671 64.3675 11.596 64.7316 11.9932 64.7272C12.3904 64.7239 12.7257 64.3543 12.7288 63.9134C12.733 63.4736 12.4041 63.1095 12.0069 63.1139C11.6097 63.1183 11.2755 63.4879 11.2713 63.9277V63.9288ZM16.0421 63.8794C16.039 64.3181 16.3668 64.6823 16.7641 64.6779C17.1613 64.6746 17.4965 64.305 17.4997 63.8641C17.5039 63.4243 17.1749 63.0601 16.7777 63.0645C16.3805 63.0689 16.0463 63.4385 16.0421 63.8794ZM16.1535 58.5239C16.1493 58.9637 16.4782 59.3267 16.8755 59.3234C17.2727 59.319 17.6079 58.9483 17.611 58.5085C17.6142 58.0687 17.2863 57.7057 16.8891 57.709C16.4246 57.7879 16.1567 58.0841 16.1535 58.5239ZM13.6788 61.2636C13.6756 61.7034 14.0035 62.0665 14.4007 62.0632C14.7979 62.0588 15.1331 61.6881 15.1363 61.2483C15.1405 60.8085 14.8116 60.4454 14.4144 60.4487C14.0171 60.4531 13.683 60.8238 13.6788 61.2636ZM18.561 55.8587C18.5568 56.2985 18.8857 56.6626 19.2829 56.6583C19.6802 56.6539 20.0154 56.2843 20.0185 55.8434C20.0217 55.4046 19.6938 55.0405 19.2966 55.0449C18.8994 55.0482 18.5642 55.4178 18.561 55.8587ZM18.5158 61.1397C18.5127 61.5784 18.8416 61.9425 19.2388 61.9381C19.636 61.9348 19.9702 61.5652 19.9744 61.1243C19.9776 60.6845 19.6486 60.3204 19.2525 60.3248C18.788 60.4026 18.52 60.6988 18.5169 61.1397H18.5158Z" fill="#0A3B3C"/>
<path id="Vector_17" d="M20.8802 63.7555C20.876 64.1942 21.2039 64.5583 21.6011 64.5539C21.9994 64.5496 22.3335 64.1799 22.3367 63.7401C22.3409 63.2992 22.013 62.9362 21.6147 62.9395C21.1503 63.0185 20.8834 63.3146 20.8792 63.7544L20.8802 63.7555ZM20.9243 58.4745C20.9201 58.9143 21.248 59.2774 21.6463 59.2741C22.0435 59.2697 22.3777 58.9001 22.3819 58.4592C22.385 58.0194 22.0561 57.6563 21.6599 57.6596C21.2617 57.664 20.9275 58.0347 20.9243 58.4745ZM20.9685 53.1935C20.9643 53.6345 21.2932 53.9975 21.6904 53.9942C22.0876 53.9887 22.4228 53.6191 22.426 53.1793C22.4292 52.7395 22.1013 52.3754 21.7041 52.3797C21.3068 52.3841 20.9716 52.7537 20.9685 53.1935ZM30.5764 53.0225C30.5732 53.4623 30.9021 53.8264 31.2994 53.822C31.6966 53.8176 32.0307 53.448 32.035 53.0082C32.0381 52.5673 31.7092 52.2043 31.312 52.2075C30.9147 52.2119 30.5806 52.5826 30.5764 53.0225Z" fill="#0A3B3C"/>
<path id="Vector_18" d="M20.9685 53.1936C20.9643 53.6345 21.2933 53.9975 21.6905 53.9942C22.0877 53.9887 22.4229 53.6191 22.4261 53.1793C22.4292 52.7395 22.1014 52.3754 21.7041 52.3797C21.3069 52.3841 20.9717 52.7537 20.9685 53.1936ZM25.7394 53.1453C25.7352 53.584 26.0641 53.9481 26.4613 53.9437C26.8585 53.9405 27.1938 53.5708 27.1969 53.1299C27.2001 52.6901 26.8722 52.326 26.475 52.3304C26.0778 52.3348 25.7425 52.7044 25.7394 53.1442V53.1453ZM25.8508 47.7897C25.8466 48.2285 26.1744 48.5926 26.5727 48.5882C26.9699 48.5849 27.3041 48.2153 27.3083 47.7744C27.3115 47.3346 26.9825 46.9716 26.5864 46.9748C26.1881 46.9792 25.8539 47.3488 25.8508 47.7897ZM23.376 50.5284C23.3718 50.9693 23.7007 51.3323 24.098 51.329C24.4952 51.3246 24.8304 50.9539 24.8336 50.5141C24.8367 50.0743 24.5088 49.7113 24.1116 49.7146C23.7144 49.719 23.3792 50.0886 23.376 50.5295V50.5284ZM28.2131 50.4056C28.2099 50.8443 28.5388 51.2084 28.9361 51.204C29.3333 51.1996 29.6675 50.83 29.6717 50.3902C29.6748 49.9493 29.3459 49.5863 28.9487 49.5906C28.5515 49.595 28.2173 49.9646 28.2131 50.4045V50.4056ZM30.5764 53.0203C30.5733 53.4601 30.9022 53.8242 31.2994 53.8198C31.6966 53.8154 32.0308 53.4458 32.035 53.006C32.0382 52.5651 31.7093 52.2021 31.312 52.2054C30.9148 52.2108 30.5806 52.5805 30.5764 53.0203ZM57.0588 55.3915C57.0546 55.8324 57.3825 56.1954 57.7808 56.1921C58.178 56.1866 58.5122 55.817 58.5164 55.3772C58.5195 54.9363 58.1906 54.5733 57.7944 54.5766C57.3962 54.5821 57.062 54.9517 57.0588 55.3915ZM47.3616 66.1256C47.3585 66.5665 47.6874 66.9296 48.0846 66.9263C48.4818 66.9208 48.816 66.5512 48.8202 66.1114C48.8234 65.6716 48.4944 65.3074 48.0983 65.3118C47.7 65.3162 47.3658 65.6858 47.3627 66.1256H47.3616ZM47.4058 60.8457C47.4026 61.2856 47.7315 61.6497 48.1287 61.6453C48.526 61.6409 48.8601 61.2713 48.8643 60.8304C48.8675 60.3917 48.5386 60.0276 48.1424 60.0308C47.7441 60.0352 47.41 60.4059 47.4068 60.8457H47.4058ZM44.9783 58.1576C44.9741 58.5974 45.303 58.9604 45.7002 58.9571C46.0975 58.9527 46.4327 58.582 46.4358 58.1422C46.44 57.7024 46.1111 57.3394 45.7139 57.3426C45.3156 57.347 44.9815 57.7177 44.9783 58.1576ZM52.1777 60.7964C52.1735 61.2362 52.5013 61.6003 52.8996 61.5959C53.2968 61.5916 53.631 61.2219 53.6352 60.781C53.6383 60.3423 53.3094 59.9782 52.9133 59.9826C52.515 59.9859 52.1808 60.3555 52.1777 60.7964ZM49.8143 58.1784C49.8101 58.6193 50.139 58.9823 50.5362 58.979C50.9335 58.9736 51.2687 58.6039 51.2718 58.1641C51.276 57.7243 50.9471 57.3602 50.5499 57.3635C50.1516 57.369 49.8175 57.7386 49.8143 58.1784ZM47.3858 55.4924C47.3816 55.9322 47.7105 56.2963 48.1077 56.2919C48.5049 56.2876 48.8402 55.9179 48.8433 55.4781C48.8475 55.0372 48.5186 54.6742 48.1214 54.6775C47.7231 54.6819 47.389 55.0526 47.3858 55.4924ZM49.7691 63.4616C49.766 63.9014 50.0949 64.2644 50.4921 64.26C50.8893 64.2567 51.2235 63.8871 51.2277 63.4462C51.2309 63.0064 50.9019 62.6434 50.5058 62.6466C50.1075 62.651 49.7733 63.0217 49.7702 63.4616H49.7691ZM54.6514 58.0566C54.6482 58.4965 54.9771 58.8606 55.3733 58.8562C55.7716 58.8518 56.1057 58.4822 56.1089 58.0413C56.1131 57.6026 55.7852 57.2385 55.3869 57.2428C54.9897 57.2461 54.6556 57.6157 54.6514 58.0566ZM52.288 55.4419C52.2848 55.8806 52.6138 56.2448 53.011 56.2404C53.4082 56.236 53.7424 55.8664 53.7466 55.4266C53.7497 54.9857 53.4208 54.6226 53.0236 54.6259C52.6264 54.6314 52.2922 55.001 52.288 55.4408V55.4419ZM49.8595 52.7526C49.8563 53.1925 50.1853 53.5566 50.5825 53.5522C50.9797 53.5478 51.3139 53.1782 51.3181 52.7384C51.3212 52.2975 50.9923 51.9345 50.5951 51.9377C50.1979 51.9421 49.8637 52.3128 49.8595 52.7526Z" fill="#0A3B3C"/>
<path id="Vector_19" d="M57.0588 55.3915C57.0557 55.8324 57.3846 56.1954 57.7808 56.1921C58.179 56.1867 58.5132 55.817 58.5164 55.3772C58.5206 54.9363 58.1927 54.5733 57.7944 54.5766C57.3972 54.5821 57.063 54.9517 57.0588 55.3915ZM40.2053 58.2047C40.2022 58.6445 40.5311 59.0076 40.9283 59.0043C41.3255 58.9999 41.6608 58.6292 41.6639 58.1894C41.6681 57.7496 41.3392 57.3865 40.942 57.3898C40.5448 57.3942 40.2095 57.7638 40.2064 58.2047H40.2053ZM44.9983 63.5087C44.9951 63.9485 45.323 64.3116 45.7202 64.3083C46.1174 64.3039 46.4526 63.9332 46.4558 63.4934C46.46 63.0536 46.1311 62.6894 45.7339 62.6938C45.3366 62.6982 45.0014 63.0689 44.9983 63.5087ZM42.5697 60.8205C42.5666 61.2592 42.8955 61.6234 43.2917 61.619C43.69 61.6157 44.0241 61.2461 44.0273 60.8052C44.0315 60.3654 43.7036 60.0012 43.3053 60.0056C42.9081 60.01 42.574 60.3796 42.5697 60.8205ZM37.843 55.5889C37.8399 56.0287 38.1678 56.3928 38.565 56.3885C38.9632 56.3841 39.2974 56.0145 39.3006 55.5736C39.3048 55.1348 38.9759 54.7707 38.5786 54.7751C38.1814 54.7784 37.8472 55.148 37.843 55.5889ZM42.6139 55.5406C42.6097 55.9794 42.9386 56.3435 43.3358 56.3391C43.733 56.3347 44.0683 55.9651 44.0714 55.5242C44.0756 55.0855 43.7467 54.7214 43.3495 54.7257C42.9523 54.729 42.617 55.0986 42.6139 55.5396V55.5406ZM47.3616 66.1256C47.3574 66.5665 47.6863 66.9296 48.0835 66.9263C48.4818 66.9208 48.816 66.5512 48.8191 66.1114C48.8233 65.6716 48.4944 65.3074 48.0972 65.3118C47.7 65.3162 47.3648 65.6858 47.3616 66.1256ZM47.4058 60.8457C47.4015 61.2856 47.7305 61.6497 48.1277 61.6453C48.526 61.6409 48.8601 61.2713 48.8633 60.8304C48.8675 60.3917 48.5386 60.0276 48.1413 60.0308C47.7441 60.0352 47.4089 60.4059 47.4058 60.8457ZM44.9772 58.1576C44.9741 58.5974 45.303 58.9604 45.7002 58.9571C46.0974 58.9527 46.4316 58.582 46.4358 58.1422C46.439 57.7024 46.1101 57.3394 45.7128 57.3427C45.3156 57.347 44.9814 57.7177 44.9772 58.1576Z" fill="#0A3B3C"/>
<path id="Vector_20" d="M57.0589 55.3915C57.0547 55.8324 57.3836 56.1954 57.7808 56.1921C58.1791 56.1866 58.5133 55.817 58.5164 55.3772C58.5206 54.9363 58.1917 54.5733 57.7945 54.5766C57.3973 54.5821 57.0631 54.9517 57.0589 55.3915ZM57.103 50.1116C57.0988 50.5514 57.4278 50.9155 57.825 50.9112C58.2232 50.9068 58.5574 50.5372 58.5606 50.0963C58.5648 49.6565 58.2359 49.2934 57.8386 49.2967C57.4414 49.3011 57.1072 49.6718 57.103 50.1116ZM54.6756 47.4234C54.6714 47.8632 54.9992 48.2263 55.3975 48.223C55.7947 48.2186 56.1289 47.8479 56.1331 47.4081C56.1363 46.9683 55.8073 46.6041 55.4101 46.6085C55.0129 46.6129 54.6787 46.9825 54.6745 47.4234H54.6756ZM59.5778 47.3719C59.5736 47.8117 59.9025 48.1747 60.2997 48.1714C60.6969 48.167 61.0322 47.7974 61.0353 47.3565C61.0395 46.9167 60.7106 46.5537 60.3134 46.557C59.8489 46.6359 59.5809 46.9321 59.5778 47.3719ZM57.1493 44.6826C57.1451 45.1235 57.474 45.4865 57.8712 45.4832C58.2695 45.4788 58.6036 45.1081 58.6068 44.6683C58.611 44.2285 58.2821 43.8655 57.8849 43.8688C57.4204 43.9466 57.1524 44.2428 57.1493 44.6837V44.6826ZM59.4674 52.7274C59.4632 53.1661 59.7911 53.5303 60.1883 53.5259C60.5855 53.5226 60.9208 53.153 60.9239 52.7121C60.9281 52.2723 60.5992 51.9081 60.202 51.9125C59.8048 51.9169 59.4706 52.2865 59.4664 52.7274H59.4674ZM59.5568 42.0185C59.5536 42.4583 59.8815 42.8225 60.2787 42.8181C60.677 42.8137 61.0111 42.4441 61.0143 42.0032C61.0185 41.5645 60.6896 41.2003 60.2924 41.2047C59.8951 41.208 59.5599 41.5776 59.5568 42.0185ZM47.4951 50.1346C47.492 50.5755 47.8209 50.9386 48.2181 50.9353C48.6153 50.9298 48.9495 50.5602 48.9537 50.1204C48.9569 49.6795 48.628 49.3165 48.2307 49.3197C47.8335 49.3252 47.4993 49.6948 47.4951 50.1346ZM52.2881 55.4386C52.2839 55.8796 52.6117 56.2426 53.01 56.2393C53.4072 56.2338 53.7414 55.8642 53.7456 55.4244C53.7487 54.9846 53.4198 54.6205 53.0236 54.6237C52.6254 54.6292 52.2912 54.9988 52.2881 55.4386ZM49.8595 52.7505C49.8553 53.1903 50.1843 53.5544 50.5815 53.55C50.9787 53.5456 51.3139 53.176 51.3171 52.7362C51.3202 52.2953 50.9924 51.9323 50.5951 51.9356C50.1979 51.9399 49.8627 52.3106 49.8595 52.7505ZM49.9037 47.4706C49.8995 47.9093 50.2273 48.2734 50.6256 48.2701C51.0228 48.2657 51.357 47.895 51.3612 47.4552C51.3644 47.0154 51.0354 46.6513 50.6382 46.6557C50.241 46.6601 49.9068 47.0297 49.9026 47.4706H49.9037ZM54.6955 52.7746C54.6913 53.2133 55.0192 53.5774 55.4175 53.573C55.8147 53.5697 56.1489 53.2001 56.1531 52.7592C56.1562 52.3194 55.8273 51.9553 55.4311 51.9597C55.0329 51.9641 54.6987 52.3337 54.6955 52.7746ZM52.267 50.0853C52.2628 50.5262 52.5918 50.8892 52.989 50.8859C53.3862 50.8816 53.7214 50.5108 53.7246 50.071C53.7288 49.6312 53.3999 49.2671 53.0026 49.2715C52.6044 49.2759 52.2702 49.6455 52.267 50.0853ZM47.5403 44.8548C47.5361 45.2946 47.864 45.6576 48.2623 45.6543C48.6595 45.6499 48.9936 45.2803 48.9979 44.8394C49.001 44.3996 48.6731 44.0366 48.2759 44.0399C47.8776 44.0443 47.5435 44.415 47.5403 44.8548ZM52.3112 44.8054C52.307 45.2452 52.6348 45.6094 53.0331 45.605C53.4303 45.6006 53.7645 45.231 53.7687 44.7901C53.7719 44.3514 53.4429 43.9872 53.0457 43.9905C52.6485 43.9949 52.3143 44.3656 52.3101 44.8054H52.3112Z" fill="#0A3B3C"/>
<path id="Vector_21" d="M57.0589 55.3915C57.0547 55.8324 57.3825 56.1954 57.7808 56.1921C58.178 56.1866 58.5122 55.817 58.5164 55.3772C58.5195 54.9363 58.1906 54.5733 57.7945 54.5766C57.3962 54.5821 57.062 54.9517 57.0589 55.3915ZM57.103 50.1116C57.0988 50.5514 57.4267 50.9155 57.8249 50.9112C58.2221 50.9068 58.5563 50.5372 58.5605 50.0963C58.5637 49.6565 58.2348 49.2934 57.8386 49.2967C57.4403 49.3011 57.1061 49.6718 57.103 50.1116ZM54.6745 47.4234C54.6703 47.8632 54.9992 48.2263 55.3964 48.223C55.7936 48.2186 56.1289 47.8479 56.132 47.4081C56.1362 46.9683 55.8073 46.6041 55.4101 46.6085C55.0118 46.6129 54.6776 46.9825 54.6745 47.4234ZM37.8431 55.5889C37.8399 56.0287 38.1678 56.3928 38.565 56.3885C38.9633 56.3841 39.2974 56.0145 39.3006 55.5735C39.3048 55.1348 38.9759 54.7707 38.5787 54.7751C38.1814 54.7784 37.8473 55.148 37.8431 55.5889ZM37.8872 50.309C37.884 50.7477 38.213 51.1119 38.6091 51.1075C39.0074 51.1042 39.3416 50.7346 39.3447 50.2937C39.3489 49.8539 39.02 49.4897 38.6228 49.4941C38.2256 49.4985 37.8914 49.8681 37.8872 50.309ZM42.6139 55.5406C42.6097 55.9794 42.9386 56.3435 43.3358 56.3391C43.7331 56.3347 44.0683 55.9651 44.0714 55.5242C44.0756 55.0855 43.7467 54.7214 43.3495 54.7257C42.9523 54.729 42.6171 55.0986 42.6139 55.5396V55.5406ZM42.658 50.2597C42.6549 50.6984 42.9828 51.0625 43.38 51.0581C43.7782 51.0548 44.1124 50.6852 44.1156 50.2443C44.1198 49.8045 43.7919 49.4404 43.3936 49.4448C42.9964 49.4492 42.6622 49.8188 42.658 50.2597ZM40.2947 47.6439C40.2915 48.0837 40.6205 48.4478 41.0166 48.4434C41.4149 48.439 41.7491 48.0694 41.7522 47.6285C41.7564 47.1887 41.4275 46.8257 41.0303 46.829C40.6331 46.8334 40.2989 47.2041 40.2947 47.6439ZM40.2506 52.9237C40.2474 53.3646 40.5753 53.7277 40.9725 53.7244C41.3708 53.7189 41.7049 53.3493 41.7081 52.9095C41.7123 52.4686 41.3844 52.1056 40.9861 52.1088C40.5889 52.1143 40.2548 52.4839 40.2506 52.9237ZM45.1328 47.5199C45.1286 47.9586 45.4575 48.3228 45.8547 48.3184C46.2519 48.3151 46.5872 47.9455 46.5903 47.5046C46.5945 47.0648 46.2656 46.7006 45.8684 46.705C45.4712 46.7094 45.1359 47.079 45.1328 47.5199ZM45.0214 52.8755C45.0172 53.3142 45.3461 53.6783 45.7433 53.6739C46.1406 53.6696 46.4758 53.2999 46.4789 52.8601C46.4831 52.4203 46.1542 52.0562 45.757 52.0606C45.3598 52.065 45.0246 52.4346 45.0214 52.8744V52.8755ZM37.8662 44.9557C37.862 45.3955 38.1909 45.7585 38.5881 45.7552C38.9853 45.7508 39.3206 45.3801 39.3237 44.9403C39.3279 44.5005 38.999 44.1364 38.6018 44.1408C38.2046 44.1452 37.8693 44.5148 37.8662 44.9557ZM42.7694 44.9041C42.7652 45.3439 43.0941 45.707 43.4914 45.7037C43.8896 45.6993 44.2238 45.3297 44.227 44.8888C44.2312 44.449 43.9023 44.0859 43.505 44.0892C43.1078 44.0936 42.7726 44.4643 42.7694 44.9041ZM47.4961 50.1368C47.4919 50.5777 47.8209 50.9408 48.2181 50.9375C48.6153 50.932 48.9495 50.5624 48.9537 50.1226C48.9568 49.6817 48.629 49.3186 48.2317 49.3219C47.8335 49.3274 47.4993 49.697 47.4961 50.1368ZM47.5403 44.8548C47.5361 45.2946 47.865 45.6576 48.2622 45.6543C48.6594 45.6499 48.9947 45.2803 48.9978 44.8394C49.002 44.3996 48.6731 44.0366 48.2759 44.0399C47.8787 44.0443 47.5434 44.415 47.5403 44.8548ZM33.0512 50.2827C33.048 50.7225 33.3759 51.0866 33.7731 51.0823C34.1714 51.0779 34.5056 50.7083 34.5087 50.2685C34.5129 49.8275 34.1851 49.4645 33.7868 49.4678C33.3896 49.4722 33.0554 49.8429 33.0512 50.2827ZM30.6878 47.6669C30.6847 48.1078 31.0126 48.4708 31.4098 48.4676C31.807 48.4621 32.1422 48.0925 32.1454 47.6526C32.1496 47.2117 31.8217 46.8487 31.4234 46.852C31.0262 46.8575 30.692 47.2271 30.6878 47.6669ZM35.4587 47.6175C35.4545 48.0585 35.7834 48.4215 36.1806 48.4182C36.5778 48.4127 36.9131 48.0431 36.9162 47.6033C36.9204 47.1635 36.5915 46.7994 36.1943 46.8037C35.7971 46.8081 35.4618 47.1777 35.4587 47.6175ZM35.4797 52.9709C35.4766 53.4118 35.8044 53.7748 36.2016 53.7716C36.5999 53.7661 36.9341 53.3965 36.9372 52.9566C36.9414 52.5168 36.6136 52.1527 36.2153 52.156C35.8181 52.1615 35.4839 52.5311 35.4797 52.9709ZM28.3245 45.0522C28.3213 45.4909 28.6502 45.855 29.0464 45.8506C29.4447 45.8474 29.7789 45.4777 29.782 45.0368C29.7862 44.597 29.4583 44.2329 29.0601 44.2373C28.6629 44.2417 28.3287 44.6113 28.3245 45.0522ZM33.0953 45.0028C33.0922 45.4416 33.42 45.8057 33.8173 45.8024C34.2155 45.798 34.5497 45.4273 34.5529 44.9875C34.5571 44.5477 34.2281 44.1836 33.8309 44.1879C33.4337 44.1923 33.0995 44.5619 33.0953 45.0028Z" fill="#0A3B3C"/>
<path id="Vector_22" d="M37.843 55.5889C37.8399 56.0287 38.1688 56.3928 38.566 56.3885C38.9632 56.3841 39.2974 56.0145 39.3016 55.5735C39.3048 55.1348 38.9759 54.7707 38.5786 54.7751C38.1814 54.7784 37.8472 55.148 37.843 55.5889ZM37.8872 50.309C37.884 50.7477 38.2129 51.1119 38.6102 51.1075C39.0074 51.1042 39.3415 50.7346 39.3458 50.2937C39.3489 49.8539 39.02 49.4897 38.6228 49.4941C38.2255 49.4985 37.8914 49.8681 37.8872 50.309ZM37.8662 44.9535C37.863 45.3933 38.1909 45.7563 38.5881 45.7519C38.9864 45.7486 39.3205 45.379 39.3237 44.9381C39.3279 44.4983 38.999 44.1353 38.6018 44.1386C38.2045 44.143 37.8704 44.5137 37.8662 44.9535ZM57.1923 39.4005C57.1891 39.8403 57.5181 40.2044 57.9142 40.2001C58.3125 40.1957 58.6467 39.8261 58.6498 39.3863C58.654 38.9454 58.3262 38.5823 57.9279 38.5856C57.5307 38.5911 57.1965 38.9607 57.1923 39.4005ZM59.5567 42.0163C59.5525 42.4561 59.8804 42.8203 60.2786 42.8159C60.6758 42.8115 61.01 42.4419 61.0142 42.001C61.0174 41.5623 60.6885 41.1981 60.2923 41.2025C59.894 41.2058 59.5599 41.5754 59.5567 42.0163ZM59.5998 36.7364C59.5966 37.1752 59.9255 37.5393 60.3217 37.5349C60.72 37.5316 61.0542 37.162 61.0573 36.7211C61.0615 36.2813 60.7336 35.9172 60.3354 35.9215C59.9382 35.9259 59.604 36.2955 59.5998 36.7364ZM57.2375 34.1206C57.2333 34.5604 57.5611 34.9235 57.9594 34.9202C58.3566 34.9158 58.6908 34.5451 58.695 34.1053C58.6982 33.6655 58.3692 33.3024 57.972 33.3057C57.5748 33.3101 57.2406 33.6808 57.2364 34.1206H57.2375ZM47.5403 44.8548C47.5361 45.2946 47.865 45.6576 48.2622 45.6543C48.6594 45.6499 48.9946 45.2803 48.9978 44.8394C49.002 44.3996 48.6731 44.0366 48.2759 44.0399C47.8786 44.0443 47.5434 44.415 47.5403 44.8548ZM47.5844 39.5749C47.5802 40.0136 47.9091 40.3777 48.3063 40.3734C48.7035 40.3701 49.0388 40.0004 49.0419 39.5595C49.0461 39.1197 48.7172 38.7556 48.32 38.76C47.9228 38.7644 47.5875 39.134 47.5844 39.5738V39.5749ZM52.3111 44.8054C52.3069 45.2452 52.6358 45.6094 53.033 45.605C53.4303 45.6006 53.7644 45.231 53.7686 44.7901C53.7718 44.3514 53.4439 43.9872 53.0467 43.9905C52.6495 43.9949 52.3143 44.3656 52.3111 44.8054ZM52.4225 39.451C52.4183 39.8897 52.7462 40.2538 53.1444 40.2494C53.5416 40.245 53.8758 39.8754 53.88 39.4356C53.8832 38.9947 53.5553 38.6317 53.1581 38.635C52.6936 38.7139 52.4256 39.0101 52.4225 39.4499V39.451ZM50.0591 36.8341C50.0549 37.275 50.3839 37.638 50.7811 37.6347C51.1783 37.6303 51.5125 37.2596 51.5167 36.8198C51.5198 36.38 51.192 36.0159 50.7947 36.0203C50.3303 36.0981 50.0623 36.3943 50.0591 36.8341ZM49.9477 42.1896C49.9446 42.6294 50.2725 42.9935 50.6697 42.9892C51.0669 42.9848 51.4021 42.6152 51.4053 42.1754C51.4095 41.7344 51.0806 41.3714 50.6833 41.3747C50.2861 41.3802 49.9509 41.7498 49.9477 42.1896ZM54.83 36.7858C54.8258 37.2245 55.1547 37.5886 55.5519 37.5843C55.9491 37.5799 56.2833 37.2114 56.2875 36.7705C56.2907 36.3306 55.9628 35.9665 55.5656 35.9709C55.1673 35.9753 54.8331 36.3449 54.83 36.7847V36.7858ZM54.7859 42.0679C54.7816 42.5077 55.1095 42.8707 55.5078 42.8674C55.905 42.863 56.2392 42.4923 56.2434 42.0525C56.2465 41.6127 55.9176 41.2497 55.5204 41.253C55.057 41.3319 54.789 41.6281 54.7848 42.0679H54.7859ZM47.6296 34.1459C47.6264 34.5868 47.9553 34.9498 48.3526 34.9454C48.7498 34.941 49.084 34.5714 49.0882 34.1316C49.0913 33.6907 48.7624 33.3277 48.3652 33.331C47.9018 33.4099 47.6338 33.7061 47.6296 34.1459ZM52.4666 34.17C52.4624 34.6098 52.7913 34.9728 53.1886 34.9695C53.5858 34.9652 53.92 34.5944 53.9242 34.1546C53.9284 33.7148 53.5994 33.3518 53.2022 33.3551C52.804 33.3595 52.4698 33.7291 52.4666 34.17Z" fill="#0A3B3C"/>
<path id="Vector_23" d="M57.1923 39.4027C57.1892 39.8425 57.5181 40.2066 57.9153 40.2023C58.3125 40.1979 58.6467 39.8283 58.6509 39.3884C58.654 38.9475 58.3251 38.5845 57.9279 38.5878C57.5307 38.5933 57.1965 38.9629 57.1923 39.4027ZM57.2375 34.1206C57.2333 34.5604 57.5622 34.9235 57.9594 34.9202C58.3567 34.9158 58.6908 34.5451 58.695 34.1053C58.6982 33.6655 58.3703 33.3024 57.9731 33.3057C57.5748 33.3101 57.2407 33.6808 57.2375 34.1206ZM37.8662 44.9535C37.863 45.3933 38.1909 45.7563 38.5881 45.7519C38.9864 45.7486 39.3206 45.379 39.3237 44.9381C39.3279 44.4983 38.999 44.1353 38.6018 44.1386C38.2046 44.143 37.8704 44.5137 37.8662 44.9535ZM37.9776 39.5979C37.9734 40.0377 38.3023 40.4019 38.6995 40.3975C39.0967 40.3931 39.4319 40.0235 39.4351 39.5826C39.4393 39.1428 39.1104 38.7797 38.7132 38.783C38.3159 38.7874 37.9807 39.1581 37.9776 39.5979ZM42.7694 44.9019C42.7652 45.3417 43.0941 45.7059 43.4914 45.7015C43.8896 45.6971 44.2238 45.3275 44.227 44.8866C44.2312 44.4468 43.9023 44.0837 43.505 44.087C43.1078 44.0914 42.7726 44.4621 42.7694 44.9019ZM42.7484 39.5486C42.7442 39.9884 43.0731 40.3525 43.4704 40.3481C43.8676 40.3437 44.2017 39.9741 44.2059 39.5332C44.2091 39.0945 43.8812 38.7304 43.484 38.7348C43.0857 38.7381 42.7516 39.1077 42.7484 39.5486ZM40.384 36.9328C40.3809 37.3726 40.7098 37.7367 41.107 37.7323C41.5042 37.7279 41.8394 37.3583 41.8426 36.9185C41.8468 36.4776 41.5179 36.1146 41.1207 36.1179C40.7234 36.1234 40.3882 36.493 40.3851 36.9328H40.384ZM40.3409 42.2137C40.3367 42.6535 40.6656 43.0166 41.0629 43.0133C41.4601 43.0089 41.7953 42.6382 41.7985 42.1984C41.8027 41.7586 41.4737 41.3944 41.0765 41.3988C40.6793 41.4032 40.3441 41.7728 40.3409 42.2137ZM45.1549 36.8845C45.1517 37.3232 45.4806 37.6874 45.8778 37.683C46.2751 37.6786 46.6092 37.309 46.6134 36.8692C46.6166 36.4283 46.2887 36.0652 45.8915 36.0685C45.4932 36.074 45.1591 36.4436 45.1559 36.8834L45.1549 36.8845ZM45.1759 42.2368C45.1727 42.6766 45.5016 43.0407 45.8989 43.0374C46.2971 43.0319 46.6313 42.6623 46.6345 42.2225C46.6387 41.7816 46.3097 41.4186 45.9125 41.4219C45.5153 41.4273 45.1801 41.797 45.1769 42.2368H45.1759ZM38.0217 34.3181C38.0175 34.7568 38.3464 35.1209 38.7436 35.1165C39.1409 35.1121 39.4761 34.7436 39.4792 34.3027C39.4824 33.8629 39.1545 33.4988 38.7573 33.5032C38.3601 33.5075 38.0249 33.8772 38.0217 34.317V34.3181ZM42.7926 34.2687C42.7884 34.7074 43.1173 35.0715 43.5145 35.0672C43.9117 35.0639 44.2459 34.6943 44.2501 34.2534C44.2532 33.8135 43.9254 33.4494 43.5281 33.4538C43.1299 33.4582 42.7957 33.8278 42.7926 34.2687ZM47.5403 44.8526C47.5361 45.2924 47.865 45.6554 48.2622 45.6521C48.6594 45.6477 48.9947 45.277 48.9978 44.8372C49.002 44.3974 48.6731 44.0344 48.2759 44.0388C47.8787 44.0421 47.5434 44.4117 47.5403 44.8526ZM47.5844 39.5716C47.5802 40.0125 47.9091 40.3755 48.3064 40.3723C48.7036 40.3679 49.0388 39.9972 49.0419 39.5574C49.0461 39.1175 48.7172 38.7534 48.32 38.7578C47.9228 38.7622 47.5876 39.1318 47.5844 39.5716ZM47.6296 34.1437C47.6265 34.5835 47.9554 34.9476 48.3526 34.9443C48.7498 34.9388 49.084 34.5692 49.0882 34.1294C49.0913 33.6885 48.7624 33.3255 48.3652 33.3288C47.9018 33.4077 47.6338 33.7039 47.6296 34.1437ZM28.3245 45.0522C28.3213 45.4909 28.6492 45.855 29.0464 45.8506C29.4447 45.8474 29.7789 45.4777 29.782 45.0368C29.7862 44.597 29.4573 44.2329 29.0601 44.2373C28.6629 44.2417 28.3287 44.6113 28.3245 45.0522ZM33.0953 45.0028C33.0922 45.4415 33.42 45.8057 33.8173 45.8024C34.2155 45.798 34.5497 45.4273 34.5529 44.9875C34.5571 44.5477 34.2281 44.1835 33.8309 44.1879C33.4337 44.1923 33.0995 44.5619 33.0953 45.0028ZM33.1395 39.7219C33.1363 40.1617 33.4642 40.5258 33.8614 40.5214C34.2597 40.517 34.5938 40.1474 34.597 39.7076C34.6012 39.2667 34.2723 38.9037 33.8751 38.907C33.4778 38.9124 33.1437 39.2821 33.1395 39.7219ZM30.732 42.387C30.7288 42.8268 31.0567 43.1899 31.4539 43.1866C31.8522 43.1822 32.1863 42.8126 32.1895 42.3717C32.1937 41.9319 31.8648 41.5688 31.4676 41.5721C31.0703 41.5765 30.7362 41.9472 30.732 42.387ZM35.6132 36.9832C35.61 37.4219 35.9389 37.7861 36.3361 37.7817C36.7334 37.7773 37.0686 37.4077 37.0717 36.9679C37.0759 36.527 36.747 36.1639 36.3498 36.1672C35.9515 36.1716 35.6174 36.5423 35.6142 36.9821L35.6132 36.9832ZM35.5028 42.3377C35.4997 42.7775 35.8275 43.1416 36.2248 43.1372C36.623 43.1328 36.9572 42.7632 36.9604 42.3223C36.9646 41.8836 36.6367 41.5195 36.2384 41.5228C35.8412 41.5272 35.507 41.8979 35.5028 42.3377Z" fill="#0A3B3C"/>
<path id="Vector_24" d="M37.866 44.9535C37.8618 45.3933 38.1907 45.7563 38.5879 45.7519C38.9852 45.7486 39.3204 45.379 39.3235 44.9381C39.3277 44.4983 38.9988 44.1353 38.6016 44.1386C38.2044 44.143 37.8692 44.5137 37.866 44.9535ZM37.9774 39.5979C37.9732 40.0377 38.3011 40.4019 38.6993 40.3975C39.0965 40.3931 39.4307 40.0235 39.4349 39.5826C39.4381 39.1428 39.1102 38.7797 38.713 38.783C38.3147 38.7874 37.9805 39.1581 37.9774 39.5979ZM38.0215 34.3181C38.0173 34.7568 38.3462 35.1209 38.7435 35.1165C39.1407 35.1121 39.4759 34.7436 39.4791 34.3027C39.4822 33.8629 39.1543 33.4988 38.7571 33.5032C38.3599 33.5075 38.0247 33.8772 38.0215 34.317V34.3181ZM57.2373 34.1206C57.2331 34.5604 57.562 34.9235 57.9593 34.9202C58.3565 34.9158 58.6906 34.5451 58.6949 34.1053C58.698 33.6655 58.3701 33.3024 57.9729 33.3057C57.5746 33.3101 57.2405 33.6808 57.2373 34.1206ZM47.6294 34.1437C47.6263 34.5835 47.9552 34.9476 48.3524 34.9443C48.7496 34.9388 49.0838 34.5692 49.088 34.1294C49.0912 33.6885 48.7622 33.3255 48.365 33.3288C47.9016 33.4077 47.6336 33.7039 47.6294 34.1437ZM52.4665 34.1678C52.4623 34.6076 52.7912 34.9706 53.1884 34.9674C53.5856 34.963 53.9198 34.5923 53.924 34.1524C53.9282 33.7126 53.5993 33.3496 53.2021 33.3529C52.8038 33.3573 52.4696 33.7269 52.4665 34.1678Z" fill="#0A3B3C"/>
<path id="Vector_25" d="M57.2373 34.1184C57.2331 34.5583 57.562 34.9213 57.9593 34.918C58.3565 34.9136 58.6906 34.5429 58.6949 34.1031C58.698 33.6633 58.3701 33.3003 57.9729 33.3035C57.5746 33.3079 57.2405 33.6786 57.2373 34.1184ZM38.0215 34.3181C38.0173 34.7568 38.3462 35.1209 38.7435 35.1165C39.1407 35.1121 39.4759 34.7436 39.4791 34.3027C39.4822 33.8629 39.1543 33.4988 38.7571 33.5032C38.3599 33.5075 38.0247 33.8772 38.0215 34.317V34.3181ZM42.7924 34.2687C42.7882 34.7074 43.1171 35.0715 43.5143 35.0672C43.9115 35.0639 44.2467 34.6943 44.2499 34.2534C44.2541 33.8135 43.9252 33.4494 43.528 33.4538C43.1307 33.4582 42.7955 33.8278 42.7924 34.2687ZM47.6294 34.1437C47.6263 34.5835 47.9541 34.9476 48.3514 34.9443C48.7496 34.9388 49.0838 34.5692 49.087 34.1294C49.0912 33.6885 48.7622 33.3255 48.365 33.3288C47.9005 33.4077 47.6336 33.7039 47.6294 34.1437ZM58.2672 65.1747C58.263 65.6145 58.5919 65.9787 58.9891 65.9743C59.3863 65.9699 59.7205 65.6003 59.7247 65.1605C59.7278 64.7196 59.4 64.3565 59.0027 64.3598C58.6045 64.3653 58.2703 64.7349 58.2672 65.1747ZM60.6746 62.5107C60.6704 62.9494 60.9994 63.3135 61.3966 63.3091C61.7938 63.3058 62.128 62.9362 62.1322 62.4953C62.1353 62.0555 61.8075 61.6914 61.4102 61.6957C61.012 61.7001 60.6778 62.0697 60.6746 62.5107ZM60.6305 67.7905C60.6263 68.2303 60.9552 68.5945 61.3524 68.5901C61.7497 68.5857 62.0838 68.2161 62.088 67.7752C62.0912 67.3365 61.7633 66.9723 61.3661 66.9767C60.9689 66.98 60.6337 67.3496 60.6305 67.7905ZM58.3113 59.8948C58.3071 60.3347 58.635 60.6977 59.0332 60.6944C59.4304 60.69 59.7646 60.3193 59.7688 59.8795C59.772 59.4397 59.4441 59.0767 59.0469 59.0799C58.6486 59.0843 58.3144 59.455 58.3113 59.8948ZM53.4963 65.2252C53.4921 65.6639 53.821 66.028 54.2182 66.0236C54.6155 66.0192 54.9496 65.6496 54.9538 65.2098C54.957 64.7689 54.6291 64.4059 54.2319 64.4092C53.7674 64.4881 53.4995 64.7843 53.4963 65.2241V65.2252ZM51.0216 67.9638C51.0174 68.4036 51.3463 68.7677 51.7435 68.7634C52.1407 68.759 52.4759 68.3894 52.4791 67.9496C52.4833 67.5087 52.1544 67.1456 51.7572 67.1489C51.3599 67.1544 51.0247 67.524 51.0216 67.9638ZM55.9038 62.56C55.8996 62.9987 56.2285 63.3628 56.6257 63.3585C57.023 63.3541 57.3571 62.9856 57.3613 62.5447C57.3645 62.1048 57.0366 61.7407 56.6394 61.7451C56.2411 61.7495 55.907 62.1191 55.9038 62.5589V62.56ZM55.8597 67.8399C55.8555 68.2797 56.1833 68.6438 56.5816 68.6394C56.9788 68.635 57.313 68.2654 57.3172 67.8245C57.3203 67.3847 56.9914 67.0217 56.5942 67.025C56.1297 67.1039 55.8628 67.4001 55.8586 67.8399H55.8597Z" fill="#0A3B3C"/>
<path id="Vector_26" d="M58.2661 65.1747C58.263 65.6145 58.5919 65.9786 58.9891 65.9743C59.3863 65.9699 59.7205 65.6003 59.7247 65.1605C59.7279 64.7195 59.399 64.3565 59.0017 64.3598C58.6045 64.3653 58.2703 64.7349 58.2661 65.1747ZM58.3113 59.8948C58.3071 60.3346 58.635 60.6977 59.0333 60.6944C59.4305 60.69 59.7646 60.3193 59.7688 59.8795C59.772 59.4397 59.4441 59.0766 59.0469 59.0799C58.6486 59.0843 58.3145 59.455 58.3113 59.8948Z" fill="#0A3B3C"/>
<path id="Vector_27" d="M58.3113 59.8948C58.3071 60.3346 58.635 60.6977 59.0332 60.6944C59.4305 60.69 59.7646 60.3193 59.7688 59.8795C59.772 59.4397 59.4441 59.0766 59.0469 59.0799C58.6486 59.0843 58.3145 59.455 58.3113 59.8948ZM60.7178 57.2297C60.7146 57.6695 61.0435 58.0336 61.4407 58.0292C61.838 58.0248 62.1721 57.6552 62.1763 57.2143C62.1795 56.7756 61.8516 56.4115 61.4544 56.4159C61.0561 56.4192 60.722 56.7888 60.7188 57.2297H60.7178Z" fill="#0A3B3C"/>
</g>
</g>
</g>
</svg>
